<svg xmlns="http://www.w3.org/2000/svg">
<defs>
<font id="Halogen-Light" horiz-adv-x="1712" >
  <font-face 
    font-family="Halogen Light"
    font-weight="300"
    font-stretch="normal"
    units-per-em="2048"
    panose-1="2 0 0 0 0 0 0 0 0 0"
    ascent="1536"
    descent="-512"
    x-height="1075"
    cap-height="1434"
    bbox="-324 -737 3680 1976"
    underline-thickness="102"
    underline-position="-204"
    unicode-range="U+000D-FB04"
  />
<missing-glyph horiz-adv-x="1024" 
d="M82 96v33q-31 14 -31 49q0 22 14.5 36.5t36.5 16.5q32 97 105 169.5t170 103.5v10v8q-97 32 -170 105t-105 170q-22 0 -36.5 15.5t-14.5 37.5q0 33 31 47v35v33q-31 14 -31 49q0 22 14.5 36.5t36.5 16.5q32 96 105 168t170 104q0 22 15.5 38t37.5 16q32 0 47 -33
q12 2 35 2t33 -2q6 14 20 23.5t29 9.5q21 0 36 -16t17 -38q97 -32 169 -103.5t104 -168.5q22 -2 37.5 -17t15.5 -36q0 -15 -9.5 -29t-23.5 -20q2 -10 2 -33t-2 -35q33 -15 33 -47q0 -22 -15.5 -37.5t-37.5 -15.5q-32 -97 -105 -170t-170 -105q2 -2 2 -8t-2 -10
q97 -31 170 -103.5t105 -169.5q22 -2 37.5 -17t15.5 -36q0 -15 -9.5 -29t-23.5 -20q2 -10 2 -33t-2 -35q33 -15 33 -47q0 -21 -15.5 -36t-37.5 -17q-32 -97 -104 -168.5t-169 -103.5q-2 -22 -17 -38t-36 -16q-15 0 -29 9.5t-20 23.5q-10 -2 -33 -2t-35 2q-15 -33 -47 -33
q-22 0 -37.5 16t-15.5 38q-97 32 -170 104t-105 168q-22 2 -36.5 16.5t-14.5 36.5q0 33 31 47v35zM866 178q0 32 29 47q-31 91 -99 159t-159 97q-17 -20 -43 -20q-19 0 -34 11t-19 28h-60q-5 -17 -18.5 -28t-32.5 -11q-26 0 -43 20q-92 -29 -160.5 -97t-99.5 -159
q31 -14 31 -47q0 -22 -15 -36.5t-37 -16.5v-29v-28q22 -2 37 -17t15 -37q0 -33 -31 -47q31 -89 98 -156t156 -98q18 29 49 29q20 0 36 -14.5t17 -34.5q8 -2 29 -2q19 0 29 2q2 21 17 35t36 14q32 0 47 -29q89 31 156 98t98 156q-29 15 -29 47q0 22 14.5 37t34.5 17
q3 12 3 28q0 14 -3 29q-21 2 -35 17t-14 36zM158 1014q0 -22 -15 -36.5t-37 -16.5v-29v-29q22 -1 37 -17t15 -36q0 -32 -31 -49q31 -91 99.5 -158t160.5 -98q16 22 43 22q18 0 32 -11.5t19 -29.5h60q5 17 19.5 29t33.5 12q27 0 43 -22q91 31 159 98.5t99 157.5

<glyph glyph-name="f_f" unicode="ff" horiz-adv-x="1449" 
d="M1042 1085v-10h320v-102h-320v-973h-120v973h-605v-973h-120v973h-144v102h144v10q0 107 19 181.5t56.5 117.5t86 61.5t114.5 18.5q71 0 197 -28v-99q-103 25 -164 25q-101 0 -145 -67.5t-44 -209.5v-10h605v10q0 107 19 181.5t56.5 117.5t86 61.5t114.5 18.5
q71 0 197 -28v-99q-103 25 -164 25q-101 0 -145 -67.5t-44 -209.5z" />
    <glyph glyph-name="f_i" unicode="fi" horiz-adv-x="1198" 
d="M1022 0h-121v973h-584v-973h-120v973h-144v102h144v10q0 107 19 181.5t56.5 117.5t86 61.5t114.5 18.5q71 0 197 -28v-99q-103 25 -164 25q-101 0 -145 -67.5t-44 -209.5v-10h584l121 10v-1085zM1022 1204h-121v246h121v-246z" />
    <glyph glyph-name="f_l" unicode="fl" horiz-adv-x="1142" 
d="M874 0v1358q-178 24 -278 24q-84 0 -139 -18.5t-85.5 -58.5t-42.5 -91.5t-12 -128.5v-10h275v-102h-275v-973h-120v973h-144v102h144v10q0 219 82 305.5t278 86.5q125 0 317 -29l121 16v-1464h-121z" />
    <glyph glyph-name="f_f_i" unicode="ffi" horiz-adv-x="1923" 
d="M1747 0h-121v973h-584v-973h-120v973h-605v-973h-120v973h-144v102h144v10q0 107 19 181.5t56.5 117.5t86 61.5t114.5 18.5q71 0 197 -28v-99q-103 25 -164 25q-101 0 -145 -67.5t-44 -209.5v-10h605v10q0 107 19 181.5t56.5 117.5t86 61.5t114.5 18.5q71 0 197 -28v-99
q-103 25 -164 25q-101 0 -145 -67.5t-44 -209.5v-10h584l121 10v-1085zM1747 1204h-121v246h121v-246z" />
    <glyph glyph-name="f_f_l" unicode="ffl" horiz-adv-x="1867" 
d="M1718 0h-121v1358q-178 24 -276 24q-84 0 -139 -18.5t-85.5 -58.5t-42.5 -91.5t-12 -128.5v-10h275v-102h-275v-973h-120v973h-605v-973h-120v973h-144v102h144v10q0 107 19 181.5t56.5 117.5t86 61.5t114.5 18.5q71 0 197 -28v-99q-103 25 -164 25q-101 0 -145 -67.5
t-44 -209.5v-10h605v10q0 219 82 305.5t278 86.5q123 0 315 -29l121 16v-1464z" />
    <glyph glyph-name="f_b" unicode="fb" horiz-adv-x="2455" 
d="M860 0v1358q-178 24 -264 24q-84 0 -139 -18.5t-85.5 -58.5t-42.5 -91.5t-12 -128.5v-10h275v-102h-275v-973h-120v973h-144v102h144v10q0 219 82 305.5t278 86.5q111 0 303 -29l121 16v-338l-2 -163l2 -2q134 65 321 105t359 40t306.5 -42t220 -118t129.5 -178t44 -225
q0 -125 -45 -230.5t-129.5 -182t-212.5 -119t-286 -42.5q-217 0 -400.5 73.5t-310.5 188.5l-2 -2l-8 -229h-107zM1651 993q-162 0 -349 -38t-321 -95v-514q106 -111 295.5 -187.5t400.5 -76.5q267 0 414 126.5t147 332.5q0 204 -149.5 328t-437.5 124z" />
    <glyph glyph-name="f_f_b" unicode="ffb" horiz-adv-x="3180" 
d="M1321 1382q-84 0 -139 -18.5t-85.5 -58.5t-42.5 -91.5t-12 -128.5v-10h275v-102h-275v-973h-120v973h-605v-973h-120v973h-144v102h144v10q0 107 19 181.5t56.5 117.5t86 61.5t114.5 18.5q71 0 197 -28v-99q-103 25 -164 25q-101 0 -145 -67.5t-44 -209.5v-10h605v10
q0 219 82 305.5t278 86.5q111 0 303 -29l121 16v-338l-2 -163l2 -2q134 65 320.5 105t357.5 40q173 0 308 -42t220.5 -118t129.5 -178t44 -225q0 -125 -45 -230.5t-129.5 -182t-212.5 -119t-286 -42.5q-217 0 -401.5 74t-309.5 188l-2 -2l-8 -229h-107v1358q-178 24 -264 24
zM2376 993q-162 0 -350 -38t-320 -95v-514q104 -111 294.5 -187.5t401.5 -76.5q267 0 414 126.5t147 332.5q0 204 -149.5 328t-437.5 124z" />
    <glyph glyph-name="f_f_f" unicode="fff" horiz-adv-x="2174" 
d="M1767 1085v-10h318v-102h-318v-973h-120v973h-605v-973h-120v973h-605v-973h-120v973h-144v102h144v10q0 107 19 181.5t56.5 117.5t86 61.5t114.5 18.5q71 0 197 -28v-99q-103 25 -164 25q-101 0 -145 -67.5t-44 -209.5v-10h605v10q0 107 19 181.5t56.5 117.5t86 61.5
t114.5 18.5q71 0 197 -28v-99q-103 25 -164 25q-101 0 -145 -67.5t-44 -209.5v-10h605v10q0 107 19 181.5t56.5 117.5t86 61.5t114.5 18.5q71 0 197 -28v-99q-103 25 -166 25q-99 0 -143 -67.5t-44 -209.5z" />
    <glyph glyph-name="f_h" unicode="fh" horiz-adv-x="2435" 
d="M2179 0v545q0 99 -31 178.5t-94.5 141t-170.5 95t-251 33.5q-274 0 -651 -131v-862h-121v1358q-178 24 -264 24q-84 0 -139 -18.5t-85.5 -58.5t-42.5 -91.5t-12 -128.5v-10h275v-102h-275v-973h-120v973h-144v102h144v10q0 219 82 305.5t278 86.5q111 0 303 -29l121 16
v-338l-2 -161l2 -2q347 143 664 143q168 0 295.5 -42t205 -118t116 -177t38.5 -224v-545h-121z" />
    <glyph glyph-name="f_f_h" unicode="ffh" horiz-adv-x="3160" 
d="M3025 0h-121v545q0 99 -31 178.5t-94.5 141t-170.5 95t-251 33.5q-274 0 -651 -131v-862h-121v1358q-178 24 -264 24q-84 0 -139 -18.5t-85.5 -58.5t-42.5 -91.5t-12 -128.5v-10h275v-102h-275v-973h-120v973h-605v-973h-120v973h-144v102h144v10q0 107 19 181.5
t56.5 117.5t86 61.5t114.5 18.5q71 0 197 -28v-99q-103 25 -164 25q-101 0 -145 -67.5t-44 -209.5v-10h605v10q0 219 82 305.5t278 86.5q111 0 303 -29l121 16v-338l-2 -161l2 -2q347 143 664 143q168 0 295.5 -42t205 -118t116 -177t38.5 -224v-545z" />
    <glyph glyph-name="f_j" unicode="fj" horiz-adv-x="1212" 
d="M915 8v965h-598v-973h-120v973h-144v102h144v10q0 107 19 181.5t56.5 117.5t86 61.5t114.5 18.5q71 0 197 -28v-99q-103 25 -164 25q-101 0 -145 -67.5t-44 -209.5v-10h598l121 10v-1077q0 -94 -16 -164.5t-43.5 -114.5t-70 -71t-89 -37t-106.5 -10v96q109 0 156.5 74
t47.5 227zM915 1204v246h121v-246h-121z" />
    <glyph glyph-name="f_f_j" unicode="ffj" horiz-adv-x="1937" 
d="M1638 8v965h-596v-973h-120v973h-605v-973h-120v973h-144v102h144v10q0 107 19 181.5t56.5 117.5t86 61.5t114.5 18.5q71 0 197 -28v-99q-103 25 -164 25q-101 0 -145 -67.5t-44 -209.5v-10h605v10q0 107 19 181.5t56.5 117.5t86 61.5t114.5 18.5q71 0 197 -28v-99
q-103 25 -164 25q-101 0 -145 -67.5t-44 -209.5v-10h596l121 10v-1077q0 -117 -23 -197t-68.5 -122.5t-101 -60t-130.5 -17.5v96q109 0 155.5 74t46.5 227zM1759 1204h-121v246h121v-246z" />
    <glyph glyph-name="f_k" unicode="fk" horiz-adv-x="2435" 
d="M1450 539l917 -539h-190l-840 489h-356v-489h-121v1358q-178 24 -264 24q-84 0 -139 -18.5t-85.5 -58.5t-42.5 -91.5t-12 -128.5v-10h275v-102h-275v-973h-120v973h-144v102h144v10q0 219 82 305.5t278 86.5q111 0 303 -29l121 16v-876h358l856 487h185z" />
    <glyph glyph-name="f_f_k" unicode="ffk" horiz-adv-x="3158" 
d="M2175 539l917 -539h-192l-838 489h-356v-489h-121v1358q-178 24 -264 24q-84 0 -139 -18.5t-85.5 -58.5t-42.5 -91.5t-12 -128.5v-10h275v-102h-275v-973h-120v973h-605v-973h-120v973h-144v102h144v10q0 107 19 181.5t56.5 117.5t86 61.5t114.5 18.5q71 0 197 -28v-99
q-103 25 -164 25q-101 0 -145 -67.5t-44 -209.5v-10h605v10q0 219 82 305.5t278 86.5q111 0 303 -29l121 16v-876h358l856 487h185z" />
    <glyph glyph-name="T_h" unicode="Th" horiz-adv-x="3518" 
d="M3383 0h-121v545q0 99 -30.5 178.5t-94.5 141t-170.5 95t-250.5 33.5q-275 0 -652 -131v-862h-120v1321h-979v-1321h-121v1321h-770v113h1870l120 16v-324l-2 -161l2 -2q343 143 662 143q169 0 296.5 -42t205.5 -118.5t116.5 -177t38.5 -223.5v-545z" />
    <glyph glyph-name=".notdef" horiz-adv-x="1024" 
d="M82 96v33q-31 14 -31 49q0 22 14.5 36.5t36.5 16.5q32 97 105 169.5t170 103.5v10v8q-97 32 -170 105t-105 170q-22 0 -36.5 15.5t-14.5 37.5q0 33 31 47v35v33q-31 14 -31 49q0 22 14.5 36.5t36.5 16.5q32 96 105 168t170 104q0 22 15.5 38t37.5 16q32 0 47 -33
q12 2 35 2t33 -2q6 14 20 23.5t29 9.5q21 0 36 -16t17 -38q97 -32 169 -103.5t104 -168.5q22 -2 37.5 -17t15.5 -36q0 -15 -9.5 -29t-23.5 -20q2 -10 2 -33t-2 -35q33 -15 33 -47q0 -22 -15.5 -37.5t-37.5 -15.5q-32 -97 -105 -170t-170 -105q2 -2 2 -8t-2 -10
q97 -31 170 -103.5t105 -169.5q22 -2 37.5 -17t15.5 -36q0 -15 -9.5 -29t-23.5 -20q2 -10 2 -33t-2 -35q33 -15 33 -47q0 -21 -15.5 -36t-37.5 -17q-32 -97 -104 -168.5t-169 -103.5q-2 -22 -17 -38t-36 -16q-15 0 -29 9.5t-20 23.5q-10 -2 -33 -2t-35 2q-15 -33 -47 -33
q-22 0 -37.5 16t-15.5 38q-97 32 -170 104t-105 168q-22 2 -36.5 16.5t-14.5 36.5q0 33 31 47v35zM866 178q0 32 29 47q-31 91 -99 159t-159 97q-17 -20 -43 -20q-19 0 -34 11t-19 28h-60q-5 -17 -18.5 -28t-32.5 -11q-26 0 -43 20q-92 -29 -160.5 -97t-99.5 -159
q31 -14 31 -47q0 -22 -15 -36.5t-37 -16.5v-29v-28q22 -2 37 -17t15 -37q0 -33 -31 -47q31 -89 98 -156t156 -98q18 29 49 29q20 0 36 -14.5t17 -34.5q8 -2 29 -2q19 0 29 2q2 21 17 35t36 14q32 0 47 -29q89 31 156 98t98 156q-29 15 -29 47q0 22 14.5 37t34.5 17
q3 12 3 28q0 14 -3 29q-21 2 -35 17t-14 36zM158 1014q0 -22 -15 -36.5t-37 -16.5v-29v-29q22 -1 37 -17t15 -36q0 -32 -31 -49q31 -91 99.5 -158t160.5 -98q16 22 43 22q18 0 32 -11.5t19 -29.5h60q5 17 19.5 29t33.5 12q27 0 43 -22q91 31 159 98.5t99 157.5
q-29 18 -29 49q0 20 14.5 36t34.5 17q3 12 3 29q0 14 -3 29q-21 2 -35 17t-14 36q0 32 29 47q-31 89 -98 156t-156 98q-15 -29 -47 -29q-21 0 -36 14t-17 35q-10 2 -29 2q-21 0 -29 -2q-1 -20 -17 -34.5t-36 -14.5q-31 0 -49 29q-89 -31 -156 -98t-98 -156q31 -14 31 -47z
M285 932q0 79 49 140.5t125 80.5q2 19 17.5 33t35.5 14t35 -14t18 -33q75 -19 124.5 -81t49.5 -140q0 -80 -49.5 -141.5t-124.5 -79.5q-3 -20 -18 -33.5t-35 -13.5q-21 0 -36.5 13.5t-16.5 33.5q-76 17 -125 78.5t-49 142.5zM285 96q0 79 49 140.5t125 80.5q2 19 17.5 33.5
t35.5 14.5t35 -14.5t18 -33.5q75 -19 124.5 -81t49.5 -140q0 -80 -49.5 -141t-124.5 -80q-3 -19 -18 -33t-35 -14t-35.5 14t-17.5 33q-76 19 -125 79.5t-49 141.5zM309 96q0 -70 42.5 -124.5t109.5 -71.5q14 34 51 34q17 0 30.5 -9.5t18.5 -24.5q67 17 110.5 71.5
t43.5 124.5q0 69 -44 124.5t-110 72.5q-14 -35 -49 -35q-37 0 -51 35q-66 -17 -109 -72.5t-43 -124.5zM309 932q0 -71 42.5 -125.5t109.5 -71.5q14 35 51 35q17 0 30.5 -10t18.5 -25q67 18 110.5 72t43.5 125q0 68 -43.5 123.5t-110.5 72.5q-14 -34 -49 -34q-37 0 -51 34
q-66 -17 -109 -72t-43 -124z" />
    <glyph glyph-name=".null" horiz-adv-x="0" 
 />
    <glyph glyph-name="nonmarkingreturn" horiz-adv-x="682" 
 />
    <glyph glyph-name="NULL" horiz-adv-x="0" 
 />
    <glyph glyph-name="NULL" horiz-adv-x="0" 
 />
    <glyph glyph-name="CR" unicode="&#xd;" horiz-adv-x="886" 
 />
    <glyph glyph-name="space" unicode=" " horiz-adv-x="886" 
 />
    <glyph glyph-name="exclam" unicode="!" horiz-adv-x="557" 
d="M223 297h111v-297h-111v297zM229 471l-12 963h123l-10 -963h-101z" />
    <glyph glyph-name="quotedbl" unicode="&#x22;" horiz-adv-x="878" 
d="M199 1464h110q3 -220 -14 -501h-80q-19 242 -16 501zM569 1464h111q3 -259 -16 -501h-80q-17 296 -15 501z" />
    <glyph glyph-name="numbersign" unicode="#" 
d="M430 57l68 383h-383l12 70h383l84 469h-383l12 70h383l68 385h71l-69 -385h469l67 385h72l-70 -385h383l-12 -70h-383l-82 -469h381l-12 -70h-381l-68 -383h-71l67 383h-467l-67 -383h-72zM664 979l-82 -469h467l84 469h-469z" />
    <glyph glyph-name="dollar" unicode="$" horiz-adv-x="1687" 
d="M137 106l35 109q284 -116 637 -131v573q-66 4 -114 7.5t-110.5 11.5t-108 17.5t-97.5 25.5t-88 36t-71.5 48.5t-57 63.5t-34.5 81t-13 101q0 71 24 130.5t64.5 101t97.5 74t117.5 52.5t131.5 33t132.5 18t126.5 6v133h72v-135q281 -5 592 -94l-27 -111q-270 83 -565 93
v-582q93 -6 147.5 -11t137.5 -17t132.5 -27t108 -42t90.5 -62.5t54 -88t22 -117.5q0 -93 -40.5 -167.5t-106.5 -123t-157.5 -81t-187 -46.5t-200.5 -16v-133h-72v135q-357 6 -672 135zM1450 397q0 35 -10.5 65t-27 52.5t-45.5 41t-57 31.5t-72 23t-79 16t-89 11.5t-92 8
t-97 5.5v-569q109 1 205 17.5t180.5 51t134 98t49.5 148.5zM238 1055q0 -50 17 -90t43.5 -67.5t72 -49t88.5 -34t108.5 -22t116 -13.5t125.5 -9v582q-75 -1 -145 -7.5t-150.5 -26.5t-139 -51t-97.5 -85.5t-39 -126.5z" />
    <glyph glyph-name="percent" unicode="%" horiz-adv-x="2082" 
d="M592 754q177 0 270.5 87.5t93.5 227.5q0 139 -93.5 226t-270.5 87t-271 -87t-94 -226q0 -140 93.5 -227.5t271.5 -87.5zM135 1069q0 175 118 285t339 110q219 0 337 -110t118 -285q0 -176 -118 -286.5t-337 -110.5q-221 0 -339 110.5t-118 286.5zM457 -51l-56 49
q669 776 1221 1487l57 -49q-621 -717 -1222 -1487zM1126 367q0 -140 94 -228t271 -88t270.5 88t93.5 228q0 139 -93.5 226t-270.5 87t-271 -87t-94 -226zM1034 367q0 175 118 285t339 110q219 0 337 -110t118 -285q0 -176 -118 -287t-337 -111q-221 0 -339 111t-118 287z
" />
    <glyph glyph-name="ampersand" unicode="&#x26;" horiz-adv-x="2045" 
d="M1583 684v111h367v-115h-248q-6 -181 -72.5 -318t-186 -222.5t-282 -128t-366.5 -42.5q-101 0 -192.5 11t-182.5 39.5t-157 73t-107 116.5t-41 164q0 171 139 252.5t436 105.5q-288 22 -414 100t-126 240q0 89 40.5 158t107.5 112.5t162 71.5t195.5 39.5t216.5 11.5
q182 0 366 -26t306 -58l-26 -110q-114 29 -294.5 55.5t-353.5 26.5q-122 0 -224 -15t-188 -47t-135 -90.5t-49 -138.5q0 -152 168.5 -209t583.5 -57v-115q-410 -3 -598 -69t-188 -230q0 -59 23 -106.5t65 -79t93.5 -54t115.5 -34.5t124.5 -17.5t126.5 -5.5
q386 0 590.5 153.5t204.5 446.5z" />
    <glyph glyph-name="quotesingle" unicode="'" horiz-adv-x="507" 
d="M199 1464h110q3 -220 -14 -501h-80q-19 242 -16 501z" />
    <glyph glyph-name="parenleft" unicode="(" horiz-adv-x="804" 
d="M690 -369l-69 -41q-199 192 -322 485.5t-123 586.5t123 586t322 485l69 -41q-185 -196 -292 -470t-107 -560q0 -285 107 -560t292 -471z" />
    <glyph glyph-name="parenright" unicode=")" horiz-adv-x="804" 
d="M184 -410l-69 41q185 196 292 471t107 560q0 286 -107 560t-292 470l69 41q199 -192 322 -485t123 -586t-123 -586.5t-322 -485.5z" />
    <glyph glyph-name="asterisk" unicode="*" horiz-adv-x="1452" 
d="M782 1464q0 -71 -3 -157t-6 -140t-10 -161.5t-9 -145.5q10 7 54.5 37t57.5 39t53 36t58.5 39t54 35.5t58.5 38t54.5 34t60 36.5t57.5 33l55 -98q-169 -97 -537 -277q383 -187 537 -274l-55 -99q-80 45 -158 94.5t-199.5 131t-150.5 100.5q2 -36 9 -144.5t10 -161.5
t6 -139t3 -157h-112q0 71 3 157t6 139t10 161.5t9 144.5q-49 -32 -156.5 -104t-190 -124.5t-161.5 -97.5l-55 99q154 87 537 274q-368 180 -537 277l55 98q50 -29 101 -59.5t109 -68.5t94 -62t107 -72t97 -66q-2 38 -9 145.5t-10 161.5t-6 140t-3 157h112z" />
    <glyph glyph-name="plus" unicode="+" horiz-adv-x="1449" 
d="M217 580h467v464h84v-464h463v-86h-463v-463h-84v463h-467v86z" />
    <glyph glyph-name="comma" unicode="," horiz-adv-x="544" 
d="M207 297h117q30 -98 21 -238.5t-54 -273.5h-72q21 116 20 265.5t-32 246.5z" />
    <glyph glyph-name="hyphen" unicode="-" horiz-adv-x="1449" 
d="M238 631v98h972v-98h-972z" />
    <glyph glyph-name="period" unicode="." horiz-adv-x="544" 
d="M217 297h111v-297h-111v297z" />
    <glyph glyph-name="slash" unicode="/" horiz-adv-x="804" 
d="M618 1464h111l-545 -1495h-110z" />
    <glyph glyph-name="zero" unicode="0" horiz-adv-x="1951" 
d="M115 717q0 159 55 294t160 236.5t270.5 159t374.5 57.5t374.5 -57.5t270.5 -159t160 -236.5t55 -294t-55 -294t-160 -237t-270.5 -159.5t-374.5 -57.5t-374.5 57.5t-270.5 159.5t-160 237t-55 294zM238 717q0 -135 46 -249t135.5 -200.5t232 -135t323.5 -48.5
q182 0 324.5 48.5t231.5 135t135 200.5t46 249q0 136 -46 250.5t-135 201t-231.5 135t-324.5 48.5q-181 0 -323.5 -48.5t-232 -135t-135.5 -201t-46 -250.5z" />
    <glyph glyph-name="one" unicode="1" horiz-adv-x="1439" 
d="M94 0v115h565v1198l-526 -152l-37 99l566 174h118v-1319h563v-115h-1249z" />
    <glyph glyph-name="two" unicode="2" horiz-adv-x="1705" 
d="M1569 0h-1424v115q199 71 376 148.5t342 170.5t283.5 187t189.5 200.5t71 208.5q0 60 -24.5 109t-64 81.5t-96 57.5t-112.5 38.5t-121.5 22t-115 11t-101.5 2.5q-271 0 -610 -82l-27 110q323 84 625 84q65 0 127 -3.5t141.5 -14.5t147 -28.5t135 -49.5t114 -74t76 -105
t29.5 -140q0 -114 -66 -228t-178.5 -212.5t-266.5 -191t-324 -167t-357 -135.5h1231v-115z" />
    <glyph glyph-name="three" unicode="3" horiz-adv-x="1681" 
d="M162 1270l-27 110q323 84 631 84q764 0 764 -377q0 -163 -145.5 -250t-466.5 -116q169 -9 284 -29t199.5 -59.5t124 -102.5t39.5 -155q0 -90 -38 -160.5t-101.5 -116t-153 -75t-186 -42t-207.5 -12.5q-212 0 -428.5 41t-335.5 94l35 109q115 -50 325 -89.5t408 -39.5
q91 0 170.5 9.5t152.5 32.5t124 57.5t81.5 88t30.5 121.5q0 48 -14.5 86t-48 67t-75 49.5t-110.5 35t-138 23t-173.5 13.5t-201.5 7t-237 2h-61v82h61q265 1 443.5 17t296.5 52.5t170.5 94.5t52.5 145q0 56 -24.5 101t-62.5 74.5t-95.5 51t-110 32.5t-121 17t-114.5 7.5
t-103 1.5q-275 0 -614 -82z" />
    <glyph glyph-name="four" unicode="4" horiz-adv-x="1708" 
d="M1569 313h-183v-313h-120v313h-1151v113l1153 1008h118v-1008h187zM1266 426v559l2 322l-729 -641l-281 -240h1008z" />
    <glyph glyph-name="five" unicode="5" 
d="M115 102l35 107q116 -48 324.5 -86.5t406.5 -38.5q97 0 181 11t160.5 37t131 65.5t87 101t32.5 139.5q0 94 -53 165t-147 113.5t-213.5 63.5t-262.5 21q-281 0 -572 -86l33 719h1282v-113h-1167l-23 -510q248 80 502 80q160 0 292.5 -26.5t234.5 -80.5t159 -143.5
t57 -206.5q0 -103 -40.5 -184t-107.5 -132.5t-162 -85t-197.5 -47.5t-219.5 -14q-211 0 -423.5 39.5t-329.5 91.5z" />
    <glyph glyph-name="six" unicode="6" horiz-adv-x="1759" 
d="M240 641q24 97 95.5 175t171.5 126.5t215.5 74t235.5 25.5q107 0 206.5 -20.5t186.5 -63t151.5 -103t102 -146t37.5 -187.5q0 -251 -211 -402t-567 -151q-197 0 -342.5 49.5t-234 143t-130.5 219.5t-42 287q0 167 41 300.5t114.5 224.5t178.5 151.5t230 88t273 27.5
q318 0 594 -80l-26 -110q-297 78 -578 78q-123 0 -227 -21.5t-196.5 -73t-155.5 -131t-96.5 -202t-26.5 -279.5zM872 82q299 0 473.5 119t174.5 319q0 101 -47 182t-128.5 132t-188 78.5t-228.5 27.5q-72 0 -147 -10.5t-150.5 -31t-142 -55.5t-118.5 -79.5t-82 -107
t-30 -134.5q0 -65 21 -126t68.5 -119t117 -100.5t174.5 -68.5t233 -26z" />
    <glyph glyph-name="seven" unicode="7" horiz-adv-x="1619" 
d="M1524 1329l-953 -1329h-147l958 1323l-1314 -2v113h1456v-105z" />
    <glyph glyph-name="eight" unicode="8" horiz-adv-x="1759" 
d="M879 84q131 0 241.5 16t202.5 50.5t144.5 96t52.5 144.5q0 285 -641 285q-307 0 -473 -70t-166 -215q0 -83 52 -144.5t144 -96t202 -50.5t241 -16zM879 762q289 0 447.5 69.5t158.5 204.5q0 72 -37.5 128.5t-97 91t-141 57t-162.5 31t-168 8.5t-167.5 -8.5t-162 -31
t-141 -57t-97 -91t-37.5 -128.5q0 -134 159 -204t446 -70zM879 1464q105 0 202.5 -11.5t195.5 -40t169.5 -73t116.5 -116t45 -162.5q0 -98 -70 -171.5t-180.5 -113.5t-255.5 -55q540 -50 540 -359q0 -87 -43 -155.5t-114.5 -112.5t-171.5 -72.5t-207 -40.5t-227 -12t-227 12
t-207 40.5t-172 72.5t-115 112.5t-43 155.5q0 309 540 359q-144 15 -254.5 55t-180.5 113.5t-70 171.5q0 91 45 162.5t116.5 116t169.5 73t195.5 40t202.5 11.5z" />
    <glyph glyph-name="nine" unicode="9" horiz-adv-x="1759" 
d="M1520 793q-24 -97 -96 -175.5t-172 -127t-216 -74t-235 -25.5q-107 0 -206.5 20.5t-187 63t-152.5 103t-102.5 146.5t-37.5 187q0 251 211 402t567 151q197 0 342.5 -49.5t234 -142.5t130.5 -219t42 -287q0 -167 -41 -300.5t-114 -225t-178 -152t-230 -88t-274 -27.5
q-316 0 -592 80l27 111q294 -78 575 -78q102 0 191 15.5t171.5 48.5t146 88.5t110 132t69 184t17.5 238.5zM887 1352q-299 0 -474 -119.5t-175 -319.5q0 -101 47 -181.5t129 -132t188.5 -78.5t228.5 -27q87 0 177 14t179.5 47t158.5 80t112 118.5t43 157.5q0 65 -21 126.5
t-69 119t-117.5 100.5t-174.5 69t-232 26z" />
    <glyph glyph-name="colon" unicode=":" horiz-adv-x="544" 
d="M217 379h111v-297h-111v297zM217 963h111v-297h-111v297z" />
    <glyph glyph-name="semicolon" unicode=";" horiz-adv-x="544" 
d="M217 963h111v-297h-111v297zM207 297h117q30 -98 21 -238.5t-54 -273.5h-72q21 116 20 265.5t-32 246.5z" />
    <glyph glyph-name="less" unicode="&#x3c;" horiz-adv-x="1234" 
d="M1057 1126v-94l-795 -358l795 -359v-94l-881 408v90z" />
    <glyph glyph-name="equal" unicode="=" horiz-adv-x="1449" 
d="M217 334h1014v-86h-1014v86zM217 825h1014v-86h-1014v86z" />
    <glyph glyph-name="greater" unicode="&#x3e;" horiz-adv-x="1234" 
d="M176 1032v94l881 -407v-90l-881 -408v94l797 359z" />
    <glyph glyph-name="question" unicode="?" horiz-adv-x="1646" 
d="M821 471h-100q8 73 49.5 129t100.5 91.5t128.5 64.5t137.5 56t124 58t90.5 78.5t34.5 110.5q0 62 -31.5 111t-87 80t-119 52t-140.5 31.5t-138.5 14.5t-124.5 4q-268 0 -604 -82l-26 110q323 84 624 84q67 0 129.5 -3.5t142 -14t147 -28t134 -48t113 -71t75.5 -101
t29 -133.5q0 -80 -33.5 -139t-89 -95t-123 -64t-138.5 -53.5t-132.5 -54.5t-108.5 -77t-63 -111zM717 297h108v-297h-108v297z" />
    <glyph glyph-name="at" unicode="@" horiz-adv-x="2093" 
d="M1370 -156l31 -65q-157 -49 -359 -49q-210 0 -381 54t-286.5 152t-177.5 236t-62 305t62 305t177.5 236t286.5 152.5t381 54.5q266 0 472.5 -78.5t324 -229t117.5 -350.5q0 -118 -36 -215t-93.5 -156.5t-125 -91.5t-136.5 -32q-78 0 -130 42.5t-61 123.5h-2
q-27 -24 -60.5 -47t-91 -54.5t-133.5 -51t-155 -19.5q-204 0 -314 99.5t-110 266.5q0 142 71 245.5t190.5 154.5t272.5 51q24 0 48.5 -2t43.5 -4t44 -8t38 -8.5t38.5 -11.5t34 -11.5t35 -14t30 -13t32.5 -14.5l29 -14l2 2l13 66h83l-49 -555q-6 -73 23 -113.5t90 -40.5
q51 0 104 28t99 79t75 132.5t29 178.5q0 183 -108.5 319t-298.5 206.5t-435 70.5q-388 0 -611.5 -185t-223.5 -493t223.5 -493t611.5 -185q176 0 328 45zM948 152q143 0 259 55.5t167 118.5l35 381q-117 48 -195.5 70t-169.5 22q-124 0 -222.5 -38.5t-160 -121.5t-61.5 -201
q0 -132 89 -209t259 -77z" />
    <glyph glyph-name="A" unicode="A" horiz-adv-x="2021" 
d="M1079 1434l930 -1434h-141l-246 373h-1225l-243 -373h-142l930 1434h137zM1010 1327l-459 -713l-86 -127h1089l-84 127z" />
    <glyph glyph-name="B" unicode="B" horiz-adv-x="2031" 
d="M1399 0h-1243v1434h1134q522 0 522 -365q0 -76 -22 -132.5t-66 -93t-97.5 -58.5t-127.5 -37q96 -11 166.5 -32.5t129.5 -60.5t89.5 -104.5t30.5 -155.5q0 -183 -125.5 -289t-390.5 -106zM1292 680h-1016v-565h1123q403 0 403 295q0 71 -26.5 121t-68.5 78.5t-112 45
t-137.5 21t-165.5 4.5zM1290 1321h-1014v-526h920q81 0 138.5 3t120 11.5t103 26t75 45.5t51 70.5t16.5 99.5q0 144 -104 207t-306 63z" />
    <glyph glyph-name="C" unicode="C" horiz-adv-x="1996" 
d="M1872 193l29 -109q-341 -115 -730 -115q-219 0 -395.5 37t-298.5 103.5t-204 160.5t-120 205.5t-38 241.5t38 241.5t120 205.5t204 160t298.5 103t395.5 37q392 0 730 -114l-29 -109q-355 111 -701 111q-195 0 -351.5 -31t-264 -87t-179.5 -136t-105 -174.5t-33 -206.5
q0 -111 33 -205t105 -174t179.5 -135.5t264 -87t351.5 -31.5q353 0 701 109z" />
    <glyph glyph-name="D" unicode="D" horiz-adv-x="2031" 
d="M858 0h-702v1434h702q274 0 478.5 -51.5t330 -147.5t187 -225.5t61.5 -292.5t-61.5 -292.5t-187 -225.5t-330 -147.5t-478.5 -51.5zM858 1321h-582v-1206h582q245 0 426 42.5t291.5 123t163.5 189t53 247.5q0 140 -53 249t-163.5 189.5t-291.5 123t-426 42.5z" />
    <glyph glyph-name="E" unicode="E" horiz-adv-x="1867" 
d="M1751 0h-1595v1434h1554v-113h-1434v-526h1311v-115h-1311v-565h1475v-115z" />
    <glyph glyph-name="F" unicode="F" horiz-adv-x="1785" 
d="M1587 680h-1311v-680h-120v1434h1554v-113h-1434v-526h1311v-115z" />
    <glyph glyph-name="G" unicode="G" horiz-adv-x="2201" 
d="M1944 664h-857v114h977v-104q0 -154 -51 -275.5t-138.5 -201t-213 -132t-267 -74.5t-307.5 -22q-236 0 -423 56.5t-306 158t-181 237t-62 296.5q0 130 38 241.5t120 205.5t204 160t298.5 103t395.5 37q133 0 255.5 -12t224.5 -35.5t144.5 -35t105.5 -31.5l-29 -107
q-348 109 -701 109q-195 0 -351.5 -31t-264 -87t-179.5 -136t-105 -174.5t-33 -206.5q0 -137 54.5 -252t158.5 -200t267 -133t369 -48q190 0 343 31.5t270 97t180.5 173t63.5 251.5v27z" />
    <glyph glyph-name="H" unicode="H" horiz-adv-x="1992" 
d="M1835 0h-121v680h-1438v-680h-120v1434h120v-639h1438v639h121v-1434z" />
    <glyph glyph-name="I" unicode="I" horiz-adv-x="434" 
d="M156 0v1434h120v-1434h-120z" />
    <glyph glyph-name="J" unicode="J" horiz-adv-x="1798" 
d="M53 84l29 109q116 -34 198.5 -54t218 -37.5t281.5 -17.5q369 0 554.5 114.5t185.5 374.5v861h120v-861q0 -314 -214 -459t-650 -145q-94 0 -185 7t-154 16t-133.5 24.5t-104 24.5t-86 25t-60.5 18z" />
    <glyph glyph-name="K" unicode="K" horiz-adv-x="1990" 
d="M1350 358l585 -358h-192l-1114 680h-353v-680h-120v1434h120v-639h355l1073 639h184l-596 -359l-569 -338z" />
    <glyph glyph-name="L" unicode="L" horiz-adv-x="1765" 
d="M1649 0h-1493v1434h120v-1319h1373v-115z" />
    <glyph glyph-name="M" unicode="M" horiz-adv-x="2377" 
d="M1227 248h-78l-875 1020l2 -213v-1055h-120v1434h120l912 -1067l913 1067h119v-1434h-121v1055l2 213z" />
    <glyph glyph-name="N" unicode="N" horiz-adv-x="2023" 
d="M1745 346v1088h121v-1434h-119l-1473 1280l2 -176v-1104h-120v1434h120l1471 -1280z" />
    <glyph glyph-name="O" unicode="O" horiz-adv-x="2156" 
d="M115 717q0 161 62 296.5t180.5 236.5t303 157.5t416.5 56.5t416.5 -56.5t303 -157.5t181 -236.5t62.5 -296.5t-62.5 -297t-181 -236.5t-303 -157.5t-416.5 -57t-416.5 57t-303 157.5t-180.5 236.5t-62 297zM238 717q0 -137 53.5 -252t156.5 -200t264 -133t365 -48
q205 0 366.5 48t264 133t156 200t53.5 252q0 138 -53.5 253.5t-156 201t-264 133t-366.5 47.5q-204 0 -365 -47.5t-264 -133t-156.5 -201t-53.5 -253.5z" />
    <glyph glyph-name="P" unicode="P" horiz-adv-x="1941" 
d="M276 0h-120v1434h1073q103 0 191.5 -16t168 -53.5t135.5 -94.5t88.5 -144t32.5 -198t-32.5 -198t-89 -144.5t-135.5 -95.5t-167.5 -54t-191.5 -16h-953v-420zM1237 1321h-961v-786h961q104 0 188.5 20.5t153 65t106 122.5t37.5 185t-37.5 185t-106 122.5t-153 65
t-188.5 20.5z" />
    <glyph glyph-name="Q" unicode="Q" horiz-adv-x="2156" 
d="M1874 -217v-107q-109 0 -188.5 1.5t-165 6.5t-145 14.5t-118 24.5t-97 37t-69.5 52t-46 69.5t-17 89.5q-220 6 -395 65t-287.5 159t-171.5 233t-59 289q0 161 62 296.5t180.5 236.5t303 157.5t416.5 56.5t416.5 -56.5t303 -157.5t181 -236.5t62.5 -296.5q0 -156 -59 -289
t-171.5 -233t-287 -159t-394.5 -65q4 -41 28.5 -71.5t73 -51t108 -33.5t148.5 -20t177 -9.5t211 -2.5zM238 717q0 -137 53.5 -252t156.5 -200t264 -133t365 -48q205 0 366.5 48t264 133t156 200t53.5 252q0 138 -53.5 253.5t-156 201t-264 133t-366.5 47.5
q-204 0 -365 -47.5t-264 -133t-156.5 -201t-53.5 -253.5z" />
    <glyph glyph-name="R" unicode="R" horiz-adv-x="1957" 
d="M156 0v1434h1136q120 0 216.5 -24.5t174 -76.5t120 -143.5t42.5 -216.5q0 -124 -43.5 -215t-122.5 -143t-176.5 -76t-216.5 -23h-166l785 -516h-193l-768 512h-668v-512h-120zM276 627h1012q94 0 169.5 18t136.5 57t94.5 108t33.5 163q0 76 -21.5 136t-59 99t-92 65
t-117 37t-136.5 11h-1020v-694z" />
    <glyph glyph-name="S" unicode="S" horiz-adv-x="1923" 
d="M971 -31q-429 0 -856 152l35 108q431 -147 839 -147q90 0 178.5 8t184.5 30t168 56t119 91t47 130q0 134 -159 190q-117 42 -404 59q-35 2 -130 7q-113 5 -178 9.5t-165.5 16.5t-160 28t-130.5 45.5t-109.5 68.5t-65 97t-26.5 131q0 74 26.5 135.5t70 103.5t106.5 74.5
t128.5 51t144 30.5t145.5 16t139 4q190 0 404 -27.5t378 -68.5l-25 -111q-164 40 -372 67.5t-404 27.5q-49 0 -98 -2.5t-112 -10.5t-118 -20.5t-109.5 -35.5t-93.5 -53.5t-63 -75t-24 -99.5q0 -37 9.5 -68t31 -55.5t45.5 -44.5t63 -35t73.5 -26.5t87 -20t93 -14t102.5 -9.5
t104 -6.5t109 -5.5q113 -6 175.5 -10t161.5 -15t155 -26t125 -42t105 -63t61.5 -89.5t25.5 -121.5q0 -84 -35.5 -152t-99 -114.5t-143.5 -80t-177 -52t-190 -27t-192 -8.5z" />
    <glyph glyph-name="T" unicode="T" horiz-adv-x="1808" 
d="M1733 1321h-768v-1321h-121v1321h-770v113h1659v-113z" />
    <glyph glyph-name="U" unicode="U" horiz-adv-x="2033" 
d="M1755 573v861h121v-861q0 -314 -212 -459t-648 -145t-648 145t-212 459v861h120v-861q0 -260 186 -374.5t554 -114.5q369 0 554 114.5t185 374.5z" />
    <glyph glyph-name="V" unicode="V" horiz-adv-x="2013" 
d="M1862 1434h139l-926 -1434h-137l-926 1434h142l395 -615l459 -713l458 713z" />
    <glyph glyph-name="W" unicode="W" horiz-adv-x="2557" 
d="M1872 0h-125l-229 612l-240 648l-238 -646l-229 -614h-127l-672 1434h133l287 -615l311 -663l246 665l230 613h120l230 -617l243 -661l314 665l287 613h131z" />
    <glyph glyph-name="X" unicode="X" horiz-adv-x="1923" 
d="M963 815l733 619h168l-824 -697l871 -737h-168l-780 657l-783 -657h-168l871 737l-822 697h166z" />
    <glyph glyph-name="Y" unicode="Y" horiz-adv-x="2037" 
d="M1870 1434h153l-944 -990v-444h-121v444l-946 990h156l342 -359l508 -530l510 530z" />
    <glyph glyph-name="Z" unicode="Z" horiz-adv-x="1845" 
d="M1729 0h-1614v113l954 829l438 379h-1368v113h1538v-113l-952 -827l-440 -379h1444v-115z" />
    <glyph glyph-name="bracketleft" unicode="[" horiz-adv-x="794" 
d="M217 -362v2062h442v-84h-327v-1895h327v-83h-442z" />
    <glyph glyph-name="backslash" unicode="\" horiz-adv-x="804" 
d="M74 1464h110l545 -1495h-111z" />
    <glyph glyph-name="bracketright" unicode="]" horiz-adv-x="794" 
d="M578 1700v-2062h-443v83h328v1895h-328v84h443z" />
    <glyph glyph-name="asciicircum" unicode="^" horiz-adv-x="1234" 
d="M1139 614h-95l-428 764l-428 -764h-94l477 850h91z" />
    <glyph glyph-name="underscore" unicode="_" horiz-adv-x="1286" 
d="M156 -301v96h972v-96h-972z" />
    <glyph glyph-name="grave" unicode="`" horiz-adv-x="1730" 
d="M504 1524l676 -264l-23 -62l-688 234z" />
    <glyph glyph-name="a" unicode="a" horiz-adv-x="1751" 
d="M1704 106v-106q-91 -31 -156 -31q-114 0 -151 59.5t-37 200.5q-84 -112 -263 -186t-386 -74q-260 0 -418 97.5t-158 275.5q0 79 34.5 139.5t89 98t131.5 61t153 32.5t162 9q137 0 329.5 -10t319.5 -23q-10 62 -30 110.5t-61.5 93.5t-103 75t-157.5 47.5t-222 17.5
q-164 0 -307 -24.5t-205 -46.5l-39 106q65 25 221.5 51.5t329.5 26.5q188 0 325.5 -37t217.5 -105t117 -155.5t37 -198.5v-348q0 -98 24 -139t92 -41q53 0 111 24zM258 350q0 -133 130 -204.5t341 -71.5q209 0 388 79t239 195v244h-658q-85 0 -156 -10.5t-138.5 -35.5
t-106.5 -75t-39 -121z" />
    <glyph glyph-name="b" unicode="b" horiz-adv-x="1732" 
d="M135 0v1448l121 16v-338l-2 -163l2 -2q136 65 322 105t358 40t306.5 -42t220 -118t129.5 -178t44 -225q0 -125 -45 -230.5t-129.5 -182t-212.5 -119t-286 -42.5q-217 0 -400.5 73.5t-310.5 188.5l-2 -2l-8 -229h-107zM926 993q-162 0 -349 -38t-321 -95v-514
q106 -111 295.5 -187.5t400.5 -76.5q267 0 414 126.5t147 332.5q0 204 -149.5 328t-437.5 124z" />
    <glyph glyph-name="c" unicode="c" horiz-adv-x="1662" 
d="M1503 162l23 -107q-81 -31 -232 -58.5t-348 -27.5q-219 0 -384.5 42t-266.5 119.5t-151 180t-50 228.5q0 101 31 186t97 156t165 120.5t241 77t318 27.5q197 0 348 -27.5t232 -58.5l-23 -107q-72 27 -220.5 53.5t-334.5 26.5q-192 0 -335 -33.5t-228.5 -95t-126.5 -142.5
t-41 -183t41 -183.5t126.5 -143.5t228.5 -96t335 -34q186 0 334.5 26.5t220.5 53.5z" />
    <glyph glyph-name="d" unicode="d" horiz-adv-x="1732" 
d="M1477 963l-2 163v322l120 16v-1464h-106l-6 229l-2 2q-127 -115 -311 -188.5t-400 -73.5q-317 0 -496.5 158.5t-179.5 415.5q0 123 44.5 225t130.5 178t221 118t307 42t358 -40t320 -105zM805 993q-287 0 -437.5 -124t-150.5 -328q0 -205 148 -332t413 -127
q211 0 402 76.5t295 187.5v514q-132 57 -320 95t-350 38z" />
    <glyph glyph-name="e" unicode="e" horiz-adv-x="1675" 
d="M1509 461h-1284q50 -379 678 -379q190 0 361.5 27.5t238.5 52.5l23 -107q-75 -28 -249.5 -57t-371.5 -29q-404 0 -607.5 143.5t-203.5 417.5q0 120 45 223t132 182.5t226 125t316 45.5q178 0 324.5 -40.5t248.5 -121.5t136 -201.5t-13 -281.5zM221 559h1176
q25 92 3.5 164t-73 123t-132.5 84.5t-175 49t-201 15.5q-291 0 -437.5 -118t-160.5 -318z" />
    <glyph glyph-name="f" unicode="f" horiz-adv-x="724" 
d="M317 1085v-10h320v-102h-320v-973h-120v973h-144v102h144v10q0 107 19 181.5t56.5 117.5t86 61.5t114.5 18.5q71 0 197 -28v-99q-103 25 -164 25q-101 0 -145 -67.5t-44 -209.5z" />
    <glyph glyph-name="g" unicode="g" horiz-adv-x="1607" 
d="M139 696q0 99 51.5 177.5t141.5 129t210.5 77t260.5 26.5q103 0 229 -21q89 28 232 50t284 22l6 -80q-88 2 -217 -9t-184 -24q145 -46 229 -134.5t84 -213.5q0 -99 -49 -173t-139.5 -118.5t-209 -66t-265.5 -21.5q-211 0 -359 43q-60 -48 -98.5 -131t-36.5 -143
q111 46 325.5 81.5t416.5 35.5q106 0 193 -14t158 -44t110.5 -83t39.5 -125q0 -62 -31 -114t-80.5 -86.5t-118.5 -60.5t-136.5 -40.5t-144 -23.5t-132 -12t-108.5 -3q-268 0 -455.5 28t-277.5 58l24 106q55 -15 129 -30t245.5 -32.5t356.5 -17.5q56 0 114 3.5t129.5 12
t133 25t114 40t83 61t30.5 83.5q0 164 -446 164q-183 0 -382 -27.5t-320 -68.5q-29 2 -52 22t-26 54q5 76 53 162t123 143q-238 92 -238 313zM262 696q0 -72 40.5 -126t114 -86.5t170 -48t216.5 -15.5q161 0 279 27t189.5 90.5t71.5 158.5t-72.5 163t-193 101t-274.5 33
t-274.5 -33t-193.5 -101t-73 -163z" />
    <glyph glyph-name="h" unicode="h" 
d="M1575 0h-121v545q0 99 -31 178.5t-94.5 141t-170 95t-249.5 33.5q-276 0 -653 -131v-862h-121v1448l121 16v-338l-2 -161l2 -2q347 143 664 143q168 0 295.5 -42t205 -118t116 -177t38.5 -224v-545z" />
    <glyph glyph-name="i" unicode="i" horiz-adv-x="475" 
d="M297 0h-121v1075l121 17v-1092zM297 1204h-121v246h121v-246z" />
    <glyph glyph-name="j" unicode="j" horiz-adv-x="487" 
d="M190 8v1067l121 17v-1084q0 -94 -16 -164.5t-43.5 -114.5t-70 -71t-89 -37t-106.5 -10v96q109 0 156.5 74t47.5 227zM311 1204h-121v246h121v-246z" />
    <glyph glyph-name="k" unicode="k" horiz-adv-x="1710" 
d="M725 539l917 -539h-190l-840 489h-356v-489h-121v1448l121 16v-876h358l856 487h185z" />
    <glyph glyph-name="l" unicode="l" horiz-adv-x="419" 
d="M150 0v1448l120 16v-1464h-120z" />
    <glyph glyph-name="m" unicode="m" horiz-adv-x="2545" 
d="M256 0h-121v1075l117 17l2 -127l2 -2q66 34 109 54t107 43.5t131 34.5t140 11q323 0 474 -178q133 76 294 127t310 51q156 0 271 -42t183 -118.5t100.5 -176.5t32.5 -224v-545h-120v545q0 79 -15.5 145t-51 123t-90 96t-136.5 61.5t-187 22.5q-250 0 -546 -149
q71 -122 71 -299v-545h-121v545q0 448 -473 448q-73 0 -140.5 -10.5t-130.5 -32t-100 -37t-93 -42.5q-13 -6 -19 -9v-862z" />
    <glyph glyph-name="n" unicode="n" 
d="M1575 0h-121v545q0 99 -31 178.5t-94.5 141t-170 95t-249.5 33.5q-276 0 -653 -131v-862h-121v1075l117 17l2 -127l2 -2q347 143 664 143q168 0 295.5 -42t205 -118t116 -177t38.5 -224v-545z" />
    <glyph glyph-name="o" unicode="o" horiz-adv-x="1665" 
d="M94 539q0 254 194.5 410.5t542.5 156.5t543 -156.5t195 -410.5t-195 -412t-543 -158t-542.5 158t-194.5 412zM217 539q0 -204 161.5 -330.5t452.5 -126.5q292 0 453.5 126.5t161.5 330.5t-161.5 329t-453.5 125t-453 -125t-161 -329z" />
    <glyph glyph-name="p" unicode="p" horiz-adv-x="1732" 
d="M256 231l-2 -2l2 -262v-356h-121v1460l115 14l4 -122l2 -2q136 65 322 105t358 40t306.5 -42t220 -118t129.5 -178t44 -225q0 -125 -45 -230.5t-129.5 -182t-212.5 -119t-286 -42.5q-217 0 -398 73.5t-309 188.5zM926 993q-162 0 -349 -38t-321 -95v-514
q106 -111 295.5 -187.5t400.5 -76.5q267 0 414 126.5t147 332.5q0 204 -149.5 328t-437.5 124z" />
    <glyph glyph-name="q" unicode="q" horiz-adv-x="1732" 
d="M1475 -33l2 262l-2 2q-128 -115 -309 -188.5t-396 -73.5q-317 0 -496.5 158.5t-179.5 415.5q0 123 44.5 225t130.5 178t221 118t307 42t358 -40t320 -105l2 2l4 108l114 14v-1474h-120v356zM805 993q-287 0 -437.5 -124t-150.5 -328q0 -205 148 -332t413 -127
q211 0 402 76.5t295 187.5v514q-132 57 -320 95t-350 38z" />
    <glyph glyph-name="r" unicode="r" horiz-adv-x="1030" 
d="M135 0v1075l117 17l2 -234l2 -2q146 138 309 201t389 47l-6 -119q-419 45 -692 -231v-754h-121z" />
    <glyph glyph-name="s" unicode="s" horiz-adv-x="1650" 
d="M94 59l25 111q205 -49 355 -68.5t317 -19.5q46 0 92 1.5t112 7.5t123.5 15.5t117 27t101.5 40.5t68.5 58.5t26.5 78.5q0 39 -17.5 69.5t-46.5 50.5t-75 34t-93.5 21.5t-112 11.5t-121.5 5.5t-129 2.5h-14q-69 1 -115 2t-111.5 4.5t-110 9.5t-99 16.5t-90.5 25t-73.5 36
t-59 49t-35.5 64t-14 80.5q0 62 26.5 111.5t66.5 81.5t102.5 55.5t119.5 35.5t132.5 19t126.5 8.5t116 1.5q295 0 655 -62l-18 -112q-349 61 -656 61q-56 0 -101 -1t-104.5 -6t-104.5 -13t-92 -23.5t-77 -36t-49.5 -52t-19.5 -70.5q0 -26 7.5 -48t25 -38.5t36 -30t51 -23
t58.5 -16.5t70.5 -11.5t74.5 -7t83.5 -4t85 -2t89.5 -0.5q99 -1 153 -2.5t144 -8t141 -17.5t115.5 -33t98.5 -53t58.5 -78t24.5 -107q0 -65 -32.5 -118t-83 -88t-122.5 -61t-141 -40t-149 -22.5t-136 -10.5t-112 -2q-180 0 -333 20t-351 70z" />
    <glyph glyph-name="t" unicode="t" horiz-adv-x="737" 
d="M317 1372v-297h353v-102h-353v-623q0 -143 44 -210.5t145 -67.5q51 0 164 24v-96q-140 -31 -197 -31q-135 0 -205.5 86.5t-70.5 294.5v623h-144v102h144v281z" />
    <glyph glyph-name="u" unicode="u" 
d="M135 530v545h121v-545q0 -205 133 -326.5t406 -121.5q191 0 358 67t301 179v747h121v-1075h-107l-6 215l-2 2q-311 -248 -694 -248q-160 0 -282 42t-197.5 118t-113.5 177t-38 224z" />
    <glyph glyph-name="v" unicode="v" horiz-adv-x="1660" 
d="M1464 1075h142l-711 -1075h-131l-711 1075h144l364 -563l268 -406l271 406z" />
    <glyph glyph-name="w" unicode="w" horiz-adv-x="2361" 
d="M1776 0h-131l-193 389l-272 545l-271 -545l-192 -389h-131l-533 1075h135l273 -563l190 -387l191 387l272 563h133l271 -563l192 -387l191 387l272 563h135z" />
    <glyph glyph-name="x" unicode="x" horiz-adv-x="1607" 
d="M803 612l579 463h168l-673 -536l675 -539h-166l-583 463l-582 -463h-168l676 539l-672 536h168z" />
    <glyph glyph-name="y" unicode="y" horiz-adv-x="1660" 
d="M778 -14l-725 1089h144l364 -563l275 -418l628 981h142l-742 -1155q-113 -175 -230 -244t-263 -69q-107 0 -265 33v96q169 -33 250 -33q122 0 216 56.5t178 183.5z" />
    <glyph glyph-name="z" unicode="z" horiz-adv-x="1640" 
d="M309 102h1215v-102h-1409v100l1167 873h-1116v102h1311v-100z" />
    <glyph glyph-name="braceleft" unicode="{" horiz-adv-x="851" 
d="M268 668q97 -35 146 -125.5t49 -227.5q0 -66 -12.5 -188.5t-12.5 -171.5q0 -58 11.5 -99t41 -74.5t86 -49t140.5 -13.5v-84q-221 0 -306 64.5t-85 243.5q0 44 14 177.5t14 205.5q0 127 -39.5 207.5t-138.5 99.5v69q99 19 138.5 100t39.5 208q0 72 -14 205.5t-14 177.5
q0 179 85 243t306 64v-84q-87 2 -144 -13.5t-85.5 -49.5t-39 -74t-10.5 -99q0 -49 12.5 -170.5t12.5 -189.5q0 -282 -195 -352z" />
    <glyph glyph-name="bar" unicode="|" horiz-adv-x="602" 
d="M344 1741v-2048h-86v2048h86z" />
    <glyph glyph-name="braceright" unicode="}" horiz-adv-x="851" 
d="M586 668q-195 70 -195 352q0 68 12.5 189.5t12.5 170.5q0 58 -11.5 99t-41 74.5t-86.5 49t-142 13.5v84q222 0 306.5 -64t84.5 -243q0 -44 -14 -177.5t-14 -205.5q0 -127 39.5 -208t138.5 -100v-69q-99 -19 -138.5 -99.5t-39.5 -207.5q0 -72 14 -205.5t14 -177.5
q0 -179 -84.5 -243.5t-306.5 -64.5v84q85 -2 142 13.5t86.5 49t41 74.5t11.5 99q0 49 -12.5 171.5t-12.5 188.5q0 137 49 227.5t146 125.5z" />
    <glyph glyph-name="asciitilde" unicode="~" horiz-adv-x="1433" 
d="M1147 889l67 -70q-176 -176 -325 -176q-47 0 -99 19t-89.5 42.5t-83 42.5t-82.5 19q-105 0 -250 -145l-68 69q170 170 318 170q45 0 95.5 -19t87.5 -42.5t84.5 -42.5t86.5 -19q106 0 258 152z" />
    <glyph glyph-name="nbspace" unicode="&#xa0;" horiz-adv-x="1740" 
 />
    <glyph glyph-name="exclamdown" unicode="&#xa1;" horiz-adv-x="557" 
d="M334 778h-111v297h111v-297zM330 604l10 -962h-123l12 962h101z" />
    <glyph glyph-name="cent" unicode="&#xa2;" horiz-adv-x="1662" 
d="M897 1464h70v-180q190 -1 336 -28.5t223 -57.5l-23 -106q-72 26 -214 52t-322 27v-911q181 1 325 27t211 53l23 -107q-77 -30 -223 -57.5t-336 -28.5v-178h-70v178q-165 4 -294.5 34t-216.5 80t-144 121t-82 153.5t-25 181.5q0 98 25 180t82 153t144 120.5t216.5 78.5
t294.5 33v182zM258 717q0 -444 639 -455v907q-176 -4 -302.5 -38.5t-199 -96t-105 -139.5t-32.5 -178z" />
    <glyph glyph-name="sterling" unicode="&#xa3;" horiz-adv-x="1607" 
d="M53 682v70h129l21 245q8 107 49.5 189t103.5 133.5t148 84t175 45.5t193 13q257 0 598 -82l-24 -110q-342 82 -580 82q-85 0 -157.5 -10t-142 -35t-119.5 -64t-83 -100.5t-40 -141.5l-21 -249h772v-70h-778l-49 -567h1222v-115h-1349l55 682h-123z" />
    <glyph glyph-name="currency" unicode="&#xa4;" horiz-adv-x="1761" 
d="M881 20l-205 205h-287v287l-205 205l205 205v286h287l205 205l204 -205h287v-286l205 -205l-205 -205v-287h-287zM473 309h240l168 -168l168 168h239v240l168 168l-168 168v239h-239l-168 168l-168 -168h-240v-239l-168 -168l168 -168v-240z" />
    <glyph glyph-name="yen" unicode="&#xa5;" horiz-adv-x="1765" 
d="M1567 236v-72h-625v-164h-121v164h-631v72h631v213h-631v71h584l-741 914h153l441 -551l256 -336l256 336l438 551h154l-742 -914h578v-71h-625v-213h625z" />
    <glyph glyph-name="brokenbar" unicode="&#xa6;" horiz-adv-x="602" 
d="M344 1741v-901h-86v901h86zM344 594v-901h-86v901h86z" />
    <glyph glyph-name="section" unicode="&#xa7;" horiz-adv-x="1703" 
d="M1221 760l-62 -334q176 -35 265 -104.5t89 -204.5q0 -85 -41 -150t-108 -105t-162 -65.5t-192 -35t-209 -9.5q-305 0 -633 62l20 112q73 -18 262 -39.5t369 -21.5q116 0 211.5 11.5t180.5 38.5t132.5 78.5t47.5 123.5q0 48 -21 85.5t-55.5 62t-91 44t-115.5 31t-141 22.5
t-155.5 18.5t-171.5 20t-177 25.5l61 332q-178 37 -267 106.5t-89 204.5q0 71 28 128.5t79.5 96.5t117 67t148.5 43.5t165 22.5t175 7q304 0 632 -62l-18 -112q-75 18 -264 39.5t-367 21.5q-117 0 -213 -11.5t-180.5 -38.5t-132 -78.5t-47.5 -123.5q0 -48 21 -85.5t56 -62
t91.5 -44t115.5 -31t141 -22.5t156 -18.5t172 -20t177 -25.5zM1098 436l45 242q-80 11 -274.5 34t-282.5 38l-45 -242q97 -14 285.5 -36t271.5 -36z" />
    <glyph glyph-name="dieresis" unicode="&#xa8;" horiz-adv-x="1730" 
d="M410 1444h92v-219h-92v219zM913 1444h93v-219h-93v219z" />
    <glyph glyph-name="copyright" unicode="&#xa9;" horiz-adv-x="1964" 
d="M115 717q0 161 56 296.5t162.5 236.5t272.5 157.5t375 56.5t375 -56.5t272.5 -157.5t162.5 -236.5t56 -296.5t-56 -297t-162.5 -236.5t-272.5 -157.5t-375 -57t-375 57t-272.5 157.5t-162.5 236.5t-56 297zM186 717q0 -145 51.5 -268t149.5 -214t250.5 -142.5
t343.5 -51.5t344 51.5t251 142.5t150 214t52 268t-52 268.5t-150 215t-251 143t-344 51.5t-343.5 -51.5t-250.5 -143t-149.5 -215t-51.5 -268.5zM1395 434l16 -65q-204 -64 -401 -64q-293 0 -437.5 113t-144.5 299q0 89 34 162.5t102.5 130t182 87.5t263.5 31q200 0 401 -63
l-16 -66l-34 9q-34 10 -45 12.5t-46 11t-58.5 12t-59 8.5t-70.5 7t-72 2q-258 0 -383 -93.5t-125 -250.5t125 -250.5t383 -93.5q29 0 57 1.5t55.5 4.5t49.5 5.5t48 7.5t42 8t40.5 9.5t34 9t32 8.5t26.5 7z" />
    <glyph glyph-name="ordfeminine" unicode="&#xaa;" horiz-adv-x="1394" 
d="M1356 690v-106q-83 -25 -137 -25q-80 0 -117.5 43.5t-44.5 151.5q-65 -84 -205.5 -139.5t-298.5 -55.5q-204 0 -326.5 77t-122.5 220q0 62 26.5 110t69.5 77.5t103.5 48t120.5 25.5t129 7q108 0 255 -20.5t243 -48.5q-1 69 -24 121.5t-73 93.5t-137.5 62.5t-208.5 21.5
q-120 0 -231.5 -18t-165.5 -38l-35 99q59 19 181.5 40t258.5 21q151 0 261 -29.5t174 -84t93.5 -124t29.5 -157.5v-242q0 -80 18.5 -114t69.5 -35q42 0 94 18zM227 864q0 -59 35.5 -101.5t93 -63.5t114.5 -30.5t116 -9.5q159 0 290 57.5t175 151.5v133q-72 21 -235 37.5
t-247 16.5q-65 0 -121.5 -9t-108.5 -29t-82 -59.5t-30 -93.5z" />
    <glyph glyph-name="guillemotleft" unicode="&#xab;" horiz-adv-x="1513" 
d="M156 590l614 516l55 -66l-540 -450l540 -449l-55 -65zM688 590l615 516l55 -66l-541 -450l541 -449l-55 -65z" />
    <glyph glyph-name="logicalnot" unicode="&#xac;" horiz-adv-x="1449" 
d="M176 819h1096v-745h-84v661h-1012v84z" />
    <glyph glyph-name="registered" unicode="&#xae;" horiz-adv-x="1964" 
d="M115 717q0 161 56 296.5t162.5 236.5t272.5 157.5t375 56.5t375 -56.5t272.5 -157.5t162.5 -236.5t56 -296.5t-56 -297t-162.5 -236.5t-272.5 -157.5t-375 -57t-375 57t-272.5 157.5t-162.5 236.5t-56 297zM186 717q0 -145 51.5 -268t149.5 -214t250.5 -142.5
t343.5 -51.5t344 51.5t251 142.5t150 214t52 268t-52 268.5t-150 215t-251 143t-344 51.5t-343.5 -51.5t-250.5 -143t-149.5 -215t-51.5 -268.5zM623 322h-74v788h627q66 0 119 -13.5t95 -42t65.5 -78.5t23.5 -118q0 -133 -87 -190.5t-243 -57.5l332 -288h-105l-327 286
h-426v-286zM623 676h532q250 0 250 182q0 97 -61.5 140.5t-165.5 43.5h-555v-366z" />
    <glyph glyph-name="macron" unicode="&#xaf;" horiz-adv-x="1730" 
d="M410 1380h727v-82h-727v82z" />
    <glyph glyph-name="degree" unicode="&#xb0;" horiz-adv-x="1132" 
d="M135 1092q0 164 111.5 268t318.5 104q206 0 318 -104t112 -268q0 -165 -112 -270t-318 -105q-207 0 -318.5 104.5t-111.5 270.5zM219 1092q0 -132 89 -215.5t257 -83.5q167 0 256.5 83.5t89.5 215.5q0 130 -89.5 212t-256.5 82q-168 0 -257 -81.5t-89 -212.5z" />
    <glyph glyph-name="plusminus" unicode="&#xb1;" horiz-adv-x="1449" 
d="M217 580h467v464h84v-464h463v-86h-463v-408h463v-86h-1014v86h467v408h-467v86z" />
    <glyph glyph-name="twosuperior" unicode="&#xb2;" horiz-adv-x="1355" 
d="M1251 608h-1138v115q158 57 295.5 117t266 131t219.5 141.5t145.5 149.5t54.5 155q0 51 -24 90.5t-66 64t-89.5 41.5t-105.5 24.5t-101.5 10.5t-89.5 3q-220 0 -487 -66q-2 10 -13 52t-14 61q251 67 498 67q53 0 102.5 -2.5t113.5 -11.5t118.5 -23t108.5 -39.5t91.5 -59
t61 -83t23.5 -110.5q0 -86 -49 -172t-134 -160.5t-203 -145t-251 -128.5t-283 -107h950v-115z" />
    <glyph glyph-name="threesuperior" unicode="&#xb3;" horiz-adv-x="1335" 
d="M88 690l35 111q112 -43 269 -73t310 -30q87 0 159.5 12t132.5 37.5t94 71t34 107.5q0 45 -17 78t-55 56t-88 38t-127.5 23t-161 11t-200.5 3h-170v79h172q326 0 472.5 53t146.5 173q0 42 -18.5 75.5t-46.5 55.5t-71 38t-82.5 24t-91 13t-86 6t-77.5 1q-215 0 -490 -68
l-27 113q251 67 506 67q611 0 611 -303q0 -127 -110.5 -194t-356.5 -90q257 -14 375 -74t118 -197q0 -72 -30.5 -128t-81 -92t-122.5 -60t-150 -33.5t-167 -9.5q-168 0 -340.5 32t-267.5 74z" />
    <glyph glyph-name="acute" unicode="&#xb4;" horiz-adv-x="1730" 
d="M481 1260l678 264l33 -92l-688 -234z" />
    <glyph glyph-name="mu" unicode="&#xb5;" 
d="M256 -389h-121v1464h123v-545q0 -205 132 -326.5t405 -121.5q191 0 358 67t301 179v747h121v-1075h-107l-6 215l-2 2q-311 -248 -694 -248q-198 0 -327.5 73.5t-182.5 201.5v-633z" />
    <glyph glyph-name="paragraph" unicode="&#xb6;" horiz-adv-x="1396" 
d="M1044 1434v-1434h-100v623h-317q-82 0 -152.5 13t-134 43t-108 75.5t-71 115.5t-26.5 158q0 110 39.5 191t109.5 126.5t155 67t188 21.5h417zM1239 1434v-1434h-98v1434h98z" />
    <glyph glyph-name="periodcentered" unicode="&#xb7;" horiz-adv-x="544" 
d="M217 686h111v-297h-111v297z" />
    <glyph glyph-name="cedilla" unicode="&#xb8;" horiz-adv-x="1703" 
d="M676 -469l39 70q45 -5 91 -6.5t101.5 2.5t98 15t72 36t30.5 61q4 54 -73.5 85t-186.5 28q-9 2 -16.5 11t-6.5 20l84 155h60l-78 -139q75 5 144.5 -12t116 -57t42.5 -95q-3 -49 -33 -84.5t-80.5 -54t-102 -29t-116 -11.5t-103.5 0.5t-83 4.5z" />
    <glyph glyph-name="onesuperior" unicode="&#xb9;" horiz-adv-x="1142" 
d="M72 723h438v897l-401 -115l-35 99l440 137h119v-1018h438v-115h-999v115z" />
    <glyph glyph-name="ordmasculine" unicode="&#xba;" horiz-adv-x="1323" 
d="M72 1010q0 200 155.5 324t434.5 124t434 -123.5t155 -324.5t-155.5 -326t-433.5 -125q-279 0 -434.5 125t-155.5 326zM1128 1010q0 149 -122.5 241t-343.5 92q-222 0 -344.5 -92t-122.5 -241q0 -151 122.5 -243.5t344.5 -92.5t344 92.5t122 243.5z" />
    <glyph glyph-name="guillemotright" unicode="&#xbb;" horiz-adv-x="1513" 
d="M743 1106l615 -516l-615 -514l-55 65l541 449l-541 450zM211 1106l614 -516l-614 -514l-55 65l540 449l-540 450z" />
    <glyph glyph-name="onequarter" unicode="&#xbc;" horiz-adv-x="3323" 
d="M72 416h438v897l-401 -115l-35 98l440 138h119v-1018h438v-115h-999v115zM1096 -51l-56 49q660 766 1223 1487l55 -49q-649 -753 -1222 -1487zM3215 240h-145v-240h-123v240h-895v114l895 779h123v-777h149q-4 -78 -4 -116zM2947 356v318l4 330l-547 -474l-211 -174h754z
" />
    <glyph glyph-name="onehalf" unicode="&#xbd;" horiz-adv-x="3575" 
d="M72 416h438v897l-401 -115l-35 98l440 138h119v-1018h438v-115h-999v115zM3471 0h-1138v115q158 57 295.5 117t266 131t219.5 141.5t145.5 149.5t54.5 155q0 60 -35.5 105t-86 68.5t-121 38t-123 18t-109.5 3.5q-225 0 -488 -65q-2 10 -13 52t-14 61q251 67 498 67
q52 0 102 -2.5t114 -11.5t118.5 -23.5t108.5 -40t91.5 -59t61 -83t23.5 -110.5q0 -86 -49 -172t-134 -160.5t-203 -144.5t-251 -128t-283 -107h950v-115zM1096 -51l-56 49q660 766 1223 1487l55 -49q-649 -753 -1222 -1487z" />
    <glyph glyph-name="threequarters" unicode="&#xbe;" horiz-adv-x="3362" 
d="M3254 240h-145v-240h-123v240h-895v114l895 779h123v-777h149q-4 -78 -4 -116zM88 383l35 111q112 -43 269 -73t310 -30q87 0 159.5 11.5t132.5 37t94 71t34 107.5q0 45 -17 78t-55 56t-88 38t-127.5 23t-161 11t-200.5 3h-170v80h172q326 0 472.5 53t146.5 173
q0 42 -18.5 75.5t-46.5 55.5t-71 38t-82.5 24t-91 13t-86 6t-77.5 1q-215 0 -490 -68l-27 113q251 67 506 67q611 0 611 -303q0 -127 -111 -194.5t-356 -90.5q258 -14 375.5 -73.5t117.5 -196.5q0 -72 -30.5 -128t-81 -92.5t-122.5 -60t-150 -33.5t-167 -10
q-168 0 -340 32.5t-268 74.5zM2986 356v318l4 330l-547 -474l-211 -174h754zM1135 -51l-56 49q660 766 1223 1487l55 -49q-649 -753 -1222 -1487z" />
    <glyph glyph-name="questiondown" unicode="&#xbf;" horiz-adv-x="1646" 
d="M825 604h101q-9 -73 -50.5 -129t-100.5 -91.5t-129 -64.5t-137.5 -56t-123.5 -58t-90.5 -78.5t-34.5 -110.5q0 -53 24.5 -97t64 -74t95.5 -52.5t112 -35t121.5 -20.5t117 -10.5t104.5 -2.5q272 0 604 81l27 -110q-323 -84 -625 -84q-67 0 -129.5 3.5t-142 14t-147 28
t-134 48t-113 71t-75.5 101t-29 133.5q0 80 34 139t89 95t123 64t139 53.5t133 54.5t109 77t63 111zM930 778h-111v297h111v-297z" />
    <glyph glyph-name="Agrave" unicode="&#xc0;" horiz-adv-x="2021" 
d="M1079 1434l930 -1434h-141l-246 373h-1225l-243 -373h-142l930 1434h137zM1010 1327l-459 -713l-86 -127h1089l-84 127zM438 1882l676 -264l-22 -62l-689 234z" />
    <glyph glyph-name="Aacute" unicode="&#xc1;" horiz-adv-x="2021" 
d="M1079 1434l930 -1434h-141l-246 373h-1225l-243 -373h-142l930 1434h137zM1010 1327l-459 -713l-86 -127h1089l-84 127zM918 1618l677 264l33 -92l-688 -234z" />
    <glyph glyph-name="Acircumflex" unicode="&#xc2;" horiz-adv-x="2021" 
d="M1079 1434l930 -1434h-141l-246 373h-1225l-243 -373h-142l930 1434h137zM1010 1327l-459 -713l-86 -127h1089l-84 127zM1430 1536l-420 236l-418 -236l-31 61l449 273l448 -273z" />
    <glyph glyph-name="Atilde" unicode="&#xc3;" horiz-adv-x="2021" 
d="M1079 1434l930 -1434h-141l-246 373h-1225l-243 -373h-142l930 1434h137zM1010 1327l-459 -713l-86 -127h1089l-84 127zM1360 1794l49 -51q-144 -148 -262 -148q-39 0 -81 15.5t-72.5 34t-67.5 34t-66 15.5q-94 0 -205 -111l-49 51q140 146 254 146q56 0 147.5 -49.5
t139.5 -49.5q100 0 213 113z" />
    <glyph glyph-name="Adieresis" unicode="&#xc4;" horiz-adv-x="2021" 
d="M1079 1434l930 -1434h-141l-246 373h-1225l-243 -373h-142l930 1434h137zM1010 1327l-459 -713l-86 -127h1089l-84 127zM711 1802h92v-219h-92v219zM1214 1802h93v-219h-93v219z" />
    <glyph glyph-name="Aring" unicode="&#xc5;" horiz-adv-x="2021" 
d="M778 1577q0 88 58 141.5t174 53.5t173.5 -53.5t57.5 -141.5q0 -143 -135 -186l903 -1391h-141l-246 373h-1225l-243 -373h-142l901 1391q-135 39 -135 186zM1010 1327l-459 -713l-86 -127h1089l-84 127zM836 1577q0 -64 43 -103.5t131 -39.5t131 39.5t43 103.5
q0 62 -43 99.5t-131 37.5t-131 -37.5t-43 -99.5z" />
    <glyph glyph-name="AE" unicode="&#xc6;" horiz-adv-x="3346" 
d="M3097 795v-115h-1311v-565h1474v-115h-1595v373h-1049l-426 -373h-178l1653 1434h1554v-113h-1433v-526h1311zM1665 1303l-774 -689l-148 -127h922v816z" />
    <glyph glyph-name="Ccedilla" unicode="&#xc7;" horiz-adv-x="1996" 
d="M784 -469l39 70q45 -5 91 -6.5t102 2.5t98.5 15t72 36t30.5 61q4 53 -74 84.5t-187 28.5q-9 2 -16 11t-6 20l65 122q-183 13 -330.5 56.5t-250 110.5t-171.5 157t-100.5 194t-31.5 224q0 130 38 241.5t120 205.5t204 160t298.5 103t395.5 37q392 0 730 -114l-29 -109
q-355 111 -701 111q-195 0 -351.5 -31t-264 -87t-179.5 -136t-105 -174.5t-33 -206.5q0 -111 33 -205t105 -174t179.5 -135.5t264 -87t351.5 -31.5q353 0 701 109l29 -109q-341 -115 -730 -115q-77 0 -114 2l-58 -102q75 5 145 -12t116.5 -57t42.5 -95q-3 -49 -33 -84.5
t-80.5 -54t-102.5 -29t-116.5 -11.5t-103.5 0.5t-83 4.5z" />
    <glyph glyph-name="Egrave" unicode="&#xc8;" horiz-adv-x="1867" 
d="M610 1882l676 -264l-22 -62l-689 234zM1751 0h-1595v1434h1554v-113h-1434v-526h1311v-115h-1311v-565h1475v-115z" />
    <glyph glyph-name="Eacute" unicode="&#xc9;" horiz-adv-x="1867" 
d="M575 1618l678 264l33 -92l-688 -234zM1751 0h-1595v1434h1554v-113h-1434v-526h1311v-115h-1311v-565h1475v-115z" />
    <glyph glyph-name="Ecircumflex" unicode="&#xca;" horiz-adv-x="1867" 
d="M1751 0h-1595v1434h1554v-113h-1434v-526h1311v-115h-1311v-565h1475v-115zM1352 1536l-420 236l-418 -236l-31 61l449 273l448 -273z" />
    <glyph glyph-name="Edieresis" unicode="&#xcb;" horiz-adv-x="1867" 
d="M633 1802h92v-219h-92v219zM1137 1802h92v-219h-92v219zM1751 0h-1595v1434h1554v-113h-1434v-526h1311v-115h-1311v-565h1475v-115z" />
    <glyph glyph-name="Igrave" unicode="&#xcc;" horiz-adv-x="434" 
d="M156 0v1434h120v-1434h-120zM-162 1882l676 -264l-22 -62l-689 234z" />
    <glyph glyph-name="Iacute" unicode="&#xcd;" horiz-adv-x="434" 
d="M156 0v1434h120v-1434h-120zM-78 1618l678 264l33 -92l-688 -234z" />
    <glyph glyph-name="Icircumflex" unicode="&#xce;" horiz-adv-x="434" 
d="M156 0v1434h120v-1434h-120zM637 1536l-420 236l-418 -236l-30 61l448 273l449 -273z" />
    <glyph glyph-name="Idieresis" unicode="&#xcf;" horiz-adv-x="434" 
d="M156 0v1434h120v-1434h-120zM-80 1802h92v-219h-92v219zM424 1802h92v-219h-92v219z" />
    <glyph glyph-name="Eth" unicode="&#xd0;" horiz-adv-x="2031" 
d="M858 0h-702v682h-156v72h156v680h702q274 0 478.5 -51.5t330 -147.5t187 -225.5t61.5 -292.5t-61.5 -292.5t-187 -225.5t-330 -147.5t-478.5 -51.5zM858 1321h-582v-567h582v-72h-582v-567h582q245 0 426 42.5t291.5 123t163.5 189t53 247.5q0 140 -53 249t-163.5 189.5
t-291.5 123t-426 42.5z" />
    <glyph glyph-name="Ntilde" unicode="&#xd1;" horiz-adv-x="2023" 
d="M1360 1794l49 -51q-144 -148 -262 -148q-39 0 -81 15.5t-72.5 34t-67.5 34t-66 15.5q-94 0 -205 -111l-49 51q140 146 254 146q56 0 147.5 -49.5t139.5 -49.5q100 0 213 113zM1745 346v1088h121v-1434h-119l-1473 1280l2 -176v-1104h-120v1434h120l1471 -1280z" />
    <glyph glyph-name="Ograve" unicode="&#xd2;" horiz-adv-x="2156" 
d="M756 1882l676 -264l-23 -62l-688 234zM115 717q0 161 62 296.5t180.5 236.5t303 157.5t416.5 56.5t416.5 -56.5t303 -157.5t181 -236.5t62.5 -296.5t-62.5 -297t-181 -236.5t-303 -157.5t-416.5 -57t-416.5 57t-303 157.5t-180.5 236.5t-62 297zM238 717
q0 -137 53.5 -252t156.5 -200t264 -133t365 -48q205 0 366.5 48t264 133t156 200t53.5 252q0 138 -53.5 253.5t-156 201t-264 133t-366.5 47.5q-204 0 -365 -47.5t-264 -133t-156.5 -201t-53.5 -253.5z" />
    <glyph glyph-name="Oacute" unicode="&#xd3;" horiz-adv-x="2156" 
d="M721 1618l678 264l33 -92l-689 -234zM115 717q0 161 62 296.5t180.5 236.5t303 157.5t416.5 56.5t416.5 -56.5t303 -157.5t181 -236.5t62.5 -296.5t-62.5 -297t-181 -236.5t-303 -157.5t-416.5 -57t-416.5 57t-303 157.5t-180.5 236.5t-62 297zM238 717q0 -137 53.5 -252
t156.5 -200t264 -133t365 -48q205 0 366.5 48t264 133t156 200t53.5 252q0 138 -53.5 253.5t-156 201t-264 133t-366.5 47.5q-204 0 -365 -47.5t-264 -133t-156.5 -201t-53.5 -253.5z" />
    <glyph glyph-name="Ocircumflex" unicode="&#xd4;" horiz-adv-x="2156" 
d="M115 717q0 161 62 296.5t180.5 236.5t303 157.5t416.5 56.5t416.5 -56.5t303 -157.5t181 -236.5t62.5 -296.5t-62.5 -297t-181 -236.5t-303 -157.5t-416.5 -57t-416.5 57t-303 157.5t-180.5 236.5t-62 297zM238 717q0 -137 53.5 -252t156.5 -200t264 -133t365 -48
q205 0 366.5 48t264 133t156 200t53.5 252q0 138 -53.5 253.5t-156 201t-264 133t-366.5 47.5q-204 0 -365 -47.5t-264 -133t-156.5 -201t-53.5 -253.5zM1495 1536l-420 236l-418 -236l-30 61l448 273l449 -273z" />
    <glyph glyph-name="Otilde" unicode="&#xd5;" horiz-adv-x="2156" 
d="M1427 1794l50 -51q-144 -148 -263 -148q-39 0 -81 15.5t-72.5 34t-67 34t-65.5 15.5q-94 0 -205 -111l-49 51q140 146 254 146q56 0 147 -49.5t139 -49.5q100 0 213 113zM115 717q0 161 62 296.5t180.5 236.5t303 157.5t416.5 56.5t416.5 -56.5t303 -157.5t181 -236.5
t62.5 -296.5t-62.5 -297t-181 -236.5t-303 -157.5t-416.5 -57t-416.5 57t-303 157.5t-180.5 236.5t-62 297zM238 717q0 -137 53.5 -252t156.5 -200t264 -133t365 -48q205 0 366.5 48t264 133t156 200t53.5 252q0 138 -53.5 253.5t-156 201t-264 133t-366.5 47.5
q-204 0 -365 -47.5t-264 -133t-156.5 -201t-53.5 -253.5z" />
    <glyph glyph-name="Odieresis" unicode="&#xd6;" horiz-adv-x="2156" 
d="M778 1802h92v-219h-92v219zM1282 1802h92v-219h-92v219zM115 717q0 161 62 296.5t180.5 236.5t303 157.5t416.5 56.5t416.5 -56.5t303 -157.5t181 -236.5t62.5 -296.5t-62.5 -297t-181 -236.5t-303 -157.5t-416.5 -57t-416.5 57t-303 157.5t-180.5 236.5t-62 297z
M238 717q0 -137 53.5 -252t156.5 -200t264 -133t365 -48q205 0 366.5 48t264 133t156 200t53.5 252q0 138 -53.5 253.5t-156 201t-264 133t-366.5 47.5q-204 0 -365 -47.5t-264 -133t-156.5 -201t-53.5 -253.5z" />
    <glyph glyph-name="multiply" unicode="&#xd7;" horiz-adv-x="1363" 
d="M293 209l328 328l-328 329l61 60l328 -330l330 330l59 -60l-330 -329l330 -328l-59 -59l-330 327l-328 -327z" />
    <glyph glyph-name="Oslash" unicode="&#xd8;" horiz-adv-x="2156" 
d="M115 717q0 161 62 296.5t180.5 236.5t303 157.5t416.5 56.5q341 0 578 -123l125 125l51 -51l-113 -110q158 -99 240 -251t82 -337q0 -161 -62.5 -297t-181 -236.5t-303 -157.5t-416.5 -57q-337 0 -575 119l-119 -121l-51 51l106 107q-159 98 -241 251.5t-82 340.5z
M238 717q0 -162 72.5 -292t213.5 -214l1041 1040q-204 101 -488 101q-204 0 -365 -47.5t-264 -133t-156.5 -201t-53.5 -253.5zM1917 717q0 159 -72.5 289.5t-210.5 212.5l-1042 -1041q196 -94 485 -94q205 0 366.5 48t264 133t156 200t53.5 252z" />
    <glyph glyph-name="Ugrave" unicode="&#xd9;" horiz-adv-x="2033" 
d="M694 1882l676 -264l-22 -62l-689 234zM1755 573v861h121v-861q0 -314 -212 -459t-648 -145t-648 145t-212 459v861h120v-861q0 -260 186 -374.5t554 -114.5q369 0 554 114.5t185 374.5z" />
    <glyph glyph-name="Uacute" unicode="&#xda;" horiz-adv-x="2033" 
d="M659 1618l678 264l33 -92l-688 -234zM1755 573v861h121v-861q0 -314 -212 -459t-648 -145t-648 145t-212 459v861h120v-861q0 -260 186 -374.5t554 -114.5q369 0 554 114.5t185 374.5z" />
    <glyph glyph-name="Ucircumflex" unicode="&#xdb;" horiz-adv-x="2033" 
d="M1755 573v861h121v-861q0 -314 -212 -459t-648 -145t-648 145t-212 459v861h120v-861q0 -260 186 -374.5t554 -114.5q369 0 554 114.5t185 374.5zM1434 1536l-420 236l-418 -236l-31 61l449 273l448 -273z" />
    <glyph glyph-name="Udieresis" unicode="&#xdc;" horiz-adv-x="2033" 
d="M717 1802h92v-219h-92v219zM1221 1802h92v-219h-92v219zM1755 573v861h121v-861q0 -314 -212 -459t-648 -145t-648 145t-212 459v861h120v-861q0 -260 186 -374.5t554 -114.5q369 0 554 114.5t185 374.5z" />
    <glyph glyph-name="Yacute" unicode="&#xdd;" horiz-adv-x="2037" 
d="M1870 1434h153l-944 -990v-444h-121v444l-946 990h156l342 -359l508 -530l510 530zM662 1618l677 264l33 -92l-688 -234z" />
    <glyph glyph-name="Thorn" unicode="&#xde;" horiz-adv-x="1941" 
d="M276 0h-120v1434h120v-211h953q103 0 191.5 -16t168 -53.5t135.5 -94.5t88.5 -144t32.5 -198t-32.5 -198t-89 -144.5t-135.5 -95.5t-167.5 -54t-191.5 -16h-953v-209zM1237 1110h-961v-786h961q104 0 188.5 20.5t153 65t106 122.5t37.5 185t-37.5 185t-106 122.5t-153 65
t-188.5 20.5z" />
    <glyph glyph-name="germandbls" unicode="&#xdf;" horiz-adv-x="2168" 
d="M256 0h-121v1149q0 62 26 111.5t65.5 82t101 56t118 36t130.5 19.5t125.5 8.5t115.5 1.5q254 0 514 -41l-80 -428q-569 14 -569 -204q0 -42 21 -73t61.5 -50t90.5 -31t118 -17t132.5 -7t145.5 -3h23q110 -1 175 -4t161.5 -12t153.5 -28.5t115 -51t85 -83t27 -120.5
q0 -65 -32.5 -118t-83 -88t-122.5 -61t-141 -40t-149.5 -22.5t-136.5 -10.5t-112 -2q-179 0 -328.5 19.5t-348.5 70.5l24 111q207 -49 353 -68.5t313 -19.5q45 0 91.5 1.5t112 7.5t123 15.5t117 27t101.5 40.5t69 58.5t27 78.5q0 31 -11 56t-29 43.5t-48.5 33t-60.5 24.5
t-76 17t-83.5 10.5t-94 6t-97 3t-102.5 1.5h-4q-62 1 -103.5 2t-100.5 3.5t-99.5 7.5t-91.5 12t-86 18.5t-73.5 27t-63.5 36.5t-46 47t-31 59.5t-10 73.5q0 50 16.5 91.5t48 71.5t69 53t89 38t98.5 25.5t106 16t102.5 8t97.5 3.5l47 233q-231 26 -416 29q-55 0 -101 -1.5
t-106 -6.5t-106.5 -13.5t-94.5 -25t-79.5 -38t-51.5 -54.5t-20 -74v-1149z" />
    <glyph glyph-name="agrave" unicode="&#xe0;" horiz-adv-x="1751" 
d="M1704 106v-106q-91 -31 -156 -31q-114 0 -151 59.5t-37 200.5q-84 -112 -263 -186t-386 -74q-260 0 -418 97.5t-158 275.5q0 79 34.5 139.5t89 98t131.5 61t153 32.5t162 9q137 0 329.5 -10t319.5 -23q-10 62 -30 110.5t-61.5 93.5t-103 75t-157.5 47.5t-222 17.5
q-164 0 -307 -24.5t-205 -46.5l-39 106q65 25 221.5 51.5t329.5 26.5q188 0 325.5 -37t217.5 -105t117 -155.5t37 -198.5v-348q0 -98 24 -139t92 -41q53 0 111 24zM258 350q0 -133 130 -204.5t341 -71.5q209 0 388 79t239 195v244h-658q-85 0 -156 -10.5t-138.5 -35.5
t-106.5 -75t-39 -121zM553 1524l676 -264l-23 -62l-688 234z" />
    <glyph glyph-name="aacute" unicode="&#xe1;" horiz-adv-x="1751" 
d="M1704 106v-106q-91 -31 -156 -31q-114 0 -151 59.5t-37 200.5q-84 -112 -263 -186t-386 -74q-260 0 -418 97.5t-158 275.5q0 79 34.5 139.5t89 98t131.5 61t153 32.5t162 9q137 0 329.5 -10t319.5 -23q-10 62 -30 110.5t-61.5 93.5t-103 75t-157.5 47.5t-222 17.5
q-164 0 -307 -24.5t-205 -46.5l-39 106q65 25 221.5 51.5t329.5 26.5q188 0 325.5 -37t217.5 -105t117 -155.5t37 -198.5v-348q0 -98 24 -139t92 -41q53 0 111 24zM258 350q0 -133 130 -204.5t341 -71.5q209 0 388 79t239 195v244h-658q-85 0 -156 -10.5t-138.5 -35.5
t-106.5 -75t-39 -121zM518 1260l678 264l33 -92l-688 -234z" />
    <glyph glyph-name="acircumflex" unicode="&#xe2;" horiz-adv-x="1751" 
d="M1704 106v-106q-91 -31 -156 -31q-114 0 -151 59.5t-37 200.5q-84 -112 -263 -186t-386 -74q-260 0 -418 97.5t-158 275.5q0 79 34.5 139.5t89 98t131.5 61t153 32.5t162 9q137 0 329.5 -10t319.5 -23q-10 62 -30 110.5t-61.5 93.5t-103 75t-157.5 47.5t-222 17.5
q-164 0 -307 -24.5t-205 -46.5l-39 106q65 25 221.5 51.5t329.5 26.5q188 0 325.5 -37t217.5 -105t117 -155.5t37 -198.5v-348q0 -98 24 -139t92 -41q53 0 111 24zM258 350q0 -133 130 -204.5t341 -71.5q209 0 388 79t239 195v244h-658q-85 0 -156 -10.5t-138.5 -35.5
t-106.5 -75t-39 -121zM1266 1178l-420 235l-418 -235l-31 61l449 272l448 -272z" />
    <glyph glyph-name="atilde" unicode="&#xe3;" horiz-adv-x="1751" 
d="M1704 106v-106q-91 -31 -156 -31q-114 0 -151 59.5t-37 200.5q-84 -112 -263 -186t-386 -74q-260 0 -418 97.5t-158 275.5q0 79 34.5 139.5t89 98t131.5 61t153 32.5t162 9q137 0 329.5 -10t319.5 -23q-10 62 -30 110.5t-61.5 93.5t-103 75t-157.5 47.5t-222 17.5
q-164 0 -307 -24.5t-205 -46.5l-39 106q65 25 221.5 51.5t329.5 26.5q188 0 325.5 -37t217.5 -105t117 -155.5t37 -198.5v-348q0 -98 24 -139t92 -41q53 0 111 24zM258 350q0 -133 130 -204.5t341 -71.5q209 0 388 79t239 195v244h-658q-85 0 -156 -10.5t-138.5 -35.5
t-106.5 -75t-39 -121zM1198 1436l49 -52q-143 -147 -262 -147q-49 0 -102 24.5t-101 49t-84 24.5q-94 0 -204 -110l-50 51q140 145 254 145q56 0 147.5 -49t139.5 -49q100 0 213 113z" />
    <glyph glyph-name="adieresis" unicode="&#xe4;" horiz-adv-x="1751" 
d="M1704 106v-106q-91 -31 -156 -31q-114 0 -151 59.5t-37 200.5q-84 -112 -263 -186t-386 -74q-260 0 -418 97.5t-158 275.5q0 79 34.5 139.5t89 98t131.5 61t153 32.5t162 9q137 0 329.5 -10t319.5 -23q-10 62 -30 110.5t-61.5 93.5t-103 75t-157.5 47.5t-222 17.5
q-164 0 -307 -24.5t-205 -46.5l-39 106q65 25 221.5 51.5t329.5 26.5q188 0 325.5 -37t217.5 -105t117 -155.5t37 -198.5v-348q0 -98 24 -139t92 -41q53 0 111 24zM258 350q0 -133 130 -204.5t341 -71.5q209 0 388 79t239 195v244h-658q-85 0 -156 -10.5t-138.5 -35.5
t-106.5 -75t-39 -121zM575 1444h93v-219h-93v219zM1079 1444h92v-219h-92v219z" />
    <glyph glyph-name="aring" unicode="&#xe5;" horiz-adv-x="1751" 
d="M1704 106v-106q-91 -31 -156 -31q-114 0 -151 59.5t-37 200.5q-84 -112 -263 -186t-386 -74q-260 0 -418 97.5t-158 275.5q0 79 34.5 139.5t89 98t131.5 61t153 32.5t162 9q137 0 329.5 -10t319.5 -23q-10 62 -30 110.5t-61.5 93.5t-103 75t-157.5 47.5t-222 17.5
q-164 0 -307 -24.5t-205 -46.5l-39 106q65 25 221.5 51.5t329.5 26.5q188 0 325.5 -37t217.5 -105t117 -155.5t37 -198.5v-348q0 -98 24 -139t92 -41q53 0 111 24zM258 350q0 -133 130 -204.5t341 -71.5q209 0 388 79t239 195v244h-658q-85 0 -156 -10.5t-138.5 -35.5
t-106.5 -75t-39 -121zM612 1343q0 88 58 141.5t174 53.5t173.5 -53.5t57.5 -141.5q0 -90 -57.5 -144t-173.5 -54t-174 54t-58 144zM670 1343q0 -64 43 -103.5t131 -39.5t131 39.5t43 103.5q0 62 -43 100t-131 38t-131 -38t-43 -100z" />
    <glyph glyph-name="ae" unicode="&#xe6;" horiz-adv-x="2867" 
d="M684 -31q-246 0 -397.5 98t-151.5 277q0 96 49 165.5t132 105.5t172 51.5t190 15.5q155 0 330 -36t319 -99q11 229 -119 337.5t-442 108.5q-162 0 -298.5 -24t-199.5 -47l-39 106q67 25 216 51.5t323 26.5q542 0 631 -336q62 156 219.5 246t413.5 90q176 0 318.5 -41
t239.5 -122.5t128 -202t-17 -279.5h-1245q45 -379 662 -379q186 0 348 27t227 53l25 -107q-77 -29 -240.5 -57.5t-359.5 -28.5q-650 0 -758 383q-74 -179 -250.5 -281t-425.5 -102zM258 350q0 -133 123.5 -204.5t320.5 -71.5q261 0 437 115t190 292q-106 53 -315 84t-342 31
q-59 0 -113 -6t-110.5 -23.5t-97.5 -44t-67 -71t-26 -101.5zM1454 547h1131q26 94 8 167t-66.5 126t-126 87.5t-169.5 51t-197 16.5q-291 0 -434.5 -121t-145.5 -327z" />
    <glyph glyph-name="ccedilla" unicode="&#xe7;" horiz-adv-x="1662" 
d="M682 -479l39 69q44 -5 90.5 -6.5t102 2.5t98 15.5t72 36.5t30.5 61q4 54 -73.5 85t-186.5 28q-9 2 -16.5 10.5t-6.5 19.5l68 127q-407 9 -606 162.5t-199 407.5q0 101 31 186t97 156t165 120.5t241 77t318 27.5q197 0 348 -27.5t232 -58.5l-23 -107q-72 27 -220.5 53.5
t-334.5 26.5q-192 0 -335 -33.5t-228.5 -95t-126.5 -142.5t-41 -183t41 -183.5t126.5 -143.5t228.5 -96t335 -34q186 0 334.5 26.5t220.5 53.5l23 -107q-80 -30 -227.5 -57.5t-340.5 -28.5l-61 -110q75 5 144.5 -12t116 -57t42.5 -95q-3 -49 -33 -84.5t-80.5 -54t-102 -29
t-116 -11.5t-103.5 0.5t-83 4.5z" />
    <glyph glyph-name="egrave" unicode="&#xe8;" horiz-adv-x="1675" 
d="M1509 461h-1284q50 -379 678 -379q190 0 361.5 27.5t238.5 52.5l23 -107q-75 -28 -249.5 -57t-371.5 -29q-404 0 -607.5 143.5t-203.5 417.5q0 120 45 223t132 182.5t226 125t316 45.5q178 0 324.5 -40.5t248.5 -121.5t136 -201.5t-13 -281.5zM221 559h1176
q25 92 3.5 164t-73 123t-132.5 84.5t-175 49t-201 15.5q-291 0 -437.5 -118t-160.5 -318zM514 1524l676 -264l-23 -62l-688 234z" />
    <glyph glyph-name="eacute" unicode="&#xe9;" horiz-adv-x="1675" 
d="M481 1260l678 264l33 -92l-688 -234zM1509 461h-1284q50 -379 678 -379q190 0 361.5 27.5t238.5 52.5l23 -107q-75 -28 -249.5 -57t-371.5 -29q-404 0 -607.5 143.5t-203.5 417.5q0 120 45 223t132 182.5t226 125t316 45.5q178 0 324.5 -40.5t248.5 -121.5t136 -201.5
t-13 -281.5zM221 559h1176q25 92 3.5 164t-73 123t-132.5 84.5t-175 49t-201 15.5q-291 0 -437.5 -118t-160.5 -318z" />
    <glyph glyph-name="ecircumflex" unicode="&#xea;" horiz-adv-x="1675" 
d="M1255 1178l-419 235l-418 -235l-31 61l449 272l448 -272zM1509 461h-1284q50 -379 678 -379q190 0 361.5 27.5t238.5 52.5l23 -107q-75 -28 -249.5 -57t-371.5 -29q-404 0 -607.5 143.5t-203.5 417.5q0 120 45 223t132 182.5t226 125t316 45.5q178 0 324.5 -40.5
t248.5 -121.5t136 -201.5t-13 -281.5zM221 559h1176q25 92 3.5 164t-73 123t-132.5 84.5t-175 49t-201 15.5q-291 0 -437.5 -118t-160.5 -318z" />
    <glyph glyph-name="edieresis" unicode="&#xeb;" horiz-adv-x="1675" 
d="M539 1444h92v-219h-92v219zM1042 1444h93v-219h-93v219zM1509 461h-1284q50 -379 678 -379q190 0 361.5 27.5t238.5 52.5l23 -107q-75 -28 -249.5 -57t-371.5 -29q-404 0 -607.5 143.5t-203.5 417.5q0 120 45 223t132 182.5t226 125t316 45.5q178 0 324.5 -40.5
t248.5 -121.5t136 -201.5t-13 -281.5zM221 559h1176q25 92 3.5 164t-73 123t-132.5 84.5t-175 49t-201 15.5q-291 0 -437.5 -118t-160.5 -318z" />
    <glyph glyph-name="igrave" unicode="&#xec;" horiz-adv-x="475" 
d="M297 0h-121v1075l121 17v-1092zM-289 1524l676 -264l-22 -62l-689 234z" />
    <glyph glyph-name="iacute" unicode="&#xed;" horiz-adv-x="475" 
d="M96 1260l678 264l33 -92l-688 -234zM297 0h-121v1075l121 17v-1092z" />
    <glyph glyph-name="icircumflex" unicode="&#xee;" horiz-adv-x="475" 
d="M657 1178l-419 235l-418 -235l-31 61l449 272l448 -272zM297 0h-121v1075l121 17v-1092z" />
    <glyph glyph-name="idieresis" unicode="&#xef;" horiz-adv-x="475" 
d="M-59 1444h92v-219h-92v219zM444 1444h93v-219h-93v219zM297 0h-121v1075l121 17v-1092z" />
    <glyph glyph-name="eth" unicode="&#xf0;" horiz-adv-x="1759" 
d="M1233 1040l-33 31l125 125q-176 149 -483 152q-124 3 -264 -13l-27 111q120 14 254 14q387 0 600 -184l178 178l33 -33l-176 -176q202 -202 202 -577q0 -161 -42.5 -287t-130 -219.5t-232 -143t-340.5 -49.5q-360 0 -571 152t-211 409q0 102 36.5 189t100 150
t149.5 107.5t186.5 66.5t209.5 22q119 0 240 -30t223.5 -84.5t174 -138.5t87.5 -183q20 353 -162 538zM238 528q0 -203 175 -324.5t470 -121.5q129 0 235 26t176 68.5t117.5 100.5t68.5 119t21 126q0 86 -43 159.5t-112.5 123.5t-158.5 85.5t-180.5 51.5t-179.5 16
q-161 0 -293 -49t-214 -148.5t-82 -232.5z" />
    <glyph glyph-name="ntilde" unicode="&#xf1;" 
d="M1575 0h-121v545q0 99 -31 178.5t-94.5 141t-170 95t-249.5 33.5q-276 0 -653 -131v-862h-121v1075l117 17l2 -127l2 -2q347 143 664 143q168 0 295.5 -42t205 -118t116 -177t38.5 -224v-545zM1204 1436l49 -52q-143 -147 -262 -147q-49 0 -102 24.5t-100.5 49
t-83.5 24.5q-95 0 -205 -110l-49 51q140 145 254 145q56 0 147 -49t139 -49q100 0 213 113z" />
    <glyph glyph-name="ograve" unicode="&#xf2;" horiz-adv-x="1665" 
d="M94 539q0 254 194.5 410.5t542.5 156.5t543 -156.5t195 -410.5t-195 -412t-543 -158t-542.5 158t-194.5 412zM217 539q0 -204 161.5 -330.5t452.5 -126.5q292 0 453.5 126.5t161.5 330.5t-161.5 329t-453.5 125t-453 -125t-161 -329zM510 1524l676 -264l-23 -62l-688 234
z" />
    <glyph glyph-name="oacute" unicode="&#xf3;" horiz-adv-x="1665" 
d="M477 1260l678 264l33 -92l-688 -234zM94 539q0 254 194.5 410.5t542.5 156.5t543 -156.5t195 -410.5t-195 -412t-543 -158t-542.5 158t-194.5 412zM217 539q0 -204 161.5 -330.5t452.5 -126.5q292 0 453.5 126.5t161.5 330.5t-161.5 329t-453.5 125t-453 -125t-161 -329z
" />
    <glyph glyph-name="ocircumflex" unicode="&#xf4;" horiz-adv-x="1665" 
d="M1249 1178l-420 235l-417 -235l-31 61l448 272l449 -272zM94 539q0 254 194.5 410.5t542.5 156.5t543 -156.5t195 -410.5t-195 -412t-543 -158t-542.5 158t-194.5 412zM217 539q0 -204 161.5 -330.5t452.5 -126.5q292 0 453.5 126.5t161.5 330.5t-161.5 329t-453.5 125
t-453 -125t-161 -329z" />
    <glyph glyph-name="otilde" unicode="&#xf5;" horiz-adv-x="1665" 
d="M94 539q0 254 194.5 410.5t542.5 156.5t543 -156.5t195 -410.5t-195 -412t-543 -158t-542.5 158t-194.5 412zM217 539q0 -204 161.5 -330.5t452.5 -126.5q292 0 453.5 126.5t161.5 330.5t-161.5 329t-453.5 125t-453 -125t-161 -329zM1182 1436l49 -52
q-143 -147 -262 -147q-49 0 -102 24.5t-101 49t-84 24.5q-95 0 -205 -110l-49 51q140 145 254 145q56 0 147.5 -49t139.5 -49q100 0 213 113z" />
    <glyph glyph-name="odieresis" unicode="&#xf6;" horiz-adv-x="1665" 
d="M532 1444h93v-219h-93v219zM1036 1444h92v-219h-92v219zM94 539q0 254 194.5 410.5t542.5 156.5t543 -156.5t195 -410.5t-195 -412t-543 -158t-542.5 158t-194.5 412zM217 539q0 -204 161.5 -330.5t452.5 -126.5q292 0 453.5 126.5t161.5 330.5t-161.5 329t-453.5 125
t-453 -125t-161 -329z" />
    <glyph glyph-name="divide" unicode="&#xf7;" horiz-adv-x="1449" 
d="M768 1044v-210h-84v210h84zM217 580h1014v-86h-1014v86zM768 242v-211h-84v211h84z" />
    <glyph glyph-name="oslash" unicode="&#xf8;" horiz-adv-x="1665" 
d="M406 55l-99 -98l-49 51l82 82q-120 76 -183 192t-63 257q0 254 194.5 410.5t542.5 156.5q255 0 437 -90l106 106l51 -49l-96 -94q117 -74 178.5 -188t61.5 -252q0 -254 -195 -412t-543 -158q-248 0 -425 86zM217 539q0 -116 53.5 -209t155.5 -154l750 750
q-140 67 -345 67q-292 0 -453 -125t-161 -329zM1446 539q0 112 -51 203.5t-150 150.5l-747 -746q133 -65 333 -65q292 0 453.5 126.5t161.5 330.5z" />
    <glyph glyph-name="ugrave" unicode="&#xf9;" 
d="M135 530v545h121v-545q0 -205 133 -326.5t406 -121.5q191 0 358 67t301 179v747h121v-1075h-107l-6 215l-2 2q-311 -248 -694 -248q-160 0 -282 42t-197.5 118t-113.5 177t-38 224zM532 1524l676 -264l-22 -62l-688 234z" />
    <glyph glyph-name="uacute" unicode="&#xfa;" 
d="M500 1260l678 264l32 -92l-688 -234zM135 530v545h121v-545q0 -205 133 -326.5t406 -121.5q191 0 358 67t301 179v747h121v-1075h-107l-6 215l-2 2q-311 -248 -694 -248q-160 0 -282 42t-197.5 118t-113.5 177t-38 224z" />
    <glyph glyph-name="ucircumflex" unicode="&#xfb;" 
d="M1274 1178l-420 235l-418 -235l-30 61l448 272l449 -272zM135 530v545h121v-545q0 -205 133 -326.5t406 -121.5q191 0 358 67t301 179v747h121v-1075h-107l-6 215l-2 2q-311 -248 -694 -248q-160 0 -282 42t-197.5 118t-113.5 177t-38 224z" />
    <glyph glyph-name="udieresis" unicode="&#xfc;" 
d="M555 1444h92v-219h-92v219zM1059 1444h92v-219h-92v219zM135 530v545h121v-545q0 -205 133 -326.5t406 -121.5q191 0 358 67t301 179v747h121v-1075h-107l-6 215l-2 2q-311 -248 -694 -248q-160 0 -282 42t-197.5 118t-113.5 177t-38 224z" />
    <glyph glyph-name="yacute" unicode="&#xfd;" horiz-adv-x="1660" 
d="M778 -14l-725 1089h144l364 -563l275 -418l628 981h142l-742 -1155q-113 -175 -230 -244t-263 -69q-107 0 -265 33v96q169 -33 250 -33q122 0 216 56.5t178 183.5zM475 1260l678 264l33 -92l-688 -234z" />
    <glyph glyph-name="thorn" unicode="&#xfe;" horiz-adv-x="1732" 
d="M256 231l-2 -2l2 -262v-356h-121v1837l121 16v-370l-2 -131l2 -2q136 65 322 105t358 40t306.5 -42t220 -118t129.5 -178t44 -225q0 -125 -45 -230.5t-129.5 -182t-212.5 -119t-286 -42.5q-217 0 -398 73.5t-309 188.5zM926 993q-162 0 -349 -38t-321 -95v-514
q106 -111 295.5 -187.5t400.5 -76.5q267 0 414 126.5t147 332.5q0 204 -149.5 328t-437.5 124z" />
    <glyph glyph-name="ydieresis" unicode="&#xff;" horiz-adv-x="1660" 
d="M778 -14l-725 1089h144l364 -563l275 -418l628 981h142l-742 -1155q-113 -175 -230 -244t-263 -69q-107 0 -265 33v96q169 -33 250 -33q122 0 216 56.5t178 183.5zM530 1444h93v-219h-93v219zM1034 1444h92v-219h-92v219z" />
    <glyph glyph-name="Amacron" unicode="&#x100;" horiz-adv-x="2021" 
d="M1079 1434l930 -1434h-141l-246 373h-1225l-243 -373h-142l930 1434h137zM1010 1327l-459 -713l-86 -127h1089l-84 127zM645 1739h727v-82h-727v82z" />
    <glyph glyph-name="amacron" unicode="&#x101;" horiz-adv-x="1751" 
d="M1704 106v-106q-91 -31 -156 -31q-114 0 -151 59.5t-37 200.5q-84 -112 -263 -186t-386 -74q-260 0 -418 97.5t-158 275.5q0 79 34.5 139.5t89 98t131.5 61t153 32.5t162 9q137 0 329.5 -10t319.5 -23q-10 62 -30 110.5t-61.5 93.5t-103 75t-157.5 47.5t-222 17.5
q-164 0 -307 -24.5t-205 -46.5l-39 106q65 25 221.5 51.5t329.5 26.5q188 0 325.5 -37t217.5 -105t117 -155.5t37 -198.5v-348q0 -98 24 -139t92 -41q53 0 111 24zM258 350q0 -133 130 -204.5t341 -71.5q209 0 388 79t239 195v244h-658q-85 0 -156 -10.5t-138.5 -35.5
t-106.5 -75t-39 -121zM510 1380h727v-82h-727v82z" />
    <glyph glyph-name="Abreve" unicode="&#x102;" horiz-adv-x="2021" 
d="M1079 1434l930 -1434h-141l-246 373h-1225l-243 -373h-142l930 1434h137zM1010 1327l-459 -713l-86 -127h1089l-84 127zM1298 1810l62 -41q-50 -95 -142.5 -155t-207.5 -60q-116 0 -209 60t-142 155l64 41q38 -75 115 -122.5t172 -47.5t171.5 47.5t116.5 122.5z" />
    <glyph glyph-name="abreve" unicode="&#x103;" horiz-adv-x="1751" 
d="M1704 106v-106q-91 -31 -156 -31q-114 0 -151 59.5t-37 200.5q-84 -112 -263 -186t-386 -74q-260 0 -418 97.5t-158 275.5q0 79 34.5 139.5t89 98t131.5 61t153 32.5t162 9q137 0 329.5 -10t319.5 -23q-10 62 -30 110.5t-61.5 93.5t-103 75t-157.5 47.5t-222 17.5
q-164 0 -307 -24.5t-205 -46.5l-39 106q65 25 221.5 51.5t329.5 26.5q188 0 325.5 -37t217.5 -105t117 -155.5t37 -198.5v-348q0 -98 24 -139t92 -41q53 0 111 24zM258 350q0 -133 130 -204.5t341 -71.5q209 0 388 79t239 195v244h-658q-85 0 -156 -10.5t-138.5 -35.5
t-106.5 -75t-39 -121zM1130 1452l62 -41q-50 -95 -142.5 -155t-207.5 -60t-207.5 60t-142.5 155l63 41q38 -75 115 -122.5t172 -47.5t171.5 47.5t116.5 122.5z" />
    <glyph glyph-name="Aogonek" unicode="&#x104;" horiz-adv-x="2021" 
d="M1079 1434l930 -1434q-57 -37 -103 -103t-46 -126q0 -100 135 -131l-4 -74q-98 13 -151.5 62.5t-53.5 117.5q0 65 48.5 135.5t123.5 118.5h-90l-246 373h-1225l-243 -373h-142l930 1434h137zM1010 1327l-459 -713l-86 -127h1089l-84 127z" />
    <glyph glyph-name="aogonek" unicode="&#x105;" horiz-adv-x="1751" 
d="M1704 106v-106q-57 -37 -103.5 -103.5t-46.5 -125.5q0 -100 136 -131l-4 -74q-98 13 -151.5 62.5t-53.5 117.5q0 58 38.5 120.5t100.5 110.5q-36 -8 -72 -8q-114 0 -151 59.5t-37 200.5q-84 -112 -263 -186t-386 -74q-260 0 -418 97.5t-158 275.5q0 79 34.5 139.5t89 98
t131.5 61t153 32.5t162 9q137 0 329.5 -10t319.5 -23q-10 62 -30 110.5t-61.5 93.5t-103 75t-157.5 47.5t-222 17.5q-164 0 -307 -24.5t-205 -46.5l-39 106q65 25 221.5 51.5t329.5 26.5q188 0 325.5 -37t217.5 -105t117 -155.5t37 -198.5v-348q0 -98 24 -139t92 -41
q53 0 111 24zM258 350q0 -133 130 -204.5t341 -71.5q209 0 388 79t239 195v244h-658q-85 0 -156 -10.5t-138.5 -35.5t-106.5 -75t-39 -121z" />
    <glyph glyph-name="Cacute" unicode="&#x106;" horiz-adv-x="1996" 
d="M1872 193l29 -109q-341 -115 -730 -115q-219 0 -395.5 37t-298.5 103.5t-204 160.5t-120 205.5t-38 241.5t38 241.5t120 205.5t204 160t298.5 103t395.5 37q392 0 730 -114l-29 -109q-355 111 -701 111q-195 0 -351.5 -31t-264 -87t-179.5 -136t-105 -174.5t-33 -206.5
q0 -111 33 -205t105 -174t179.5 -135.5t264 -87t351.5 -31.5q353 0 701 109zM670 1618l678 264l32 -92l-688 -234z" />
    <glyph glyph-name="cacute" unicode="&#x107;" horiz-adv-x="1662" 
d="M537 1260l677 264l33 -92l-688 -234zM1503 162l23 -107q-81 -31 -232 -58.5t-348 -27.5q-219 0 -384.5 42t-266.5 119.5t-151 180t-50 228.5q0 101 31 186t97 156t165 120.5t241 77t318 27.5q197 0 348 -27.5t232 -58.5l-23 -107q-72 27 -220.5 53.5t-334.5 26.5
q-192 0 -335 -33.5t-228.5 -95t-126.5 -142.5t-41 -183t41 -183.5t126.5 -143.5t228.5 -96t335 -34q186 0 334.5 26.5t220.5 53.5z" />
    <glyph glyph-name="Ccircumflex" unicode="&#x108;" horiz-adv-x="1996" 
d="M1872 193l29 -109q-341 -115 -730 -115q-219 0 -395.5 37t-298.5 103.5t-204 160.5t-120 205.5t-38 241.5t38 241.5t120 205.5t204 160t298.5 103t395.5 37q392 0 730 -114l-29 -109q-355 111 -701 111q-195 0 -351.5 -31t-264 -87t-179.5 -136t-105 -174.5t-33 -206.5
q0 -111 33 -205t105 -174t179.5 -135.5t264 -87t351.5 -31.5q353 0 701 109zM1550 1536l-420 236l-417 -236l-31 61l448 273l449 -273z" />
    <glyph glyph-name="ccircumflex" unicode="&#x109;" horiz-adv-x="1662" 
d="M1337 1178l-419 235l-418 -235l-31 61l449 272l448 -272zM1503 162l23 -107q-81 -31 -232 -58.5t-348 -27.5q-219 0 -384.5 42t-266.5 119.5t-151 180t-50 228.5q0 101 31 186t97 156t165 120.5t241 77t318 27.5q197 0 348 -27.5t232 -58.5l-23 -107q-72 27 -220.5 53.5
t-334.5 26.5q-192 0 -335 -33.5t-228.5 -95t-126.5 -142.5t-41 -183t41 -183.5t126.5 -143.5t228.5 -96t335 -34q186 0 334.5 26.5t220.5 53.5z" />
    <glyph glyph-name="Cdotaccent" unicode="&#x10a;" horiz-adv-x="1996" 
d="M1075 1802h92v-219h-92v219zM1872 193l29 -109q-341 -115 -730 -115q-219 0 -395.5 37t-298.5 103.5t-204 160.5t-120 205.5t-38 241.5t38 241.5t120 205.5t204 160t298.5 103t395.5 37q392 0 730 -114l-29 -109q-355 111 -701 111q-195 0 -351.5 -31t-264 -87
t-179.5 -136t-105 -174.5t-33 -206.5q0 -111 33 -205t105 -174t179.5 -135.5t264 -87t351.5 -31.5q353 0 701 109z" />
    <glyph glyph-name="cdotaccent" unicode="&#x10b;" horiz-adv-x="1662" 
d="M1503 162l23 -107q-81 -31 -232 -58.5t-348 -27.5q-219 0 -384.5 42t-266.5 119.5t-151 180t-50 228.5q0 101 31 186t97 156t165 120.5t241 77t318 27.5q197 0 348 -27.5t232 -58.5l-23 -107q-72 27 -220.5 53.5t-334.5 26.5q-192 0 -335 -33.5t-228.5 -95t-126.5 -142.5
t-41 -183t41 -183.5t126.5 -143.5t228.5 -96t335 -34q186 0 334.5 26.5t220.5 53.5zM856 1444h92v-219h-92v219z" />
    <glyph glyph-name="Ccaron" unicode="&#x10c;" horiz-adv-x="1996" 
d="M1872 193l29 -109q-341 -115 -730 -115q-219 0 -395.5 37t-298.5 103.5t-204 160.5t-120 205.5t-38 241.5t38 241.5t120 205.5t204 160t298.5 103t395.5 37q392 0 730 -114l-29 -109q-355 111 -701 111q-195 0 -351.5 -31t-264 -87t-179.5 -136t-105 -174.5t-33 -206.5
q0 -111 33 -205t105 -174t179.5 -135.5t264 -87t351.5 -31.5q353 0 701 109zM1110 1632l420 236l29 -60l-449 -274l-448 274l30 60z" />
    <glyph glyph-name="ccaron" unicode="&#x10d;" horiz-adv-x="1662" 
d="M909 1274l420 235l29 -59l-449 -274l-448 274l31 59zM1503 162l23 -107q-81 -31 -232 -58.5t-348 -27.5q-219 0 -384.5 42t-266.5 119.5t-151 180t-50 228.5q0 101 31 186t97 156t165 120.5t241 77t318 27.5q197 0 348 -27.5t232 -58.5l-23 -107q-72 27 -220.5 53.5
t-334.5 26.5q-192 0 -335 -33.5t-228.5 -95t-126.5 -142.5t-41 -183t41 -183.5t126.5 -143.5t228.5 -96t335 -34q186 0 334.5 26.5t220.5 53.5z" />
    <glyph glyph-name="Dcaron" unicode="&#x10e;" horiz-adv-x="2031" 
d="M979 1632l420 236l28 -60l-448 -274l-449 274l31 60zM858 0h-702v1434h702q274 0 478.5 -51.5t330 -147.5t187 -225.5t61.5 -292.5t-61.5 -292.5t-187 -225.5t-330 -147.5t-478.5 -51.5zM858 1321h-582v-1206h582q245 0 426 42.5t291.5 123t163.5 189t53 247.5
q0 140 -53 249t-163.5 189.5t-291.5 123t-426 42.5z" />
    <glyph glyph-name="dcaron" unicode="&#x10f;" horiz-adv-x="1732" 
d="M1677 1434h117q31 -95 25 -238.5t-50 -273.5h-73q22 119 17.5 265.5t-36.5 246.5zM1477 963l-2 163v322l120 16v-1464h-106l-6 229l-2 2q-127 -115 -311 -188.5t-400 -73.5q-317 0 -496.5 158.5t-179.5 415.5q0 123 44.5 225t130.5 178t221 118t307 42t358 -40t320 -105z
M805 993q-287 0 -437.5 -124t-150.5 -328q0 -205 148 -332t413 -127q211 0 402 76.5t295 187.5v514q-132 57 -320 95t-350 38z" />
    <glyph glyph-name="Dcroat" unicode="&#x110;" horiz-adv-x="2031" 
d="M858 0h-702v682h-156v72h156v680h702q274 0 478.5 -51.5t330 -147.5t187 -225.5t61.5 -292.5t-61.5 -292.5t-187 -225.5t-330 -147.5t-478.5 -51.5zM858 1321h-582v-567h582v-72h-582v-567h582q245 0 426 42.5t291.5 123t163.5 189t53 247.5q0 140 -53 249t-163.5 189.5
t-291.5 123t-426 42.5z" />
    <glyph glyph-name="dcroat" unicode="&#x111;" horiz-adv-x="1732" 
d="M1595 1307h138v-70h-138v-1237h-106l-6 229l-2 2q-127 -115 -311 -188.5t-400 -73.5q-317 0 -496.5 158.5t-179.5 415.5q0 123 44.5 225t130.5 178t221 118t307 42t358 -40t320 -105l2 2l-2 163v111h-678v70h678v141l120 16v-157zM778 82q211 0 402 76.5t295 187.5v514
q-132 57 -320 95t-350 38q-287 0 -437.5 -124t-150.5 -328q0 -205 148 -332t413 -127z" />
    <glyph glyph-name="Emacron" unicode="&#x112;" horiz-adv-x="1867" 
d="M569 1739h727v-82h-727v82zM1751 0h-1595v1434h1554v-113h-1434v-526h1311v-115h-1311v-565h1475v-115z" />
    <glyph glyph-name="emacron" unicode="&#x113;" horiz-adv-x="1675" 
d="M1509 461h-1284q50 -379 678 -379q190 0 361.5 27.5t238.5 52.5l23 -107q-75 -28 -249.5 -57t-371.5 -29q-404 0 -607.5 143.5t-203.5 417.5q0 120 45 223t132 182.5t226 125t316 45.5q178 0 324.5 -40.5t248.5 -121.5t136 -201.5t-13 -281.5zM221 559h1176
q25 92 3.5 164t-73 123t-132.5 84.5t-175 49t-201 15.5q-291 0 -437.5 -118t-160.5 -318zM471 1380h727v-82h-727v82z" />
    <glyph glyph-name="Ebreve" unicode="&#x114;" horiz-adv-x="1867" 
d="M1221 1810l61 -41q-50 -95 -142.5 -155t-207.5 -60t-207.5 60t-142.5 155l63 41q38 -75 115 -122.5t172 -47.5t172 47.5t117 122.5zM1751 0h-1595v1434h1554v-113h-1434v-526h1311v-115h-1311v-565h1475v-115z" />
    <glyph glyph-name="ebreve" unicode="&#x115;" horiz-adv-x="1675" 
d="M1509 461h-1284q50 -379 678 -379q190 0 361.5 27.5t238.5 52.5l23 -107q-75 -28 -249.5 -57t-371.5 -29q-404 0 -607.5 143.5t-203.5 417.5q0 120 45 223t132 182.5t226 125t316 45.5q178 0 324.5 -40.5t248.5 -121.5t136 -201.5t-13 -281.5zM221 559h1176
q25 92 3.5 164t-73 123t-132.5 84.5t-175 49t-201 15.5q-291 0 -437.5 -118t-160.5 -318zM1124 1452l62 -41q-50 -95 -142.5 -155t-207.5 -60q-116 0 -209 60t-142 155l64 41q38 -75 115 -122.5t172 -47.5t171.5 47.5t116.5 122.5z" />
    <glyph glyph-name="Edotaccent" unicode="&#x116;" horiz-adv-x="1867" 
d="M885 1802h92v-219h-92v219zM1751 0h-1595v1434h1554v-113h-1434v-526h1311v-115h-1311v-565h1475v-115z" />
    <glyph glyph-name="edotaccent" unicode="&#x117;" horiz-adv-x="1675" 
d="M1509 461h-1284q50 -379 678 -379q190 0 361.5 27.5t238.5 52.5l23 -107q-75 -28 -249.5 -57t-371.5 -29q-404 0 -607.5 143.5t-203.5 417.5q0 120 45 223t132 182.5t226 125t316 45.5q178 0 324.5 -40.5t248.5 -121.5t136 -201.5t-13 -281.5zM221 559h1176
q25 92 3.5 164t-73 123t-132.5 84.5t-175 49t-201 15.5q-291 0 -437.5 -118t-160.5 -318zM791 1444h92v-219h-92v219z" />
    <glyph glyph-name="Eogonek" unicode="&#x118;" horiz-adv-x="1867" 
d="M1751 115v-115q-57 -37 -103 -103t-46 -126q0 -100 135 -131l-4 -74q-98 13 -151.5 62.5t-53.5 117.5q0 65 48.5 135.5t123.5 118.5h-1544v1434h1554v-113h-1434v-526h1311v-115h-1311v-565h1475z" />
    <glyph glyph-name="eogonek" unicode="&#x119;" horiz-adv-x="1675" 
d="M1509 461h-1284q50 -379 678 -379q190 0 361.5 27.5t238.5 52.5l23 -107q-57 -37 -103.5 -103.5t-46.5 -125.5q0 -100 135 -131l-4 -74q-98 13 -151 62.5t-53 117.5q0 58 37.5 120t99.5 110q-246 -62 -535 -62q-404 0 -607.5 143.5t-203.5 417.5q0 120 45 223t132 182.5
t226 125t316 45.5q178 0 324.5 -40.5t248.5 -121.5t136 -201.5t-13 -281.5zM221 559h1176q25 92 3.5 164t-73 123t-132.5 84.5t-175 49t-201 15.5q-291 0 -437.5 -118t-160.5 -318z" />
    <glyph glyph-name="Ecaron" unicode="&#x11a;" horiz-adv-x="1867" 
d="M932 1632l420 236l28 -60l-448 -274l-449 274l31 60zM1751 0h-1595v1434h1554v-113h-1434v-526h1311v-115h-1311v-565h1475v-115z" />
    <glyph glyph-name="ecaron" unicode="&#x11b;" horiz-adv-x="1675" 
d="M836 1274l419 235l29 -59l-448 -274l-449 274l31 59zM1509 461h-1284q50 -379 678 -379q190 0 361.5 27.5t238.5 52.5l23 -107q-75 -28 -249.5 -57t-371.5 -29q-404 0 -607.5 143.5t-203.5 417.5q0 120 45 223t132 182.5t226 125t316 45.5q178 0 324.5 -40.5
t248.5 -121.5t136 -201.5t-13 -281.5zM221 559h1176q25 92 3.5 164t-73 123t-132.5 84.5t-175 49t-201 15.5q-291 0 -437.5 -118t-160.5 -318z" />
    <glyph glyph-name="Gcircumflex" unicode="&#x11c;" horiz-adv-x="2201" 
d="M1944 664h-857v114h977v-104q0 -154 -51 -275.5t-138.5 -201t-213 -132t-267 -74.5t-307.5 -22q-236 0 -423 56.5t-306 158t-181 237t-62 296.5q0 130 38 241.5t120 205.5t204 160t298.5 103t395.5 37q133 0 255.5 -12t224.5 -35.5t144.5 -35t105.5 -31.5l-29 -107
q-348 109 -701 109q-195 0 -351.5 -31t-264 -87t-179.5 -136t-105 -174.5t-33 -206.5q0 -137 54.5 -252t158.5 -200t267 -133t369 -48q190 0 343 31.5t270 97t180.5 173t63.5 251.5v27zM1518 1536l-420 236l-418 -236l-31 61l449 273l448 -273z" />
    <glyph glyph-name="gcircumflex" unicode="&#x11d;" horiz-adv-x="1607" 
d="M1223 1178l-420 235l-418 -235l-31 61l449 272l448 -272zM139 696q0 99 51.5 177.5t141.5 129t210.5 77t260.5 26.5q103 0 229 -21q89 28 232 50t284 22l6 -80q-88 2 -217 -9t-184 -24q145 -46 229 -134.5t84 -213.5q0 -99 -49 -173t-139.5 -118.5t-209 -66t-265.5 -21.5
q-211 0 -359 43q-60 -48 -98.5 -131t-36.5 -143q111 46 325.5 81.5t416.5 35.5q106 0 193 -14t158 -44t110.5 -83t39.5 -125q0 -62 -31 -114t-80.5 -86.5t-118.5 -60.5t-136.5 -40.5t-144 -23.5t-132 -12t-108.5 -3q-268 0 -455.5 28t-277.5 58l24 106q55 -15 129 -30
t245.5 -32.5t356.5 -17.5q56 0 114 3.5t129.5 12t133 25t114 40t83 61t30.5 83.5q0 164 -446 164q-183 0 -382 -27.5t-320 -68.5q-29 2 -52 22t-26 54q5 76 53 162t123 143q-238 92 -238 313zM262 696q0 -72 40.5 -126t114 -86.5t170 -48t216.5 -15.5q161 0 279 27
t189.5 90.5t71.5 158.5t-72.5 163t-193 101t-274.5 33t-274.5 -33t-193.5 -101t-73 -163z" />
    <glyph glyph-name="Gbreve" unicode="&#x11e;" horiz-adv-x="2201" 
d="M1389 1810l61 -41q-50 -95 -142.5 -155t-207.5 -60t-207.5 60t-142.5 155l63 41q38 -75 115 -122.5t172 -47.5t172 47.5t117 122.5zM1944 664h-857v114h977v-104q0 -154 -51 -275.5t-138.5 -201t-213 -132t-267 -74.5t-307.5 -22q-236 0 -423 56.5t-306 158t-181 237
t-62 296.5q0 130 38 241.5t120 205.5t204 160t298.5 103t395.5 37q133 0 255.5 -12t224.5 -35.5t144.5 -35t105.5 -31.5l-29 -107q-348 109 -701 109q-195 0 -351.5 -31t-264 -87t-179.5 -136t-105 -174.5t-33 -206.5q0 -137 54.5 -252t158.5 -200t267 -133t369 -48
q190 0 343 31.5t270 97t180.5 173t63.5 251.5v27z" />
    <glyph glyph-name="gbreve" unicode="&#x11f;" horiz-adv-x="1607" 
d="M139 696q0 99 51.5 177.5t141.5 129t210.5 77t260.5 26.5q103 0 229 -21q89 28 232 50t284 22l6 -80q-88 2 -217 -9t-184 -24q145 -46 229 -134.5t84 -213.5q0 -99 -49 -173t-139.5 -118.5t-209 -66t-265.5 -21.5q-211 0 -359 43q-60 -48 -98.5 -131t-36.5 -143
q111 46 325.5 81.5t416.5 35.5q106 0 193 -14t158 -44t110.5 -83t39.5 -125q0 -62 -31 -114t-80.5 -86.5t-118.5 -60.5t-136.5 -40.5t-144 -23.5t-132 -12t-108.5 -3q-268 0 -455.5 28t-277.5 58l24 106q55 -15 129 -30t245.5 -32.5t356.5 -17.5q56 0 114 3.5t129.5 12
t133 25t114 40t83 61t30.5 83.5q0 164 -446 164q-183 0 -382 -27.5t-320 -68.5q-29 2 -52 22t-26 54q5 76 53 162t123 143q-238 92 -238 313zM262 696q0 -72 40.5 -126t114 -86.5t170 -48t216.5 -15.5q161 0 279 27t189.5 90.5t71.5 158.5t-72.5 163t-193 101t-274.5 33
t-274.5 -33t-193.5 -101t-73 -163zM1092 1452l61 -41q-50 -95 -142.5 -155t-207.5 -60t-207.5 60t-142.5 155l63 41q38 -75 115 -122.5t172 -47.5t172 47.5t117 122.5z" />
    <glyph glyph-name="Gdotaccent" unicode="&#x120;" horiz-adv-x="2201" 
d="M1053 1802h92v-219h-92v219zM1944 664h-857v114h977v-104q0 -154 -51 -275.5t-138.5 -201t-213 -132t-267 -74.5t-307.5 -22q-236 0 -423 56.5t-306 158t-181 237t-62 296.5q0 130 38 241.5t120 205.5t204 160t298.5 103t395.5 37q133 0 255.5 -12t224.5 -35.5t144.5 -35
t105.5 -31.5l-29 -107q-348 109 -701 109q-195 0 -351.5 -31t-264 -87t-179.5 -136t-105 -174.5t-33 -206.5q0 -137 54.5 -252t158.5 -200t267 -133t369 -48q190 0 343 31.5t270 97t180.5 173t63.5 251.5v27z" />
    <glyph glyph-name="gdotaccent" unicode="&#x121;" horiz-adv-x="1607" 
d="M139 696q0 99 51.5 177.5t141.5 129t210.5 77t260.5 26.5q103 0 229 -21q89 28 232 50t284 22l6 -80q-88 2 -217 -9t-184 -24q145 -46 229 -134.5t84 -213.5q0 -99 -49 -173t-139.5 -118.5t-209 -66t-265.5 -21.5q-211 0 -359 43q-60 -48 -98.5 -131t-36.5 -143
q111 46 325.5 81.5t416.5 35.5q106 0 193 -14t158 -44t110.5 -83t39.5 -125q0 -62 -31 -114t-80.5 -86.5t-118.5 -60.5t-136.5 -40.5t-144 -23.5t-132 -12t-108.5 -3q-268 0 -455.5 28t-277.5 58l24 106q55 -15 129 -30t245.5 -32.5t356.5 -17.5q56 0 114 3.5t129.5 12
t133 25t114 40t83 61t30.5 83.5q0 164 -446 164q-183 0 -382 -27.5t-320 -68.5q-29 2 -52 22t-26 54q5 76 53 162t123 143q-238 92 -238 313zM262 696q0 -72 40.5 -126t114 -86.5t170 -48t216.5 -15.5q161 0 279 27t189.5 90.5t71.5 158.5t-72.5 163t-193 101t-274.5 33
t-274.5 -33t-193.5 -101t-73 -163zM756 1444h92v-219h-92v219z" />
    <glyph glyph-name="Gcommaaccent" unicode="&#x122;" horiz-adv-x="2201" 
d="M1944 664h-857v114h977v-104q0 -154 -51 -275.5t-138.5 -201t-213 -132t-267 -74.5t-307.5 -22q-236 0 -423 56.5t-306 158t-181 237t-62 296.5q0 130 38 241.5t120 205.5t204 160t298.5 103t395.5 37q133 0 255.5 -12t224.5 -35.5t144.5 -35t105.5 -31.5l-29 -107
q-348 109 -701 109q-195 0 -351.5 -31t-264 -87t-179.5 -136t-105 -174.5t-33 -206.5q0 -137 54.5 -252t158.5 -200t267 -133t369 -48q190 0 343 31.5t270 97t180.5 173t63.5 251.5v27zM1006 -133h98q42 -93 36 -217.5t-63 -243.5h-65q100 249 -6 461z" />
    <glyph glyph-name="gcommaaccent" unicode="&#x123;" horiz-adv-x="1607" 
d="M897 1268h-100q-41 92 -35.5 217t61.5 244h68q-103 -248 6 -461zM139 696q0 99 51.5 177.5t141.5 129t210.5 77t260.5 26.5q103 0 229 -21q89 28 232 50t284 22l6 -80q-88 2 -217 -9t-184 -24q145 -46 229 -134.5t84 -213.5q0 -99 -49 -173t-139.5 -118.5t-209 -66
t-265.5 -21.5q-211 0 -359 43q-60 -48 -98.5 -131t-36.5 -143q111 46 325.5 81.5t416.5 35.5q106 0 193 -14t158 -44t110.5 -83t39.5 -125q0 -62 -31 -114t-80.5 -86.5t-118.5 -60.5t-136.5 -40.5t-144 -23.5t-132 -12t-108.5 -3q-268 0 -455.5 28t-277.5 58l24 106
q55 -15 129 -30t245.5 -32.5t356.5 -17.5q56 0 114 3.5t129.5 12t133 25t114 40t83 61t30.5 83.5q0 164 -446 164q-183 0 -382 -27.5t-320 -68.5q-29 2 -52 22t-26 54q5 76 53 162t123 143q-238 92 -238 313zM262 696q0 -72 40.5 -126t114 -86.5t170 -48t216.5 -15.5
q161 0 279 27t189.5 90.5t71.5 158.5t-72.5 163t-193 101t-274.5 33t-274.5 -33t-193.5 -101t-73 -163z" />
    <glyph glyph-name="Hcircumflex" unicode="&#x124;" horiz-adv-x="1992" 
d="M1835 0h-121v680h-1438v-680h-120v1434h120v-639h1438v639h121v-1434zM1413 1536l-420 236l-418 -236l-30 61l448 273l449 -273z" />
    <glyph glyph-name="hcircumflex" unicode="&#x125;" 
d="M616 1475l-419 235l-418 -235l-31 61l449 272l448 -272zM1575 0h-121v545q0 99 -31 178.5t-94.5 141t-170 95t-249.5 33.5q-276 0 -653 -131v-862h-121v1448l121 16v-338l-2 -161l2 -2q347 143 664 143q168 0 295.5 -42t205 -118t116 -177t38.5 -224v-545z" />
    <glyph glyph-name="Hbar" unicode="&#x126;" horiz-adv-x="1992" 
d="M0 1075v72h156v287h120v-287h1438v287h121v-287h158v-72h-158v-1075h-121v680h-1438v-680h-120v1075h-156zM276 795h1438v280h-1438v-280z" />
    <glyph glyph-name="hbar" unicode="&#x127;" 
d="M1575 0h-121v545q0 99 -31 178.5t-94.5 141t-170 95t-249.5 33.5q-276 0 -653 -131v-862h-121v1237h-135v70h135v141l121 16v-157h668v-70h-668v-111l-2 -161l2 -2q347 143 664 143q168 0 295.5 -42t205 -118t116 -177t38.5 -224v-545z" />
    <glyph glyph-name="Itilde" unicode="&#x128;" horiz-adv-x="434" 
d="M156 0v1434h120v-1434h-120zM569 1794l49 -51q-144 -148 -262 -148q-39 0 -81 15.5t-72.5 34t-67 34t-65.5 15.5q-94 0 -205 -111l-49 51q140 146 254 146q56 0 147 -49.5t139 -49.5q100 0 213 113z" />
    <glyph glyph-name="itilde" unicode="&#x129;" horiz-adv-x="475" 
d="M297 0h-121v1075l121 17v-1092zM590 1436l49 -52q-143 -147 -262 -147q-49 0 -102 24.5t-101 49t-84 24.5q-95 0 -205 -110l-49 51q140 145 254 145q56 0 147.5 -49t139.5 -49q100 0 213 113z" />
    <glyph glyph-name="Imacron" unicode="&#x12a;" horiz-adv-x="434" 
d="M156 0v1434h120v-1434h-120zM-145 1739h727v-82h-727v82z" />
    <glyph glyph-name="imacron" unicode="&#x12b;" horiz-adv-x="475" 
d="M297 0h-121v1075l121 17v-1092zM-125 1380h727v-82h-727v82z" />
    <glyph glyph-name="Ibreve" unicode="&#x12c;" horiz-adv-x="434" 
d="M156 0v1434h120v-1434h-120zM506 1810l61 -41q-50 -95 -142.5 -155t-207.5 -60t-207.5 60t-142.5 155l63 41q38 -75 115 -122.5t172 -47.5t172 47.5t117 122.5z" />
    <glyph glyph-name="ibreve" unicode="&#x12d;" horiz-adv-x="475" 
d="M297 0h-121v1075l121 17v-1092zM526 1452l62 -41q-50 -95 -142.5 -155t-207.5 -60q-116 0 -209 60t-142 155l64 41q38 -75 115 -122.5t172 -47.5t171.5 47.5t116.5 122.5z" />
    <glyph glyph-name="Iogonek" unicode="&#x12e;" horiz-adv-x="434" 
d="M276 1434v-1434q-57 -37 -103 -103t-46 -126q0 -100 135 -131l-4 -74q-98 13 -151.5 62.5t-53.5 117.5q0 65 48.5 135.5t123.5 118.5h-69v1434h120z" />
    <glyph glyph-name="iogonek" unicode="&#x12f;" horiz-adv-x="475" 
d="M297 1092v-1092q-57 -37 -103.5 -103.5t-46.5 -125.5q0 -100 136 -131l-4 -74q-98 13 -151.5 62.5t-53.5 117.5q0 65 48.5 135.5t123.5 118.5h-70v1075zM297 1204h-121v246h121v-246z" />
    <glyph glyph-name="Idotaccent" unicode="&#x130;" horiz-adv-x="434" 
d="M156 0v1434h120v-1434h-120zM172 1802h92v-219h-92v219z" />
    <glyph glyph-name="dotlessi" unicode="&#x131;" horiz-adv-x="475" 
d="M297 0h-121v1075l121 17v-1092z" />
    <glyph glyph-name="IJ" unicode="&#x132;" horiz-adv-x="2230" 
d="M156 0v1434h120v-1434h-120zM485 84l29 109q116 -34 198.5 -54t218 -37.5t281.5 -17.5q369 0 554.5 114.5t185.5 374.5v861h121v-861q0 -314 -214.5 -459t-650.5 -145q-94 0 -185 7t-154 16t-133.5 24.5t-104 24.5t-86 25t-60.5 18z" />
    <glyph glyph-name="ij" unicode="&#x133;" horiz-adv-x="962" 
d="M297 0h-121v1075l121 17v-1092zM297 1204h-121v246h121v-246zM664 8v1067l120 17v-1084q0 -94 -16 -164.5t-43.5 -114.5t-70 -71t-89 -37t-106.5 -10v96q110 0 157.5 74.5t47.5 226.5zM784 1204h-120v246h120v-246z" />
    <glyph glyph-name="Jcircumflex" unicode="&#x134;" horiz-adv-x="1798" 
d="M53 84l29 109q116 -34 198.5 -54t218 -37.5t281.5 -17.5q369 0 554.5 114.5t185.5 374.5v861h120v-861q0 -314 -214 -459t-650 -145q-94 0 -185 7t-154 16t-133.5 24.5t-104 24.5t-86 25t-60.5 18zM1999 1536l-420 236l-418 -236l-31 61l449 273l449 -273z" />
    <glyph glyph-name="jcircumflex" unicode="&#x135;" horiz-adv-x="487" 
d="M190 8v1067l121 17v-1084q0 -94 -16 -164.5t-43.5 -114.5t-70 -71t-89 -37t-106.5 -10v96q109 0 156.5 74t47.5 227zM664 1178l-420 235l-418 -235l-31 61l449 272l448 -272z" />
    <glyph glyph-name="Kcommaaccent" unicode="&#x136;" horiz-adv-x="1990" 
d="M1350 358l585 -358h-192l-1114 680h-353v-680h-120v1434h120v-639h355l1073 639h184l-596 -359l-569 -338zM899 -164h98q43 -92 37 -217t-63 -244h-66q100 249 -6 461z" />
    <glyph glyph-name="kcommaaccent" unicode="&#x137;" horiz-adv-x="1710" 
d="M725 539l917 -539h-190l-840 489h-356v-489h-121v1448l121 16v-876h358l856 487h185zM760 -164h98q42 -93 36 -217.5t-63 -243.5h-65q100 249 -6 461z" />
    <glyph glyph-name="kgreenlandic" unicode="&#x138;" horiz-adv-x="1710" 
d="M1642 0h-190l-840 489h-356v-489h-121v1075l121 17v-504h358l856 487h185l-930 -536z" />
    <glyph glyph-name="Lacute" unicode="&#x139;" horiz-adv-x="1765" 
d="M137 1618l678 264l33 -92l-688 -234zM1649 0h-1493v1434h120v-1319h1373v-115z" />
    <glyph glyph-name="lacute" unicode="&#x13a;" horiz-adv-x="419" 
d="M121 1602l678 264l32 -92l-688 -234zM150 0v1448l120 16v-1464h-120z" />
    <glyph glyph-name="Lcommaaccent" unicode="&#x13b;" horiz-adv-x="1765" 
d="M1649 0h-1493v1434h120v-1319h1373v-115zM786 -164h99q42 -93 36 -217.5t-63 -243.5h-65q100 248 -7 461z" />
    <glyph glyph-name="lcommaaccent" unicode="&#x13c;" horiz-adv-x="419" 
d="M150 0v1448l120 16v-1464h-120zM145 -164h99q42 -93 36 -217.5t-63 -243.5h-65q100 248 -7 461z" />
    <glyph glyph-name="Lcaron" unicode="&#x13d;" horiz-adv-x="1765" 
d="M1473 1434h116q32 -95 25.5 -238.5t-49.5 -273.5h-74q22 119 18 265.5t-36 246.5zM1649 0h-1493v1434h120v-1319h1373v-115z" />
    <glyph glyph-name="lcaron" unicode="&#x13e;" horiz-adv-x="419" 
d="M383 1434h117q31 -95 25 -238.5t-50 -273.5h-74q22 119 18 265.5t-36 246.5zM150 0v1448l120 16v-1464h-120z" />
    <glyph glyph-name="Ldot" unicode="&#x13f;" horiz-adv-x="1765" 
d="M1649 0h-1493v1434h120v-1319h1373v-115zM936 877h92v-220h-92v220z" />
    <glyph glyph-name="ldot" unicode="&#x140;" horiz-adv-x="419" 
d="M150 0v1448l120 16v-1464h-120zM365 825h92v-219h-92v219z" />
    <glyph glyph-name="Lslash" unicode="&#x141;" horiz-adv-x="1765" 
d="M18 561l-34 62l172 100v711h120v-641l361 206l35 -61l-396 -229v-594h1373v-115h-1493v639z" />
    <glyph glyph-name="lslash" unicode="&#x142;" horiz-adv-x="419" 
d="M150 717v731l120 16v-678l131 76l37 -61l-168 -96v-705h-120v635l-132 -74l-34 62z" />
    <glyph glyph-name="Nacute" unicode="&#x143;" horiz-adv-x="2023" 
d="M653 1618l678 264l33 -92l-688 -234zM1745 346v1088h121v-1434h-119l-1473 1280l2 -176v-1104h-120v1434h120l1471 -1280z" />
    <glyph glyph-name="nacute" unicode="&#x144;" 
d="M500 1260l678 264l32 -92l-688 -234zM1575 0h-121v545q0 99 -31 178.5t-94.5 141t-170 95t-249.5 33.5q-276 0 -653 -131v-862h-121v1075l117 17l2 -127l2 -2q347 143 664 143q168 0 295.5 -42t205 -118t116 -177t38.5 -224v-545z" />
    <glyph glyph-name="Ncommaaccent" unicode="&#x145;" horiz-adv-x="2023" 
d="M1745 346v1088h121v-1434h-119l-1473 1280l2 -176v-1104h-120v1434h120l1471 -1280zM915 -164h99q42 -93 36 -217.5t-63 -243.5h-65q100 248 -7 461z" />
    <glyph glyph-name="ncommaaccent" unicode="&#x146;" 
d="M1575 0h-121v545q0 99 -31 178.5t-94.5 141t-170 95t-249.5 33.5q-276 0 -653 -131v-862h-121v1075l117 17l2 -127l2 -2q347 143 664 143q168 0 295.5 -42t205 -118t116 -177t38.5 -224v-545zM760 -164h98q42 -93 36 -217.5t-63 -243.5h-65q100 249 -6 461z" />
    <glyph glyph-name="Ncaron" unicode="&#x147;" horiz-adv-x="2023" 
d="M1010 1632l420 236l28 -60l-448 -274l-449 274l31 60zM1745 346v1088h121v-1434h-119l-1473 1280l2 -176v-1104h-120v1434h120l1471 -1280z" />
    <glyph glyph-name="ncaron" unicode="&#x148;" 
d="M854 1274l420 235l29 -59l-449 -274l-448 274l30 59zM1575 0h-121v545q0 99 -31 178.5t-94.5 141t-170 95t-249.5 33.5q-276 0 -653 -131v-862h-121v1075l117 17l2 -127l2 -2q347 143 664 143q168 0 295.5 -42t205 -118t116 -177t38.5 -224v-545z" />
    <glyph glyph-name="Eng" unicode="&#x14a;" horiz-adv-x="2023" 
d="M1745 346v1088h121v-1434q-1 -92 -17.5 -160.5t-44.5 -111.5t-70 -70t-88.5 -37t-105.5 -10v96q107 0 155 73t50 222l-1471 1278l2 -176v-1104h-120v1434h120l1471 -1280z" />
    <glyph glyph-name="eng" unicode="&#x14b;" 
d="M1454 8v537q0 99 -31 178.5t-94.5 141t-170 95t-249.5 33.5q-276 0 -653 -131v-862h-121v1075l117 17l2 -127l2 -2q347 143 664 143q168 0 295.5 -42t205 -118t116 -177t38.5 -224v-537q0 -94 -16 -164.5t-44 -114.5t-70 -71t-88.5 -37t-105.5 -10v96q108 0 155.5 74.5
t47.5 226.5z" />
    <glyph glyph-name="Omacron" unicode="&#x14c;" horiz-adv-x="2156" 
d="M713 1739h727v-82h-727v82zM115 717q0 161 62 296.5t180.5 236.5t303 157.5t416.5 56.5t416.5 -56.5t303 -157.5t181 -236.5t62.5 -296.5t-62.5 -297t-181 -236.5t-303 -157.5t-416.5 -57t-416.5 57t-303 157.5t-180.5 236.5t-62 297zM238 717q0 -137 53.5 -252
t156.5 -200t264 -133t365 -48q205 0 366.5 48t264 133t156 200t53.5 252q0 138 -53.5 253.5t-156 201t-264 133t-366.5 47.5q-204 0 -365 -47.5t-264 -133t-156.5 -201t-53.5 -253.5z" />
    <glyph glyph-name="omacron" unicode="&#x14d;" horiz-adv-x="1665" 
d="M467 1380h727v-82h-727v82zM94 539q0 254 194.5 410.5t542.5 156.5t543 -156.5t195 -410.5t-195 -412t-543 -158t-542.5 158t-194.5 412zM217 539q0 -204 161.5 -330.5t452.5 -126.5q292 0 453.5 126.5t161.5 330.5t-161.5 329t-453.5 125t-453 -125t-161 -329z" />
    <glyph glyph-name="Obreve" unicode="&#x14e;" horiz-adv-x="2156" 
d="M1366 1810l61 -41q-50 -95 -142.5 -155t-207.5 -60t-207.5 60t-142.5 155l64 41q38 -75 114.5 -122.5t171.5 -47.5t172 47.5t117 122.5zM115 717q0 161 62 296.5t180.5 236.5t303 157.5t416.5 56.5t416.5 -56.5t303 -157.5t181 -236.5t62.5 -296.5t-62.5 -297
t-181 -236.5t-303 -157.5t-416.5 -57t-416.5 57t-303 157.5t-180.5 236.5t-62 297zM238 717q0 -137 53.5 -252t156.5 -200t264 -133t365 -48q205 0 366.5 48t264 133t156 200t53.5 252q0 138 -53.5 253.5t-156 201t-264 133t-366.5 47.5q-204 0 -365 -47.5t-264 -133
t-156.5 -201t-53.5 -253.5z" />
    <glyph glyph-name="obreve" unicode="&#x14f;" horiz-adv-x="1665" 
d="M94 539q0 254 194.5 410.5t542.5 156.5t543 -156.5t195 -410.5t-195 -412t-543 -158t-542.5 158t-194.5 412zM217 539q0 -204 161.5 -330.5t452.5 -126.5q292 0 453.5 126.5t161.5 330.5t-161.5 329t-453.5 125t-453 -125t-161 -329zM1120 1452l62 -41q-49 -95 -142 -155
t-209 -60q-115 0 -207.5 60t-142.5 155l64 41q38 -75 114.5 -122.5t171.5 -47.5t172 47.5t117 122.5z" />
    <glyph glyph-name="Ohungarumlaut" unicode="&#x150;" horiz-adv-x="2156" 
d="M115 717q0 161 62 296.5t180.5 236.5t303 157.5t416.5 56.5t416.5 -56.5t303 -157.5t181 -236.5t62.5 -296.5t-62.5 -297t-181 -236.5t-303 -157.5t-416.5 -57t-416.5 57t-303 157.5t-180.5 236.5t-62 297zM238 717q0 -137 53.5 -252t156.5 -200t264 -133t365 -48
q205 0 366.5 48t264 133t156 200t53.5 252q0 138 -53.5 253.5t-156 201t-264 133t-366.5 47.5q-204 0 -365 -47.5t-264 -133t-156.5 -201t-53.5 -253.5zM707 1604l288 294l70 -69l-309 -273zM1087 1604l289 294l70 -69l-309 -273z" />
    <glyph glyph-name="ohungarumlaut" unicode="&#x151;" horiz-adv-x="1665" 
d="M463 1245l289 295l69 -70l-309 -272zM844 1245l289 295l69 -70l-309 -272zM94 539q0 254 194.5 410.5t542.5 156.5t543 -156.5t195 -410.5t-195 -412t-543 -158t-542.5 158t-194.5 412zM217 539q0 -204 161.5 -330.5t452.5 -126.5q292 0 453.5 126.5t161.5 330.5
t-161.5 329t-453.5 125t-453 -125t-161 -329z" />
    <glyph glyph-name="OE" unicode="&#x152;" horiz-adv-x="3393" 
d="M3404 0h-1596v215q-121 -116 -306 -181t-425 -65q-232 0 -416.5 57t-303 157.5t-180.5 236.5t-62 297t62 296.5t180.5 236.5t303 157.5t416.5 56.5q477 0 731 -247v217h1555v-113h-1434v-526h1311v-115h-1311v-565h1475v-115zM1077 84q263 0 448 75.5t283 211.5v690
q-99 137 -284.5 214t-446.5 77q-204 0 -365 -47.5t-264 -133t-156.5 -201t-53.5 -253.5q0 -137 53.5 -252t156.5 -200t264 -133t365 -48z" />
    <glyph glyph-name="oe" unicode="&#x153;" horiz-adv-x="2947" 
d="M94 539q0 256 185.5 411.5t531.5 155.5q268 0 434.5 -98.5t220.5 -270.5q54 169 213 269t424 100q178 0 321.5 -40.5t241.5 -121.5t129 -201.5t-16 -281.5h-1243q22 -189 182 -284t473 -95q190 0 352.5 27t227.5 53l25 -107q-77 -29 -241 -57.5t-360 -28.5
q-620 0 -731 363q-56 -168 -222.5 -265.5t-430.5 -97.5q-174 0 -311.5 42.5t-225.5 119t-134 180t-46 228.5zM1405 539q0 206 -152 330t-442 124t-442 -124t-152 -330t152.5 -331.5t441.5 -125.5t441.5 125.5t152.5 331.5zM1532 547h1130q30 113 -2 201t-113 141
t-192.5 79.5t-245.5 26.5q-285 0 -431 -121.5t-146 -326.5z" />
    <glyph glyph-name="Racute" unicode="&#x154;" horiz-adv-x="1957" 
d="M156 0v1434h1136q120 0 216.5 -24.5t174 -76.5t120 -143.5t42.5 -216.5q0 -124 -43.5 -215t-122.5 -143t-176.5 -76t-216.5 -23h-166l785 -516h-193l-768 512h-668v-512h-120zM276 627h1012q94 0 169.5 18t136.5 57t94.5 108t33.5 163q0 76 -21.5 136t-59 99t-92 65
t-117 37t-136.5 11h-1020v-694zM623 1618l677 264l33 -92l-688 -234z" />
    <glyph glyph-name="racute" unicode="&#x155;" horiz-adv-x="1030" 
d="M160 1260l678 264l32 -92l-688 -234zM135 0v1075l117 17l2 -234l2 -2q146 138 309 201t389 47l-6 -119q-419 45 -692 -231v-754h-121z" />
    <glyph glyph-name="Rcommaaccent" unicode="&#x156;" horiz-adv-x="1957" 
d="M156 0v1434h1136q120 0 216.5 -24.5t174 -76.5t120 -143.5t42.5 -216.5q0 -124 -43.5 -215t-122.5 -143t-176.5 -76t-216.5 -23h-166l785 -516h-193l-768 512h-668v-512h-120zM276 627h1012q94 0 169.5 18t136.5 57t94.5 108t33.5 163q0 76 -21.5 136t-59 99t-92 65
t-117 37t-136.5 11h-1020v-694zM883 -164h98q42 -93 36 -217.5t-63 -243.5h-65q100 249 -6 461z" />
    <glyph glyph-name="rcommaaccent" unicode="&#x157;" horiz-adv-x="1030" 
d="M135 0v1075l117 17l2 -234l2 -2q146 138 309 201t389 47l-6 -119q-419 45 -692 -231v-754h-121zM131 -164h98q43 -92 37 -217t-63 -244h-66q100 249 -6 461z" />
    <glyph glyph-name="Rcaron" unicode="&#x158;" horiz-adv-x="1957" 
d="M977 1632l420 236l28 -60l-448 -274l-449 274l31 60zM156 0v1434h1136q120 0 216.5 -24.5t174 -76.5t120 -143.5t42.5 -216.5q0 -124 -43.5 -215t-122.5 -143t-176.5 -76t-216.5 -23h-166l785 -516h-193l-768 512h-668v-512h-120zM276 627h1012q94 0 169.5 18t136.5 57
t94.5 108t33.5 163q0 76 -21.5 136t-59 99t-92 65t-117 37t-136.5 11h-1020v-694z" />
    <glyph glyph-name="rcaron" unicode="&#x159;" horiz-adv-x="1030" 
d="M516 1274l420 235l29 -59l-449 -274l-448 274l30 59zM135 0v1075l117 17l2 -234l2 -2q146 138 309 201t389 47l-6 -119q-419 45 -692 -231v-754h-121z" />
    <glyph glyph-name="Sacute" unicode="&#x15a;" horiz-adv-x="1923" 
d="M971 -31q-429 0 -856 152l35 108q431 -147 839 -147q90 0 178.5 8t184.5 30t168 56t119 91t47 130q0 134 -159 190q-117 42 -404 59q-35 2 -130 7q-113 5 -178 9.5t-165.5 16.5t-160 28t-130.5 45.5t-109.5 68.5t-65 97t-26.5 131q0 74 26.5 135.5t70 103.5t106.5 74.5
t128.5 51t144 30.5t145.5 16t139 4q190 0 404 -27.5t378 -68.5l-25 -111q-164 40 -372 67.5t-404 27.5q-49 0 -98 -2.5t-112 -10.5t-118 -20.5t-109.5 -35.5t-93.5 -53.5t-63 -75t-24 -99.5q0 -37 9.5 -68t31 -55.5t45.5 -44.5t63 -35t73.5 -26.5t87 -20t93 -14t102.5 -9.5
t104 -6.5t109 -5.5q113 -6 175.5 -10t161.5 -15t155 -26t125 -42t105 -63t61.5 -89.5t25.5 -121.5q0 -84 -35.5 -152t-99 -114.5t-143.5 -80t-177 -52t-190 -27t-192 -8.5zM604 1618l678 264l33 -92l-688 -234z" />
    <glyph glyph-name="sacute" unicode="&#x15b;" horiz-adv-x="1650" 
d="M471 1260l678 264l33 -92l-688 -234zM94 59l25 111q205 -49 355 -68.5t317 -19.5q46 0 92 1.5t112 7.5t123.5 15.5t117 27t101.5 40.5t68.5 58.5t26.5 78.5q0 39 -17.5 69.5t-46.5 50.5t-75 34t-93.5 21.5t-112 11.5t-121.5 5.5t-129 2.5h-14q-69 1 -115 2t-111.5 4.5
t-110 9.5t-99 16.5t-90.5 25t-73.5 36t-59 49t-35.5 64t-14 80.5q0 62 26.5 111.5t66.5 81.5t102.5 55.5t119.5 35.5t132.5 19t126.5 8.5t116 1.5q295 0 655 -62l-18 -112q-349 61 -656 61q-56 0 -101 -1t-104.5 -6t-104.5 -13t-92 -23.5t-77 -36t-49.5 -52t-19.5 -70.5
q0 -26 7.5 -48t25 -38.5t36 -30t51 -23t58.5 -16.5t70.5 -11.5t74.5 -7t83.5 -4t85 -2t89.5 -0.5q99 -1 153 -2.5t144 -8t141 -17.5t115.5 -33t98.5 -53t58.5 -78t24.5 -107q0 -65 -32.5 -118t-83 -88t-122.5 -61t-141 -40t-149 -22.5t-136 -10.5t-112 -2q-180 0 -333 20
t-351 70z" />
    <glyph glyph-name="Scircumflex" unicode="&#x15c;" horiz-adv-x="1923" 
d="M971 -31q-429 0 -856 152l35 108q431 -147 839 -147q90 0 178.5 8t184.5 30t168 56t119 91t47 130q0 134 -159 190q-117 42 -404 59q-35 2 -130 7q-113 5 -178 9.5t-165.5 16.5t-160 28t-130.5 45.5t-109.5 68.5t-65 97t-26.5 131q0 74 26.5 135.5t70 103.5t106.5 74.5
t128.5 51t144 30.5t145.5 16t139 4q190 0 404 -27.5t378 -68.5l-25 -111q-164 40 -372 67.5t-404 27.5q-49 0 -98 -2.5t-112 -10.5t-118 -20.5t-109.5 -35.5t-93.5 -53.5t-63 -75t-24 -99.5q0 -37 9.5 -68t31 -55.5t45.5 -44.5t63 -35t73.5 -26.5t87 -20t93 -14t102.5 -9.5
t104 -6.5t109 -5.5q113 -6 175.5 -10t161.5 -15t155 -26t125 -42t105 -63t61.5 -89.5t25.5 -121.5q0 -84 -35.5 -152t-99 -114.5t-143.5 -80t-177 -52t-190 -27t-192 -8.5zM1380 1536l-419 236l-418 -236l-31 61l449 273l448 -273z" />
    <glyph glyph-name="scircumflex" unicode="&#x15d;" horiz-adv-x="1650" 
d="M1243 1178l-420 235l-417 -235l-31 61l448 272l449 -272zM94 59l25 111q205 -49 355 -68.5t317 -19.5q46 0 92 1.5t112 7.5t123.5 15.5t117 27t101.5 40.5t68.5 58.5t26.5 78.5q0 39 -17.5 69.5t-46.5 50.5t-75 34t-93.5 21.5t-112 11.5t-121.5 5.5t-129 2.5h-14
q-69 1 -115 2t-111.5 4.5t-110 9.5t-99 16.5t-90.5 25t-73.5 36t-59 49t-35.5 64t-14 80.5q0 62 26.5 111.5t66.5 81.5t102.5 55.5t119.5 35.5t132.5 19t126.5 8.5t116 1.5q295 0 655 -62l-18 -112q-349 61 -656 61q-56 0 -101 -1t-104.5 -6t-104.5 -13t-92 -23.5t-77 -36
t-49.5 -52t-19.5 -70.5q0 -26 7.5 -48t25 -38.5t36 -30t51 -23t58.5 -16.5t70.5 -11.5t74.5 -7t83.5 -4t85 -2t89.5 -0.5q99 -1 153 -2.5t144 -8t141 -17.5t115.5 -33t98.5 -53t58.5 -78t24.5 -107q0 -65 -32.5 -118t-83 -88t-122.5 -61t-141 -40t-149 -22.5t-136 -10.5
t-112 -2q-180 0 -333 20t-351 70z" />
    <glyph glyph-name="Scedilla" unicode="&#x15e;" horiz-adv-x="1923" 
d="M690 -479l39 69q44 -5 90.5 -6.5t102 2.5t98 15.5t72 36.5t30.5 61q4 54 -73.5 85t-186.5 28q-9 2 -16 10.5t-6 19.5l67 129q-400 9 -792 150l35 108q431 -147 839 -147q90 0 178.5 8t184.5 30t168 56t119 91t47 130q0 134 -159 190q-117 42 -404 59q-35 2 -130 7
q-113 5 -178 9.5t-165.5 16.5t-160 28t-130.5 45.5t-109.5 68.5t-65 97t-26.5 131q0 74 26.5 135.5t70 103.5t106.5 74.5t128.5 51t144 30.5t145.5 16t139 4q190 0 404 -27.5t378 -68.5l-25 -111q-164 40 -372 67.5t-404 27.5q-49 0 -98 -2.5t-112 -10.5t-118 -20.5
t-109.5 -35.5t-93.5 -53.5t-63 -75t-24 -99.5q0 -37 9.5 -68t31 -55.5t45.5 -44.5t63 -35t73.5 -26.5t87 -20t93 -14t102.5 -9.5t104 -6.5t109 -5.5q113 -6 175.5 -10t161.5 -15t155 -26t125 -42t105 -63t61.5 -89.5t25.5 -121.5q0 -84 -35.5 -152t-99 -114.5t-143.5 -80
t-177 -52t-190 -27t-192 -8.5h-4l-62 -110q75 5 144.5 -12t116 -57t42.5 -95q-3 -49 -33 -84.5t-80.5 -54t-102 -29t-116 -11.5t-103.5 0.5t-83 4.5z" />
    <glyph glyph-name="scedilla" unicode="&#x15f;" horiz-adv-x="1650" 
d="M596 -479l39 69q44 -5 90.5 -6.5t102 2.5t98 15.5t72 36.5t30.5 61q4 54 -73.5 85t-186.5 28q-9 2 -16.5 10.5t-6.5 19.5l68 127h-35q-180 0 -333 20t-351 70l25 111q205 -49 355 -68.5t317 -19.5q46 0 92 1.5t112 7.5t123.5 15.5t117 27t101.5 40.5t68.5 58.5t26.5 78.5
q0 39 -17.5 69.5t-46.5 50.5t-75 34t-93.5 21.5t-112 11.5t-121.5 5.5t-129 2.5h-14q-69 1 -115 2t-111.5 4.5t-110 9.5t-99 16.5t-90.5 25t-73.5 36t-59 49t-35.5 64t-14 80.5q0 62 26.5 111.5t66.5 81.5t102.5 55.5t119.5 35.5t132.5 19t126.5 8.5t116 1.5q295 0 655 -62
l-18 -112q-349 61 -656 61q-56 0 -101 -1t-104.5 -6t-104.5 -13t-92 -23.5t-77 -36t-49.5 -52t-19.5 -70.5q0 -26 7.5 -48t25 -38.5t36 -30t51 -23t58.5 -16.5t70.5 -11.5t74.5 -7t83.5 -4t85 -2t89.5 -0.5q99 -1 153 -2.5t144 -8t141 -17.5t115.5 -33t98.5 -53t58.5 -78
t24.5 -107q0 -57 -25 -105t-65.5 -81.5t-99 -60t-118 -42.5t-129.5 -27.5t-127 -16.5t-118 -7l-61 -112q75 5 144.5 -12t116 -57t42.5 -95q-3 -49 -33 -84.5t-80.5 -54t-102 -29t-116 -11.5t-103.5 0.5t-83 4.5z" />
    <glyph glyph-name="Scaron" unicode="&#x160;" horiz-adv-x="1923" 
d="M971 -31q-429 0 -856 152l35 108q431 -147 839 -147q90 0 178.5 8t184.5 30t168 56t119 91t47 130q0 134 -159 190q-117 42 -404 59q-35 2 -130 7q-113 5 -178 9.5t-165.5 16.5t-160 28t-130.5 45.5t-109.5 68.5t-65 97t-26.5 131q0 74 26.5 135.5t70 103.5t106.5 74.5
t128.5 51t144 30.5t145.5 16t139 4q190 0 404 -27.5t378 -68.5l-25 -111q-164 40 -372 67.5t-404 27.5q-49 0 -98 -2.5t-112 -10.5t-118 -20.5t-109.5 -35.5t-93.5 -53.5t-63 -75t-24 -99.5q0 -37 9.5 -68t31 -55.5t45.5 -44.5t63 -35t73.5 -26.5t87 -20t93 -14t102.5 -9.5
t104 -6.5t109 -5.5q113 -6 175.5 -10t161.5 -15t155 -26t125 -42t105 -63t61.5 -89.5t25.5 -121.5q0 -84 -35.5 -152t-99 -114.5t-143.5 -80t-177 -52t-190 -27t-192 -8.5zM961 1632l419 236l29 -60l-448 -274l-449 274l31 60z" />
    <glyph glyph-name="scaron" unicode="&#x161;" horiz-adv-x="1650" 
d="M823 1274l420 235l29 -59l-449 -274l-448 274l31 59zM94 59l25 111q205 -49 355 -68.5t317 -19.5q46 0 92 1.5t112 7.5t123.5 15.5t117 27t101.5 40.5t68.5 58.5t26.5 78.5q0 39 -17.5 69.5t-46.5 50.5t-75 34t-93.5 21.5t-112 11.5t-121.5 5.5t-129 2.5h-14
q-69 1 -115 2t-111.5 4.5t-110 9.5t-99 16.5t-90.5 25t-73.5 36t-59 49t-35.5 64t-14 80.5q0 62 26.5 111.5t66.5 81.5t102.5 55.5t119.5 35.5t132.5 19t126.5 8.5t116 1.5q295 0 655 -62l-18 -112q-349 61 -656 61q-56 0 -101 -1t-104.5 -6t-104.5 -13t-92 -23.5t-77 -36
t-49.5 -52t-19.5 -70.5q0 -26 7.5 -48t25 -38.5t36 -30t51 -23t58.5 -16.5t70.5 -11.5t74.5 -7t83.5 -4t85 -2t89.5 -0.5q99 -1 153 -2.5t144 -8t141 -17.5t115.5 -33t98.5 -53t58.5 -78t24.5 -107q0 -65 -32.5 -118t-83 -88t-122.5 -61t-141 -40t-149 -22.5t-136 -10.5
t-112 -2q-180 0 -333 20t-351 70z" />
    <glyph glyph-name="Tcommaaccent" unicode="&#x162;" horiz-adv-x="1808" 
d="M1733 1321h-768v-1321h-121v1321h-770v113h1659v-113zM842 -164h98q42 -93 36 -217.5t-63 -243.5h-65q100 249 -6 461z" />
    <glyph glyph-name="tcommaaccent" unicode="&#x163;" horiz-adv-x="737" 
d="M317 1372v-297h353v-102h-353v-623q0 -143 44 -210.5t145 -67.5q51 0 164 24v-96q-140 -31 -197 -31q-135 0 -205.5 86.5t-70.5 294.5v623h-144v102h144v281zM276 -164h99q42 -93 36 -217.5t-63 -243.5h-65q100 248 -7 461z" />
    <glyph glyph-name="Tcaron" unicode="&#x164;" horiz-adv-x="1808" 
d="M901 1632l420 236l29 -60l-449 -274l-448 274l30 60zM1733 1321h-768v-1321h-121v1321h-770v113h1659v-113z" />
    <glyph glyph-name="tcaron" unicode="&#x165;" horiz-adv-x="737" 
d="M662 1669h116q32 -95 25.5 -238.5t-49.5 -273.5h-74q22 119 18 265.5t-36 246.5zM317 1372v-297h353v-102h-353v-623q0 -143 44 -210.5t145 -67.5q51 0 164 24v-96q-140 -31 -197 -31q-135 0 -205.5 86.5t-70.5 294.5v623h-144v102h144v281z" />
    <glyph glyph-name="Tbar" unicode="&#x166;" horiz-adv-x="1808" 
d="M471 725h373v596h-770v113h1659v-113h-768v-596h374v-70h-374v-655h-121v655h-373v70z" />
    <glyph glyph-name="tbar" unicode="&#x167;" horiz-adv-x="737" 
d="M197 1356l120 16v-297h353v-102h-353v-344h353v-72h-353v-207q0 -143 44 -210.5t145 -67.5q51 0 164 24v-96q-140 -31 -197 -31q-135 0 -205.5 86.5t-70.5 294.5v207h-144v72h144v344h-144v102h144v281z" />
    <glyph glyph-name="Utilde" unicode="&#x168;" horiz-adv-x="2033" 
d="M1366 1794l49 -51q-144 -148 -262 -148q-39 0 -81 15.5t-72.5 34t-67.5 34t-66 15.5q-93 0 -204 -111l-50 51q140 146 254 146q56 0 147.5 -49.5t139.5 -49.5q100 0 213 113zM1755 573v861h121v-861q0 -314 -212 -459t-648 -145t-648 145t-212 459v861h120v-861
q0 -260 186 -374.5t554 -114.5q369 0 554 114.5t185 374.5z" />
    <glyph glyph-name="utilde" unicode="&#x169;" 
d="M135 530v545h121v-545q0 -205 133 -326.5t406 -121.5q191 0 358 67t301 179v747h121v-1075h-107l-6 215l-2 2q-311 -248 -694 -248q-160 0 -282 42t-197.5 118t-113.5 177t-38 224zM1204 1436l49 -52q-143 -147 -262 -147q-49 0 -102 24.5t-100.5 49t-83.5 24.5
q-95 0 -205 -110l-49 51q140 145 254 145q56 0 147 -49t139 -49q100 0 213 113z" />
    <glyph glyph-name="Umacron" unicode="&#x16a;" horiz-adv-x="2033" 
d="M651 1739h727v-82h-727v82zM1755 573v861h121v-861q0 -314 -212 -459t-648 -145t-648 145t-212 459v861h120v-861q0 -260 186 -374.5t554 -114.5q369 0 554 114.5t185 374.5z" />
    <glyph glyph-name="umacron" unicode="&#x16b;" 
d="M135 530v545h121v-545q0 -205 133 -326.5t406 -121.5q191 0 358 67t301 179v747h121v-1075h-107l-6 215l-2 2q-311 -248 -694 -248q-160 0 -282 42t-197.5 118t-113.5 177t-38 224zM492 1380h727v-82h-727v82z" />
    <glyph glyph-name="Ubreve" unicode="&#x16c;" horiz-adv-x="2033" 
d="M1305 1810l61 -41q-50 -95 -142.5 -155t-207.5 -60t-207.5 60t-142.5 155l63 41q38 -75 115 -122.5t172 -47.5t172 47.5t117 122.5zM1755 573v861h121v-861q0 -314 -212 -459t-648 -145t-648 145t-212 459v861h120v-861q0 -260 186 -374.5t554 -114.5q369 0 554 114.5
t185 374.5z" />
    <glyph glyph-name="ubreve" unicode="&#x16d;" 
d="M135 530v545h121v-545q0 -205 133 -326.5t406 -121.5q191 0 358 67t301 179v747h121v-1075h-107l-6 215l-2 2q-311 -248 -694 -248q-160 0 -282 42t-197.5 118t-113.5 177t-38 224zM1143 1452l61 -41q-50 -95 -142.5 -155t-207.5 -60t-207.5 60t-142.5 155l63 41
q38 -75 115 -122.5t172 -47.5t172 47.5t117 122.5z" />
    <glyph glyph-name="Uring" unicode="&#x16e;" horiz-adv-x="2033" 
d="M1755 573v861h121v-861q0 -314 -212 -459t-648 -145t-648 145t-212 459v861h120v-861q0 -260 186 -374.5t554 -114.5q369 0 554 114.5t185 374.5zM782 1722q0 88 58 141.5t174 53.5t173.5 -53.5t57.5 -141.5q0 -90 -57.5 -144t-173.5 -54t-174 54t-58 144zM840 1722
q0 -64 43 -103.5t131 -39.5t131 39.5t43 103.5q0 62 -43 100t-131 38t-131 -38t-43 -100z" />
    <glyph glyph-name="uring" unicode="&#x16f;" 
d="M623 1364q0 88 57.5 141.5t173.5 53.5t173.5 -53.5t57.5 -141.5q0 -90 -57.5 -144.5t-173.5 -54.5t-173.5 54.5t-57.5 144.5zM680 1364q0 -64 43 -103.5t131 -39.5t131 39.5t43 103.5q0 62 -43 99.5t-131 37.5t-131 -37.5t-43 -99.5zM135 530v545h121v-545
q0 -205 133 -326.5t406 -121.5q191 0 358 67t301 179v747h121v-1075h-107l-6 215l-2 2q-311 -248 -694 -248q-160 0 -282 42t-197.5 118t-113.5 177t-38 224z" />
    <glyph glyph-name="Uhungarumlaut" unicode="&#x170;" horiz-adv-x="2033" 
d="M1755 573v861h121v-861q0 -314 -212 -459t-648 -145t-648 145t-212 459v861h120v-861q0 -260 186 -374.5t554 -114.5q369 0 554 114.5t185 374.5zM645 1604l289 294l70 -69l-310 -273zM1026 1604l289 294l69 -69l-309 -273z" />
    <glyph glyph-name="uhungarumlaut" unicode="&#x171;" 
d="M135 530v545h121v-545q0 -205 133 -326.5t406 -121.5q191 0 358 67t301 179v747h121v-1075h-107l-6 215l-2 2q-311 -248 -694 -248q-160 0 -282 42t-197.5 118t-113.5 177t-38 224zM485 1245l289 295l70 -70l-309 -272zM866 1245l289 295l70 -70l-310 -272z" />
    <glyph glyph-name="Uogonek" unicode="&#x172;" horiz-adv-x="2033" 
d="M1755 573v861h121v-861q0 -238 -122 -378t-368 -193q-57 -36 -102 -101.5t-45 -125.5q0 -100 135 -131l-4 -74q-98 13 -151.5 62.5t-53.5 117.5q0 60 42.5 125.5t111.5 116.5q-148 -23 -303 -23q-436 0 -648 145t-212 459v861h120v-861q0 -260 186 -374.5t554 -114.5
q369 0 554 114.5t185 374.5z" />
    <glyph glyph-name="uogonek" unicode="&#x173;" 
d="M135 530v545h121v-545q0 -205 133 -326.5t406 -121.5q191 0 358 67t301 179v747h121v-1075q-57 -37 -103.5 -103.5t-46.5 -125.5q0 -100 136 -131l-5 -74q-98 13 -151 62.5t-53 117.5q0 65 48.5 135.5t123.5 118.5h-56l-6 215l-2 2q-311 -248 -694 -248q-160 0 -282 42
t-197.5 118t-113.5 177t-38 224z" />
    <glyph glyph-name="Wcircumflex" unicode="&#x174;" horiz-adv-x="2557" 
d="M1872 0h-125l-229 612l-240 648l-238 -646l-229 -614h-127l-672 1434h133l287 -615l311 -663l246 665l230 613h120l230 -617l243 -661l314 665l287 613h131zM1696 1536l-420 236l-418 -236l-31 61l449 273l448 -273z" />
    <glyph glyph-name="wcircumflex" unicode="&#x175;" horiz-adv-x="2361" 
d="M1599 1178l-419 235l-418 -235l-31 61l449 272l448 -272zM1776 0h-131l-193 389l-272 545l-271 -545l-192 -389h-131l-533 1075h135l273 -563l190 -387l191 387l272 563h133l271 -563l192 -387l191 387l272 563h135z" />
    <glyph glyph-name="Ycircumflex" unicode="&#x176;" horiz-adv-x="2037" 
d="M1870 1434h153l-944 -990v-444h-121v444l-946 990h156l342 -359l508 -530l510 530zM1436 1536l-420 236l-418 -236l-31 61l449 273l448 -273z" />
    <glyph glyph-name="ycircumflex" unicode="&#x177;" horiz-adv-x="1660" 
d="M778 -14l-725 1089h144l364 -563l275 -418l628 981h142l-742 -1155q-113 -175 -230 -244t-263 -69q-107 0 -265 33v96q169 -33 250 -33q122 0 216 56.5t178 183.5zM1247 1178l-420 235l-417 -235l-31 61l448 272l449 -272z" />
    <glyph glyph-name="Ydieresis" unicode="&#x178;" horiz-adv-x="2037" 
d="M1870 1434h153l-944 -990v-444h-121v444l-946 990h156l342 -359l508 -530l510 530zM719 1802h92v-219h-92v219zM1223 1802h92v-219h-92v219z" />
    <glyph glyph-name="Zacute" unicode="&#x179;" horiz-adv-x="1845" 
d="M1729 0h-1614v113l954 829l438 379h-1368v113h1538v-113l-952 -827l-440 -379h1444v-115zM565 1618l678 264l33 -92l-688 -234z" />
    <glyph glyph-name="zacute" unicode="&#x17a;" horiz-adv-x="1640" 
d="M465 1260l678 264l33 -92l-689 -234zM309 102h1215v-102h-1409v100l1167 873h-1116v102h1311v-100z" />
    <glyph glyph-name="Zdotaccent" unicode="&#x17b;" horiz-adv-x="1845" 
d="M874 1802h93v-219h-93v219zM1729 0h-1614v113l954 829l438 379h-1368v113h1538v-113l-952 -827l-440 -379h1444v-115z" />
    <glyph glyph-name="zdotaccent" unicode="&#x17c;" horiz-adv-x="1640" 
d="M309 102h1215v-102h-1409v100l1167 873h-1116v102h1311v-100zM772 1444h92v-219h-92v219z" />
    <glyph glyph-name="Zcaron" unicode="&#x17d;" horiz-adv-x="1845" 
d="M920 1632l419 236l29 -60l-448 -274l-449 274l31 60zM1729 0h-1614v113l954 829l438 379h-1368v113h1538v-113l-952 -827l-440 -379h1444v-115z" />
    <glyph glyph-name="zcaron" unicode="&#x17e;" horiz-adv-x="1640" 
d="M817 1274l420 235l29 -59l-449 -274l-448 274l30 59zM309 102h1215v-102h-1409v100l1167 873h-1116v102h1311v-100z" />
    <glyph glyph-name="florin" unicode="&#x192;" horiz-adv-x="954" 
d="M358 1075h461v-69h-461v-1096q0 -148 -78 -216.5t-217 -68.5q-47 0 -221 17v96q180 -10 193 -10q95 0 149 44.5t54 137.5v1096h-144v69h144v10q0 203 89.5 290t268.5 87q110 0 262 -28v-97q-145 23 -231 23q-136 0 -202.5 -62.5t-66.5 -212.5v-10z" />
    <glyph glyph-name="AEacute" unicode="&#x1fc;" horiz-adv-x="3346" 
d="M1659 1618l678 264l33 -92l-689 -234zM3097 795v-115h-1311v-565h1474v-115h-1595v373h-1049l-426 -373h-178l1653 1434h1554v-113h-1433v-526h1311zM1665 1303l-774 -689l-148 -127h922v816z" />
    <glyph glyph-name="aeacute" unicode="&#x1fd;" horiz-adv-x="2867" 
d="M1077 1260l678 264l33 -92l-688 -234zM684 -31q-246 0 -397.5 98t-151.5 277q0 96 49 165.5t132 105.5t172 51.5t190 15.5q155 0 330 -36t319 -99q11 229 -119 337.5t-442 108.5q-162 0 -298.5 -24t-199.5 -47l-39 106q67 25 216 51.5t323 26.5q542 0 631 -336
q62 156 219.5 246t413.5 90q176 0 318.5 -41t239.5 -122.5t128 -202t-17 -279.5h-1245q45 -379 662 -379q186 0 348 27t227 53l25 -107q-77 -29 -240.5 -57.5t-359.5 -28.5q-650 0 -758 383q-74 -179 -250.5 -281t-425.5 -102zM258 350q0 -133 123.5 -204.5t320.5 -71.5
q261 0 437 115t190 292q-106 53 -315 84t-342 31q-59 0 -113 -6t-110.5 -23.5t-97.5 -44t-67 -71t-26 -101.5zM1454 547h1131q26 94 8 167t-66.5 126t-126 87.5t-169.5 51t-197 16.5q-291 0 -434.5 -121t-145.5 -327z" />
    <glyph glyph-name="Oslashacute" unicode="&#x1fe;" horiz-adv-x="2156" 
d="M115 717q0 161 62 296.5t180.5 236.5t303 157.5t416.5 56.5q341 0 578 -123l125 125l51 -51l-113 -110q158 -99 240 -251t82 -337q0 -161 -62.5 -297t-181 -236.5t-303 -157.5t-416.5 -57q-337 0 -575 119l-119 -121l-51 51l106 107q-159 98 -241 251.5t-82 340.5z
M238 717q0 -162 72.5 -292t213.5 -214l1041 1040q-204 101 -488 101q-204 0 -365 -47.5t-264 -133t-156.5 -201t-53.5 -253.5zM1917 717q0 159 -72.5 289.5t-210.5 212.5l-1042 -1041q196 -94 485 -94q205 0 366.5 48t264 133t156 200t53.5 252zM721 1618l678 264l33 -92
l-689 -234z" />
    <glyph glyph-name="oslashacute" unicode="&#x1ff;" horiz-adv-x="1665" 
d="M406 55l-99 -98l-49 51l82 82q-120 76 -183 192t-63 257q0 254 194.5 410.5t542.5 156.5q255 0 437 -90l106 106l51 -49l-96 -94q117 -74 178.5 -188t61.5 -252q0 -254 -195 -412t-543 -158q-248 0 -425 86zM217 539q0 -116 53.5 -209t155.5 -154l750 750
q-140 67 -345 67q-292 0 -453 -125t-161 -329zM1446 539q0 112 -51 203.5t-150 150.5l-747 -746q133 -65 333 -65q292 0 453.5 126.5t161.5 330.5zM477 1260l678 264l33 -92l-688 -234z" />
    <glyph glyph-name="Scommaaccent" unicode="&#x218;" horiz-adv-x="1923" 
d="M971 -31q-429 0 -856 152l35 108q431 -147 839 -147q90 0 178.5 8t184.5 30t168 56t119 91t47 130q0 134 -159 190q-117 42 -404 59q-35 2 -130 7q-113 5 -178 9.5t-165.5 16.5t-160 28t-130.5 45.5t-109.5 68.5t-65 97t-26.5 131q0 74 26.5 135.5t70 103.5t106.5 74.5
t128.5 51t144 30.5t145.5 16t139 4q190 0 404 -27.5t378 -68.5l-25 -111q-164 40 -372 67.5t-404 27.5q-49 0 -98 -2.5t-112 -10.5t-118 -20.5t-109.5 -35.5t-93.5 -53.5t-63 -75t-24 -99.5q0 -37 9.5 -68t31 -55.5t45.5 -44.5t63 -35t73.5 -26.5t87 -20t93 -14t102.5 -9.5
t104 -6.5t109 -5.5q113 -6 175.5 -10t161.5 -15t155 -26t125 -42t105 -63t61.5 -89.5t25.5 -121.5q0 -84 -35.5 -152t-99 -114.5t-143.5 -80t-177 -52t-190 -27t-192 -8.5zM866 -164h99q42 -93 36 -217.5t-63 -243.5h-66q100 249 -6 461z" />
    <glyph glyph-name="scommaaccent" unicode="&#x219;" horiz-adv-x="1650" 
d="M94 59l25 111q205 -49 355 -68.5t317 -19.5q46 0 92 1.5t112 7.5t123.5 15.5t117 27t101.5 40.5t68.5 58.5t26.5 78.5q0 39 -17.5 69.5t-46.5 50.5t-75 34t-93.5 21.5t-112 11.5t-121.5 5.5t-129 2.5h-14q-69 1 -115 2t-111.5 4.5t-110 9.5t-99 16.5t-90.5 25t-73.5 36
t-59 49t-35.5 64t-14 80.5q0 62 26.5 111.5t66.5 81.5t102.5 55.5t119.5 35.5t132.5 19t126.5 8.5t116 1.5q295 0 655 -62l-18 -112q-349 61 -656 61q-56 0 -101 -1t-104.5 -6t-104.5 -13t-92 -23.5t-77 -36t-49.5 -52t-19.5 -70.5q0 -26 7.5 -48t25 -38.5t36 -30t51 -23
t58.5 -16.5t70.5 -11.5t74.5 -7t83.5 -4t85 -2t89.5 -0.5q99 -1 153 -2.5t144 -8t141 -17.5t115.5 -33t98.5 -53t58.5 -78t24.5 -107q0 -65 -32.5 -118t-83 -88t-122.5 -61t-141 -40t-149 -22.5t-136 -10.5t-112 -2q-180 0 -333 20t-351 70zM731 -164h98q43 -92 37 -217
t-63 -244h-66q100 249 -6 461z" />
    <glyph glyph-name="dotlessj" unicode="&#x237;" horiz-adv-x="487" 
d="M190 8v1067l121 17v-1084q0 -94 -16 -164.5t-43.5 -114.5t-70 -71t-89 -37t-106.5 -10v96q109 0 156.5 74t47.5 227z" />
    <glyph glyph-name="circumflex" unicode="&#x2c6;" horiz-adv-x="1730" 
d="M1192 1178l-420 235l-418 -235l-30 61l448 272l449 -272z" />
    <glyph glyph-name="caron" unicode="&#x2c7;" horiz-adv-x="1730" 
d="M772 1274l420 235l29 -59l-449 -274l-448 274l30 59z" />
    <glyph glyph-name="breve" unicode="&#x2d8;" horiz-adv-x="1730" 
d="M1143 1411q-50 -95 -142.5 -155t-207.5 -60q-116 0 -209 60t-142 155l64 41q38 -75 115 -122.5t172 -47.5t171.5 47.5t116.5 122.5z" />
    <glyph glyph-name="dotaccent" unicode="&#x2d9;" horiz-adv-x="1730" 
d="M651 1444h92v-219h-92v219z" />
    <glyph glyph-name="ring" unicode="&#x2da;" horiz-adv-x="1730" 
d="M551 1364q0 88 57.5 141.5t173.5 53.5t174 -53.5t58 -141.5q0 -90 -58 -144.5t-174 -54.5t-173.5 54.5t-57.5 144.5zM608 1364q0 -64 43 -103.5t131 -39.5t131 39.5t43 103.5q0 62 -43 99.5t-131 37.5t-131 -37.5t-43 -99.5z" />
    <glyph glyph-name="ogonek" unicode="&#x2db;" horiz-adv-x="1703" 
d="M1501 2l47 -2q-57 -37 -103 -103t-46 -126q0 -100 135 -131l-4 -74q-98 13 -151.5 62.5t-53.5 117.5q0 65 50 136.5t126 119.5z" />
    <glyph glyph-name="tilde" unicode="&#x2dc;" horiz-adv-x="1730" 
d="M1149 1436l49 -52q-143 -147 -262 -147q-49 0 -102 24.5t-101 49t-84 24.5q-95 0 -205 -110l-49 51q140 145 254 145q56 0 147.5 -49t139.5 -49q100 0 213 113z" />
    <glyph glyph-name="hungarumlaut" unicode="&#x2dd;" horiz-adv-x="1730" 
d="M463 1245l289 295l69 -70l-309 -272zM844 1245l289 295l69 -70l-309 -272z" />
    <glyph glyph-name="pi" unicode="&#x3c0;" 
d="M188 1006h-135v120h1604v-120h-135v-1006h-127v1006h-1086v-1006h-121v1006z" />
    <glyph glyph-name="Wgrave" unicode="&#x1e80;" horiz-adv-x="2557" 
d="M956 1882l676 -264l-22 -62l-688 234zM1872 0h-125l-229 612l-240 648l-238 -646l-229 -614h-127l-672 1434h133l287 -615l311 -663l246 665l230 613h120l230 -617l243 -661l314 665l287 613h131z" />
    <glyph glyph-name="wgrave" unicode="&#x1e81;" horiz-adv-x="2361" 
d="M1776 0h-131l-193 389l-272 545l-271 -545l-192 -389h-131l-533 1075h135l273 -563l190 -387l191 387l272 563h133l271 -563l192 -387l191 387l272 563h135zM858 1524l676 -264l-23 -62l-688 234z" />
    <glyph glyph-name="Wacute" unicode="&#x1e82;" horiz-adv-x="2557" 
d="M922 1618l677 264l33 -92l-688 -234zM1872 0h-125l-229 612l-240 648l-238 -646l-229 -614h-127l-672 1434h133l287 -615l311 -663l246 665l230 613h120l230 -617l243 -661l314 665l287 613h131z" />
    <glyph glyph-name="wacute" unicode="&#x1e83;" horiz-adv-x="2361" 
d="M823 1260l678 264l33 -92l-688 -234zM1776 0h-131l-193 389l-272 545l-271 -545l-192 -389h-131l-533 1075h135l273 -563l190 -387l191 387l272 563h133l271 -563l192 -387l191 387l272 563h135z" />
    <glyph glyph-name="Wdieresis" unicode="&#x1e84;" horiz-adv-x="2557" 
d="M979 1802h92v-219h-92v219zM1483 1802h92v-219h-92v219zM1872 0h-125l-229 612l-240 648l-238 -646l-229 -614h-127l-672 1434h133l287 -615l311 -663l246 665l230 613h120l230 -617l243 -661l314 665l287 613h131z" />
    <glyph glyph-name="wdieresis" unicode="&#x1e85;" horiz-adv-x="2361" 
d="M881 1444h92v-219h-92v219zM1384 1444h93v-219h-93v219zM1776 0h-131l-193 389l-272 545l-271 -545l-192 -389h-131l-533 1075h135l273 -563l190 -387l191 387l272 563h133l271 -563l192 -387l191 387l272 563h135z" />
    <glyph glyph-name="Ygrave" unicode="&#x1ef2;" horiz-adv-x="2037" 
d="M1870 1434h153l-944 -990v-444h-121v444l-946 990h156l342 -359l508 -530l510 530zM696 1882l676 -264l-22 -62l-688 234z" />
    <glyph glyph-name="ygrave" unicode="&#x1ef3;" horiz-adv-x="1660" 
d="M778 -14l-725 1089h144l364 -563l275 -418l628 981h142l-742 -1155q-113 -175 -230 -244t-263 -69q-107 0 -265 33v96q169 -33 250 -33q122 0 216 56.5t178 183.5zM508 1524l676 -264l-23 -62l-688 234z" />
    <glyph glyph-name="thinspace" unicode="&#x2009;" horiz-adv-x="245" 
 />
    <glyph glyph-name="endash" unicode="&#x2013;" horiz-adv-x="1613" 
d="M1354 590h-1096v96h1096v-96z" />
    <glyph glyph-name="emdash" unicode="&#x2014;" horiz-adv-x="2351" 
d="M258 590v96h1833v-96h-1833z" />
    <glyph glyph-name="quoteleft" unicode="&#x2018;" horiz-adv-x="497" 
d="M225 922q-31 95 -25 238.5t50 273.5h74q-22 -119 -18 -265.5t36 -246.5h-117z" />
    <glyph glyph-name="quoteright" unicode="&#x2019;" horiz-adv-x="497" 
d="M156 1434h116q32 -95 25.5 -238.5t-49.5 -273.5h-74q22 119 18 265.5t-36 246.5z" />
    <glyph glyph-name="quotesinglbase" unicode="&#x201a;" horiz-adv-x="497" 
d="M156 295h116q31 -95 25.5 -238t-49.5 -274h-74q22 119 18 265.5t-36 246.5z" />
    <glyph glyph-name="quotedblleft" unicode="&#x201c;" horiz-adv-x="903" 
d="M748 922h-117q-31 96 -24.5 238.5t48.5 273.5h74q-22 -119 -17.5 -265.5t36.5 -246.5zM342 922h-117q-31 95 -25 238.5t50 273.5h74q-22 -119 -18 -265.5t36 -246.5z" />
    <glyph glyph-name="quotedblright" unicode="&#x201d;" horiz-adv-x="903" 
d="M156 1434h116q32 -95 25.5 -238.5t-49.5 -273.5h-74q22 119 18 265.5t-36 246.5zM561 1434h117q31 -95 25 -238.5t-50 -273.5h-71q21 120 16.5 265.5t-37.5 246.5z" />
    <glyph glyph-name="quotedblbase" unicode="&#x201e;" horiz-adv-x="903" 
d="M156 295h116q31 -95 25.5 -238t-49.5 -274h-74q22 119 18 265.5t-36 246.5zM561 295h117q31 -95 25 -237.5t-50 -274.5h-71q21 120 16.5 265.5t-37.5 246.5z" />
    <glyph glyph-name="dagger" unicode="&#x2020;" horiz-adv-x="1228" 
d="M670 1464q1 -126 -15 -309.5t-18 -226.5q49 3 192 18.5t263 14.5v-111q-118 -1 -253.5 14.5t-201.5 18.5q2 -49 12.5 -210.5t16 -287.5t4.5 -221h-111q-1 96 4 217.5t15 295t12 206.5q-64 -3 -200.5 -18.5t-254.5 -14.5v111q120 1 263 -14.5t192 -18.5q-2 33 -17 221
t-14 315h111z" />
    <glyph glyph-name="daggerdbl" unicode="&#x2021;" horiz-adv-x="1228" 
d="M559 -358q-1 127 14 313.5t17 220.5q-71 -3 -205 -17.5t-250 -13.5v111q117 1 253.5 -13.5t197.5 -17.5q-4 111 6 212.5t10 115.5q0 12 -10 114.5t-6 213.5q-62 -3 -198.5 -17.5t-252.5 -13.5v111q120 1 263 -14.5t192 -18.5q-2 33 -17 221t-14 315h111
q1 -126 -15 -309.5t-18 -226.5q49 3 192 18.5t263 14.5v-111q-118 -1 -253.5 13.5t-195.5 17.5q4 -111 -6 -213.5t-10 -114.5q0 -14 10 -115.5t6 -212.5q60 3 195.5 17.5t253.5 13.5v-111q-116 -1 -250 13.5t-205 17.5q2 -44 18 -226t15 -308h-111z" />
    <glyph glyph-name="bullet" unicode="&#x2022;" horiz-adv-x="659" 
d="M115 731q0 81 54 129.5t163 48.5q108 0 160.5 -48.5t52.5 -129.5q0 -84 -53 -135t-160 -51q-109 0 -163 51t-54 135z" />
    <glyph glyph-name="ellipsis" unicode="&#x2026;" horiz-adv-x="1421" 
d="M217 297h111v-297h-111v297zM655 297h111v-297h-111v297zM1094 297h110v-297h-110v297z" />
    <glyph glyph-name="perthousand" unicode="&#x2030;" horiz-adv-x="2949" 
d="M227 1069q0 -143 84 -229t260 -86t260 86t84 229q0 141 -84.5 227t-259.5 86t-259.5 -86t-84.5 -227zM135 1069q0 177 108.5 286t327.5 109q217 0 326 -109t109 -286q0 -179 -109 -288t-326 -109q-111 0 -196 30t-137 84.5t-77.5 125.5t-25.5 157zM414 -51l-56 49
q660 766 1223 1487l55 -49q-649 -753 -1222 -1487zM1085 367q0 -143 84.5 -229.5t260.5 -86.5q175 0 259.5 86.5t84.5 229.5q0 141 -84.5 227t-259.5 86t-260 -86t-85 -227zM993 367q0 177 109 286t328 109q217 0 325.5 -109t108.5 -286q0 -179 -108.5 -288.5t-325.5 -109.5
q-111 0 -196.5 30t-137 84.5t-77.5 126t-26 157.5zM2034 367q0 -143 84.5 -229.5t259.5 -86.5t259.5 86.5t84.5 229.5q0 141 -84.5 227t-259.5 86t-259.5 -86t-84.5 -227zM1942 367q0 177 109 286t327 109q217 0 325.5 -109t108.5 -286q0 -179 -108.5 -288.5t-325.5 -109.5
q-111 0 -196 30t-137 84.5t-77.5 126t-25.5 157.5z" />
    <glyph glyph-name="guilsinglleft" unicode="&#x2039;" horiz-adv-x="980" 
d="M156 590l614 516l55 -66l-540 -450l540 -449l-55 -65z" />
    <glyph glyph-name="guilsinglright" unicode="&#x203a;" horiz-adv-x="980" 
d="M211 1106l614 -516l-614 -514l-55 65l540 449l-540 450z" />
    <glyph glyph-name="exclamdbl" unicode="&#x203c;" horiz-adv-x="946" 
d="M223 0v297h111v-297h-111zM217 1434h123l-10 -963h-101zM612 297h111v-297h-111v297zM618 471l-12 963h123l-12 -963h-99z" />
    <glyph glyph-name="fraction" unicode="&#x2044;" horiz-adv-x="1384" 
d="M109 -51l-56 49q660 766 1223 1487l55 -49q-649 -753 -1222 -1487z" />
    <glyph glyph-name="zerosuperior" unicode="&#x2070;" horiz-adv-x="1552" 
d="M211 1176q0 -102 35.5 -188t103.5 -151t177.5 -102t248.5 -37t248.5 37t177.5 102t103.5 151t35.5 188t-35.5 187.5t-103.5 150t-177.5 101t-248.5 36.5t-248.5 -36.5t-177.5 -101t-103.5 -150t-35.5 -187.5zM88 1176q0 125 44 231.5t128 186.5t216.5 125.5t299.5 45.5
t299.5 -45.5t216.5 -125.5t128 -186.5t44 -231.5q0 -126 -44 -233t-128 -187.5t-216.5 -126t-299.5 -45.5t-299.5 45.5t-216.5 126t-128 187.5t-44 233z" />
    <glyph glyph-name="foursuperior" unicode="&#x2074;" horiz-adv-x="1359" 
d="M1251 848h-145v-240h-123v240h-895v115l895 778h123v-776h149q-4 -78 -4 -117zM983 965v317l4 330l-547 -473l-211 -174h754z" />
    <glyph glyph-name="fivesuperior" unicode="&#x2075;" horiz-adv-x="1359" 
d="M1229 1626h-912l-16 -369q210 57 432 54q118 -5 214 -28t170 -65.5t114.5 -110.5t40.5 -157q0 -101 -48 -174.5t-133 -113.5t-183.5 -58t-217.5 -18q-168 0 -337.5 31.5t-264.5 72.5l35 111q94 -38 259 -69.5t320 -31.5q86 0 160 12.5t140.5 40t105.5 80t39 125.5
q0 70 -43.5 123.5t-120.5 85t-172.5 47t-208.5 15.5q-205 0 -428 -64l29 576h1026v-115z" />
    <glyph glyph-name="sixsuperior" unicode="&#x2076;" horiz-adv-x="1398" 
d="M1311 1020q0 -197 -169 -316.5t-454 -119.5q-310 0 -455 146t-145 409q0 165 50 287.5t142 195t211 107t267 34.5q243 0 473 -65q-27 -111 -27 -113q-226 66 -467 66q-92 0 -169.5 -15.5t-145.5 -53t-115 -94.5t-72.5 -145.5t-21.5 -201.5q20 91 104.5 157t197.5 96.5
t237 30.5q87 0 167 -15t152 -47t125 -78.5t84 -114.5t31 -150zM1186 1018q0 98 -60.5 169.5t-161 105.5t-227.5 34q-83 0 -168 -17t-164 -51.5t-128.5 -96.5t-49.5 -142q0 -62 27 -117.5t81 -102.5t146.5 -74.5t212.5 -27.5q228 0 360 86.5t132 233.5z" />
    <glyph glyph-name="sevensuperior" unicode="&#x2077;" horiz-adv-x="1290" 
d="M473 608h-149l751 1022l-1022 -4v115h1166v-107z" />
    <glyph glyph-name="eightsuperior" unicode="&#x2078;" horiz-adv-x="1398" 
d="M698 1765q84 0 162 -9t156.5 -31.5t136 -57.5t93.5 -92t36 -129q0 -59 -32 -107t-88.5 -80t-125.5 -52t-151 -29q426 -40 426 -283q0 -86 -51.5 -148.5t-141 -97t-194 -50t-226.5 -15.5q-96 0 -181 9.5t-165 32t-137.5 57t-92 89t-34.5 123.5q0 242 424 283
q-110 12 -195.5 42.5t-142.5 89t-57 136.5q0 72 35.5 129t93 92t135.5 57.5t155.5 31.5t161.5 9zM698 698q101 0 185 12t153.5 38t108.5 71.5t39 106.5q0 207 -486 207q-485 0 -485 -207q0 -61 39.5 -106.5t108.5 -71.5t153 -38t184 -12zM698 1219q220 0 339.5 50.5
t119.5 149.5q0 66 -41.5 114t-112 72.5t-145.5 35t-160 10.5q-66 0 -126.5 -6t-122 -22.5t-106.5 -41.5t-73 -66.5t-28 -95.5q0 -99 119 -149.5t337 -50.5z" />
    <glyph glyph-name="ninesuperior" unicode="&#x2079;" horiz-adv-x="1398" 
d="M88 1329q0 197 169 316.5t454 119.5q310 0 455 -146t145 -409q0 -165 -50.5 -287.5t-143 -195t-211.5 -107t-267 -34.5q-241 0 -471 65q25 111 25 113q239 -66 469 -66q91 0 168.5 15.5t146 53t115 94.5t72.5 145.5t22 201.5q-21 -91 -106 -157t-197.5 -96.5
t-235.5 -30.5q-87 0 -167 15t-152 47t-125 78.5t-84 114.5t-31 150zM213 1331q0 -98 60.5 -169.5t160 -105.5t225.5 -34q83 0 168 17t164.5 51.5t129.5 96.5t50 142q0 62 -27.5 118t-82 103t-147 75t-212.5 28q-226 0 -357.5 -87.5t-131.5 -234.5z" />
    <glyph glyph-name="plus.sups" unicode="&#x207a;" horiz-adv-x="1150" 
d="M170 1075h365v359h83v-359h363v-86h-363v-356h-83v356h-365v86z" />
    <glyph glyph-name="minus.sups" unicode="&#x207b;" horiz-adv-x="1150" 
d="M170 1075h811v-86h-811v86z" />
    <glyph glyph-name="equal.sups" unicode="&#x207c;" horiz-adv-x="1150" 
d="M170 881h811v-86h-811v86zM170 1270h811v-86h-811v86z" />
    <glyph glyph-name="parenleft.sups" unicode="&#x207d;" horiz-adv-x="647" 
d="M137 1130q0 232 98 463t259 383l67 -39q-145 -158 -227 -370t-82 -437q0 -223 82 -436t227 -370l-67 -39q-161 152 -259 382.5t-98 462.5z" />
    <glyph glyph-name="parenright.sups" unicode="&#x207e;" horiz-adv-x="647" 
d="M512 1130q0 -232 -97.5 -462.5t-258.5 -382.5l-68 39q144 158 226.5 371t82.5 435q0 223 -82.5 435.5t-226.5 371.5l68 39q160 -151 258 -382.5t98 -463.5z" />
    <glyph glyph-name="n.sups" unicode="&#x207f;" horiz-adv-x="1359" 
d="M1255 608h-120v430q0 151 -100 240.5t-316 89.5q-199 0 -494 -94v-666h-121v848l117 14l2 -94l2 -2q264 109 506 109q135 0 237 -33.5t164 -94t92.5 -140.5t30.5 -177v-430z" />
    <glyph glyph-name="zeroinferior" unicode="&#x2080;" horiz-adv-x="1552" 
d="M211 260q0 -212 145 -344.5t420 -132.5t420 132.5t145 344.5q0 102 -35.5 187.5t-103.5 150t-177.5 101t-248.5 36.5t-248.5 -36.5t-177.5 -101t-103.5 -150t-35.5 -187.5zM88 260q0 125 44 231.5t128 187t216.5 126t299.5 45.5t299.5 -45.5t216.5 -126t128 -187
t44 -231.5q0 -126 -44 -233t-128 -187.5t-216.5 -126t-299.5 -45.5t-299.5 45.5t-216.5 126t-128 187.5t-44 233z" />
    <glyph glyph-name="oneinferior" unicode="&#x2081;" horiz-adv-x="1142" 
d="M72 -193h438v898l-401 -115l-35 98l440 137h119v-1018h438v-114h-999v114z" />
    <glyph glyph-name="twoinferior" unicode="&#x2082;" horiz-adv-x="1355" 
d="M1251 -307h-1138v114q200 72 367 150t309.5 167t223.5 186.5t81 191.5q0 51 -24 90.5t-66 64t-89.5 41t-105.5 24t-101.5 10.5t-89.5 3q-224 0 -487 -65q-2 11 -13 52t-14 60q255 68 498 68q52 0 102 -2.5t114 -11.5t118.5 -23.5t108.5 -40t91.5 -59t61 -83t23.5 -110.5
q0 -86 -49 -172t-134 -160.5t-203 -145t-251 -128.5t-283 -107h950v-114z" />
    <glyph glyph-name="threeinferior" unicode="&#x2083;" horiz-adv-x="1335" 
d="M88 -225l35 110q111 -43 268 -72.5t311 -29.5q87 0 159.5 11.5t132.5 37t94 71t34 107.5q0 45 -17 78t-55 56t-88 38t-127.5 23t-161 11t-200.5 3h-170v80h172q327 0 473 52.5t146 172.5q0 42 -18.5 75.5t-46.5 55.5t-71 38t-82.5 24t-91 13t-86 6t-77.5 1
q-219 0 -490 -67l-27 112q255 68 506 68q611 0 611 -303q0 -127 -111 -194.5t-356 -90.5q258 -14 375.5 -73.5t117.5 -196.5q0 -72 -30.5 -128t-81 -92.5t-122.5 -60t-150 -33.5t-167 -10q-168 0 -340 32.5t-268 74.5z" />
    <glyph glyph-name="fourinferior" unicode="&#x2084;" horiz-adv-x="1359" 
d="M1251 -68h-145v-239h-123v239h-895v115l895 778h123v-776h149q-4 -78 -4 -117zM983 49v318l4 329l-547 -473l-211 -174h754z" />
    <glyph glyph-name="fiveinferior" unicode="&#x2085;" horiz-adv-x="1359" 
d="M1229 711h-912l-16 -369q206 56 432 53q119 -5 214.5 -27.5t169.5 -65t114.5 -110.5t40.5 -157q0 -82 -32.5 -146t-86.5 -104.5t-130.5 -67t-157.5 -37t-175 -10.5q-168 0 -337 32t-265 73l35 110q94 -38 259 -69t320 -31q86 0 160 12.5t140.5 40t105.5 80t39 125.5
q0 70 -43.5 123t-120.5 84.5t-172.5 47t-208.5 15.5q-208 0 -428 -63l29 575h1026v-114z" />
    <glyph glyph-name="sixinferior" unicode="&#x2086;" horiz-adv-x="1398" 
d="M1311 104q0 -197 -169 -316.5t-454 -119.5q-310 0 -455 146t-145 409q0 133 33 238.5t92 177.5t144 119.5t184 68.5t217 21q240 0 473 -66q-27 -110 -27 -112q-222 65 -467 65q-92 0 -169.5 -15.5t-145.5 -53t-115 -94.5t-72.5 -145.5t-21.5 -201.5q20 91 104.5 157.5
t197.5 97t237 30.5q109 0 207 -24.5t178 -72.5t127 -127.5t47 -181.5zM1186 102q0 98 -60.5 169.5t-161 106t-227.5 34.5q-65 0 -132.5 -10t-136 -34t-121.5 -58t-86.5 -87.5t-33.5 -118.5q0 -62 27 -117.5t81 -102.5t146.5 -75t212.5 -28q228 0 360 87t132 234z" />
    <glyph glyph-name="seveninferior" unicode="&#x2087;" horiz-adv-x="1290" 
d="M473 -307h-149l751 1022l-1022 -4v114h1166v-106z" />
    <glyph glyph-name="eightinferior" unicode="&#x2088;" horiz-adv-x="1398" 
d="M698 850q84 0 162 -9t156.5 -32t136 -58t93.5 -92t36 -129q0 -59 -32 -107t-88.5 -80t-125.5 -52t-151 -29q426 -40 426 -282q0 -86 -51.5 -148.5t-141 -97t-194 -50.5t-226.5 -16q-121 0 -225 16t-193.5 50.5t-140.5 97t-51 148.5q0 241 424 282q-110 12 -195.5 42.5
t-142.5 89t-57 136.5q0 72 35.5 129t93 92t135.5 58t155.5 32t161.5 9zM698 -217q101 0 185 12t153.5 37.5t108.5 71t39 106.5q0 207 -486 207q-485 0 -485 -207q0 -61 39.5 -106.5t109 -71t153 -37.5t183.5 -12zM698 303q219 0 339 50.5t120 150.5q0 66 -41.5 114t-112 72
t-145.5 34.5t-160 10.5q-66 0 -126.5 -6t-122 -22t-106.5 -41t-73 -66.5t-28 -95.5q0 -100 119 -150.5t337 -50.5z" />
    <glyph glyph-name="nineinferior" unicode="&#x2089;" horiz-adv-x="1398" 
d="M88 414q0 197 169 316.5t454 119.5q310 0 455 -146t145 -409q0 -133 -33.5 -238.5t-92.5 -177.5t-144 -119.5t-184.5 -68.5t-217.5 -21q-238 0 -471 66q25 110 25 112q225 -65 469 -65q91 0 168.5 15.5t146 53t115 94.5t72.5 145.5t22 201.5q-21 -91 -106 -157.5
t-197.5 -97t-235.5 -30.5q-109 0 -207 24.5t-178 72.5t-127 127.5t-47 181.5zM213 416q0 -147 126 -228.5t320 -81.5q65 0 133 10t136.5 34t122 58t87 87.5t33.5 118.5q0 49 -16.5 94.5t-53.5 87.5t-90.5 73t-133 49.5t-175.5 18.5q-226 0 -357.5 -87t-131.5 -234z" />
    <glyph glyph-name="parenleft.sinf" unicode="&#x208d;" horiz-adv-x="647" 
d="M137 215q0 232 98 463t259 383l67 -39q-145 -158 -227 -370t-82 -437t82 -437t227 -370l-67 -39q-161 152 -259 383t-98 463z" />
    <glyph glyph-name="parenright.sinf" unicode="&#x208e;" horiz-adv-x="647" 
d="M512 215q0 -232 -98 -463.5t-258 -382.5l-68 39q144 159 226.5 371.5t82.5 435.5t-82.5 435.5t-226.5 371.5l68 39q160 -151 258 -382.5t98 -463.5z" />
    <glyph glyph-name="Euro" unicode="&#x20ac;" horiz-adv-x="1812" 
d="M205 846h-152v69h164q29 145 104 253t185 171.5t240.5 94t283.5 30.5q309 0 666 -114l-29 -111q-344 113 -631 113q-128 0 -236.5 -24t-201 -74.5t-157.5 -136.5t-93 -202h1082v-69h-1102q-15 -135 0 -258h1102v-70h-1082q28 -116 93 -201.5t157.5 -135.5t201 -73.5
t236.5 -23.5q293 0 631 111l29 -111q-360 -115 -666 -115q-153 0 -283.5 30.5t-240.5 94t-185 171.5t-104 253h-164v70h152q-16 120 0 258z" />
    <glyph glyph-name="litre" unicode="&#x2113;" horiz-adv-x="774" 
d="M86 340l-25 22l144 177v520q0 391 254 391q85 0 133.5 -66t48.5 -167q0 -74 -23 -148t-67.5 -146t-91 -131.5t-111.5 -129.5v-345q0 -35 1 -60.5t5 -61t13.5 -60t24 -47.5t39 -35t56.5 -12q48 0 87.5 29.5t61 73t33 87.5t11.5 80h33q0 -56 -15 -112t-44.5 -106t-82 -81.5
t-118.5 -31.5q-60 0 -105 23t-72 60t-43.5 91t-22 108.5t-5.5 120.5v100zM348 1098v-381q132 137 192 265t60 230q0 82 -37 132.5t-92 50.5q-33 0 -57.5 -20.5t-36.5 -49t-19 -73.5t-8.5 -77t-1.5 -77z" />
    <glyph glyph-name="numero" unicode="&#x2116;" horiz-adv-x="3098" 
d="M1540 414v1020h121v-1434h-119l-1268 1266l2 -281v-985h-120v1434h120l1266 -1266zM1802 938q0 229 155.5 369.5t434.5 140.5t434.5 -140.5t155.5 -369.5t-155.5 -370.5t-434.5 -141.5t-434.5 141.5t-155.5 370.5zM2875 938q0 184 -125 296t-358 112q-232 0 -357.5 -112
t-125.5 -296t126 -297t357 -113q232 0 357.5 112.5t125.5 297.5zM2920 307v-69h-1056v69h1056z" />
    <glyph glyph-name="servicemark" unicode="&#x2120;" horiz-adv-x="2351" 
d="M1692 782h-50l-450 547l2 -119v-565h-74v789h72l477 -580l475 580h72v-789h-74v565l2 121zM965 1399l-17 -68q-194 53 -381 53q-39 0 -77 -2.5t-89.5 -12t-89.5 -25.5t-65 -45.5t-27 -69.5q0 -24 7.5 -43.5t25 -34t35 -25.5t49 -18.5t55 -12.5t64.5 -8.5t66 -5.5t71 -4
q58 -3 94.5 -5t87.5 -8.5t82.5 -15t67.5 -24t55.5 -36t33 -50.5t13.5 -68q0 -69 -40.5 -118.5t-109.5 -75t-142 -36.5t-156 -11q-222 0 -435 78l21 63q213 -74 424 -74q61 0 119.5 8t116 26t93 53.5t35.5 84.5q0 23 -6.5 41t-22.5 31.5t-31 23t-46 16.5t-51.5 11.5t-63.5 8
t-66.5 4.5t-74.5 4q-61 3 -95 5.5t-88 9.5t-85 15.5t-69 25t-58 38t-34 53.5t-14 72q0 56 29.5 98t73.5 65.5t105.5 38t113.5 19t109 4.5q194 0 387 -53z" />
    <glyph glyph-name="trademark" unicode="&#x2122;" horiz-adv-x="2281" 
d="M1624 782h-49l-453 547l2 -119v-565h-71v789h71l475 -580l476 580h71v-789h-73v565l2 121zM985 1366h-399v-721h-72v721h-399v68h870v-68z" />
    <glyph glyph-name="Omega" unicode="&#x2126;" horiz-adv-x="1894" 
d="M946 1464q246 0 435.5 -76t293 -213t103.5 -313q0 -106 -37 -198t-99.5 -158t-146.5 -116.5t-174.5 -79.5t-187.5 -40v-170h505v-100h-585v328q118 10 223.5 47t192 99t137.5 157.5t51 212.5q0 155 -95 271.5t-255.5 176.5t-360.5 60t-360.5 -60t-255 -176.5
t-94.5 -271.5q0 -117 51 -212.5t138 -157.5t192.5 -99t222.5 -47v-328h-586v100h506v170q-97 11 -187.5 40t-174.5 79.5t-146.5 116.5t-99.5 158t-37 198q0 176 103 313t292.5 213t435.5 76z" />
    <glyph glyph-name="estimated" unicode="&#x212e;" horiz-adv-x="1644" 
d="M1561 670h-1190v-437q85 -88 203 -135t249 -47q157 0 297 67t228 189l82 -28q-234 -299 -609 -299q-154 0 -291.5 55.5t-235.5 150t-155 224t-57 272.5q0 144 57.5 274.5t155.5 225.5t235.5 151t290.5 56t290 -55t235.5 -149.5t156.5 -228.5t58 -286zM371 729h903v412
q-85 84 -204.5 129t-248.5 45q-130 0 -247 -46t-203 -132v-408z" />
    <glyph glyph-name="onethird" unicode="&#x2153;" horiz-adv-x="3555" 
d="M2308 82l35 111q112 -43 269 -73t310 -30q87 0 159.5 11.5t132.5 37t94 71t34 107.5q0 45 -17 78t-55 56t-88 38t-127.5 23t-161 11t-200.5 3h-170v80h172q327 0 473 52.5t146 172.5q0 42 -18.5 75.5t-46.5 55.5t-71 38t-82.5 24t-91 13t-86 6t-77.5 1q-219 0 -490 -67
l-27 113q251 67 506 67q611 0 611 -303q0 -127 -111 -194.5t-356 -90.5q258 -14 375.5 -73.5t117.5 -196.5q0 -72 -30.5 -128t-81 -92.5t-122.5 -60t-150 -33.5t-167 -10q-168 0 -340 32.5t-268 74.5zM72 416h438v897l-401 -115l-35 98l440 138h119v-1018h438v-115h-999v115
zM1096 -51l-56 49q660 766 1223 1487l55 -49q-649 -753 -1222 -1487z" />
    <glyph glyph-name="twothirds" unicode="&#x2154;" horiz-adv-x="3768" 
d="M2521 82l35 111q112 -43 269 -73t310 -30q87 0 159.5 11.5t132.5 37t94 71t34 107.5q0 45 -17 78t-55 56t-88 38t-127.5 23t-161 11t-200.5 3h-170v80h172q327 0 473 52.5t146 172.5q0 42 -18.5 75.5t-46.5 55.5t-71 38t-82.5 24t-91 13t-86 6t-77.5 1q-219 0 -490 -67
l-27 113q251 67 506 67q611 0 611 -303q0 -127 -111 -194.5t-356 -90.5q258 -14 375.5 -73.5t117.5 -196.5q0 -72 -30.5 -128t-81 -92.5t-122.5 -60t-150 -33.5t-167 -10q-168 0 -340 32.5t-268 74.5zM1251 301h-1138v115q158 57 295.5 117t266 131t219.5 141.5t145.5 149.5
t54.5 155q0 51 -24 90.5t-66 64t-89.5 41t-105.5 24t-101.5 10.5t-89.5 3q-224 0 -487 -65q-2 10 -13 52t-14 61q251 67 498 67q52 0 102 -2.5t114 -11.5t118.5 -23.5t108.5 -40t91.5 -59t61 -83t23.5 -110.5q0 -86 -49 -172t-134 -160.5t-203 -144.5t-251 -128t-283 -107
h950v-115zM1309 -51l-56 49q660 766 1223 1487l55 -49q-649 -753 -1222 -1487z" />
    <glyph glyph-name="oneeighth" unicode="&#x215b;" horiz-adv-x="3465" 
d="M2765 1157q84 0 162 -9t156 -31.5t135.5 -57.5t93.5 -92t36 -129q0 -59 -32 -107.5t-88.5 -80.5t-125.5 -52t-151 -29q426 -40 426 -282q0 -86 -51.5 -148.5t-141 -97t-193.5 -50.5t-226 -16q-121 0 -225 16t-193.5 50.5t-141 97t-51.5 148.5q0 241 424 282
q-81 9 -149.5 29t-125 52t-88.5 80.5t-32 107.5q0 72 36 129t93 92t135.5 57.5t156 31.5t161.5 9zM2765 90q101 0 184.5 12t153 37.5t108.5 70.5t39 107q0 207 -485 207q-486 0 -486 -207q0 -61 39.5 -106.5t109 -71t153.5 -37.5t184 -12zM2765 610q219 0 339 50.5
t120 150.5q0 66 -41.5 114t-112 72t-145.5 34.5t-160 10.5t-159.5 -10.5t-144.5 -34.5t-111.5 -72t-41.5 -114q0 -99 119.5 -150t337.5 -51zM72 416h438v897l-401 -115l-35 98l440 138h119v-1018h438v-115h-999v115zM1096 -51l-56 49q660 766 1223 1487l55 -49
q-649 -753 -1222 -1487z" />
    <glyph glyph-name="threeeighths" unicode="&#x215c;" horiz-adv-x="3504" 
d="M2804 1157q84 0 162 -9t156 -31.5t135.5 -57.5t93.5 -92t36 -129q0 -59 -32 -107.5t-88.5 -80.5t-125.5 -52t-151 -29q426 -40 426 -282q0 -86 -51.5 -148.5t-141 -97t-193.5 -50.5t-226 -16q-121 0 -225 16t-193.5 50.5t-141 97t-51.5 148.5q0 241 424 282
q-81 9 -149.5 29t-125 52t-88.5 80.5t-32 107.5q0 72 36 129t93 92t135.5 57.5t156 31.5t161.5 9zM88 383l35 111q112 -43 269 -73t310 -30q87 0 159.5 11.5t132.5 37t94 71t34 107.5q0 45 -17 78t-55 56t-88 38t-127.5 23t-161 11t-200.5 3h-170v80h172q326 0 472.5 53
t146.5 173q0 42 -18.5 75.5t-46.5 55.5t-71 38t-82.5 24t-91 13t-86 6t-77.5 1q-215 0 -490 -68l-27 113q251 67 506 67q611 0 611 -303q0 -127 -111 -194.5t-356 -90.5q258 -14 375.5 -73.5t117.5 -196.5q0 -72 -30.5 -128t-81 -92.5t-122.5 -60t-150 -33.5t-167 -10
q-168 0 -340 32.5t-268 74.5zM2804 90q101 0 184.5 12t153 37.5t108.5 70.5t39 107q0 207 -485 207q-486 0 -486 -207q0 -61 39.5 -106.5t109 -71t153.5 -37.5t184 -12zM2804 610q219 0 338.5 50.5t119.5 150.5q0 54 -28 95.5t-73 66.5t-107 41t-122.5 22t-127.5 6
q-85 0 -159.5 -10.5t-144.5 -34.5t-111.5 -72t-41.5 -114q0 -99 119.5 -150t337.5 -51zM1135 -51l-56 49q660 766 1223 1487l55 -49q-649 -753 -1222 -1487z" />
    <glyph glyph-name="fiveeighths" unicode="&#x215d;" horiz-adv-x="3528" 
d="M2828 1157q84 0 162 -9t156.5 -31.5t136 -57.5t93.5 -92t36 -129q0 -59 -32 -107.5t-88.5 -80.5t-125.5 -52t-151 -29q426 -40 426 -282q0 -86 -51.5 -148.5t-141 -97t-194 -50.5t-226.5 -16q-121 0 -225 16t-193.5 50.5t-140.5 97t-51 148.5q0 241 424 282
q-81 9 -149.5 29t-125 52t-88.5 80.5t-32 107.5q0 72 35.5 129t93 92t135.5 57.5t155.5 31.5t161.5 9zM2828 90q101 0 185 12t153.5 37.5t108.5 71t39 106.5q0 207 -486 207q-485 0 -485 -207q0 -61 39.5 -106.5t109 -71t153 -37.5t183.5 -12zM2828 610q219 0 339 50.5
t120 150.5q0 66 -41.5 114t-112 72t-145.5 34.5t-160 10.5q-66 0 -126.5 -6t-122 -22t-106.5 -41t-73 -66.5t-28 -95.5q0 -100 119 -150.5t337 -50.5zM1229 1319h-912l-16 -369q210 57 432 54q118 -5 214 -28t170 -65.5t114.5 -110.5t40.5 -157q0 -101 -48 -174.5
t-133 -113.5t-183.5 -58t-217.5 -18q-168 0 -337.5 31.5t-264.5 72.5l35 111q94 -38 259 -69.5t320 -31.5q86 0 160 12.5t140.5 40t105.5 80t39 125.5q0 70 -43.5 123.5t-120.5 85t-172.5 47t-208.5 15.5q-205 0 -428 -64l29 576h1026v-115zM1159 -51l-55 49
q660 766 1223 1487l55 -49q-660 -766 -1223 -1487z" />
    <glyph glyph-name="seveneighths" unicode="&#x215e;" horiz-adv-x="3254" 
d="M473 301h-149l751 1022l-1022 -4v115h1166v-107zM2554 1157q84 0 162 -9t156.5 -31.5t136 -57.5t93.5 -92t36 -129q0 -59 -32.5 -107.5t-89 -80.5t-125.5 -52t-151 -29q426 -40 426 -282q0 -86 -51.5 -148.5t-141 -97t-193.5 -50.5t-226 -16q-121 0 -225 16t-193.5 50.5
t-140.5 97t-51 148.5q0 241 423 282q-81 9 -149.5 29t-125 52t-88.5 80.5t-32 107.5q0 72 36 129t93 92t135.5 57.5t156 31.5t161.5 9zM2554 90q101 0 184.5 12t153 37.5t108.5 70.5t39 107q0 207 -485 207q-486 0 -486 -207q0 -61 39.5 -106.5t109 -71t153.5 -37.5t184 -12
zM2554 610q219 0 339 50.5t120 150.5q0 66 -41.5 114t-112 72t-145.5 34.5t-160 10.5t-159.5 -10.5t-144.5 -34.5t-111.5 -72t-41.5 -114q0 -99 119.5 -150t337.5 -51zM887 -51l-56 49q660 766 1223 1487l55 -49q-649 -753 -1222 -1487z" />
    <glyph glyph-name="uni2190" unicode="&#x2190;" horiz-adv-x="1675" 
d="M1563 758v-86h-1065l-238 4v-2l229 -215l289 -293l-59 -60l-606 609l606 608l59 -59l-291 -293l-227 -215v-2l238 4h1065z" />
    <glyph glyph-name="uni2191" unicode="&#x2191;" horiz-adv-x="1675" 
d="M881 0h-86v1065l4 238h-2l-215 -230l-293 -289l-60 60l609 606l608 -606l-60 -60l-292 291l-215 228h-2l4 -238v-1065z" />
    <glyph glyph-name="uni2192" unicode="&#x2192;" horiz-adv-x="1675" 
d="M113 672v86h1065l237 -4v2l-227 215l-291 293l59 59l607 -608l-607 -609l-59 60l289 293l229 215v2l-237 -4h-1065z" />
    <glyph glyph-name="uni2193" unicode="&#x2193;" horiz-adv-x="1675" 
d="M795 1430h86v-1065l-4 -238h2l215 229l292 289l60 -59l-608 -606l-609 606l60 59l293 -291l215 -227h2l-4 238v1065z" />
    <glyph glyph-name="uni2194" unicode="&#x2194;" horiz-adv-x="1675" 
d="M250 754l237 4h701l237 -4v2l-227 215l-268 270l59 59l584 -585l-584 -586l-59 59l266 271l229 215v2l-237 -4h-701l-237 4v-2l229 -215l266 -271l-59 -59l-584 586l584 585l59 -59l-268 -270l-227 -215v-2z" />
    <glyph glyph-name="uni2195" unicode="&#x2195;" horiz-adv-x="1675" 
d="M799 127l-4 238v700l4 238h-2l-215 -228l-271 -268l-59 59l586 584l585 -584l-59 -59l-270 266l-215 230h-2l4 -238v-700l-4 -238h2l215 229l270 267l59 -60l-585 -583l-586 583l59 60l271 -269l215 -227h2z" />
    <glyph glyph-name="uni2196" unicode="&#x2196;" horiz-adv-x="1675" 
d="M1343 231l-59 -59l-754 754l-165 168h-3l13 -314l-2 -411h-86l2 858l858 2v-84l-412 -2l-313 10v-2l168 -166z" />
    <glyph glyph-name="uni2197" unicode="&#x2197;" horiz-adv-x="1675" 
d="M389 172l-59 59l753 754l168 166v2l-313 -10l-412 2v84l858 -2l2 -858h-83l-5 411l13 314h-2l-166 -168z" />
    <glyph glyph-name="uni2198" unicode="&#x2198;" horiz-adv-x="1675" 
d="M1083 373l-753 753l59 60l754 -754l166 -168h2l-13 314l5 411h83l-2 -858l-858 -2v86h412l313 -10v2z" />
    <glyph glyph-name="uni2199" unicode="&#x2199;" horiz-adv-x="1675" 
d="M1284 1186l59 -60l-753 -753l-168 -166v-2l313 10h412v-86l-858 2l-2 858h86l2 -411l-13 -314h3l165 168z" />
    <glyph glyph-name="partialdiff" unicode="&#x2202;" horiz-adv-x="1759" 
d="M578 1335l-27 111q120 14 254 14q149 0 274 -27.5t230 -88t178 -151.5t114 -224.5t41 -300.5q0 -161 -42 -287t-130.5 -219.5t-234 -143t-342.5 -49.5q-356 0 -567 151t-211 402q0 101 37.5 187t102.5 146.5t152.5 103t187 63t206.5 20.5q119 0 235 -25.5t216 -74
t172 -126.5t96 -175q5 131 -17.5 238.5t-69 184t-110 132t-146 88.5t-171.5 48.5t-191 15.5q-107 0 -237 -13zM887 82q158 0 280.5 39t193 103.5t105.5 140t35 157.5q0 72 -30 134.5t-82 107t-118.5 79.5t-142 55.5t-150.5 31t-147 10.5q-164 0 -296.5 -46.5t-214.5 -143.5
t-82 -230q0 -200 174.5 -319t474.5 -119z" />
    <glyph glyph-name="Delta" unicode="&#x2206;" horiz-adv-x="1761" 
d="M1577 20h-1393l697 1393zM322 106h1118l-559 1117z" />
    <glyph glyph-name="product" unicode="&#x220f;" 
d="M135 0v1434h1440v-1434h-127v1313h-1192v-1313h-121z" />
    <glyph glyph-name="summation" unicode="&#x2211;" horiz-adv-x="1449" 
d="M307 -109h1006v-112h-1178v100l600 727l-600 727v101h1178v-113h-1006l580 -715z" />
    <glyph glyph-name="minus" unicode="&#x2212;" horiz-adv-x="1449" 
d="M217 580h1014v-86h-1014v86z" />
    <glyph glyph-name="radical" unicode="&#x221a;" horiz-adv-x="1980" 
d="M688 0l-635 1075h99l579 -979l809 1338h365v-84h-316l-815 -1350h-86z" />
    <glyph glyph-name="infinity" unicode="&#x221e;" horiz-adv-x="1994" 
d="M516 1008q133 0 270 -79t211 -210q73 131 210 210t272 79q157 0 268 -115.5t111 -278.5t-111 -278t-268 -115q-135 0 -272 79t-210 210q-74 -131 -211 -210t-270 -79q-157 0 -269 115t-112 278t112 278.5t269 115.5zM1479 336q109 0 187.5 82t78.5 196q0 115 -78.5 197
t-187.5 82q-124 0 -247.5 -76t-176.5 -203q53 -127 176 -202.5t248 -75.5zM516 336q80 0 162 31.5t153.5 96.5t106.5 150q-35 85 -106.5 150t-153.5 97t-162 32q-109 0 -187.5 -82t-78.5 -197q0 -114 78.5 -196t187.5 -82z" />
    <glyph glyph-name="integral" unicode="&#x222b;" horiz-adv-x="980" 
d="M465 1085v-1097q0 -203 -80.5 -290t-237.5 -87q-91 0 -223 29v96q146 -23 193 -23q114 0 170.5 63t56.5 212v1097q0 203 80.5 290t237.5 87q95 0 223 -28v-97q-122 23 -193 23q-114 0 -170.5 -63t-56.5 -212z" />
    <glyph glyph-name="approxequal" unicode="&#x2248;" horiz-adv-x="1353" 
d="M1147 930l67 -70q-176 -176 -325 -176q-47 0 -99 19t-89.5 42.5t-83 42.5t-82.5 19q-105 0 -250 -145l-68 69q170 170 318 170q45 0 95.5 -19t87.5 -42.5t84.5 -42.5t86.5 -19q106 0 258 152zM1147 475l67 -67q-179 -179 -325 -179q-47 0 -99 19t-89.5 42.5t-83 42.5
t-82.5 19q-107 0 -250 -143l-68 67q173 173 318 173q45 0 95.5 -19t87.5 -42.5t84.5 -42.5t86.5 -19q109 0 258 149z" />
    <glyph glyph-name="notequal" unicode="&#x2260;" horiz-adv-x="1449" 
d="M217 825h582l92 250h55l-92 -250h377v-86h-408l-147 -405h555v-86h-586l-90 -248h-55l90 248h-373v86h404l147 405h-551v86z" />
    <glyph glyph-name="lessequal" unicode="&#x2264;" horiz-adv-x="1234" 
d="M174 86h836l-834 383v92l881 406v-93l-797 -358l797 -360v-156h-883v86z" />
    <glyph glyph-name="greaterequal" unicode="&#x2265;" horiz-adv-x="1234" 
d="M221 86h836v-86h-883v156l797 360l-797 358v93l881 -406v-92z" />
    <glyph glyph-name="lozenge" unicode="&#x25ca;" horiz-adv-x="1761" 
d="M881 20l-697 697l697 696l696 -696zM305 717l576 -576l575 576l-575 575z" />
    <glyph glyph-name="anglebracketleft" unicode="&#x3008;" horiz-adv-x="876" 
d="M614 -362l-479 1030l479 1032h127l-483 -1032l483 -1030h-127z" />
    <glyph glyph-name="anglebracketright" unicode="&#x3009;" horiz-adv-x="876" 
d="M741 668l-479 -1030h-127l486 1030l-486 1032h127z" />
    <glyph glyph-name="E.alt" horiz-adv-x="1865" 
d="M1735 213l34 -109q-112 -52 -351.5 -92.5t-493.5 -40.5q-128 0 -240.5 11.5t-219 40t-182.5 71.5t-121.5 112t-45.5 156q0 76 35.5 133.5t99 97t163 66.5t215 41.5t267.5 22.5q-148 10 -260 26t-206 43t-153.5 66t-92.5 94t-33 127q0 88 48.5 156t128 110.5t191.5 70
t227.5 38t247.5 10.5q218 0 427.5 -26.5t328.5 -57.5l-27 -110q-109 28 -321 55t-422 27q-112 0 -209 -8t-190.5 -29t-159.5 -53.5t-106 -84.5t-40 -120q0 -38 13 -69.5t41.5 -57t64.5 -46t91.5 -35.5t113.5 -26.5t139 -19.5t159 -13t182.5 -7.5t200.5 -3.5t222 -1v-110
q-131 0 -224 -1t-203 -3t-187 -7t-162.5 -12.5t-144 -19t-118 -27t-97 -37t-68 -48t-44 -60.5t-13.5 -74q0 -82 55 -141t152.5 -91t211 -46.5t250.5 -14.5q241 0 479 40t347 87z" />
    <glyph glyph-name="Egrave.alt" horiz-adv-x="1865" 
d="M610 1882l676 -264l-22 -62l-689 234zM1735 213l34 -109q-112 -52 -351.5 -92.5t-493.5 -40.5q-128 0 -240.5 11.5t-219 40t-182.5 71.5t-121.5 112t-45.5 156q0 76 35.5 133.5t99 97t163 66.5t215 41.5t267.5 22.5q-148 10 -260 26t-206 43t-153.5 66t-92.5 94t-33 127
q0 88 48.5 156t128 110.5t191.5 70t227.5 38t247.5 10.5q218 0 427.5 -26.5t328.5 -57.5l-27 -110q-109 28 -321 55t-422 27q-112 0 -209 -8t-190.5 -29t-159.5 -53.5t-106 -84.5t-40 -120q0 -38 13 -69.5t41.5 -57t64.5 -46t91.5 -35.5t113.5 -26.5t139 -19.5t159 -13
t182.5 -7.5t200.5 -3.5t222 -1v-110q-131 0 -224 -1t-203 -3t-187 -7t-162.5 -12.5t-144 -19t-118 -27t-97 -37t-68 -48t-44 -60.5t-13.5 -74q0 -82 55 -141t152.5 -91t211 -46.5t250.5 -14.5q241 0 479 40t347 87z" />
    <glyph glyph-name="Eacute.alt" horiz-adv-x="1865" 
d="M575 1618l678 264l33 -92l-688 -234zM1735 213l34 -109q-112 -52 -351.5 -92.5t-493.5 -40.5q-128 0 -240.5 11.5t-219 40t-182.5 71.5t-121.5 112t-45.5 156q0 76 35.5 133.5t99 97t163 66.5t215 41.5t267.5 22.5q-148 10 -260 26t-206 43t-153.5 66t-92.5 94t-33 127
q0 88 48.5 156t128 110.5t191.5 70t227.5 38t247.5 10.5q218 0 427.5 -26.5t328.5 -57.5l-27 -110q-109 28 -321 55t-422 27q-112 0 -209 -8t-190.5 -29t-159.5 -53.5t-106 -84.5t-40 -120q0 -38 13 -69.5t41.5 -57t64.5 -46t91.5 -35.5t113.5 -26.5t139 -19.5t159 -13
t182.5 -7.5t200.5 -3.5t222 -1v-110q-131 0 -224 -1t-203 -3t-187 -7t-162.5 -12.5t-144 -19t-118 -27t-97 -37t-68 -48t-44 -60.5t-13.5 -74q0 -82 55 -141t152.5 -91t211 -46.5t250.5 -14.5q241 0 479 40t347 87z" />
    <glyph glyph-name="Ecircumflex.alt" horiz-adv-x="1865" 
d="M1350 1536l-420 236l-418 -236l-31 61l449 273l448 -273zM1735 213l34 -109q-112 -52 -351.5 -92.5t-493.5 -40.5q-128 0 -240.5 11.5t-219 40t-182.5 71.5t-121.5 112t-45.5 156q0 76 35.5 133.5t99 97t163 66.5t215 41.5t267.5 22.5q-148 10 -260 26t-206 43t-153.5 66
t-92.5 94t-33 127q0 88 48.5 156t128 110.5t191.5 70t227.5 38t247.5 10.5q218 0 427.5 -26.5t328.5 -57.5l-27 -110q-109 28 -321 55t-422 27q-112 0 -209 -8t-190.5 -29t-159.5 -53.5t-106 -84.5t-40 -120q0 -38 13 -69.5t41.5 -57t64.5 -46t91.5 -35.5t113.5 -26.5
t139 -19.5t159 -13t182.5 -7.5t200.5 -3.5t222 -1v-110q-131 0 -224 -1t-203 -3t-187 -7t-162.5 -12.5t-144 -19t-118 -27t-97 -37t-68 -48t-44 -60.5t-13.5 -74q0 -82 55 -141t152.5 -91t211 -46.5t250.5 -14.5q241 0 479 40t347 87z" />
    <glyph glyph-name="Ecaron.alt" horiz-adv-x="1865" 
d="M930 1632l420 236l28 -60l-448 -274l-449 274l31 60zM1735 213l34 -109q-112 -52 -351.5 -92.5t-493.5 -40.5q-128 0 -240.5 11.5t-219 40t-182.5 71.5t-121.5 112t-45.5 156q0 76 35.5 133.5t99 97t163 66.5t215 41.5t267.5 22.5q-148 10 -260 26t-206 43t-153.5 66
t-92.5 94t-33 127q0 88 48.5 156t128 110.5t191.5 70t227.5 38t247.5 10.5q218 0 427.5 -26.5t328.5 -57.5l-27 -110q-109 28 -321 55t-422 27q-112 0 -209 -8t-190.5 -29t-159.5 -53.5t-106 -84.5t-40 -120q0 -38 13 -69.5t41.5 -57t64.5 -46t91.5 -35.5t113.5 -26.5
t139 -19.5t159 -13t182.5 -7.5t200.5 -3.5t222 -1v-110q-131 0 -224 -1t-203 -3t-187 -7t-162.5 -12.5t-144 -19t-118 -27t-97 -37t-68 -48t-44 -60.5t-13.5 -74q0 -82 55 -141t152.5 -91t211 -46.5t250.5 -14.5q241 0 479 40t347 87z" />
    <glyph glyph-name="Edieresis.alt" horiz-adv-x="1865" 
d="M633 1802h92v-219h-92v219zM1137 1802h92v-219h-92v219zM1735 213l34 -109q-112 -52 -351.5 -92.5t-493.5 -40.5q-128 0 -240.5 11.5t-219 40t-182.5 71.5t-121.5 112t-45.5 156q0 76 35.5 133.5t99 97t163 66.5t215 41.5t267.5 22.5q-148 10 -260 26t-206 43t-153.5 66
t-92.5 94t-33 127q0 88 48.5 156t128 110.5t191.5 70t227.5 38t247.5 10.5q218 0 427.5 -26.5t328.5 -57.5l-27 -110q-109 28 -321 55t-422 27q-112 0 -209 -8t-190.5 -29t-159.5 -53.5t-106 -84.5t-40 -120q0 -38 13 -69.5t41.5 -57t64.5 -46t91.5 -35.5t113.5 -26.5
t139 -19.5t159 -13t182.5 -7.5t200.5 -3.5t222 -1v-110q-131 0 -224 -1t-203 -3t-187 -7t-162.5 -12.5t-144 -19t-118 -27t-97 -37t-68 -48t-44 -60.5t-13.5 -74q0 -82 55 -141t152.5 -91t211 -46.5t250.5 -14.5q241 0 479 40t347 87z" />
    <glyph glyph-name="Emacron.alt" horiz-adv-x="1865" 
d="M567 1739h727v-82h-727v82zM1735 213l34 -109q-112 -52 -351.5 -92.5t-493.5 -40.5q-128 0 -240.5 11.5t-219 40t-182.5 71.5t-121.5 112t-45.5 156q0 76 35.5 133.5t99 97t163 66.5t215 41.5t267.5 22.5q-148 10 -260 26t-206 43t-153.5 66t-92.5 94t-33 127
q0 88 48.5 156t128 110.5t191.5 70t227.5 38t247.5 10.5q218 0 427.5 -26.5t328.5 -57.5l-27 -110q-109 28 -321 55t-422 27q-112 0 -209 -8t-190.5 -29t-159.5 -53.5t-106 -84.5t-40 -120q0 -38 13 -69.5t41.5 -57t64.5 -46t91.5 -35.5t113.5 -26.5t139 -19.5t159 -13
t182.5 -7.5t200.5 -3.5t222 -1v-110q-131 0 -224 -1t-203 -3t-187 -7t-162.5 -12.5t-144 -19t-118 -27t-97 -37t-68 -48t-44 -60.5t-13.5 -74q0 -82 55 -141t152.5 -91t211 -46.5t250.5 -14.5q241 0 479 40t347 87z" />
    <glyph glyph-name="Ebreve.alt" horiz-adv-x="1865" 
d="M1221 1810l61 -41q-50 -95 -142.5 -155t-207.5 -60t-207.5 60t-142.5 155l63 41q38 -75 115 -122.5t172 -47.5t172 47.5t117 122.5zM1735 213l34 -109q-112 -52 -351.5 -92.5t-493.5 -40.5q-128 0 -240.5 11.5t-219 40t-182.5 71.5t-121.5 112t-45.5 156q0 76 35.5 133.5
t99 97t163 66.5t215 41.5t267.5 22.5q-148 10 -260 26t-206 43t-153.5 66t-92.5 94t-33 127q0 88 48.5 156t128 110.5t191.5 70t227.5 38t247.5 10.5q218 0 427.5 -26.5t328.5 -57.5l-27 -110q-109 28 -321 55t-422 27q-112 0 -209 -8t-190.5 -29t-159.5 -53.5t-106 -84.5
t-40 -120q0 -38 13 -69.5t41.5 -57t64.5 -46t91.5 -35.5t113.5 -26.5t139 -19.5t159 -13t182.5 -7.5t200.5 -3.5t222 -1v-110q-131 0 -224 -1t-203 -3t-187 -7t-162.5 -12.5t-144 -19t-118 -27t-97 -37t-68 -48t-44 -60.5t-13.5 -74q0 -82 55 -141t152.5 -91t211 -46.5
t250.5 -14.5q241 0 479 40t347 87z" />
    <glyph glyph-name="Edotaccent.alt" horiz-adv-x="1865" 
d="M885 1802h92v-219h-92v219zM1735 213l34 -109q-112 -52 -351.5 -92.5t-493.5 -40.5q-128 0 -240.5 11.5t-219 40t-182.5 71.5t-121.5 112t-45.5 156q0 76 35.5 133.5t99 97t163 66.5t215 41.5t267.5 22.5q-148 10 -260 26t-206 43t-153.5 66t-92.5 94t-33 127
q0 88 48.5 156t128 110.5t191.5 70t227.5 38t247.5 10.5q218 0 427.5 -26.5t328.5 -57.5l-27 -110q-109 28 -321 55t-422 27q-112 0 -209 -8t-190.5 -29t-159.5 -53.5t-106 -84.5t-40 -120q0 -38 13 -69.5t41.5 -57t64.5 -46t91.5 -35.5t113.5 -26.5t139 -19.5t159 -13
t182.5 -7.5t200.5 -3.5t222 -1v-110q-131 0 -224 -1t-203 -3t-187 -7t-162.5 -12.5t-144 -19t-118 -27t-97 -37t-68 -48t-44 -60.5t-13.5 -74q0 -82 55 -141t152.5 -91t211 -46.5t250.5 -14.5q241 0 479 40t347 87z" />
    <glyph glyph-name="Eogonek.alt" horiz-adv-x="1865" 
d="M1735 213l34 -109q-57 -37 -103 -103t-46 -126q0 -100 135 -131l-4 -74q-98 13 -151.5 62.5t-53.5 117.5q0 54 33.5 113t89.5 105q-138 -41 -337.5 -69t-407.5 -28q-128 0 -240.5 11.5t-219 40t-182.5 71.5t-121.5 112t-45.5 156q0 76 35.5 133.5t99 97t163 66.5
t215 41.5t267.5 22.5q-148 10 -260 26t-206 43t-153.5 66t-92.5 94t-33 127q0 88 48.5 156t128 110.5t191.5 70t227.5 38t247.5 10.5q218 0 427.5 -26.5t328.5 -57.5l-27 -110q-109 28 -321 55t-422 27q-112 0 -209 -8t-190.5 -29t-159.5 -53.5t-106 -84.5t-40 -120
q0 -38 13 -69.5t41.5 -57t64.5 -46t91.5 -35.5t113.5 -26.5t139 -19.5t159 -13t182.5 -7.5t200.5 -3.5t222 -1v-110q-131 0 -224 -1t-203 -3t-187 -7t-162.5 -12.5t-144 -19t-118 -27t-97 -37t-68 -48t-44 -60.5t-13.5 -74q0 -82 55 -141t152.5 -91t211 -46.5t250.5 -14.5
q241 0 479 40t347 87z" />
    <glyph glyph-name="E.titl" horiz-adv-x="1867" 
d="M1751 115v-115h-1595v1434h1554v-113h-1434v-670h1311v-114h-1311v-422h1475z" />
    <glyph glyph-name="Egrave.titl" horiz-adv-x="1867" 
d="M610 1882l676 -264l-22 -62l-689 234zM1751 115v-115h-1595v1434h1554v-113h-1434v-670h1311v-114h-1311v-422h1475z" />
    <glyph glyph-name="Eacute.titl" horiz-adv-x="1867" 
d="M1751 115v-115h-1595v1434h1554v-113h-1434v-670h1311v-114h-1311v-422h1475zM575 1618l678 264l33 -92l-688 -234z" />
    <glyph glyph-name="Ecircumflex.titl" horiz-adv-x="1867" 
d="M1751 115v-115h-1595v1434h1554v-113h-1434v-670h1311v-114h-1311v-422h1475zM1352 1536l-420 236l-418 -236l-31 61l449 273l448 -273z" />
    <glyph glyph-name="Ecaron.titl" horiz-adv-x="1867" 
d="M1751 115v-115h-1595v1434h1554v-113h-1434v-670h1311v-114h-1311v-422h1475zM932 1632l420 236l28 -60l-448 -274l-449 274l31 60z" />
    <glyph glyph-name="Edieresis.titl" horiz-adv-x="1867" 
d="M1751 115v-115h-1595v1434h1554v-113h-1434v-670h1311v-114h-1311v-422h1475zM633 1802h92v-219h-92v219zM1137 1802h92v-219h-92v219z" />
    <glyph glyph-name="Emacron.titl" horiz-adv-x="1867" 
d="M1751 115v-115h-1595v1434h1554v-113h-1434v-670h1311v-114h-1311v-422h1475zM569 1739h727v-82h-727v82z" />
    <glyph glyph-name="Ebreve.titl" horiz-adv-x="1867" 
d="M1221 1810l61 -41q-50 -95 -142.5 -155t-207.5 -60t-207.5 60t-142.5 155l63 41q38 -75 115 -122.5t172 -47.5t172 47.5t117 122.5zM1751 115v-115h-1595v1434h1554v-113h-1434v-670h1311v-114h-1311v-422h1475z" />
    <glyph glyph-name="Edotaccent.titl" horiz-adv-x="1867" 
d="M885 1802h92v-219h-92v219zM1751 115v-115h-1595v1434h1554v-113h-1434v-670h1311v-114h-1311v-422h1475z" />
    <glyph glyph-name="Eogonek.titl" horiz-adv-x="1867" 
d="M1751 115v-115q-57 -37 -103 -103t-46 -126q0 -100 135 -131l-4 -74q-98 13 -151.5 62.5t-53.5 117.5q0 65 48.5 135.5t123.5 118.5h-1544v1434h1554v-113h-1434v-670h1311v-114h-1311v-422h1475z" />
    <glyph glyph-name="F.titl" horiz-adv-x="1785" 
d="M1587 651v-114h-1311v-537h-120v1434h1554v-113h-1434v-670h1311z" />
    <glyph glyph-name="H.titl" horiz-adv-x="1990" 
d="M1714 0v537h-1438v-537h-120v1434h120v-783h1438v783h121v-1434h-121z" />
    <glyph glyph-name="Hcircumflex.titl" horiz-adv-x="1990" 
d="M1714 0v537h-1438v-537h-120v1434h120v-783h1438v783h121v-1434h-121zM1413 1536l-420 236l-418 -236l-30 61l448 273l449 -273z" />
    <glyph glyph-name="Hbar.titl" horiz-adv-x="1990" 
d="M1991 1075h-156v-1075h-121v537h-1438v-537h-120v1075h-156v72h156v287h120v-287h1438v287h121v-287h156v-72zM276 651h1438v424h-1438v-424z" />
    <glyph glyph-name="I.alt" horiz-adv-x="1562" 
d="M1446 115v-115h-1331v115h606v1206h-606v113h1331v-113h-604v-1206h604z" />
    <glyph glyph-name="Igrave.alt" horiz-adv-x="1562" 
d="M461 1882l676 -264l-23 -62l-688 234zM1446 115v-115h-1331v115h606v1206h-606v113h1331v-113h-604v-1206h604z" />
    <glyph glyph-name="Iacute.alt" horiz-adv-x="1562" 
d="M426 1618l678 264l33 -92l-688 -234zM1446 115v-115h-1331v115h606v1206h-606v113h1331v-113h-604v-1206h604z" />
    <glyph glyph-name="Icircumflex.alt" horiz-adv-x="1562" 
d="M1446 115v-115h-1331v115h606v1206h-606v113h1331v-113h-604v-1206h604zM1200 1536l-420 236l-418 -236l-30 61l448 273l449 -273z" />
    <glyph glyph-name="Itilde.alt" horiz-adv-x="1562" 
d="M1133 1794l49 -51q-144 -148 -262 -148q-39 0 -81 15.5t-72.5 34t-67.5 34t-66 15.5q-94 0 -205 -111l-49 51q140 146 254 146q56 0 147.5 -49.5t139.5 -49.5q100 0 213 113zM1446 115v-115h-1331v115h606v1206h-606v113h1331v-113h-604v-1206h604z" />
    <glyph glyph-name="Idieresis.alt" horiz-adv-x="1562" 
d="M481 1802h92v-219h-92v219zM985 1802h92v-219h-92v219zM1446 115v-115h-1331v115h606v1206h-606v113h1331v-113h-604v-1206h604z" />
    <glyph glyph-name="Imacron.alt" horiz-adv-x="1562" 
d="M416 1739h727v-82h-727v82zM1446 115v-115h-1331v115h606v1206h-606v113h1331v-113h-604v-1206h604z" />
    <glyph glyph-name="Ibreve.alt" horiz-adv-x="1562" 
d="M1069 1810l61 -41q-50 -95 -142.5 -155t-207.5 -60t-207.5 60t-142.5 155l64 41q38 -75 114.5 -122.5t171.5 -47.5t172 47.5t117 122.5zM1446 115v-115h-1331v115h606v1206h-606v113h1331v-113h-604v-1206h604z" />
    <glyph glyph-name="Idotaccent.alt" horiz-adv-x="1562" 
d="M733 1802h92v-219h-92v219zM1446 115v-115h-1331v115h606v1206h-606v113h1331v-113h-604v-1206h604z" />
    <glyph glyph-name="Iogonek.alt" horiz-adv-x="1562" 
d="M1446 115v-115q-57 -37 -103.5 -103.5t-46.5 -125.5q0 -100 136 -131l-5 -74q-98 13 -151 62.5t-53 117.5q0 65 48.5 135.5t123.5 118.5h-1280v115h606v1206h-606v113h1331v-113h-604v-1206h604z" />
    <glyph glyph-name="germandbls.cap" horiz-adv-x="2383" 
d="M276 1055v-1055h-120v1049q0 415 716 415q190 0 405 -27.5t380 -68.5l-406 -600q109 1 193.5 0t188.5 -9t181 -22.5t154.5 -42t127 -66t80 -95.5t30.5 -130q0 -84 -35.5 -152t-99.5 -114.5t-143.5 -80t-176.5 -52t-189.5 -27t-191.5 -8.5q-212 0 -406.5 38t-408.5 114
l35 108q216 -74 400 -110.5t399 -36.5q90 0 178 8t184 30t167.5 56t118 91t46.5 130q0 105 -104 171t-255.5 85t-322 27.5t-303.5 -0.5l403 600q-135 30 -312 51t-335 21q-58 0 -113.5 -4t-125 -14t-126.5 -31.5t-107 -53t-78 -81.5t-28 -113z" />
    <glyph glyph-name="W.alt" horiz-adv-x="2879" 
d="M2329 819l399 615h139l-930 -1434h-137l-360 549l-361 -549h-137l-930 1434h142l397 -615l459 -713l360 560l-498 768h140l428 -648l428 648h141l-500 -768l361 -560z" />
    <glyph glyph-name="Wgrave.alt" horiz-adv-x="2879" 
d="M1118 1882l676 -264l-22 -62l-689 234zM2329 819l399 615h139l-930 -1434h-137l-360 549l-361 -549h-137l-930 1434h142l397 -615l459 -713l360 560l-498 768h140l428 -648l428 648h141l-500 -768l361 -560z" />
    <glyph glyph-name="Wacute.alt" horiz-adv-x="2879" 
d="M1083 1618l678 264l33 -92l-688 -234zM2329 819l399 615h139l-930 -1434h-137l-360 549l-361 -549h-137l-930 1434h142l397 -615l459 -713l360 560l-498 768h140l428 -648l428 648h141l-500 -768l361 -560z" />
    <glyph glyph-name="Wcircumflex.alt" horiz-adv-x="2879" 
d="M2329 819l399 615h139l-930 -1434h-137l-360 549l-361 -549h-137l-930 1434h142l397 -615l459 -713l360 560l-498 768h140l428 -648l428 648h141l-500 -768l361 -560zM1858 1536l-420 236l-418 -236l-31 61l449 273l448 -273z" />
    <glyph glyph-name="Wdieresis.alt" horiz-adv-x="2879" 
d="M1141 1802h92v-219h-92v219zM1645 1802h92v-219h-92v219zM2329 819l399 615h139l-930 -1434h-137l-360 549l-361 -549h-137l-930 1434h142l397 -615l459 -713l360 560l-498 768h140l428 -648l428 648h141l-500 -768l361 -560z" />
    <glyph glyph-name="a.alt" horiz-adv-x="1865" 
d="M1817 106v-106q-91 -31 -156 -31q-114 0 -151.5 61.5t-34.5 198.5l-2 2q-128 -115 -308 -188.5t-395 -73.5q-317 0 -496.5 158.5t-179.5 415.5q0 123 44.5 225t130.5 178t221 118t307 42q171 0 353.5 -40t317.5 -105l2 2l5 108l114 14v-823q0 -98 24.5 -139t92.5 -41
q53 0 111 24zM778 82q210 0 396.5 76t293.5 188v514q-135 57 -318.5 95t-344.5 38q-287 0 -437.5 -124t-150.5 -328q0 -205 148 -332t413 -127z" />
    <glyph glyph-name="agrave.alt" horiz-adv-x="1865" 
d="M1817 106v-106q-91 -31 -156 -31q-114 0 -151.5 61.5t-34.5 198.5l-2 2q-128 -115 -308 -188.5t-395 -73.5q-317 0 -496.5 158.5t-179.5 415.5q0 123 44.5 225t130.5 178t221 118t307 42q171 0 353.5 -40t317.5 -105l2 2l5 108l114 14v-823q0 -98 24.5 -139t92.5 -41
q53 0 111 24zM778 82q210 0 396.5 76t293.5 188v514q-135 57 -318.5 95t-344.5 38q-287 0 -437.5 -124t-150.5 -328q0 -205 148 -332t413 -127zM610 1524l676 -264l-22 -62l-689 234z" />
    <glyph glyph-name="aacute.alt" horiz-adv-x="1865" 
d="M575 1260l678 264l33 -92l-688 -234zM1817 106v-106q-91 -31 -156 -31q-114 0 -151.5 61.5t-34.5 198.5l-2 2q-128 -115 -308 -188.5t-395 -73.5q-317 0 -496.5 158.5t-179.5 415.5q0 123 44.5 225t130.5 178t221 118t307 42q171 0 353.5 -40t317.5 -105l2 2l5 108
l114 14v-823q0 -98 24.5 -139t92.5 -41q53 0 111 24zM778 82q210 0 396.5 76t293.5 188v514q-135 57 -318.5 95t-344.5 38q-287 0 -437.5 -124t-150.5 -328q0 -205 148 -332t413 -127z" />
    <glyph glyph-name="acircumflex.alt" horiz-adv-x="1865" 
d="M1350 1178l-420 235l-418 -235l-31 61l449 272l448 -272zM1817 106v-106q-91 -31 -156 -31q-114 0 -151.5 61.5t-34.5 198.5l-2 2q-128 -115 -308 -188.5t-395 -73.5q-317 0 -496.5 158.5t-179.5 415.5q0 123 44.5 225t130.5 178t221 118t307 42q171 0 353.5 -40
t317.5 -105l2 2l5 108l114 14v-823q0 -98 24.5 -139t92.5 -41q53 0 111 24zM778 82q210 0 396.5 76t293.5 188v514q-135 57 -318.5 95t-344.5 38q-287 0 -437.5 -124t-150.5 -328q0 -205 148 -332t413 -127z" />
    <glyph glyph-name="atilde.alt" horiz-adv-x="1865" 
d="M1817 106v-106q-91 -31 -156 -31q-114 0 -151.5 61.5t-34.5 198.5l-2 2q-128 -115 -308 -188.5t-395 -73.5q-317 0 -496.5 158.5t-179.5 415.5q0 123 44.5 225t130.5 178t221 118t307 42q171 0 353.5 -40t317.5 -105l2 2l5 108l114 14v-823q0 -98 24.5 -139t92.5 -41
q53 0 111 24zM778 82q210 0 396.5 76t293.5 188v514q-135 57 -318.5 95t-344.5 38q-287 0 -437.5 -124t-150.5 -328q0 -205 148 -332t413 -127zM1282 1436l49 -52q-143 -147 -262 -147q-49 0 -102 24.5t-101 49t-84 24.5q-94 0 -204 -110l-50 51q140 145 254 145
q56 0 147.5 -49t139.5 -49q100 0 213 113z" />
    <glyph glyph-name="adieresis.alt" horiz-adv-x="1865" 
d="M633 1444h92v-219h-92v219zM1137 1444h92v-219h-92v219zM1817 106v-106q-91 -31 -156 -31q-114 0 -151.5 61.5t-34.5 198.5l-2 2q-128 -115 -308 -188.5t-395 -73.5q-317 0 -496.5 158.5t-179.5 415.5q0 123 44.5 225t130.5 178t221 118t307 42q171 0 353.5 -40
t317.5 -105l2 2l5 108l114 14v-823q0 -98 24.5 -139t92.5 -41q53 0 111 24zM778 82q210 0 396.5 76t293.5 188v514q-135 57 -318.5 95t-344.5 38q-287 0 -437.5 -124t-150.5 -328q0 -205 148 -332t413 -127z" />
    <glyph glyph-name="amacron.alt" horiz-adv-x="1865" 
d="M1817 106v-106q-91 -31 -156 -31q-114 0 -151.5 61.5t-34.5 198.5l-2 2q-128 -115 -308 -188.5t-395 -73.5q-317 0 -496.5 158.5t-179.5 415.5q0 123 44.5 225t130.5 178t221 118t307 42q171 0 353.5 -40t317.5 -105l2 2l5 108l114 14v-823q0 -98 24.5 -139t92.5 -41
q53 0 111 24zM778 82q210 0 396.5 76t293.5 188v514q-135 57 -318.5 95t-344.5 38q-287 0 -437.5 -124t-150.5 -328q0 -205 148 -332t413 -127zM567 1380h727v-82h-727v82z" />
    <glyph glyph-name="abreve.alt" horiz-adv-x="1865" 
d="M1817 106v-106q-91 -31 -156 -31q-114 0 -151.5 61.5t-34.5 198.5l-2 2q-128 -115 -308 -188.5t-395 -73.5q-317 0 -496.5 158.5t-179.5 415.5q0 123 44.5 225t130.5 178t221 118t307 42q171 0 353.5 -40t317.5 -105l2 2l5 108l114 14v-823q0 -98 24.5 -139t92.5 -41
q53 0 111 24zM778 82q210 0 396.5 76t293.5 188v514q-135 57 -318.5 95t-344.5 38q-287 0 -437.5 -124t-150.5 -328q0 -205 148 -332t413 -127zM1219 1452l61 -41q-50 -95 -142.5 -155t-207.5 -60t-207.5 60t-142.5 155l63 41q38 -75 115 -122.5t172 -47.5t172 47.5
t117 122.5z" />
    <glyph glyph-name="aring.alt" horiz-adv-x="1865" 
d="M700 1364q0 88 58 141.5t174 53.5t173.5 -53.5t57.5 -141.5q0 -90 -57.5 -144.5t-173.5 -54.5t-174 54.5t-58 144.5zM758 1364q0 -64 43 -103.5t131 -39.5t131 39.5t43 103.5q0 62 -43 99.5t-131 37.5t-131 -37.5t-43 -99.5zM1817 106v-106q-91 -31 -156 -31
q-114 0 -151.5 61.5t-34.5 198.5l-2 2q-128 -115 -308 -188.5t-395 -73.5q-317 0 -496.5 158.5t-179.5 415.5q0 123 44.5 225t130.5 178t221 118t307 42q171 0 353.5 -40t317.5 -105l2 2l5 108l114 14v-823q0 -98 24.5 -139t92.5 -41q53 0 111 24zM778 82q210 0 396.5 76
t293.5 188v514q-135 57 -318.5 95t-344.5 38q-287 0 -437.5 -124t-150.5 -328q0 -205 148 -332t413 -127z" />
    <glyph glyph-name="aogonek.alt" horiz-adv-x="1865" 
d="M1817 106v-106q-57 -37 -103.5 -103.5t-46.5 -125.5q0 -100 135 -131l-4 -74q-98 13 -151.5 62.5t-53.5 117.5q0 57 38.5 120t101.5 111q-36 -8 -72 -8q-114 0 -151.5 61.5t-34.5 198.5l-2 2q-128 -115 -308 -188.5t-395 -73.5q-317 0 -496.5 158.5t-179.5 415.5
q0 123 44.5 225t130.5 178t221 118t307 42q171 0 353.5 -40t317.5 -105l2 2l5 108l114 14v-823q0 -98 24.5 -139t92.5 -41q53 0 111 24zM778 82q210 0 396.5 76t293.5 188v514q-135 57 -318.5 95t-344.5 38q-287 0 -437.5 -124t-150.5 -328q0 -205 148 -332t413 -127z" />
    <glyph glyph-name="e.alt" horiz-adv-x="1654" 
d="M901 82q191 0 363 27.5t239 52.5l23 -107q-75 -28 -249.5 -57t-371.5 -29q-403 0 -607 143.5t-204 413.5q0 98 26.5 183t84.5 158.5t143.5 126t210.5 82.5t279 30q139 0 262 -24.5t222.5 -73t157.5 -130t58 -186.5q0 -74 -33 -131t-87 -92t-130.5 -58t-154.5 -31.5
t-168 -8.5q-170 0 -381 34t-363 91q25 -414 680 -414zM967 457q72 0 134 6.5t121.5 23t101 42.5t66.5 67.5t25 95.5q0 77 -46.5 136t-127.5 95t-182.5 54t-218.5 18q-161 0 -282 -33.5t-192.5 -93.5t-107.5 -135t-39 -166q111 -48 358 -79t390 -31z" />
    <glyph glyph-name="egrave.alt" horiz-adv-x="1654" 
d="M506 1524l676 -264l-23 -62l-688 234zM901 82q191 0 363 27.5t239 52.5l23 -107q-75 -28 -249.5 -57t-371.5 -29q-403 0 -607 143.5t-204 413.5q0 98 26.5 183t84.5 158.5t143.5 126t210.5 82.5t279 30q139 0 262 -24.5t222.5 -73t157.5 -130t58 -186.5q0 -74 -33 -131
t-87 -92t-130.5 -58t-154.5 -31.5t-168 -8.5q-170 0 -381 34t-363 91q25 -414 680 -414zM967 457q72 0 134 6.5t121.5 23t101 42.5t66.5 67.5t25 95.5q0 77 -46.5 136t-127.5 95t-182.5 54t-218.5 18q-161 0 -282 -33.5t-192.5 -93.5t-107.5 -135t-39 -166q111 -48 358 -79
t390 -31z" />
    <glyph glyph-name="eacute.alt" horiz-adv-x="1654" 
d="M473 1260l678 264l33 -92l-688 -234zM901 82q191 0 363 27.5t239 52.5l23 -107q-75 -28 -249.5 -57t-371.5 -29q-403 0 -607 143.5t-204 413.5q0 98 26.5 183t84.5 158.5t143.5 126t210.5 82.5t279 30q139 0 262 -24.5t222.5 -73t157.5 -130t58 -186.5q0 -74 -33 -131
t-87 -92t-130.5 -58t-154.5 -31.5t-168 -8.5q-170 0 -381 34t-363 91q25 -414 680 -414zM967 457q72 0 134 6.5t121.5 23t101 42.5t66.5 67.5t25 95.5q0 77 -46.5 136t-127.5 95t-182.5 54t-218.5 18q-161 0 -282 -33.5t-192.5 -93.5t-107.5 -135t-39 -166q111 -48 358 -79
t390 -31z" />
    <glyph glyph-name="ecircumflex.alt" horiz-adv-x="1654" 
d="M1245 1178l-420 235l-417 -235l-31 61l448 272l449 -272zM901 82q191 0 363 27.5t239 52.5l23 -107q-75 -28 -249.5 -57t-371.5 -29q-403 0 -607 143.5t-204 413.5q0 98 26.5 183t84.5 158.5t143.5 126t210.5 82.5t279 30q139 0 262 -24.5t222.5 -73t157.5 -130
t58 -186.5q0 -74 -33 -131t-87 -92t-130.5 -58t-154.5 -31.5t-168 -8.5q-170 0 -381 34t-363 91q25 -414 680 -414zM967 457q72 0 134 6.5t121.5 23t101 42.5t66.5 67.5t25 95.5q0 77 -46.5 136t-127.5 95t-182.5 54t-218.5 18q-161 0 -282 -33.5t-192.5 -93.5t-107.5 -135
t-39 -166q111 -48 358 -79t390 -31z" />
    <glyph glyph-name="ecaron.alt" horiz-adv-x="1654" 
d="M825 1274l420 235l29 -59l-449 -274l-448 274l31 59zM901 82q191 0 363 27.5t239 52.5l23 -107q-75 -28 -249.5 -57t-371.5 -29q-403 0 -607 143.5t-204 413.5q0 98 26.5 183t84.5 158.5t143.5 126t210.5 82.5t279 30q139 0 262 -24.5t222.5 -73t157.5 -130t58 -186.5
q0 -74 -33 -131t-87 -92t-130.5 -58t-154.5 -31.5t-168 -8.5q-170 0 -381 34t-363 91q25 -414 680 -414zM967 457q72 0 134 6.5t121.5 23t101 42.5t66.5 67.5t25 95.5q0 77 -46.5 136t-127.5 95t-182.5 54t-218.5 18q-161 0 -282 -33.5t-192.5 -93.5t-107.5 -135t-39 -166
q111 -48 358 -79t390 -31z" />
    <glyph glyph-name="edieresis.alt" horiz-adv-x="1654" 
d="M526 1444h92v-219h-92v219zM1030 1444h92v-219h-92v219zM901 82q191 0 363 27.5t239 52.5l23 -107q-75 -28 -249.5 -57t-371.5 -29q-403 0 -607 143.5t-204 413.5q0 98 26.5 183t84.5 158.5t143.5 126t210.5 82.5t279 30q139 0 262 -24.5t222.5 -73t157.5 -130t58 -186.5
q0 -74 -33 -131t-87 -92t-130.5 -58t-154.5 -31.5t-168 -8.5q-170 0 -381 34t-363 91q25 -414 680 -414zM967 457q72 0 134 6.5t121.5 23t101 42.5t66.5 67.5t25 95.5q0 77 -46.5 136t-127.5 95t-182.5 54t-218.5 18q-161 0 -282 -33.5t-192.5 -93.5t-107.5 -135t-39 -166
q111 -48 358 -79t390 -31z" />
    <glyph glyph-name="emacron.alt" horiz-adv-x="1654" 
d="M463 1380h727v-82h-727v82zM901 82q191 0 363 27.5t239 52.5l23 -107q-75 -28 -249.5 -57t-371.5 -29q-403 0 -607 143.5t-204 413.5q0 98 26.5 183t84.5 158.5t143.5 126t210.5 82.5t279 30q139 0 262 -24.5t222.5 -73t157.5 -130t58 -186.5q0 -74 -33 -131t-87 -92
t-130.5 -58t-154.5 -31.5t-168 -8.5q-170 0 -381 34t-363 91q25 -414 680 -414zM967 457q72 0 134 6.5t121.5 23t101 42.5t66.5 67.5t25 95.5q0 77 -46.5 136t-127.5 95t-182.5 54t-218.5 18q-161 0 -282 -33.5t-192.5 -93.5t-107.5 -135t-39 -166q111 -48 358 -79t390 -31z
" />
    <glyph glyph-name="ebreve.alt" horiz-adv-x="1654" 
d="M901 82q191 0 363 27.5t239 52.5l23 -107q-75 -28 -249.5 -57t-371.5 -29q-403 0 -607 143.5t-204 413.5q0 98 26.5 183t84.5 158.5t143.5 126t210.5 82.5t279 30q139 0 262 -24.5t222.5 -73t157.5 -130t58 -186.5q0 -74 -33 -131t-87 -92t-130.5 -58t-154.5 -31.5
t-168 -8.5q-170 0 -381 34t-363 91q25 -414 680 -414zM967 457q72 0 134 6.5t121.5 23t101 42.5t66.5 67.5t25 95.5q0 77 -46.5 136t-127.5 95t-182.5 54t-218.5 18q-161 0 -282 -33.5t-192.5 -93.5t-107.5 -135t-39 -166q111 -48 358 -79t390 -31zM1114 1452l62 -41
q-49 -95 -142 -155t-209 -60q-115 0 -207.5 60t-142.5 155l64 41q38 -75 114.5 -122.5t171.5 -47.5t172 47.5t117 122.5z" />
    <glyph glyph-name="edotaccent.alt" horiz-adv-x="1654" 
d="M778 1444h92v-219h-92v219zM901 82q191 0 363 27.5t239 52.5l23 -107q-75 -28 -249.5 -57t-371.5 -29q-403 0 -607 143.5t-204 413.5q0 98 26.5 183t84.5 158.5t143.5 126t210.5 82.5t279 30q139 0 262 -24.5t222.5 -73t157.5 -130t58 -186.5q0 -74 -33 -131t-87 -92
t-130.5 -58t-154.5 -31.5t-168 -8.5q-170 0 -381 34t-363 91q25 -414 680 -414zM967 457q72 0 134 6.5t121.5 23t101 42.5t66.5 67.5t25 95.5q0 77 -46.5 136t-127.5 95t-182.5 54t-218.5 18q-161 0 -282 -33.5t-192.5 -93.5t-107.5 -135t-39 -166q111 -48 358 -79t390 -31z
" />
    <glyph glyph-name="eogonek.alt" horiz-adv-x="1654" 
d="M901 82q191 0 363 27.5t239 52.5l23 -107q-57 -37 -103.5 -103.5t-46.5 -125.5q0 -100 135 -131l-4 -74q-98 13 -151 62.5t-53 117.5q0 58 37.5 120t99.5 110q-246 -62 -535 -62q-403 0 -607 143.5t-204 413.5q0 98 26.5 183t84.5 158.5t143.5 126t210.5 82.5t279 30
q139 0 262 -24.5t222.5 -73t157.5 -130t58 -186.5q0 -74 -33 -131t-87 -92t-130.5 -58t-154.5 -31.5t-168 -8.5q-170 0 -381 34t-363 91q25 -414 680 -414zM967 457q72 0 134 6.5t121.5 23t101 42.5t66.5 67.5t25 95.5q0 77 -46.5 136t-127.5 95t-182.5 54t-218.5 18
q-161 0 -282 -33.5t-192.5 -93.5t-107.5 -135t-39 -166q111 -48 358 -79t390 -31z" />
    <glyph glyph-name="g.alt" horiz-adv-x="1732" 
d="M1475 109l2 120l-2 2q-128 -115 -309 -188.5t-396 -73.5q-317 0 -496.5 158.5t-179.5 415.5q0 123 44.5 225t130.5 178t221 118t307 42t358 -40t320 -105l2 2l4 108l114 14v-976q0 -127 -48.5 -229t-148 -179.5t-263.5 -119.5t-383 -42q-197 0 -348 27.5t-232 58.5
l25 107q73 -28 220.5 -54t334.5 -26q192 0 333.5 34t225.5 96t124 143.5t40 183.5zM805 993q-287 0 -437.5 -124t-150.5 -328q0 -205 148 -332t413 -127q211 0 402 76.5t295 187.5v514q-132 57 -320 95t-350 38z" />
    <glyph glyph-name="gcircumflex.alt" horiz-adv-x="1732" 
d="M1284 1178l-420 235l-418 -235l-30 61l448 272l449 -272zM1475 109l2 120l-2 2q-128 -115 -309 -188.5t-396 -73.5q-317 0 -496.5 158.5t-179.5 415.5q0 123 44.5 225t130.5 178t221 118t307 42t358 -40t320 -105l2 2l4 108l114 14v-976q0 -127 -48.5 -229t-148 -179.5
t-263.5 -119.5t-383 -42q-197 0 -348 27.5t-232 58.5l25 107q73 -28 220.5 -54t334.5 -26q192 0 333.5 34t225.5 96t124 143.5t40 183.5zM805 993q-287 0 -437.5 -124t-150.5 -328q0 -205 148 -332t413 -127q211 0 402 76.5t295 187.5v514q-132 57 -320 95t-350 38z" />
    <glyph glyph-name="gbreve.alt" horiz-adv-x="1732" 
d="M1475 109l2 120l-2 2q-128 -115 -309 -188.5t-396 -73.5q-317 0 -496.5 158.5t-179.5 415.5q0 123 44.5 225t130.5 178t221 118t307 42t358 -40t320 -105l2 2l4 108l114 14v-976q0 -127 -48.5 -229t-148 -179.5t-263.5 -119.5t-383 -42q-197 0 -348 27.5t-232 58.5
l25 107q73 -28 220.5 -54t334.5 -26q192 0 333.5 34t225.5 96t124 143.5t40 183.5zM805 993q-287 0 -437.5 -124t-150.5 -328q0 -205 148 -332t413 -127q211 0 402 76.5t295 187.5v514q-132 57 -320 95t-350 38zM1153 1452l61 -41q-50 -95 -142.5 -155t-207.5 -60t-207.5 60
t-142.5 155l64 41q38 -75 114.5 -122.5t171.5 -47.5t172 47.5t117 122.5z" />
    <glyph glyph-name="gdotaccent.alt" horiz-adv-x="1732" 
d="M1475 109l2 120l-2 2q-128 -115 -309 -188.5t-396 -73.5q-317 0 -496.5 158.5t-179.5 415.5q0 123 44.5 225t130.5 178t221 118t307 42t358 -40t320 -105l2 2l4 108l114 14v-976q0 -127 -48.5 -229t-148 -179.5t-263.5 -119.5t-383 -42q-197 0 -348 27.5t-232 58.5
l25 107q73 -28 220.5 -54t334.5 -26q192 0 333.5 34t225.5 96t124 143.5t40 183.5zM805 993q-287 0 -437.5 -124t-150.5 -328q0 -205 148 -332t413 -127q211 0 402 76.5t295 187.5v514q-132 57 -320 95t-350 38zM817 1444h92v-219h-92v219z" />
    <glyph glyph-name="gcommaaccent.alt" horiz-adv-x="1732" 
d="M958 1268h-100q-41 93 -35 217.5t62 243.5h67q-103 -248 6 -461zM1475 109l2 120l-2 2q-128 -115 -309 -188.5t-396 -73.5q-317 0 -496.5 158.5t-179.5 415.5q0 123 44.5 225t130.5 178t221 118t307 42t358 -40t320 -105l2 2l4 108l114 14v-976q0 -127 -48.5 -229
t-148 -179.5t-263.5 -119.5t-383 -42q-197 0 -348 27.5t-232 58.5l25 107q73 -28 220.5 -54t334.5 -26q192 0 333.5 34t225.5 96t124 143.5t40 183.5zM805 993q-287 0 -437.5 -124t-150.5 -328q0 -205 148 -332t413 -127q211 0 402 76.5t295 187.5v514q-132 57 -320 95
t-350 38z" />
    <glyph glyph-name="idotaccent" horiz-adv-x="475" 
d="M297 0h-121v1075l121 17v-1092zM193 1444h92v-219h-92v219z" />
    <glyph glyph-name="y.alt" 
d="M780 -348q190 0 326 33.5t213 96.5t111 143.5t32 183.5v106l-2 2q-311 -248 -694 -248q-160 0 -282 42t-197.5 118t-113.5 177t-38 224v545h121v-545q0 -205 133 -326.5t406 -121.5q191 0 358 67t301 179v747h121v-966q0 -570 -795 -570q-197 0 -347 27.5t-232 58.5
l24 107q68 -27 217.5 -53.5t337.5 -26.5z" />
    <glyph glyph-name="ygrave.alt" 
d="M780 -348q190 0 326 33.5t213 96.5t111 143.5t32 183.5v106l-2 2q-311 -248 -694 -248q-160 0 -282 42t-197.5 118t-113.5 177t-38 224v545h121v-545q0 -205 133 -326.5t406 -121.5q191 0 358 67t301 179v747h121v-966q0 -570 -795 -570q-197 0 -347 27.5t-232 58.5
l24 107q68 -27 217.5 -53.5t337.5 -26.5zM532 1524l676 -264l-22 -62l-688 234z" />
    <glyph glyph-name="yacute.alt" 
d="M780 -348q190 0 326 33.5t213 96.5t111 143.5t32 183.5v106l-2 2q-311 -248 -694 -248q-160 0 -282 42t-197.5 118t-113.5 177t-38 224v545h121v-545q0 -205 133 -326.5t406 -121.5q191 0 358 67t301 179v747h121v-966q0 -570 -795 -570q-197 0 -347 27.5t-232 58.5
l24 107q68 -27 217.5 -53.5t337.5 -26.5zM500 1260l678 264l32 -92l-688 -234z" />
    <glyph glyph-name="ycircumflex.alt" 
d="M780 -348q190 0 326 33.5t213 96.5t111 143.5t32 183.5v106l-2 2q-311 -248 -694 -248q-160 0 -282 42t-197.5 118t-113.5 177t-38 224v545h121v-545q0 -205 133 -326.5t406 -121.5q191 0 358 67t301 179v747h121v-966q0 -570 -795 -570q-197 0 -347 27.5t-232 58.5
l24 107q68 -27 217.5 -53.5t337.5 -26.5zM1274 1178l-420 235l-418 -235l-30 61l448 272l449 -272z" />
    <glyph glyph-name="ydieresis.alt" 
d="M780 -348q190 0 326 33.5t213 96.5t111 143.5t32 183.5v106l-2 2q-311 -248 -694 -248q-160 0 -282 42t-197.5 118t-113.5 177t-38 224v545h121v-545q0 -205 133 -326.5t406 -121.5q191 0 358 67t301 179v747h121v-966q0 -570 -795 -570q-197 0 -347 27.5t-232 58.5
l24 107q68 -27 217.5 -53.5t337.5 -26.5zM555 1444h92v-219h-92v219zM1059 1444h92v-219h-92v219z" />
    <glyph glyph-name="grave.cap" horiz-adv-x="1730" 
d="M504 1882l676 -264l-23 -62l-688 234z" />
    <glyph glyph-name="acute.cap" horiz-adv-x="1730" 
d="M481 1618l678 264l33 -92l-688 -234z" />
    <glyph glyph-name="circumflex.cap" horiz-adv-x="1730" 
d="M1192 1536l-420 236l-418 -236l-30 61l448 273l449 -273z" />
    <glyph glyph-name="caron.cap" horiz-adv-x="1730" 
d="M772 1632l420 236l29 -60l-449 -274l-448 274l30 60z" />
    <glyph glyph-name="tilde.cap" horiz-adv-x="1730" 
d="M1149 1794l49 -51q-144 -148 -262 -148q-39 0 -81 15.5t-72.5 34t-67.5 34t-66 15.5q-94 0 -205 -111l-49 51q140 146 254 146q56 0 147.5 -49.5t139.5 -49.5q100 0 213 113z" />
    <glyph glyph-name="dieresis.cap" horiz-adv-x="1730" 
d="M410 1802h92v-219h-92v219zM913 1802h93v-219h-93v219z" />
    <glyph glyph-name="macron.cap" horiz-adv-x="1730" 
d="M410 1739h727v-82h-727v82z" />
    <glyph glyph-name="breve.cap" horiz-adv-x="1730" 
d="M1143 1769q-50 -95 -142.5 -155t-207.5 -60q-116 0 -209 60t-142 155l64 41q38 -75 115 -122.5t172 -47.5t171.5 47.5t116.5 122.5z" />
    <glyph glyph-name="ring.cap" horiz-adv-x="1730" 
d="M551 1722q0 88 57.5 141.5t173.5 53.5t174 -53.5t58 -141.5q0 -90 -58 -144t-174 -54t-173.5 54t-57.5 144zM608 1722q0 -64 43 -103.5t131 -39.5t131 39.5t43 103.5q0 62 -43 100t-131 38t-131 -38t-43 -100z" />
    <glyph glyph-name="hungarumlaut.cap" horiz-adv-x="1730" 
d="M463 1604l289 294l69 -69l-309 -273zM844 1604l289 294l69 -69l-309 -273z" />
    <glyph glyph-name="dotaccent.cap" horiz-adv-x="1730" 
d="M651 1802h92v-219h-92v219z" />
    <glyph glyph-name="commaaccentcomb" horiz-adv-x="1619" 
d="M684 -164h98q43 -92 37 -217t-63 -244h-66q100 249 -6 461z" />
    <glyph glyph-name="commaaccentcomb.alt" horiz-adv-x="1619" 
d="M868 1268h-100q-41 93 -35 217.5t62 243.5h67q-103 -248 6 -461z" />
    <glyph glyph-name="ampersand.alt" horiz-adv-x="2072" 
d="M1976 115v-115q-230 0 -534 88q-215 -119 -563 -119q-99 0 -188 8.5t-177 28t-158.5 53.5t-125.5 81t-85 115.5t-30 152.5q0 224 194 350q-121 159 -121 303q0 90 43 161.5t112.5 116t165 73.5t192 40.5t202.5 11.5q161 0 324.5 -25t251.5 -59l-27 -110q-78 30 -244 56
t-319 26q-108 0 -203.5 -15.5t-181 -49t-135.5 -96t-50 -147.5q0 -113 96.5 -238.5t254.5 -235.5t355 -204.5t402 -156.5q223 146 226 471h-228v115h551v-115h-204q-6 -334 -230 -502q251 -66 434 -63zM381 686q-141 -100 -141 -266q0 -79 41 -141t106 -99.5t155 -62
t179 -34t186 -9.5q237 0 379 71q-278 94 -524 237.5t-381 303.5z" />
    <glyph glyph-name="ampersand.swsh" horiz-adv-x="2017" 
d="M1612 795v225l121 16v-241h190v-115h-192q-5 -152 -55 -273t-132.5 -202t-197 -135t-243 -77.5t-276.5 -23.5q-150 0 -274 21t-224.5 66.5t-157 125.5t-56.5 189q0 176 148 257.5t472 102.5q-317 22 -451 98t-134 242q0 106 56 184.5t154 122t214 64t253 20.5
q315 0 596 -82q0 1 -6.5 -26.5t-12.5 -55.5l-7 -28q-117 33 -274.5 56.5t-305.5 23.5q-110 0 -203.5 -15t-172 -47t-123 -89.5t-44.5 -135.5q0 -150 165.5 -206t586.5 -62h586zM240 377q0 -81 46 -139.5t129 -91t183 -47.5t223 -15q138 0 256 21.5t217 68t168.5 116
t109 168.5t40.5 222h-586q-413 -3 -599.5 -72t-186.5 -231z" />
    <glyph glyph-name="published" horiz-adv-x="1964" 
d="M115 717q0 161 56 296.5t162.5 236.5t272.5 157.5t375 56.5t375 -56.5t272.5 -157.5t162.5 -236.5t56 -296.5t-56 -297t-162.5 -236.5t-272.5 -157.5t-375 -57t-375 57t-272.5 157.5t-162.5 236.5t-56 297zM186 717q0 -145 51.5 -268t149.5 -214t250.5 -142.5
t343.5 -51.5t344 51.5t251 142.5t150 214t52 268t-52 268.5t-150 215t-251 143t-344 51.5t-343.5 -51.5t-250.5 -143t-149.5 -215t-51.5 -268.5zM1145 553h-518v-231h-72v788h590q71 0 129.5 -14.5t106.5 -45.5t75 -86t27 -130q0 -76 -27 -132t-75 -87.5t-106.5 -46.5
t-129.5 -15zM627 1042v-421h522q117 0 188.5 51t71.5 162q0 208 -260 208h-522z" />
    <glyph glyph-name="zero.slash" horiz-adv-x="1951" 
d="M115 717q0 159 55 294t160 236.5t270.5 159t374.5 57.5t374.5 -57.5t270.5 -159t160 -236.5t55 -294t-55 -294t-160 -237t-270.5 -159.5t-374.5 -57.5t-374.5 57.5t-270.5 159.5t-160 237t-55 294zM238 717q0 -193 92 -341.5t270 -223.5l668 1157q-134 43 -293 43
q-181 0 -323.5 -48.5t-232 -135t-135.5 -201t-46 -250.5zM1712 717q0 193 -92 340.5t-270 224.5l-668 -1157q119 -41 293 -41q182 0 324.5 48.5t231.5 135t135 200.5t46 249z" />
    <glyph glyph-name="section.onum" horiz-adv-x="1265" 
d="M328 340l49 291q-129 30 -192.5 87.5t-63.5 170.5q0 70 31 124t81 87t121.5 53.5t144 28.5t156.5 8q241 0 475 -51l-20 -113q-247 55 -475 55q-59 0 -111 -5t-104.5 -18.5t-89.5 -34.5t-60.5 -56t-23.5 -80q0 -42 19 -73.5t58 -53t83 -35.5t111 -25t124.5 -18t140 -17
t142.5 -20l-52 -293q128 -28 193 -86t65 -170q0 -71 -31 -125t-81 -86.5t-121.5 -53.5t-144 -28.5t-156.5 -7.5q-138 0 -271 17t-204 32l20 115q75 -19 208 -37t265 -18q59 0 111 5t105 18.5t91 34.5t61.5 56t23.5 80q0 42 -18.5 73.5t-57 53t-82 36t-110.5 25.5t-124 18
t-141.5 17t-144.5 19zM813 365l33 198q-76 12 -213.5 30t-194.5 28l-32 -199q87 -15 228 -33t179 -24z" />
    <glyph glyph-name="numbersign.onum" horiz-adv-x="1275" 
d="M152 807l12 72h278l50 311h71l-51 -311h336l49 311h70l-52 -311h281l-12 -72h-279l-59 -377h276l-12 -70h-276l-50 -313h-71l51 313h-334l-49 -313h-72l49 313h-278l12 70h279l59 377h-278zM500 807l-60 -377h336l60 377h-336z" />
    <glyph glyph-name="numero.onum" horiz-adv-x="2566" 
d="M1384 160v940h123v-1100h-123l-1142 944l2 -270v-674h-121v1100h121zM1638 772q0 146 105 238t299 92t297.5 -92t103.5 -238q0 -149 -103.5 -241.5t-297.5 -92.5t-299 93t-105 241zM1729 772q0 -112 80.5 -182t232.5 -70t231.5 69.5t79.5 182.5q0 110 -79.5 179
t-231.5 69t-232.5 -69t-80.5 -179zM1665 229v72h752v-72h-752z" />
    <glyph glyph-name="zero.onum" horiz-adv-x="1740" 
d="M246 539q0 -198 159.5 -321.5t462.5 -123.5q306 0 466.5 123.5t160.5 321.5q0 95 -39 174.5t-115 140t-197 94t-276 33.5q-154 0 -274 -33.5t-195 -94t-114 -140t-39 -174.5zM123 539q0 119 47.5 220t139 177t234.5 119t324 43q182 0 326.5 -43t236 -119t139.5 -177
t48 -220t-48 -220.5t-139.5 -178t-236 -120t-326.5 -43.5q-181 0 -324 43.5t-234.5 120t-139 178t-47.5 220.5z" />
    <glyph glyph-name="one.onum" horiz-adv-x="1439" 
d="M94 0v115h565v839l-526 -151l-37 98l566 174h118v-960h563v-115h-1249z" />
    <glyph glyph-name="two.onum" horiz-adv-x="1740" 
d="M1548 0h-1345v117q187 52 353 108t322.5 122.5t268 133t179 141t67.5 144.5q0 41 -23.5 74t-60.5 55.5t-90 39.5t-105 26t-114 15t-108.5 7.5t-94.5 1.5q-260 0 -578 -63l-26 114q298 62 587 62q62 0 121 -2.5t135.5 -10.5t140.5 -21.5t128.5 -37.5t109.5 -56t73 -79
t28 -105q0 -83 -60 -164.5t-163.5 -152.5t-247 -137t-305.5 -119.5t-343 -97.5h1151v-115z" />
    <glyph glyph-name="three.onum" horiz-adv-x="1681" 
d="M162 903l-27 111q323 84 631 84q764 0 764 -377q0 -163 -145.5 -250.5t-466.5 -116.5q169 -9 284 -29t199.5 -59.5t124 -102.5t39.5 -155q0 -90 -38 -160.5t-101.5 -116t-153 -75t-186 -41.5t-207.5 -12q-212 0 -428.5 41t-335.5 94l35 108q115 -50 325 -89.5t408 -39.5
q92 0 171 9.5t152 32t124 57t81.5 88.5t30.5 123q0 43 -13 77.5t-35 62t-62 48t-84 35.5t-112 25.5t-134 17t-162 10t-184 5t-212 1.5h-61v82h61q265 1 443.5 17t296.5 52.5t170.5 94.5t52.5 145q0 56 -24.5 101t-62.5 74.5t-95.5 51t-110 32.5t-121 17t-114.5 7.5t-103 1.5
q-275 0 -614 -82z" />
    <glyph glyph-name="four.onum" horiz-adv-x="1742" 
d="M1595 0h-184v-350h-121v350h-1167v113l1167 970h121v-968h188zM1290 115v520l2 321l-725 -596l-305 -245h1028z" />
    <glyph glyph-name="five.onum" 
d="M115 -254l35 109q115 -49 323.5 -88t407.5 -39q122 0 223.5 18t187 57t133.5 109.5t48 167.5q0 94 -53 165t-147 113t-213.5 63t-262.5 21q-281 0 -572 -86l33 719h1282v-112h-1167l-23 -510q244 79 502 79q160 0 292.5 -26.5t234.5 -80t159 -143t57 -206.5
q0 -103 -40.5 -183.5t-107.5 -132t-162.5 -85t-197.5 -47t-219 -13.5q-211 0 -423.5 39.5t-329.5 91.5z" />
    <glyph glyph-name="six.onum" horiz-adv-x="1759" 
d="M240 641q24 97 95.5 175t171.5 126.5t215.5 74t235.5 25.5q107 0 206.5 -20.5t186.5 -63t151.5 -103t102 -146t37.5 -187.5q0 -251 -211 -402t-567 -151q-197 0 -342.5 49.5t-234 143t-130.5 219.5t-42 287q0 167 41 300.5t114.5 224.5t178.5 151.5t230 88t273 27.5
q318 0 594 -80l-26 -110q-297 78 -578 78q-123 0 -227 -21.5t-196.5 -73t-155.5 -131t-96.5 -202t-26.5 -279.5zM872 82q299 0 473.5 119t174.5 319q0 101 -47 182t-128.5 132t-188 78.5t-228.5 27.5q-72 0 -147 -10.5t-150.5 -31t-142 -55.5t-118.5 -79.5t-82 -107
t-30 -134.5q0 -65 21 -126t68.5 -119t117 -100.5t174.5 -68.5t233 -26z" />
    <glyph glyph-name="seven.onum" horiz-adv-x="1619" 
d="M1524 971l-953 -1329h-147l958 1323l-1314 -2v112h1456v-104z" />
    <glyph glyph-name="eight.onum" horiz-adv-x="1759" 
d="M879 84q131 0 241.5 16t202.5 50.5t144.5 96t52.5 144.5q0 285 -641 285q-307 0 -473 -70t-166 -215q0 -83 52 -144.5t144 -96t202 -50.5t241 -16zM879 762q289 0 447.5 69.5t158.5 204.5q0 72 -37.5 128.5t-97 91t-141 57t-162.5 31t-168 8.5t-167.5 -8.5t-162 -31
t-141 -57t-97 -91t-37.5 -128.5q0 -134 159 -204t446 -70zM879 1464q105 0 202.5 -11.5t195.5 -40t169.5 -73t116.5 -116t45 -162.5q0 -98 -70 -171.5t-180.5 -113.5t-255.5 -55q540 -50 540 -359q0 -87 -43 -155.5t-114.5 -112.5t-171.5 -72.5t-207 -40.5t-227 -12t-227 12
t-207 40.5t-172 72.5t-115 112.5t-43 155.5q0 309 540 359q-144 15 -254.5 55t-180.5 113.5t-70 171.5q0 91 45 162.5t116.5 116t169.5 73t195.5 40t202.5 11.5z" />
    <glyph glyph-name="nine.onum" horiz-adv-x="1759" 
d="M1520 426q-24 -97 -96 -175t-172 -126.5t-216 -74t-235 -25.5q-107 0 -206.5 20.5t-187 63t-152.5 103t-102.5 146.5t-37.5 187q0 251 211 402t567 151q197 0 342.5 -49.5t234 -143t130.5 -219.5t42 -287q0 -167 -41 -300.5t-114 -224.5t-178 -151.5t-230 -88t-274 -27.5
q-316 0 -592 80l27 110q269 -78 575 -78q102 0 191 15.5t171.5 48.5t146 88.5t110 132t69 184t17.5 238.5zM887 985q-300 0 -474.5 -119t-174.5 -319q0 -133 82 -230t214.5 -143.5t296.5 -46.5q72 0 147 10.5t150.5 31t142 55.5t118.5 79.5t82 107t30 134.5q0 82 -35 157.5
t-105.5 140t-193 103.5t-280.5 39z" />
    <glyph glyph-name="Euro.onum" horiz-adv-x="1497" 
d="M41 627v67h135q21 87 66 155.5t107 114.5t142.5 76.5t169 44t189.5 13.5q260 0 555 -86l-27 -107q-283 82 -528 82q-134 0 -240 -27.5t-187.5 -94.5t-113.5 -171h858v-67h-878q-13 -86 0 -178h878v-68h-858q24 -79 76 -137t125 -92t157.5 -50t184.5 -16q236 0 526 84
l27 -107q-295 -86 -555 -86q-101 0 -189.5 13.5t-169 44t-142.5 76.5t-107 114.5t-66 155.5h-135v68h123q-10 111 0 178h-123z" />
    <glyph glyph-name="dollar.onum" horiz-adv-x="1394" 
d="M666 1198h69v-102q236 -5 486 -68l-27 -115q-219 58 -459 66v-389q56 -3 94 -6t90.5 -8.5t88.5 -12t79 -18t72 -26t58.5 -35t46.5 -45.5t28 -58t11 -72q0 -71 -32.5 -127.5t-86.5 -93.5t-129 -62t-153.5 -36t-166.5 -13v-100h-69v103q-291 6 -555 100l34 110
q249 -83 521 -94v381q-71 4 -121 8.5t-114.5 14t-109 22.5t-91 35.5t-74.5 52t-46 71.5t-18 95q0 75 37.5 133t95 92t136.5 56.5t152 31t153 9.5v100zM215 784q0 -33 13.5 -59.5t34 -45t56.5 -32.5t70 -22.5t85 -15t92 -9.5t100 -6v389q-77 0 -148 -8.5t-143.5 -29t-116 -62
t-43.5 -99.5zM1180 303q0 26 -9 47t-29 37t-41.5 28t-57 20.5t-65.5 14t-77 10t-80 6.5t-86 5v-377q87 0 162 10.5t141 33.5t104 65.5t38 99.5z" />
    <glyph glyph-name="cent.onum" horiz-adv-x="1372" 
d="M733 1098h70v-135q258 -2 461 -64l-25 -108q-192 53 -436 57v-621q240 2 436 56l25 -107q-66 -22 -185.5 -43t-275.5 -22v-134h-70v134q-624 19 -624 428q0 92 33.5 165.5t105.5 130.5t194.5 89.5t290.5 36.5v137zM231 539q0 -68 25 -121t81.5 -96t156 -67t239.5 -28v619
q-140 -4 -239.5 -27.5t-156 -65.5t-81.5 -94.5t-25 -119.5z" />
    <glyph glyph-name="sterling.onum" horiz-adv-x="1325" 
d="M41 504v67h106l17 177q8 80 42.5 141.5t86.5 100t123 63t145.5 34t161.5 9.5q231 0 494 -60l-23 -108q-275 63 -492 63q-83 0 -150.5 -11.5t-127 -37.5t-95 -74t-42.5 -114l-19 -183h621v-67h-627l-39 -387h994v-117h-1121l45 504h-100z" />
    <glyph glyph-name="florin.onum" horiz-adv-x="784" 
d="M-133 -268v98q11 0 70.5 -4t91.5 -4q75 0 120.5 31.5t45.5 95.5v788h-119v70h119v8q0 152 74.5 217.5t222.5 65.5q81 0 219 -23v-86q-111 15 -179 15q-106 0 -161.5 -41.5t-55.5 -139.5v-16h361v-70h-361v-788q0 -232 -260 -232q-18 0 -188 15z" />
    <glyph glyph-name="yen.onum" horiz-adv-x="1460" 
d="M1298 193v-70h-507v-123h-121v123h-514v70h514v151h-514v70h467l-598 661h153l336 -379l215 -276l219 276l334 379h154l-598 -661h460v-70h-507v-151h507z" />
    <glyph glyph-name="plus.onum" horiz-adv-x="1449" 
d="M217 580h467v464h84v-464h463v-86h-463v-463h-84v463h-467v86z" />
    <glyph glyph-name="minus.onum" horiz-adv-x="1449" 
d="M217 580h1014v-86h-1014v86z" />
    <glyph glyph-name="plusminus.onum" horiz-adv-x="1449" 
d="M217 580h467v464h84v-464h463v-86h-463v-408h463v-86h-1014v86h467v408h-467v86z" />
    <glyph glyph-name="multiply.onum" horiz-adv-x="1363" 
d="M293 209l328 328l-328 329l61 60l328 -330l330 330l59 -60l-330 -329l330 -328l-59 -59l-330 327l-328 -327z" />
    <glyph glyph-name="divide.onum" horiz-adv-x="1449" 
d="M768 1044v-210h-84v210h84zM217 580h1014v-86h-1014v86zM768 242v-211h-84v211h84z" />
    <glyph glyph-name="equal.onum" horiz-adv-x="1449" 
d="M217 334h1014v-86h-1014v86zM217 825h1014v-86h-1014v86z" />
    <glyph glyph-name="notequal.onum" horiz-adv-x="1449" 
d="M217 825h582l92 250h55l-92 -250h377v-86h-408l-147 -405h555v-86h-586l-90 -248h-55l90 248h-373v86h404l147 405h-551v86z" />
    <glyph glyph-name="approxequal.onum" horiz-adv-x="1353" 
d="M1147 930l67 -70q-176 -176 -325 -176q-47 0 -99 19t-89.5 42.5t-83 42.5t-82.5 19q-105 0 -250 -145l-68 69q170 170 318 170q45 0 95.5 -19t87.5 -42.5t84.5 -42.5t86.5 -19q106 0 258 152zM1147 475l67 -67q-179 -179 -325 -179q-47 0 -99 19t-89.5 42.5t-83 42.5
t-82.5 19q-107 0 -250 -143l-68 67q173 173 318 173q45 0 95.5 -19t87.5 -42.5t84.5 -42.5t86.5 -19q109 0 258 149z" />
    <glyph glyph-name="less.onum" horiz-adv-x="1234" 
d="M1057 1126v-94l-795 -358l795 -359v-94l-881 408v90z" />
    <glyph glyph-name="greater.onum" horiz-adv-x="1234" 
d="M176 1032v94l881 -407v-90l-881 -408v94l797 359z" />
    <glyph glyph-name="lessequal.onum" horiz-adv-x="1234" 
d="M174 86h836l-834 383v92l881 406v-93l-797 -358l797 -360v-156h-883v86z" />
    <glyph glyph-name="greaterequal.onum" horiz-adv-x="1234" 
d="M221 86h836v-86h-883v156l797 360l-797 358v93l881 -406v-92z" />
    <glyph glyph-name="infinity.onum" horiz-adv-x="1994" 
d="M516 1008q133 0 270 -79t211 -210q73 131 210 210t272 79q157 0 268 -115.5t111 -278.5t-111 -278t-268 -115q-135 0 -272 79t-210 210q-74 -131 -211 -210t-270 -79q-157 0 -269 115t-112 278t112 278.5t269 115.5zM1479 336q109 0 187.5 82t78.5 196q0 115 -78.5 197
t-187.5 82q-124 0 -247.5 -76t-176.5 -203q53 -127 176 -202.5t248 -75.5zM516 336q80 0 162 31.5t153.5 96.5t106.5 150q-35 85 -106.5 150t-153.5 97t-162 32q-109 0 -187.5 -82t-78.5 -197q0 -114 78.5 -196t187.5 -82z" />
    <glyph glyph-name="percent.onum" horiz-adv-x="1728" 
d="M199 803q0 -97 73.5 -157t214.5 -60t214 60t73 157q0 95 -73.5 155t-213.5 60q-141 0 -214.5 -60t-73.5 -155zM109 803q0 130 98 212.5t280 82.5t280.5 -82.5t98.5 -212.5q0 -133 -98 -216t-281 -83t-280.5 83t-97.5 216zM954 274q0 -96 74.5 -156.5t214.5 -60.5
t214.5 60.5t74.5 156.5q0 95 -74 155t-215 60t-215 -60t-74 -155zM864 274q0 132 97.5 214.5t281.5 82.5q182 0 279.5 -82.5t97.5 -214.5t-97.5 -214.5t-279.5 -82.5q-184 0 -281.5 82.5t-97.5 214.5zM381 -39l-55 47q541 550 1022 1106l55 -47q-541 -550 -1022 -1106z" />
    <glyph glyph-name="perthousand.onum" horiz-adv-x="2449" 
d="M199 803q0 -99 66 -158t206 -59q138 0 204 59.5t66 157.5q0 97 -66 156t-204 59q-140 0 -206 -58.5t-66 -156.5zM109 803q0 132 90 213.5t272 81.5q180 0 270 -81.5t90 -213.5q0 -135 -89.5 -217t-270.5 -82q-182 0 -272 82t-90 217zM346 -39l-55 47q541 550 1022 1106
l53 -47q-547 -560 -1020 -1106zM920 274q0 -97 66.5 -157t205.5 -60t204.5 59.5t65.5 157.5q0 97 -65.5 156t-204.5 59t-205.5 -59t-66.5 -156zM829 274q0 133 91 215t272 82t270.5 -81.5t89.5 -215.5t-89.5 -215.5t-270.5 -81.5t-272 82t-91 215zM1708 274q0 -98 66 -157.5
t206 -59.5q139 0 205 59.5t66 157.5q0 97 -66 156t-205 59q-140 0 -206 -58.5t-66 -156.5zM1618 274q0 134 90 215.5t272 81.5q181 0 271 -81.5t90 -215.5t-90 -215.5t-271 -81.5q-182 0 -272 81.5t-90 215.5z" />
    <glyph glyph-name="estimated.onum" horiz-adv-x="1314" 
d="M1249 537h-952v-351q69 -70 163 -107.5t199 -37.5q125 0 237 53.5t181 151.5l66 -23q-184 -239 -486 -239q-164 0 -300 75.5t-213.5 204t-77.5 281.5q0 154 77.5 283.5t213.5 205.5t300 76q163 0 298.5 -74t214.5 -206t79 -293zM297 584h723v329q-68 67 -164.5 103.5
t-198.5 36.5q-103 0 -197 -37.5t-163 -106.5v-325z" />
    <glyph glyph-name="litre.onum" horiz-adv-x="618" 
d="M70 272l-21 19l115 139v418q0 57 8 105t28 98t62.5 79t104.5 29q68 0 106.5 -52.5t38.5 -133.5q0 -112 -62 -219t-171 -226v-274q0 -35 1 -58.5t7 -57t17 -54.5t33 -36t52 -15q39 0 70.5 23.5t49.5 58.5t27 70.5t9 64.5h24q0 -46 -11.5 -90.5t-35 -85t-65 -65.5
t-95.5 -25q-60 0 -100.5 26.5t-61 75t-28.5 101t-8 120.5v80zM279 879v-306q106 110 153 212.5t47 185.5q0 65 -29 105t-73 40q-27 0 -46 -16.5t-29 -39.5t-15.5 -59t-6.5 -61t-1 -61z" />
    <glyph glyph-name="zero.TL" horiz-adv-x="1740" 
d="M190 717q0 -135 42.5 -249t124.5 -200.5t213.5 -135t299.5 -48.5t299.5 48.5t213.5 135t124.5 200.5t42.5 249q0 136 -42.5 250.5t-124.5 201t-213.5 135t-299.5 48.5t-299.5 -48.5t-213.5 -135t-124.5 -201t-42.5 -250.5zM66 717q0 159 51 294t149.5 236.5t253 159
t350.5 57.5t351 -57.5t253 -159t149.5 -236.5t51.5 -294t-51.5 -294t-149.5 -237t-253 -159.5t-351 -57.5t-350.5 57.5t-253 159.5t-149.5 237t-51 294z" />
    <glyph glyph-name="one.TL" horiz-adv-x="1740" 
d="M166 115h647v1198l-610 -152l-35 99l647 174h117v-1319h643v-115h-1409v115z" />
    <glyph glyph-name="two.TL" horiz-adv-x="1740" 
d="M1647 0h-1543v115q217 71 410 148.5t373.5 170.5t310 187t207.5 200.5t78 208.5q0 60 -27.5 109t-71 81.5t-105.5 57.5t-123.5 38.5t-134 22t-127.5 11t-112 2.5q-293 0 -661 -82l-27 110q351 84 674 84q71 0 138.5 -3.5t154 -14.5t160 -28.5t146.5 -49.5t124 -74.5
t83 -105t32 -139.5q0 -114 -74 -228t-198.5 -212.5t-294.5 -191t-355.5 -166.5t-388.5 -136h1352v-115z" />
    </font>
</defs>
</svg>
