<svg xmlns="http://www.w3.org/2000/svg">
<defs>
<font id="Halogen-Regular" horiz-adv-x="1740" >
  <font-face 
    font-family="Halogen Regular"
    font-weight="400"
    font-stretch="normal"
    units-per-em="2048"
    panose-1="2 0 0 0 0 0 0 0 0 0"
    ascent="1536"
    descent="-512"
    x-height="1075"
    cap-height="1434"
    bbox="-266 -733 3672 1976"
    underline-thickness="102"
    underline-position="-204"
    unicode-range="U+000D-FB04"
  />
<missing-glyph horiz-adv-x="1024" 
d="M82 96v33q-31 14 -31 49q0 22 14.5 36.5t36.5 16.5q32 97 105 169.5t170 103.5v10v8q-97 32 -170 105t-105 170q-22 0 -36.5 15.5t-14.5 37.5q0 33 31 47v35v33q-31 14 -31 49q0 22 14.5 36.5t36.5 16.5q32 96 105 168t170 104q0 22 15.5 38t37.5 16q32 0 47 -33
q12 2 35 2t33 -2q6 14 20 23.5t29 9.5q21 0 36 -16t17 -38q97 -32 169 -103.5t104 -168.5q22 -2 37.5 -17t15.5 -36q0 -15 -9.5 -29t-23.5 -20q2 -10 2 -33t-2 -35q33 -15 33 -47q0 -22 -15.5 -37.5t-37.5 -15.5q-32 -97 -105 -170t-170 -105q2 -2 2 -8t-2 -10
q97 -31 170 -103.5t105 -169.5q22 -2 37.5 -17t15.5 -36q0 -15 -9.5 -29t-23.5 -20q2 -10 2 -33t-2 -35q33 -15 33 -47q0 -21 -15.5 -36t-37.5 -17q-32 -97 -104 -168.5t-169 -103.5q-2 -22 -17 -38t-36 -16q-15 0 -29 9.5t-20 23.5q-10 -2 -33 -2t-35 2q-15 -33 -47 -33
q-22 0 -37.5 16t-15.5 38q-97 32 -170 104t-105 168q-22 2 -36.5 16.5t-14.5 36.5q0 33 31 47v35zM866 178q0 32 29 47q-31 91 -99 159t-159 97q-17 -20 -43 -20q-19 0 -34 11t-19 28h-60q-5 -17 -18.5 -28t-32.5 -11q-26 0 -43 20q-92 -29 -160.5 -97t-99.5 -159
q31 -14 31 -47q0 -22 -15 -36.5t-37 -16.5v-29v-28q22 -2 37 -17t15 -37q0 -33 -31 -47q31 -89 98 -156t156 -98q18 29 49 29q20 0 36 -14.5t17 -34.5q8 -2 29 -2q19 0 29 2q2 21 17 35t36 14q32 0 47 -29q89 31 156 98t98 156q-29 15 -29 47q0 22 14.5 37t34.5 17
q3 12 3 28q0 14 -3 29q-21 2 -35 17t-14 36zM158 1014q0 -22 -15 -36.5t-37 -16.5v-29v-29q22 -1 37 -17t15 -36q0 -32 -31 -49q31 -91 99.5 -158t160.5 -98q16 22 43 22q18 0 32 -11.5t19 -29.5h60q5 17 19.5 29t33.5 12q27 0 43 -22q91 31 159 98.5t99 157.5

<glyph glyph-name="f_f" unicode="ff" horiz-adv-x="1505" 
d="M1106 1085v-10h309v-137h-309v-938h-164v938h-588v-938h-164v938h-143v137h143v10q0 207 75 293t220 86q75 0 211 -28v-129q-110 20 -166 20q-94 0 -135 -58t-41 -184v-10h588v10q0 207 75 293t220 86q76 0 213 -28v-129q-113 20 -168 20q-94 0 -135 -58t-41 -184z" />
    <glyph glyph-name="f_i" unicode="fi" horiz-adv-x="1255" 
d="M1085 0h-163v938h-568v-938h-164v938h-143v137h143v10q0 207 75 293t220 86q75 0 211 -28v-129q-110 20 -166 20q-94 0 -135 -58t-41 -184v-10h568l163 12v-1087zM1085 1204h-163v246h163v-246z" />
    <glyph glyph-name="f_l" unicode="fl" horiz-adv-x="1193" 
d="M891 0v1323q-162 25 -275 25q-78 0 -130 -16.5t-80.5 -51.5t-40 -81t-11.5 -114v-10h264v-137h-264v-938h-164v938h-143v137h143v10q0 217 85 303.5t288 86.5q101 0 328 -29l164 18v-1464h-164z" />
    <glyph glyph-name="f_f_i" unicode="ffi" horiz-adv-x="2007" 
d="M1839 0h-164v938h-569v-938h-164v938h-588v-938h-164v938h-143v137h143v10q0 207 75 293t220 86q75 0 211 -28v-129q-110 20 -166 20q-94 0 -135 -58t-41 -184v-10h588v10q0 207 75 293t220 86q76 0 213 -28v-129q-113 20 -168 20q-94 0 -135 -58t-41 -184v-10h569
l164 12v-1087zM1839 1204h-164v246h164v-246z" />
    <glyph glyph-name="f_f_l" unicode="ffl" horiz-adv-x="1945" 
d="M1808 0h-163v1323q-166 25 -275 25q-79 0 -131 -16.5t-81 -51.5t-40.5 -81t-11.5 -114v-10h266v-137h-266v-938h-164v938h-588v-938h-164v938h-143v137h143v10q0 207 75 293t220 86q75 0 211 -28v-129q-110 20 -166 20q-94 0 -135 -58t-41 -184v-10h588v10
q0 217 85.5 303.5t289.5 86.5q101 0 328 -29l163 18v-1464z" />
    <glyph glyph-name="f_b" unicode="fb" horiz-adv-x="2469" 
d="M881 0v1323q-163 25 -265 25q-78 0 -130 -16.5t-80.5 -51.5t-40 -81t-11.5 -114v-10h264v-137h-264v-938h-164v938h-143v137h143v10q0 217 85 303.5t288 86.5q91 0 318 -29l163 18v-338l-2 -153l2 -2q131 61 303 98t336 37q173 0 307.5 -42t219.5 -118t128.5 -178
t43.5 -225q0 -256 -177.5 -415t-490.5 -159q-212 0 -387.5 71t-288.5 175l-2 -2l-10 -213h-145zM1669 954q-149 0 -321 -33t-304 -83v-469q83 -100 266 -173t388 -73q248 0 383 115t135 303t-137 300.5t-410 112.5z" />
    <glyph glyph-name="f_f_b" unicode="ffb" horiz-adv-x="3221" 
d="M1370 1348q-79 0 -131 -16.5t-81 -51.5t-40.5 -81t-11.5 -114v-10h266v-137h-266v-938h-164v938h-588v-938h-164v938h-143v137h143v10q0 207 75 293t220 86q75 0 211 -28v-129q-110 20 -166 20q-94 0 -135 -58t-41 -184v-10h588v10q0 217 85.5 303.5t289.5 86.5
q90 0 317 -29l164 18v-338l-2 -153l2 -2q130 61 302 98t335 37q173 0 307.5 -42t219.5 -118t129 -178t44 -225q0 -257 -177.5 -415.5t-491.5 -158.5q-212 0 -387.5 71t-288.5 175l-2 -2l-10 -213h-144v1323q-166 25 -264 25zM2421 954q-148 0 -319.5 -33t-303.5 -83v-469
q83 -100 265 -173t386 -73q249 0 384 115t135 303t-137 300.5t-410 112.5z" />
    <glyph glyph-name="f_f_f" unicode="fff" horiz-adv-x="2258" 
d="M1860 1085v-10h307v-137h-307v-938h-164v938h-590v-938h-164v938h-588v-938h-164v938h-143v137h143v10q0 207 75 293t220 86q75 0 211 -28v-129q-110 20 -166 20q-94 0 -135 -58t-41 -184v-10h588v10q0 207 75 293t220 86q76 0 213 -28v-129q-113 20 -168 20
q-94 0 -135 -58t-41 -184v-10h590v10q0 207 75 293t220 86q75 0 211 -28v-129q-110 20 -166 20q-94 0 -135 -58t-41 -184z" />
    <glyph glyph-name="f_h" unicode="fh" horiz-adv-x="2449" 
d="M2157 0v545q0 90 -27.5 162.5t-86 129t-158.5 87t-236 30.5q-255 0 -605 -116v-838h-163v1323q-163 25 -265 25q-78 0 -130 -16.5t-80.5 -51.5t-40 -81t-11.5 -114v-10h264v-137h-264v-938h-164v938h-143v137h143v10q0 217 85 303.5t288 86.5q91 0 318 -29l163 18v-338
l-2 -151l2 -2q321 133 619 133q170 0 298 -42t205.5 -118.5t115.5 -176.5t38 -224v-545h-163z" />
    <glyph glyph-name="f_f_h" unicode="ffh" horiz-adv-x="3201" 
d="M3074 0h-164v545q0 90 -27.5 162.5t-86 129t-159 87t-237.5 30.5q-252 0 -602 -116v-838h-164v1323q-166 25 -264 25q-79 0 -131 -16.5t-81 -51.5t-40.5 -81t-11.5 -114v-10h266v-137h-266v-938h-164v938h-588v-938h-164v938h-143v137h143v10q0 207 75 293t220 86
q75 0 211 -28v-129q-110 20 -166 20q-94 0 -135 -58t-41 -184v-10h588v10q0 217 85.5 303.5t289.5 86.5q90 0 317 -29l164 18v-338l-2 -151l2 -2q321 133 619 133q136 0 246 -27.5t186 -77t127 -120t74.5 -154.5t23.5 -182v-545z" />
    <glyph glyph-name="f_j" unicode="fj" horiz-adv-x="1265" 
d="M932 18v920h-578v-938h-164v938h-143v137h143v10q0 207 75 293t220 86q75 0 211 -28v-129q-110 20 -166 20q-94 0 -135 -58t-41 -184v-10h578l164 12v-1069q0 -122 -26.5 -204.5t-78 -125.5t-113.5 -60t-147 -17v127q107 0 154 69t47 211zM932 1204v246h164v-246h-164z
" />
    <glyph glyph-name="f_f_j" unicode="ffj" horiz-adv-x="2017" 
d="M1686 18v920h-580v-938h-164v938h-588v-938h-164v938h-143v137h143v10q0 207 75 293t220 86q75 0 211 -28v-129q-110 20 -166 20q-94 0 -135 -58t-41 -184v-10h588v10q0 207 75 293t220 86q76 0 213 -28v-129q-113 20 -168 20q-94 0 -135 -58t-41 -184v-10h580l163 12
v-1069q0 -98 -18.5 -171t-49 -117.5t-78.5 -71.5t-99.5 -37t-118.5 -10v127q106 0 153.5 69t47.5 211zM1849 1204h-163v246h163v-246z" />
    <glyph glyph-name="f_k" unicode="fk" horiz-adv-x="2445" 
d="M1518 539l872 -539h-254l-768 473h-324v-473h-163v1323q-163 25 -265 25q-78 0 -130 -16.5t-80.5 -51.5t-40 -81t-11.5 -114v-10h264v-137h-264v-938h-164v938h-143v137h143v10q0 217 85 303.5t288 86.5q91 0 318 -29l163 18v-858h326l787 469h241z" />
    <glyph glyph-name="f_f_k" unicode="ffk" horiz-adv-x="3198" 
d="M2269 539l873 -539h-252l-770 473h-322v-473h-164v1323q-166 25 -264 25q-79 0 -131 -16.5t-81 -51.5t-40.5 -81t-11.5 -114v-10h266v-137h-266v-938h-164v938h-588v-938h-164v938h-143v137h143v10q0 207 75 293t220 86q75 0 211 -28v-129q-110 20 -166 20
q-94 0 -135 -58t-41 -184v-10h588v10q0 217 85.5 303.5t289.5 86.5q90 0 317 -29l164 18v-858h324l786 469h244z" />
    <glyph glyph-name="T_h" unicode="Th" horiz-adv-x="3487" 
d="M3361 0h-164v545q0 90 -27.5 162.5t-86 129t-159 87t-237.5 30.5q-252 0 -602 -116v-838h-164v1280h-942v-1280h-164v1280h-747v154h1853l164 20v-328l-2 -151l2 -2q321 133 618 133q169 0 297.5 -42t206 -118.5t116 -177t38.5 -223.5v-545z" />
    <glyph glyph-name=".notdef" horiz-adv-x="1024" 
d="M82 96v33q-31 14 -31 49q0 22 14.5 36.5t36.5 16.5q32 97 105 169.5t170 103.5v10v8q-97 32 -170 105t-105 170q-22 0 -36.5 15.5t-14.5 37.5q0 33 31 47v35v33q-31 14 -31 49q0 22 14.5 36.5t36.5 16.5q32 96 105 168t170 104q0 22 15.5 38t37.5 16q32 0 47 -33
q12 2 35 2t33 -2q6 14 20 23.5t29 9.5q21 0 36 -16t17 -38q97 -32 169 -103.5t104 -168.5q22 -2 37.5 -17t15.5 -36q0 -15 -9.5 -29t-23.5 -20q2 -10 2 -33t-2 -35q33 -15 33 -47q0 -22 -15.5 -37.5t-37.5 -15.5q-32 -97 -105 -170t-170 -105q2 -2 2 -8t-2 -10
q97 -31 170 -103.5t105 -169.5q22 -2 37.5 -17t15.5 -36q0 -15 -9.5 -29t-23.5 -20q2 -10 2 -33t-2 -35q33 -15 33 -47q0 -21 -15.5 -36t-37.5 -17q-32 -97 -104 -168.5t-169 -103.5q-2 -22 -17 -38t-36 -16q-15 0 -29 9.5t-20 23.5q-10 -2 -33 -2t-35 2q-15 -33 -47 -33
q-22 0 -37.5 16t-15.5 38q-97 32 -170 104t-105 168q-22 2 -36.5 16.5t-14.5 36.5q0 33 31 47v35zM866 178q0 32 29 47q-31 91 -99 159t-159 97q-17 -20 -43 -20q-19 0 -34 11t-19 28h-60q-5 -17 -18.5 -28t-32.5 -11q-26 0 -43 20q-92 -29 -160.5 -97t-99.5 -159
q31 -14 31 -47q0 -22 -15 -36.5t-37 -16.5v-29v-28q22 -2 37 -17t15 -37q0 -33 -31 -47q31 -89 98 -156t156 -98q18 29 49 29q20 0 36 -14.5t17 -34.5q8 -2 29 -2q19 0 29 2q2 21 17 35t36 14q32 0 47 -29q89 31 156 98t98 156q-29 15 -29 47q0 22 14.5 37t34.5 17
q3 12 3 28q0 14 -3 29q-21 2 -35 17t-14 36zM158 1014q0 -22 -15 -36.5t-37 -16.5v-29v-29q22 -1 37 -17t15 -36q0 -32 -31 -49q31 -91 99.5 -158t160.5 -98q16 22 43 22q18 0 32 -11.5t19 -29.5h60q5 17 19.5 29t33.5 12q27 0 43 -22q91 31 159 98.5t99 157.5
q-29 18 -29 49q0 20 14.5 36t34.5 17q3 12 3 29q0 14 -3 29q-21 2 -35 17t-14 36q0 32 29 47q-31 89 -98 156t-156 98q-15 -29 -47 -29q-21 0 -36 14t-17 35q-10 2 -29 2q-21 0 -29 -2q-1 -20 -17 -34.5t-36 -14.5q-31 0 -49 29q-89 -31 -156 -98t-98 -156q31 -14 31 -47z
M285 932q0 79 49 140.5t125 80.5q2 19 17.5 33t35.5 14t35 -14t18 -33q75 -19 124.5 -81t49.5 -140q0 -80 -49.5 -141.5t-124.5 -79.5q-3 -20 -18 -33.5t-35 -13.5q-21 0 -36.5 13.5t-16.5 33.5q-76 17 -125 78.5t-49 142.5zM285 96q0 79 49 140.5t125 80.5q2 19 17.5 33.5
t35.5 14.5t35 -14.5t18 -33.5q75 -19 124.5 -81t49.5 -140q0 -80 -49.5 -141t-124.5 -80q-3 -19 -18 -33t-35 -14t-35.5 14t-17.5 33q-76 19 -125 79.5t-49 141.5zM309 96q0 -70 42.5 -124.5t109.5 -71.5q14 34 51 34q17 0 30.5 -9.5t18.5 -24.5q67 17 110.5 71.5
t43.5 124.5q0 69 -44 124.5t-110 72.5q-14 -35 -49 -35q-37 0 -51 35q-66 -17 -109 -72.5t-43 -124.5zM309 932q0 -71 42.5 -125.5t109.5 -71.5q14 35 51 35q17 0 30.5 -10t18.5 -25q67 18 110.5 72t43.5 125q0 68 -43.5 123.5t-110.5 72.5q-14 -34 -49 -34q-37 0 -51 34
q-66 -17 -109 -72t-43 -124z" />
    <glyph glyph-name=".null" horiz-adv-x="0" 
 />
    <glyph glyph-name="nonmarkingreturn" horiz-adv-x="682" 
 />
    <glyph glyph-name="CR" unicode="&#xd;" horiz-adv-x="880" 
 />
    <glyph glyph-name="space" unicode=" " horiz-adv-x="880" 
 />
    <glyph glyph-name="exclam" unicode="!" horiz-adv-x="585" 
d="M219 297h148v-297h-148v297zM225 471l-14 963h164l-15 -963h-135z" />
    <glyph glyph-name="quotedbl" unicode="&#x22;" horiz-adv-x="907" 
d="M190 1464h150q2 -215 -21 -501h-106q-23 225 -23 501zM567 1464h150q2 -215 -21 -501h-106q-23 225 -23 501z" />
    <glyph glyph-name="numbersign" unicode="#" horiz-adv-x="1701" 
d="M414 57l65 373h-370l16 92h371l79 447h-370l14 92h373l65 373h93l-68 -373h448l66 373h92l-67 -373h372l-14 -92h-375l-78 -447h373l-16 -92h-373l-66 -373h-92l66 373h-447l-65 -373h-92zM666 969l-78 -447h446l80 447h-448z" />
    <glyph glyph-name="dollar" unicode="$" horiz-adv-x="1675" 
d="M131 106l45 148q123 -48 288 -84.5t333 -44.5v512q-64 4 -112.5 8t-109.5 12t-106.5 18t-96.5 26t-87.5 36.5t-71.5 50t-56.5 65t-34.5 82t-13 101.5q0 83 30 150.5t83.5 112.5t119 77.5t146.5 50.5t155 26.5t154 10.5v133h92v-135q267 -7 575 -90l-34 -151
q-94 30 -241.5 56.5t-299.5 31.5v-523q68 -5 112 -8.5t108 -11t105.5 -16.5t94.5 -24.5t87 -34t70 -46t56.5 -60.5t33.5 -77t13 -96q0 -94 -39 -169.5t-103.5 -124.5t-153.5 -82.5t-183.5 -48.5t-200.5 -18v-133h-92v135q-359 9 -666 135zM1401 406q0 39 -15.5 70.5t-38 53
t-65.5 38.5t-78.5 26.5t-98 17t-103 11t-113.5 8.5v-508q101 1 187.5 16t162 46t119 87.5t43.5 133.5zM274 1044q0 -44 15.5 -79t39.5 -59.5t65.5 -43t80.5 -30t99.5 -20t106.5 -12.5t116 -9v522q-59 -1 -114 -5.5t-116.5 -15.5t-112 -31.5t-92 -49t-65 -71.5t-23.5 -96z
" />
    <glyph glyph-name="percent" unicode="%" horiz-adv-x="2084" 
d="M586 780q163 0 248.5 80t85.5 209q0 127 -86 207t-248 80q-164 0 -250 -79.5t-86 -207.5q0 -129 86 -209t250 -80zM129 1069q0 175 118 285t339 110q219 0 336.5 -110t117.5 -285q0 -176 -117.5 -286.5t-336.5 -110.5q-221 0 -339 110.5t-118 286.5zM459 -53l-72 65
q658 734 1237 1475l72 -64q-670 -754 -1237 -1476zM1167 367q0 -129 86 -209t250 -80q163 0 248.5 80t85.5 209q0 127 -85.5 206.5t-248.5 79.5q-164 0 -250 -79.5t-86 -206.5zM1047 367q0 175 118 285t338 110q219 0 337 -110t118 -285q0 -176 -118 -287t-337 -111
q-221 0 -338.5 111t-117.5 287z" />
    <glyph glyph-name="ampersand" unicode="&#x26;" horiz-adv-x="2035" 
d="M1552 666v149h398v-153h-236q-8 -179 -78.5 -313t-193.5 -216.5t-285 -123t-362 -40.5q-106 0 -199.5 11.5t-184.5 40.5t-156.5 74t-105.5 117.5t-40 164.5q0 167 132.5 247.5t415.5 104.5q-273 25 -393.5 102.5t-120.5 235.5q0 75 27.5 136.5t78.5 104t117.5 73.5
t149.5 49t168.5 26t181.5 8q182 0 366 -26t306 -58l-35 -149q-106 27 -287.5 53.5t-353.5 26.5q-114 0 -208.5 -13t-174 -42t-124 -81t-44.5 -124q0 -134 158.5 -185t550.5 -51v-156q-389 -2 -566.5 -62.5t-177.5 -209.5q0 -63 31 -110.5t80 -76t118 -46.5t136.5 -24.5
t144.5 -6.5q370 0 568 141t198 402z" />
    <glyph glyph-name="quotesingle" unicode="'" horiz-adv-x="530" 
d="M190 1464h150q2 -215 -21 -501h-106q-23 225 -23 501z" />
    <glyph glyph-name="parenleft" unicode="(" horiz-adv-x="813" 
d="M705 -356l-91 -54q-199 192 -321.5 485.5t-122.5 586.5t122.5 586t321.5 485l91 -54q-179 -199 -280 -466.5t-101 -550.5t101 -551t280 -467z" />
    <glyph glyph-name="parenright" unicode=")" horiz-adv-x="813" 
d="M199 -410l-90 54q179 199 279.5 467t100.5 551t-100.5 550.5t-279.5 466.5l90 54q199 -192 321.5 -485t122.5 -586t-122.5 -586.5t-321.5 -485.5z" />
    <glyph glyph-name="asterisk" unicode="*" horiz-adv-x="1456" 
d="M803 1464q1 -69 -3.5 -154t-9 -139.5t-14 -156.5t-12.5 -137q31 22 112 79t128 89.5t118.5 78.5t132.5 80l74 -129q-60 -35 -135.5 -74t-126 -63.5t-141.5 -67t-123 -57.5q39 -19 124.5 -58.5t139.5 -65t128.5 -63t133.5 -71.5l-74 -131q-61 34 -132 80t-119.5 79.5
t-127 89t-112.5 79.5q3 -30 12.5 -135.5t14 -158.5t9 -139t3.5 -155h-150q0 56 2 115.5t7 127.5t9 112.5t11 124t10 108.5q-39 -26 -144.5 -101.5t-186.5 -129t-158 -97.5l-74 131q48 27 99 54t114 57.5t99.5 47.5t114.5 53t99 46q-20 9 -83.5 38.5t-92 43l-85.5 40.5
t-93.5 46t-84 44.5t-87.5 49.5l74 129q77 -44 157 -97t188.5 -129.5t143.5 -100.5q-2 20 -12.5 134t-14 162t-8 135t-4.5 156h150z" />
    <glyph glyph-name="plus" unicode="+" horiz-adv-x="1433" 
d="M211 594h451v450h112v-450h451v-113h-451v-450h-112v450h-451v113z" />
    <glyph glyph-name="comma" unicode="," horiz-adv-x="569" 
d="M201 297h155q31 -100 18.5 -242.5t-63.5 -269.5h-96q21 115 19.5 264.5t-33.5 247.5z" />
    <glyph glyph-name="hyphen" unicode="-" horiz-adv-x="1433" 
d="M231 616v129h973v-129h-973z" />
    <glyph glyph-name="period" unicode="." horiz-adv-x="569" 
d="M211 297h147v-297h-147v297z" />
    <glyph glyph-name="slash" unicode="/" horiz-adv-x="827" 
d="M612 1464h150l-545 -1495h-149z" />
    <glyph glyph-name="zero" unicode="0" horiz-adv-x="1935" 
d="M109 717q0 159 55 294t160 236.5t270.5 159t374.5 57.5t374.5 -57.5t270.5 -159t160 -236.5t55 -294t-55 -294t-160 -237t-270.5 -159.5t-374.5 -57.5t-374.5 57.5t-270.5 159.5t-160 237t-55 294zM274 717q0 -128 43 -235t127 -187.5t218.5 -126t306.5 -45.5t305.5 45.5
t217 126t126.5 187.5t43 235t-43 235t-126.5 187.5t-217 126t-305.5 45.5t-306.5 -45.5t-218.5 -126t-127 -187.5t-43 -235z" />
    <glyph glyph-name="one" unicode="1" horiz-adv-x="1423" 
d="M88 0v154h543v1118l-494 -144l-47 132l545 174h160v-1280h542v-154h-1249z" />
    <glyph glyph-name="two" unicode="2" horiz-adv-x="1689" 
d="M1563 0h-1424v154q197 73 367.5 148t330 164t272 177t180 186.5t67.5 192.5q0 55 -23 99t-59.5 73.5t-89 52t-103.5 34t-111.5 19t-105 9.5t-92.5 2q-158 0 -297.5 -19.5t-310.5 -60.5l-35 149q323 84 623 84q66 0 128 -3.5t142 -14.5t147 -28.5t134.5 -50t114.5 -74.5
t76.5 -105.5t29.5 -140.5q0 -107 -59.5 -214t-163.5 -200.5t-248.5 -182t-310 -161.5t-353.5 -135h1174v-154z" />
    <glyph glyph-name="three" unicode="3" horiz-adv-x="1665" 
d="M164 1231l-35 149q323 84 631 84q764 0 764 -385q0 -159 -136 -243t-436 -115q157 -10 265 -30.5t187.5 -59.5t117 -101t37.5 -151q0 -90 -38 -161.5t-102 -117.5t-154 -76t-187 -42.5t-208 -12.5q-214 0 -429 41t-332 94l45 148q114 -49 322 -88t401 -39q85 0 158 8.5
t140 29t114 52t74.5 80.5t27.5 111q0 36 -8.5 65t-29 53t-45.5 42.5t-66.5 32.5t-83.5 24.5t-105.5 17.5t-122.5 11.5t-145 7t-162.5 3.5t-184.5 1h-61v108h61q257 1 425 14t282 45.5t162.5 85t48.5 132.5q0 41 -14 75.5t-36 60t-57 45.5t-69.5 33t-81.5 22.5t-84.5 14
t-86.5 7.5t-80 3.5t-73 0.5q-161 0 -299.5 -19.5t-310.5 -60.5z" />
    <glyph glyph-name="four" unicode="4" horiz-adv-x="1693" 
d="M1563 303h-183v-303h-163v303h-1108v152l1108 979h163v-977h187zM1217 457v491l2 316l-666 -590l-254 -217h918z" />
    <glyph glyph-name="five" unicode="5" horiz-adv-x="1695" 
d="M109 102l45 148q116 -47 323.5 -86t399.5 -39q90 0 167 9.5t148 32.5t120.5 58.5t79 90t29.5 124.5q0 87 -52 152.5t-145 104t-210.5 57t-259.5 18.5q-256 0 -539 -70l37 732h1282v-154h-1126l-23 -455q219 64 449 64q165 0 298.5 -25.5t238 -78.5t161.5 -142t57 -209
q0 -103 -40.5 -184t-107.5 -132.5t-162 -85t-197.5 -47.5t-219.5 -14q-211 0 -423.5 39.5t-329.5 91.5z" />
    <glyph glyph-name="six" unicode="6" horiz-adv-x="1742" 
d="M272 684q33 87 105 156.5t166.5 112t201.5 65t218 22.5q133 0 252.5 -33t214 -95.5t150.5 -163.5t56 -226q0 -251 -211 -402t-567 -151q-198 0 -343.5 50t-233.5 144t-130 220.5t-42 288.5q0 169 41.5 302.5t115.5 224t180 150.5t229.5 86.5t270.5 26.5q298 0 592 -82
l-35 -149q-312 80 -571 80q-112 0 -207 -19t-180.5 -64.5t-145 -116t-94 -179.5t-33.5 -248zM868 123q278 0 439 107.5t161 289.5q0 180 -154 281.5t-394 101.5q-80 0 -162.5 -12.5t-167 -41.5t-149.5 -71.5t-106.5 -109.5t-41.5 -148q0 -77 33.5 -146t100.5 -126t181 -91
t260 -34z" />
    <glyph glyph-name="seven" unicode="7" horiz-adv-x="1609" 
d="M1524 1292l-924 -1292h-201l932 1284l-1263 -4v154h1456v-142z" />
    <glyph glyph-name="eight" unicode="8" horiz-adv-x="1742" 
d="M872 125q98 0 182.5 8.5t162 29t132 51.5t87 79.5t32.5 109.5q0 259 -596 259t-596 -259q0 -76 48 -132t133 -87t188 -45t227 -14zM872 776q268 0 415 63t147 187q0 82 -51 140.5t-137.5 88.5t-178 43t-195.5 13q-82 0 -156 -7.5t-150 -27.5t-131 -50.5t-89.5 -82
t-34.5 -117.5q0 -124 146 -187t415 -63zM872 1464q105 0 202.5 -11.5t195.5 -40t170 -73t117 -116t45 -162.5q0 -75 -41 -136t-112.5 -101.5t-157.5 -66t-185 -36.5q530 -52 530 -359q0 -87 -43 -155.5t-115 -112.5t-172 -72.5t-207 -40.5t-227 -12t-227 12t-207 40.5
t-171.5 72.5t-114.5 112.5t-43 155.5q0 307 528 359q-99 11 -185 36.5t-156.5 66t-111.5 101.5t-41 136q0 91 45 162.5t116.5 116t169.5 73t195.5 40t202.5 11.5z" />
    <glyph glyph-name="nine" unicode="9" horiz-adv-x="1742" 
d="M1470 750q-42 -114 -153 -197t-249 -121.5t-286 -38.5q-133 0 -252.5 33.5t-214 96t-150.5 163t-56 225.5q0 251 211 402t567 151q198 0 343.5 -49.5t233.5 -143.5t130 -220.5t42 -288.5q0 -168 -42 -302t-116 -224.5t-180 -150.5t-230 -87t-271 -27q-296 0 -590 82
l35 152q308 -80 571 -80q112 0 207 19t180.5 64t144.5 115.5t93 179t32 247.5zM877 1313q-280 0 -441.5 -108t-161.5 -292q0 -120 74 -208.5t196.5 -131.5t278.5 -43q80 0 162.5 12.5t167.5 41.5t150.5 71.5t107 109.5t41.5 148q0 77 -33.5 146.5t-100.5 127.5t-181 92
t-260 34z" />
    <glyph glyph-name="colon" unicode=":" horiz-adv-x="569" 
d="M211 379h147v-297h-147v297zM211 963h147v-297h-147v297z" />
    <glyph glyph-name="semicolon" unicode=";" horiz-adv-x="569" 
d="M211 963h147v-297h-147v297zM201 297h155q31 -100 18.5 -242.5t-63.5 -269.5h-96q21 115 19.5 264.5t-33.5 247.5z" />
    <glyph glyph-name="less" unicode="&#x3c;" horiz-adv-x="1218" 
d="M1051 1143v-123l-770 -346l770 -344v-123l-881 405v123z" />
    <glyph glyph-name="equal" unicode="=" horiz-adv-x="1433" 
d="M211 348h1014v-112h-1014v112zM211 840h1014v-113h-1014v113z" />
    <glyph glyph-name="greater" unicode="&#x3e;" horiz-adv-x="1218" 
d="M170 1020v123l881 -408v-123l-881 -405v123l770 344z" />
    <glyph glyph-name="question" unicode="?" horiz-adv-x="1630" 
d="M831 471h-135q6 74 45 132t95.5 94t124 66.5t133 57t120 56t88 73.5t33.5 101q0 55 -29.5 99t-81.5 71.5t-111.5 46t-131 27.5t-127.5 12.5t-113 3.5q-263 0 -598 -80l-34 149q323 84 624 84q67 0 129.5 -3.5t142 -14t147 -28t134 -48.5t113 -72t75.5 -102t29 -135
q0 -80 -33 -139.5t-86.5 -95.5t-119.5 -64.5t-135 -54t-129.5 -54t-106.5 -75t-62 -107.5zM690 297h148v-297h-148v297z" />
    <glyph glyph-name="at" unicode="@" horiz-adv-x="2076" 
d="M1352 -135l43 -86q-157 -49 -359 -49q-210 0 -381 54t-286.5 152t-177.5 236t-62 305t62 305t177.5 236t286.5 152.5t381 54.5q266 0 472.5 -78.5t324 -229t117.5 -350.5q0 -119 -36.5 -216t-95 -157t-127.5 -92t-139 -32q-77 0 -132.5 41t-73.5 118h-3
q-26 -23 -59 -45.5t-87.5 -52t-127 -47.5t-149.5 -18q-204 0 -314 99.5t-110 266.5q0 212 148.5 331.5t383.5 119.5q75 0 146 -15.5t110.5 -31t104.5 -45.5l2 2l12 57h113l-50 -543q-6 -69 21.5 -107t83.5 -38q47 0 96.5 26.5t91.5 74.5t69 125t27 169q0 177 -106 309
t-290.5 199.5t-422.5 67.5q-379 0 -597 -179t-218 -477t218 -476.5t597 -178.5q177 0 316 43zM942 178q139 0 252 54t154 112l30 346q-113 44 -186.5 63t-161.5 19q-114 0 -205 -34t-149 -110.5t-58 -185.5q0 -121 82.5 -192.5t241.5 -71.5z" />
    <glyph glyph-name="A" unicode="A" horiz-adv-x="2007" 
d="M1098 1434l903 -1434h-189l-229 354h-1161l-227 -354h-189l903 1434h189zM1004 1290l-420 -676l-74 -106h985l-72 106z" />
    <glyph glyph-name="B" unicode="B" horiz-adv-x="2015" 
d="M1393 0h-1243v1434h1134q522 0 522 -365q0 -137 -72 -209.5t-208 -107.5q88 -14 154 -37.5t119.5 -64t81.5 -104.5t28 -151q0 -183 -125.5 -289t-390.5 -106zM1311 662h-998v-508h1080q362 0 362 264q0 52 -14.5 91.5t-43.5 66t-66 44t-90 26.5t-106.5 12.5t-123.5 3.5z
M1284 1280h-971v-465h897q73 0 124.5 3t106 11t90 23.5t65 40t43.5 62t14 87.5q0 127 -92 182.5t-277 55.5z" />
    <glyph glyph-name="C" unicode="C" horiz-adv-x="1980" 
d="M1855 231l39 -147q-341 -115 -729 -115q-219 0 -395.5 37t-298.5 103.5t-204 160.5t-120 205.5t-38 241.5t38 241.5t120 205.5t204 160t298.5 103t395.5 37q391 0 729 -114l-39 -148q-356 109 -690 109q-187 0 -336.5 -29t-252.5 -81.5t-171.5 -127t-99.5 -163
t-31 -193.5t31 -193.5t99.5 -163t171.5 -127t252.5 -81.5t336.5 -29q337 0 690 108z" />
    <glyph glyph-name="D" unicode="D" horiz-adv-x="2015" 
d="M852 0h-702v1434h702q274 0 478.5 -51.5t330 -147.5t187 -225.5t61.5 -292.5t-61.5 -292.5t-187 -225.5t-330 -147.5t-478.5 -51.5zM852 1280h-539v-1126h539q188 0 336 26t251.5 73.5t171.5 117.5t99 156t31 190t-31 190t-99 156t-171.5 117.5t-251.5 73.5t-336 26z" />
    <glyph glyph-name="E" unicode="E" horiz-adv-x="1851" 
d="M1745 0h-1595v1434h1554v-154h-1391v-465h1268v-153h-1268v-508h1432v-154z" />
    <glyph glyph-name="F" unicode="F" horiz-adv-x="1769" 
d="M1581 662h-1268v-662h-163v1434h1554v-154h-1391v-465h1268v-153z" />
    <glyph glyph-name="G" unicode="G" horiz-adv-x="2185" 
d="M1894 643h-813v154h977v-123q0 -154 -51 -275.5t-138.5 -201t-213 -132t-267 -74.5t-307.5 -22q-236 0 -423 56.5t-306 158t-181 237t-62 296.5q0 130 38 241.5t120 205.5t204 160t298.5 103t395.5 37q133 0 255 -12t224.5 -35.5t144 -35t105.5 -31.5l-39 -146
q-350 107 -690 107q-187 0 -336.5 -29t-252.5 -81.5t-171.5 -127t-99.5 -163t-31 -193.5q0 -129 51.5 -237t150 -188t253.5 -124.5t352 -44.5q181 0 328.5 30.5t256.5 91t168.5 156.5t59.5 222v20z" />
    <glyph glyph-name="H" unicode="H" horiz-adv-x="1976" 
d="M1829 0h-164v662h-1352v-662h-163v1434h163v-619h1352v619h164v-1434z" />
    <glyph glyph-name="I" unicode="I" horiz-adv-x="460" 
d="M150 0v1434h163v-1434h-163z" />
    <glyph glyph-name="J" unicode="J" horiz-adv-x="1781" 
d="M47 84l37 147q121 -35 204 -54.5t214.5 -36.5t273.5 -17q170 0 294.5 23t216 75t137.5 139.5t46 212.5v861h164v-861q0 -314 -214 -459t-650 -145q-94 0 -185 7t-154 16t-133.5 24.5t-104 24.5t-86 25t-60.5 18z" />
    <glyph glyph-name="K" unicode="K" horiz-adv-x="1974" 
d="M1366 358l563 -358h-256l-1038 662h-322v-662h-163v1434h163v-619h324l999 619h246l-573 -359l-547 -338z" />
    <glyph glyph-name="L" unicode="L" horiz-adv-x="1748" 
d="M1642 0h-1492v1434h163v-1280h1329v-154z" />
    <glyph glyph-name="M" unicode="M" horiz-adv-x="2361" 
d="M1233 252h-105l-819 960l4 -211v-1001h-163v1434h161l871 -1020l868 1020h164v-1434h-164v1001l2 211z" />
    <glyph glyph-name="N" unicode="N" horiz-adv-x="2007" 
d="M1696 408v1026h164v-1434h-164l-1387 1227l4 -189v-1038h-163v1434h161l1387 -1227z" />
    <glyph glyph-name="O" unicode="O" horiz-adv-x="2140" 
d="M109 717q0 161 62 296.5t180.5 236.5t303 157.5t416.5 56.5t416.5 -56.5t303 -157.5t181 -236.5t62.5 -296.5t-62.5 -297t-181 -236.5t-303 -157.5t-416.5 -57t-416.5 57t-303 157.5t-180.5 236.5t-62 297zM274 717q0 -130 50.5 -237.5t148 -187.5t250.5 -124.5
t348 -44.5q194 0 347 44.5t250 124.5t147.5 187.5t50.5 237.5t-50.5 237.5t-147.5 187.5t-250 124.5t-347 44.5q-195 0 -348 -44.5t-250.5 -124.5t-148 -187.5t-50.5 -237.5z" />
    <glyph glyph-name="P" unicode="P" horiz-adv-x="1925" 
d="M313 0h-163v1434h1073q103 0 191.5 -16t168 -53.5t135.5 -94.5t88.5 -144t32.5 -198t-32.5 -198t-89 -144.5t-135.5 -95.5t-167.5 -54t-191.5 -16h-910v-420zM1233 1280h-920v-707h920q95 0 171.5 19t137.5 59t95 110.5t34 166.5q0 77 -22.5 137.5t-61.5 100.5t-95.5 66
t-120 37t-138.5 11z" />
    <glyph glyph-name="Q" unicode="Q" horiz-adv-x="2140" 
d="M1868 -195v-143q-93 0 -159.5 1t-142 3.5t-128 7.5t-110 13.5t-96.5 20.5t-78 29t-63.5 39.5t-45 51t-30 64.5t-11.5 79q-216 7 -387.5 67t-282 160t-168 232t-57.5 287q0 161 62 296.5t180.5 236.5t303 157.5t416.5 56.5t416.5 -56.5t303 -157.5t181 -236.5t62.5 -296.5
q0 -155 -58 -287t-168 -232t-281.5 -160t-387.5 -67q3 -28 17.5 -50.5t42.5 -39.5t61.5 -29.5t84.5 -20.5t102 -13.5t124 -8t139 -3.5t158 -1zM274 717q0 -130 50.5 -237.5t148 -187.5t250.5 -124.5t348 -44.5q194 0 347 44.5t250 124.5t147.5 187.5t50.5 237.5t-50.5 237.5
t-147.5 187.5t-250 124.5t-347 44.5q-195 0 -348 -44.5t-250.5 -124.5t-148 -187.5t-50.5 -237.5z" />
    <glyph glyph-name="R" unicode="R" horiz-adv-x="1943" 
d="M150 0v1434h1136q120 0 216.5 -24.5t174 -76.5t120 -143.5t42.5 -216.5q0 -99 -29 -177.5t-79.5 -130.5t-122 -85.5t-152 -48t-174.5 -13.5h-133l749 -518h-258l-725 512h-602v-512h-163zM313 666h971q85 0 152.5 16t121.5 51t83.5 96t29.5 144q0 67 -19 119.5t-53 87.5
t-82.5 57.5t-104 32.5t-122.5 10h-977v-614z" />
    <glyph glyph-name="S" unicode="S" horiz-adv-x="1910" 
d="M963 -31q-435 0 -854 150l45 145q426 -141 837 -141q78 0 156.5 6.5t169.5 25.5t159.5 49t114 82.5t45.5 119.5q0 47 -20 81.5t-61 57t-92.5 37.5t-125 23.5t-148.5 14t-171 10.5q-17 1 -25 1q-112 5 -177.5 9.5t-166 17t-160.5 29t-131.5 46.5t-110.5 70t-66 99t-27 134
q0 88 34 158.5t95.5 116t135 77t165 47.5t172 22.5t168.5 6.5q185 0 393 -25.5t379 -66.5l-35 -151q-373 90 -764 90q-52 0 -103 -3t-121.5 -12t-129 -28t-111.5 -47t-83 -73.5t-30 -103.5q0 -33 9 -60.5t29.5 -49.5t43 -39.5t60.5 -31.5t70 -24t83 -17.5t88.5 -12.5
t98 -9.5t99.5 -6.5t104 -5q108 -5 174 -9t160.5 -15t152.5 -26.5t124.5 -43.5t103 -65.5t61 -92.5t24.5 -124q0 -75 -27.5 -137.5t-74.5 -107t-113.5 -80t-139.5 -57t-158.5 -36t-164.5 -20t-163 -5.5z" />
    <glyph glyph-name="T" unicode="T" horiz-adv-x="1792" 
d="M1726 1280h-747v-1280h-164v1280h-747v154h1658v-154z" />
    <glyph glyph-name="U" unicode="U" horiz-adv-x="2017" 
d="M1706 573v861h164v-861q0 -314 -212 -459t-648 -145t-648 145t-212 459v861h163v-861q0 -125 46.5 -212.5t139 -139.5t217 -75t294.5 -23t294.5 23t217 75t138.5 139.5t46 212.5z" />
    <glyph glyph-name="V" unicode="V" horiz-adv-x="1996" 
d="M1802 1434h189l-899 -1434h-187l-899 1434h189l383 -615l419 -674l422 674z" />
    <glyph glyph-name="W" unicode="W" horiz-adv-x="2541" 
d="M1884 0h-174l-225 614l-213 588l-213 -588l-228 -614h-172l-653 1434h178l279 -615l278 -610l220 612l227 613h168l227 -615l219 -610l277 612l280 613h178z" />
    <glyph glyph-name="X" unicode="X" horiz-adv-x="1908" 
d="M954 842l678 592h228l-799 -697l844 -737h-228l-723 631l-723 -631h-225l842 737l-797 697h225z" />
    <glyph glyph-name="Y" unicode="Y" horiz-adv-x="2021" 
d="M1808 1434h209l-923 -992v-442h-164v442l-924 992h209l332 -359l465 -500l465 500z" />
    <glyph glyph-name="Z" unicode="Z" horiz-adv-x="1828" 
d="M1722 0h-1613v154l929 788l404 338h-1309v154h1538v-152l-930 -788l-405 -340h1386v-154z" />
    <glyph glyph-name="bracketleft" unicode="[" horiz-adv-x="819" 
d="M211 -362v2062h481v-113h-327v-1837h327v-112h-481z" />
    <glyph glyph-name="backslash" unicode="\" horiz-adv-x="827" 
d="M68 1464h149l545 -1495h-150z" />
    <glyph glyph-name="bracketright" unicode="]" horiz-adv-x="819" 
d="M610 1700v-2062h-481v112h328v1837h-328v113h481z" />
    <glyph glyph-name="asciicircum" unicode="^" horiz-adv-x="1218" 
d="M1133 614h-125l-400 740l-397 -740h-123l461 850h121z" />
    <glyph glyph-name="underscore" unicode="_" horiz-adv-x="1269" 
d="M150 -336v131h972v-131h-972z" />
    <glyph glyph-name="grave" unicode="`" horiz-adv-x="1714" 
d="M508 1542l674 -268l-29 -82l-690 227z" />
    <glyph glyph-name="a" unicode="a" 
d="M1690 143v-143q-108 -31 -179 -31q-65 0 -106.5 16.5t-62 51.5t-27.5 74.5t-8 101.5q-80 -105 -254 -174.5t-367 -69.5q-253 0 -405 98.5t-152 278.5q0 65 22.5 118t63.5 88.5t93 60.5t117 39t128 20t133 6q304 0 612 -49q0 70 -28 126.5t-88.5 102t-166 70t-249.5 24.5
q-161 0 -301.5 -23t-196.5 -44l-53 143q65 25 221.5 51.5t329.5 26.5q151 0 270 -24.5t199 -68.5t132 -107.5t74.5 -137t22.5 -162.5v-330q0 -83 23.5 -119t89.5 -36q49 0 113 22zM295 356q0 -120 115.5 -182.5t302.5 -62.5q128 0 252 34.5t214 95t121 132.5v192h-622
q-74 0 -136 -9t-121 -30.5t-92.5 -65t-33.5 -104.5z" />
    <glyph glyph-name="b" unicode="b" horiz-adv-x="1716" 
d="M129 0v1446l164 18v-338l-2 -153l2 -2q130 61 302 98t335 37q173 0 307.5 -42t219.5 -118t129 -178t44 -225q0 -257 -177.5 -415.5t-491.5 -158.5q-212 0 -387.5 71t-288.5 175l-2 -2l-11 -213h-143zM915 954q-148 0 -319 -33t-303 -83v-469q83 -100 265 -173t386 -73
q249 0 383.5 115t134.5 303t-137 300.5t-410 112.5z" />
    <glyph glyph-name="c" unicode="c" horiz-adv-x="1601" 
d="M1487 199l33 -144q-81 -31 -232 -58.5t-348 -27.5q-219 0 -384.5 42t-266.5 119.5t-151 180t-50 228.5q0 101 31 186t97 156t165 120.5t241 77t318 27.5q197 0 348 -27.5t232 -58.5l-33 -143q-67 25 -216.5 51t-330.5 26q-183 0 -317.5 -30.5t-214 -87t-117 -130
t-37.5 -167.5q0 -93 37.5 -167t117 -130.5t214 -87.5t317.5 -31q126 0 251 16t188.5 31t107.5 29z" />
    <glyph glyph-name="d" unicode="d" horiz-adv-x="1716" 
d="M1427 973l-2 153v320l164 18v-1464h-145l-10 213l-2 2q-113 -104 -288.5 -175t-387.5 -71q-313 0 -490.5 159t-177.5 415q0 123 43.5 225t128 178t219 118t307.5 42q164 0 336 -37t303 -98zM801 954q-273 0 -410 -112.5t-137 -300.5t135 -303t383 -115q205 0 387.5 73
t265.5 173v469q-133 50 -304 83t-320 33z" />
    <glyph glyph-name="e" unicode="e" horiz-adv-x="1660" 
d="M1503 455h-1239q57 -332 629 -332q185 0 354.5 26.5t239.5 49.5l33 -144q-75 -28 -249.5 -57t-371.5 -29q-404 0 -607.5 143.5t-203.5 417.5q0 120 45 223t132 182.5t226 125t316 45.5q178 0 324.5 -40.5t249 -122t136.5 -203.5t-14 -285zM262 582h1081q23 94 -9.5 167
t-108.5 117.5t-180 67t-230 22.5q-138 0 -242 -28t-169 -79.5t-99.5 -118t-42.5 -148.5z" />
    <glyph glyph-name="f" unicode="f" horiz-adv-x="753" 
d="M354 1085v-10h308v-137h-308v-938h-164v938h-143v137h143v10q0 207 75 293t220 86q75 0 211 -28v-129q-110 20 -166 20q-94 0 -135 -58t-41 -184z" />
    <glyph glyph-name="g" unicode="g" horiz-adv-x="1595" 
d="M133 696q0 99 51.5 177.5t141.5 129t210.5 77t260.5 26.5q103 0 229 -21q88 28 232 51t284 23l8 -102q-75 0 -201.5 -8.5t-166.5 -18.5q130 -46 204 -131t74 -203q0 -99 -49 -173t-139.5 -118.5t-209 -66t-265.5 -21.5q-205 0 -344 41q-56 -47 -96.5 -130.5t-30.5 -137.5
q116 45 326 83t399 38q105 0 190.5 -13.5t156 -43t109.5 -83.5t39 -128q0 -65 -31 -118t-80 -88.5t-118.5 -62t-136.5 -41t-144.5 -23t-132 -11t-108.5 -2.5q-268 0 -456 28t-278 58l33 143q54 -14 127 -28.5t247 -32t359 -17.5q87 0 170 7.5t175.5 26t149 58.5t56.5 97
q0 147 -426 147q-164 0 -349.5 -25.5t-311.5 -60.5q-38 2 -69 30.5t-34 75.5q5 71 52.5 149.5t126.5 131.5q-111 44 -172.5 122t-61.5 189zM301 696q0 -82 66 -137.5t174.5 -79.5t255.5 -24t256 24t175 79.5t66 137.5t-67 141t-177.5 87t-252.5 28t-252.5 -28t-177 -87
t-66.5 -141z" />
    <glyph glyph-name="h" unicode="h" horiz-adv-x="1695" 
d="M1569 0h-164v545q0 90 -27.5 162.5t-86 129t-159 87t-237.5 30.5q-252 0 -602 -116v-838h-164v1446l164 18v-338l-2 -151l2 -2q321 133 618 133q169 0 297.5 -42t206 -118.5t116 -177t38.5 -223.5v-545z" />
    <glyph glyph-name="i" unicode="i" horiz-adv-x="501" 
d="M334 0h-164v1073l164 19v-1092zM334 1204h-164v246h164v-246z" />
    <glyph glyph-name="j" unicode="j" horiz-adv-x="512" 
d="M180 18v1055l164 19v-1074q0 -98 -18.5 -171t-49.5 -117.5t-79 -71.5t-100 -37t-120 -10v127q108 0 155.5 69t47.5 211zM344 1204h-164v246h164v-246z" />
    <glyph glyph-name="k" unicode="k" horiz-adv-x="1693" 
d="M764 539l872 -539h-252l-770 473h-321v-473h-164v1446l164 18v-858h323l787 469h244z" />
    <glyph glyph-name="l" unicode="l" horiz-adv-x="440" 
d="M139 0v1446l164 18v-1464h-164z" />
    <glyph glyph-name="m" unicode="m" horiz-adv-x="2529" 
d="M293 0h-164v1073l158 19l4 -117l2 -2q129 65 234.5 99t232.5 34q316 0 465 -168q128 72 287.5 120t297.5 48q160 0 276.5 -41.5t184.5 -119t99.5 -176.5t31.5 -224v-545h-164v545q0 92 -21 163t-70 128t-137.5 87.5t-215.5 30.5q-229 0 -506 -131q60 -117 60 -278v-545
h-164v545q0 74 -12 132.5t-42 111.5t-78.5 88.5t-125.5 56t-178 20.5q-72 0 -136 -9.5t-131 -32t-94 -33.5t-94 -41v-838z" />
    <glyph glyph-name="n" unicode="n" horiz-adv-x="1695" 
d="M1569 0h-164v545q0 90 -27.5 162.5t-86 129t-159 87t-237.5 30.5q-252 0 -602 -116v-838h-164v1073l158 19l4 -117l2 -2q321 133 618 133q169 0 297.5 -42t206 -118.5t116 -177t38.5 -223.5v-545z" />
    <glyph glyph-name="o" unicode="o" horiz-adv-x="1648" 
d="M88 539q0 254 194.5 410.5t542.5 156.5t543 -156.5t195 -410.5t-195 -412t-543 -158t-542.5 158t-194.5 412zM254 539q0 -186 149.5 -301t421.5 -115t421 115t149 301q0 187 -148.5 301t-421.5 114t-422 -114t-149 -301z" />
    <glyph glyph-name="p" unicode="p" horiz-adv-x="1716" 
d="M293 215l-2 -2l2 -240v-362h-164v1458l156 18l6 -114l2 -2q130 61 302 98t335 37q173 0 307.5 -42t219.5 -118t129 -178t44 -225q0 -257 -177.5 -415.5t-491.5 -158.5q-211 0 -382.5 70.5t-285.5 175.5zM915 954q-148 0 -319 -33t-303 -83v-469q83 -100 265 -173t386 -73
q249 0 383.5 115t134.5 303t-137 300.5t-410 112.5z" />
    <glyph glyph-name="q" unicode="q" horiz-adv-x="1716" 
d="M1425 -27l2 240l-2 2q-113 -105 -285 -175.5t-384 -70.5q-313 0 -490.5 159t-177.5 415q0 123 43.5 225t128 178t219 118t307.5 42q164 0 336 -37t303 -98l2 2l5 96l157 18v-1476h-164v362zM801 954q-273 0 -410 -112.5t-137 -300.5t135 -303t383 -115q205 0 387.5 73
t265.5 173v469q-133 50 -304 83t-320 33z" />
    <glyph glyph-name="r" unicode="r" horiz-adv-x="1034" 
d="M129 0v1073l158 19l4 -215l2 -3q139 128 295.5 185.5t367.5 44.5l-8 -160q-187 20 -358 -29.5t-297 -177.5v-737h-164z" />
    <glyph glyph-name="s" unicode="s" horiz-adv-x="1638" 
d="M88 59l33 152q208 -49 356.5 -68.5t315.5 -19.5q50 0 101 2t123.5 8.5t133 20t115.5 34t86.5 54t31.5 75.5q0 38 -20.5 66t-56.5 45t-86.5 28t-109 15.5t-126.5 6.5t-137 3h-29q-86 1 -146 3t-140 9.5t-135 20t-113 34.5t-93.5 52.5t-58 76t-22.5 103.5q0 56 19 102.5
t55 79t79 57.5t101 40t109.5 25t116.5 14.5t110 6t100 1.5q295 0 655 -62l-26 -151q-343 59 -656 59q-53 0 -96 -1t-96.5 -5.5t-94 -11.5t-81.5 -20t-67.5 -30.5t-43 -44t-16.5 -59.5q0 -28 11 -50t32.5 -37.5t48.5 -27t65.5 -19t77.5 -11.5t89 -6t95.5 -3t101.5 -1h15
q93 -1 150.5 -3t144 -9t140.5 -18.5t117.5 -34t99 -54t59.5 -79t24 -108.5q0 -68 -32.5 -122.5t-82.5 -90.5t-123 -62.5t-141 -40.5t-149.5 -22t-135.5 -10t-112 -2q-181 0 -334.5 20t-351.5 70z" />
    <glyph glyph-name="t" unicode="t" horiz-adv-x="763" 
d="M354 1372v-297h342v-137h-342v-588q0 -126 41 -183.5t135 -57.5q56 0 166 20v-129q-134 -31 -211 -31q-145 0 -220 87t-75 294v588h-143v137h143v279z" />
    <glyph glyph-name="u" unicode="u" horiz-adv-x="1695" 
d="M129 530v545h164v-543q0 -190 120.5 -299.5t381.5 -109.5q188 0 345 64.5t265 166.5v721h164v-1075h-146l-10 201l-2 2q-284 -234 -655 -234q-129 0 -233.5 27.5t-177.5 77t-122 120t-71.5 154.5t-22.5 182z" />
    <glyph glyph-name="v" unicode="v" horiz-adv-x="1644" 
d="M1407 1075h192l-688 -1075h-178l-686 1075h193l348 -563l235 -369l234 369z" />
    <glyph glyph-name="w" unicode="w" horiz-adv-x="2328" 
d="M1765 0h-176l-188 391l-236 494l-237 -494l-189 -391h-176l-516 1075h180l262 -563l162 -342l164 342l260 563h178l263 -563l161 -342l164 342l260 563h183z" />
    <glyph glyph-name="x" unicode="x" horiz-adv-x="1591" 
d="M797 639l522 436h223l-647 -536l651 -539h-225l-524 438l-527 -438h-223l649 539l-645 536h223z" />
    <glyph glyph-name="y" unicode="y" horiz-adv-x="1644" 
d="M748 -12l-701 1087h193l348 -563l239 -375l580 938h192l-720 -1155q-112 -176 -230 -246.5t-268 -70.5q-103 0 -281 35v129q9 -2 59 -11t72 -12.5t60.5 -7.5t68.5 -4q114 0 202.5 50.5t160.5 162.5z" />
    <glyph glyph-name="z" unicode="z" horiz-adv-x="1624" 
d="M369 137h1149v-137h-1409v137l1097 801h-1046v137h1310v-135z" />
    <glyph glyph-name="braceleft" unicode="{" horiz-adv-x="860" 
d="M283 668q209 -74 209 -361q0 -65 -11.5 -180t-11.5 -160q0 -55 11 -93t38.5 -69t80.5 -45t132 -12v-113q-233 0 -322.5 64.5t-89.5 243.5q0 45 14.5 176.5t14.5 202.5q0 124 -39.5 203t-138.5 98v90q99 19 138.5 98.5t39.5 202.5q0 71 -14.5 202.5t-14.5 176.5
q0 179 89.5 243t322.5 64v-113q-81 2 -134 -12t-80.5 -45.5t-37.5 -69t-10 -92.5q0 -45 11.5 -159.5t11.5 -178.5q0 -285 -209 -362z" />
    <glyph glyph-name="bar" unicode="|" horiz-adv-x="614" 
d="M365 1741v-2048h-113v2048h113z" />
    <glyph glyph-name="braceright" unicode="}" horiz-adv-x="860" 
d="M578 668q-209 77 -209 362q0 64 11 178.5t11 159.5q0 55 -11 93t-38.5 69t-80.5 45t-132 12v113q233 0 322.5 -64t89.5 -243q0 -45 -14.5 -176.5t-14.5 -202.5q0 -123 39.5 -202.5t138.5 -98.5v-90q-99 -19 -138.5 -98t-39.5 -203q0 -71 14.5 -202.5t14.5 -176.5
q0 -179 -89.5 -243.5t-322.5 -64.5v113q79 -2 132 12t80.5 45t38.5 69t11 93q0 45 -11 160t-11 180q0 287 209 361z" />
    <glyph glyph-name="asciitilde" unicode="~" horiz-adv-x="1439" 
d="M1141 899l90 -90q-182 -182 -338 -182q-48 0 -101 19t-91 42.5t-83 42.5t-79 19q-98 0 -238 -140l-90 90q177 177 328 177q46 0 97 -19t88.5 -42.5t84 -42.5t84.5 -19q103 0 248 145z" />
    <glyph glyph-name="nbspace" unicode="&#xa0;" 
 />
    <glyph glyph-name="exclamdown" unicode="&#xa1;" horiz-adv-x="585" 
d="M367 778h-148v297h148v-297zM360 604l15 -962h-164l14 962h135z" />
    <glyph glyph-name="cent" unicode="&#xa2;" horiz-adv-x="1646" 
d="M874 1464h93v-180q189 -1 332 -28.5t221 -57.5l-33 -143q-41 14 -102 29t-179.5 31t-238.5 18v-832q172 1 309.5 26t210.5 50l33 -144q-228 -81 -553 -86v-178h-93v181q-161 5 -288 35t-212 80t-140.5 120.5t-80 152t-24.5 179.5q0 123 40 220.5t125.5 174t232 120.5
t347.5 50v182zM295 717q0 -72 17.5 -131t59 -111.5t106.5 -89t165.5 -58.5t230.5 -26v829q-162 -5 -277 -37t-179.5 -88.5t-93.5 -126.5t-29 -161z" />
    <glyph glyph-name="sterling" unicode="&#xa3;" horiz-adv-x="1591" 
d="M47 672v92h129l21 233q8 107 49.5 189.5t103.5 134t147.5 84.5t175 46t193.5 13q248 0 598 -84l-34 -149q-322 82 -572 82q-472 0 -498 -307l-22 -242h731v-92h-739l-43 -518h1177v-154h-1349l53 672h-121z" />
    <glyph glyph-name="currency" unicode="&#xa4;" horiz-adv-x="1761" 
d="M881 20l-205 205h-287v287l-205 205l205 205v286h287l205 205l204 -205h287v-286l205 -205l-205 -205v-287h-287zM502 338h223l156 -158l157 158h224v223l155 156l-155 157v224h-224l-157 155l-156 -155h-223v-224l-158 -157l158 -156v-223z" />
    <glyph glyph-name="yen" unicode="&#xa5;" horiz-adv-x="1755" 
d="M1563 256v-92h-602v-164h-164v164h-611v92h611v203h-611v92h547l-706 883h206l394 -506l252 -340l251 340l392 506h209l-709 -883h541v-92h-602v-203h602z" />
    <glyph glyph-name="brokenbar" unicode="&#xa6;" horiz-adv-x="614" 
d="M365 1741v-899h-113v899h113zM365 592v-899h-113v899h113z" />
    <glyph glyph-name="section" unicode="&#xa7;" horiz-adv-x="1687" 
d="M1231 788l-68 -364q171 -35 257.5 -104.5t86.5 -202.5q0 -85 -41 -150t-108 -105t-162 -65.5t-192 -35t-209 -9.5q-305 0 -633 62l26 151q72 -18 263 -39.5t368 -21.5q520 0 520 215q0 48 -24 83.5t-73.5 59t-108 38.5t-144.5 27t-165.5 20t-188.5 21.5t-197 28.5l66 365
q-171 35 -256.5 104.5t-85.5 202.5q0 85 41 150t108 105t162 65.5t192 35t209 9.5q305 0 633 -62l-26 -151q-72 18 -264 39.5t-369 21.5q-106 0 -193.5 -10t-164 -33t-119.5 -66.5t-43 -103.5q0 -48 24 -83.5t73.5 -59t108 -39t144.5 -27.5t166 -20.5t189.5 -22.5t197.5 -29
zM1083 438l45 240q-92 13 -276.5 35t-267.5 35l-45 -240q103 -16 285 -37t259 -33z" />
    <glyph glyph-name="dieresis" unicode="&#xa8;" horiz-adv-x="1714" 
d="M403 1450h121v-225h-121v225zM907 1450h121v-225h-121v225z" />
    <glyph glyph-name="copyright" unicode="&#xa9;" horiz-adv-x="1947" 
d="M109 717q0 161 56 296.5t162.5 236.5t272.5 157.5t375 56.5t375 -56.5t272.5 -157.5t162.5 -236.5t56 -296.5t-56 -297t-162.5 -236.5t-272.5 -157.5t-375 -57t-375 57t-272.5 157.5t-162.5 236.5t-56 297zM201 717q0 -141 50 -260t145.5 -207.5t244 -138.5t334.5 -50
t334.5 50t244 138.5t145.5 207.5t50 260t-50 260t-145.5 207.5t-244 138t-334.5 49.5t-334.5 -49.5t-244 -138t-145.5 -207.5t-50 -260zM1382 455l23 -86q-204 -64 -401 -64q-293 0 -437.5 113t-144.5 299q0 89 34 162.5t102.5 130t182 87.5t263.5 31q200 0 401 -63l-23 -86
q-200 61 -378 61q-248 0 -367 -87.5t-119 -235.5q0 -147 119 -234.5t367 -87.5q181 0 378 60z" />
    <glyph glyph-name="ordfeminine" unicode="&#xaa;" horiz-adv-x="1384" 
d="M1341 729v-145q-98 -25 -157 -25q-86 0 -128 39t-52 139q-63 -78 -198 -128t-278 -50q-196 0 -314 78.5t-118 222.5q0 62 26 109.5t67.5 76.5t100.5 47.5t118 25.5t127 7q107 0 239.5 -18.5t218.5 -44.5q0 256 -403 256q-114 0 -219.5 -16.5t-161.5 -38.5l-47 133
q59 19 181.5 40t258.5 21q151 0 261.5 -30t174 -85t93.5 -125.5t30 -158.5v-215q0 -70 17.5 -101t66.5 -32q41 0 96 18zM264 870q0 -49 29.5 -85.5t78 -55t98.5 -27t103 -8.5q146 0 267.5 53t154.5 142v106q-54 17 -208 29t-228 12q-59 0 -108 -8t-93 -25.5t-69 -51.5
t-25 -81z" />
    <glyph glyph-name="guillemotleft" unicode="&#xab;" horiz-adv-x="1515" 
d="M150 590l614 516l72 -86l-519 -430l519 -428l-72 -86zM682 590l614 516l72 -86l-518 -430l518 -428l-72 -86z" />
    <glyph glyph-name="logicalnot" unicode="&#xac;" horiz-adv-x="1433" 
d="M170 819h1096v-745h-113v633h-983v112z" />
    <glyph glyph-name="registered" unicode="&#xae;" horiz-adv-x="1947" 
d="M109 717q0 161 56 296.5t162.5 236.5t272.5 157.5t375 56.5t375 -56.5t272.5 -157.5t162.5 -236.5t56 -296.5t-56 -297t-162.5 -236.5t-272.5 -157.5t-375 -57t-375 57t-272.5 157.5t-162.5 236.5t-56 297zM201 717q0 -141 50 -260t145.5 -207.5t244 -138.5t334.5 -50
t334.5 50t244 138.5t145.5 207.5t50 260t-50 260t-145.5 207.5t-244 138t-334.5 49.5t-334.5 -49.5t-244 -138t-145.5 -207.5t-50 -260zM637 322h-94v788h626q66 0 119 -13.5t95.5 -42t66 -78.5t23.5 -118q0 -133 -87.5 -189.5t-244.5 -58.5l334 -288h-138l-325 286h-375
v-286zM637 696h516q223 0 223 162q0 164 -205 164h-534v-326z" />
    <glyph glyph-name="macron" unicode="&#xaf;" horiz-adv-x="1714" 
d="M403 1401h727v-111h-727v111z" />
    <glyph glyph-name="degree" unicode="&#xb0;" horiz-adv-x="1116" 
d="M129 1092q0 164 111.5 268t318.5 104q206 0 318 -104t112 -268q0 -165 -112 -270t-318 -105q-207 0 -318.5 104.5t-111.5 270.5zM240 1092q0 -123 81.5 -199t237.5 -76q155 0 236.5 76t81.5 199q0 121 -81.5 196.5t-236.5 75.5q-156 0 -237.5 -75.5t-81.5 -196.5z" />
    <glyph glyph-name="plusminus" unicode="&#xb1;" horiz-adv-x="1433" 
d="M211 594h451v450h112v-450h451v-113h-451v-368h451v-113h-1014v113h451v368h-451v113z" />
    <glyph glyph-name="twosuperior" unicode="&#xb2;" horiz-adv-x="1339" 
d="M1243 608h-1139v156q938 353 938 645q0 52 -32.5 91.5t-78 60t-109 33t-110.5 15.5t-96 3q-129 0 -237.5 -16t-247.5 -50q-5 26 -17.5 78.5l-17.5 73.5q251 67 500 67q53 0 102.5 -2.5t113 -11.5t117.5 -23.5t108 -40t91 -59t60.5 -83.5t23.5 -111q0 -99 -64.5 -195.5
t-181 -181t-271 -158.5t-343.5 -135h891v-156z" />
    <glyph glyph-name="threesuperior" unicode="&#xb3;" horiz-adv-x="1318" 
d="M80 690l47 150q118 -44 269.5 -72.5t299.5 -28.5q107 0 187 17.5t134 63.5t54 118q0 39 -15 67.5t-48 49t-77 33t-112 20t-142 10t-177 2.5h-205v109h207q288 0 414 44t126 148q0 38 -16.5 68.5t-41.5 50.5t-63.5 34.5t-73.5 22t-81 11.5t-77.5 5t-70.5 1
q-129 0 -236 -16.5t-251 -51.5l-35 152q251 67 508 67q608 0 608 -311q0 -123 -100 -187t-324 -89q235 -16 343 -75.5t108 -191.5q0 -90 -45 -155.5t-125 -101.5t-174 -52t-207 -16q-170 0 -341.5 31.5t-266.5 72.5z" />
    <glyph glyph-name="acute" unicode="&#xb4;" horiz-adv-x="1714" 
d="M475 1274l674 268l45 -123l-690 -227z" />
    <glyph glyph-name="mu" unicode="&#xb5;" horiz-adv-x="1695" 
d="M293 -389h-164v1464h166v-543q0 -190 119.5 -299.5t380.5 -109.5q188 0 345 64.5t265 166.5v721h164v-1075h-146l-10 201l-2 2q-284 -234 -655 -234q-174 0 -291.5 60t-173.5 164z" />
    <glyph glyph-name="paragraph" unicode="&#xb6;" horiz-adv-x="1447" 
d="M1071 1434v-1434h-133v623h-317q-82 0 -152.5 13t-134 43t-108 75.5t-71 115.5t-26.5 158q0 110 39.5 191t109.5 126.5t155 67t188 21.5h450zM1300 1434v-1434h-133v1434h133z" />
    <glyph glyph-name="periodcentered" unicode="&#xb7;" horiz-adv-x="569" 
d="M211 686h147v-297h-147v297z" />
    <glyph glyph-name="cedilla" unicode="&#xb8;" horiz-adv-x="1687" 
d="M670 -479l49 90q47 -6 108.5 -4t116.5 8.5t94 30.5t41 61q4 50 -67.5 79.5t-173.5 27.5q-10 2 -19 12.5t-8 23.5l88 162h74l-78 -141q69 4 138.5 -13t117 -58.5t41.5 -96.5q-4 -42 -29 -75t-60 -52.5t-85 -32.5t-94 -18.5t-98.5 -6.5t-86.5 0t-69 3z" />
    <glyph glyph-name="onesuperior" unicode="&#xb9;" horiz-adv-x="1126" 
d="M63 764h418v813l-366 -107l-49 134l419 137h162v-977h416v-156h-1000v156z" />
    <glyph glyph-name="ordmasculine" unicode="&#xba;" horiz-adv-x="1306" 
d="M63 1010q0 200 155.5 324t434.5 124t434.5 -124t155.5 -324q0 -201 -155.5 -326t-434.5 -125t-434.5 125t-155.5 326zM1075 1010q0 132 -110 212.5t-312 80.5t-312 -80.5t-110 -212.5t110.5 -214.5t311.5 -82.5t311.5 82.5t110.5 214.5z" />
    <glyph glyph-name="guillemotright" unicode="&#xbb;" horiz-adv-x="1515" 
d="M754 1106l614 -516l-614 -514l-72 86l516 428l-516 430zM221 1106l615 -516l-615 -514l-71 86l516 428l-516 430z" />
    <glyph glyph-name="onequarter" unicode="&#xbc;" horiz-adv-x="3307" 
d="M63 457h418v813l-366 -107l-49 133l419 138h162v-977h416v-156h-1000v156zM1092 -53l-72 65q656 735 1237 1475l72 -64q-671 -751 -1237 -1476zM3207 229h-145v-229h-166v229h-852v156l852 748h166v-748h149q0 -50 -4 -156zM2896 385v279l4 299l-481 -424l-185 -154h662z
" />
    <glyph glyph-name="onehalf" unicode="&#xbd;" horiz-adv-x="3559" 
d="M63 457h418v813l-366 -107l-49 133l419 138h162v-977h416v-156h-1000v156zM3463 0h-1139v156q938 353 938 645q0 52 -32.5 91.5t-78 60t-109 33t-110.5 15.5t-96 3q-129 0 -237.5 -16t-247.5 -50q-5 26 -17.5 78.5l-17.5 73.5q251 67 500 67q52 0 102 -3t113.5 -11.5
t117.5 -23t107.5 -40t91 -59.5t61 -84t23.5 -111q0 -99 -64.5 -195.5t-181 -181t-271 -158t-343.5 -134.5h891v-156zM1092 -53l-72 65q656 735 1237 1475l72 -64q-671 -751 -1237 -1476z" />
    <glyph glyph-name="threequarters" unicode="&#xbe;" horiz-adv-x="3346" 
d="M3246 229h-145v-229h-166v229h-852v156l852 748h166v-748h149q0 -50 -4 -156zM80 383l47 149q117 -44 269 -72t300 -28q107 0 187 17.5t134 63.5t54 118q0 39 -15 67.5t-48 49t-77 33t-112 20t-142 10t-177 2.5h-205v109h207q288 0 414 44t126 148q0 38 -16.5 68.5
t-41.5 50.5t-63.5 34.5t-73.5 22t-81 11.5t-77.5 5t-70.5 1q-129 0 -236 -16.5t-251 -51.5l-35 152q251 67 508 67q608 0 608 -311q0 -123 -100 -187.5t-324 -89.5q235 -16 343 -75t108 -191q0 -90 -45 -155.5t-125 -101.5t-174 -52t-207 -16q-170 0 -341.5 31.5
t-266.5 72.5zM2935 385v279l4 299l-481 -424l-185 -154h662zM1130 -53l-71 65q656 735 1237 1475l71 -64q-671 -751 -1237 -1476z" />
    <glyph glyph-name="questiondown" unicode="&#xbf;" horiz-adv-x="1630" 
d="M799 604h137q-7 -73 -46 -130.5t-95.5 -93.5t-123.5 -66t-133 -57t-120 -56.5t-87.5 -74t-33.5 -101.5q0 -55 29.5 -99t81 -71.5t111 -46.5t131 -28t127.5 -12.5t114 -3.5q263 0 598 80l35 -149q-323 -84 -625 -84q-67 0 -129.5 3.5t-142 14t-147 28t-134 49t-113 72.5
t-75.5 102.5t-29 135.5q0 63 20.5 113t55 84t80 61.5t97.5 48t104.5 40t103 41.5t92.5 48.5t73 65t44 86.5zM942 778h-149v297h149v-297z" />
    <glyph glyph-name="Agrave" unicode="&#xc0;" horiz-adv-x="2007" 
d="M1098 1434l903 -1434h-189l-229 354h-1161l-227 -354h-189l903 1434h189zM1004 1290l-420 -676l-74 -106h985l-72 106zM465 1901l674 -269l-29 -82l-690 228z" />
    <glyph glyph-name="Aacute" unicode="&#xc1;" horiz-adv-x="2007" 
d="M1098 1434l903 -1434h-189l-229 354h-1161l-227 -354h-189l903 1434h189zM1004 1290l-420 -676l-74 -106h985l-72 106zM881 1632l673 269l45 -123l-690 -228z" />
    <glyph glyph-name="Acircumflex" unicode="&#xc2;" horiz-adv-x="2007" 
d="M1098 1434l903 -1434h-189l-229 354h-1161l-227 -354h-189l903 1434h189zM1004 1290l-420 -676l-74 -106h985l-72 106zM1421 1534l-420 219l-417 -219l-37 80l454 270l457 -270z" />
    <glyph glyph-name="Atilde" unicode="&#xc3;" horiz-adv-x="2007" 
d="M1098 1434l903 -1434h-189l-229 354h-1161l-227 -354h-189l903 1434h189zM1004 1290l-420 -676l-74 -106h985l-72 106zM1348 1808l63 -65q-150 -156 -270 -156q-39 0 -82 15.5t-73.5 34t-67 34t-64.5 15.5q-94 0 -197 -103l-63 66q144 151 260 151q47 0 98.5 -24.5
t100 -49t88.5 -24.5q101 0 207 106z" />
    <glyph glyph-name="Adieresis" unicode="&#xc4;" horiz-adv-x="2007" 
d="M1098 1434l903 -1434h-189l-229 354h-1161l-227 -354h-189l903 1434h189zM1004 1290l-420 -676l-74 -106h985l-72 106zM690 1808h121v-225h-121v225zM1194 1808h121v-225h-121v225z" />
    <glyph glyph-name="Aring" unicode="&#xc5;" horiz-adv-x="2007" 
d="M768 1567q0 90 58.5 143t177.5 53q118 0 175.5 -53t57.5 -143q0 -133 -111 -181l875 -1386h-189l-229 354h-1161l-227 -354h-189l873 1386q-111 48 -111 181zM1004 1290l-420 -676l-74 -106h985l-72 106zM840 1567q0 -59 40 -95t124 -36q81 0 121 36t40 95q0 57 -40 91
t-121 34q-84 0 -124 -34t-40 -91z" />
    <glyph glyph-name="AE" unicode="&#xc6;" horiz-adv-x="3330" 
d="M3082 815v-153h-1267v-508h1431v-154h-1595v354h-1006l-399 -354h-240l1645 1434h1554v-154h-1390v-465h1267zM1651 1260l-711 -646l-125 -106h836v752z" />
    <glyph glyph-name="Ccedilla" unicode="&#xc7;" horiz-adv-x="1980" 
d="M801 -479l49 90q47 -6 108.5 -4t116.5 8.5t94 30.5t41 61q4 50 -67.5 79.5t-173.5 27.5q-10 2 -19 12.5t-8 23.5l68 125q-187 12 -337 55t-254.5 110t-174.5 157t-102.5 194.5t-32.5 225.5q0 130 38 241.5t120 205.5t204 160t298.5 103t395.5 37q391 0 729 -114l-39 -148
q-356 109 -690 109q-187 0 -336.5 -29t-252.5 -81.5t-171.5 -127t-99.5 -163t-31 -193.5t31 -193.5t99.5 -163t171.5 -127t252.5 -81.5t336.5 -29q337 0 690 108l39 -147q-341 -115 -729 -115q-15 0 -43 1t-41 1l-55 -100q69 4 138.5 -13t117 -58.5t41.5 -96.5
q-4 -42 -29 -75t-60 -52.5t-85 -32.5t-94 -18.5t-98.5 -6.5t-86.5 0t-69 3z" />
    <glyph glyph-name="Egrave" unicode="&#xc8;" horiz-adv-x="1851" 
d="M610 1901l674 -269l-29 -82l-690 228zM1745 0h-1595v1434h1554v-154h-1391v-465h1268v-153h-1268v-508h1432v-154z" />
    <glyph glyph-name="Eacute" unicode="&#xc9;" horiz-adv-x="1851" 
d="M565 1632l674 269l45 -123l-690 -228zM1745 0h-1595v1434h1554v-154h-1391v-465h1268v-153h-1268v-508h1432v-154z" />
    <glyph glyph-name="Ecircumflex" unicode="&#xca;" horiz-adv-x="1851" 
d="M1745 0h-1595v1434h1554v-154h-1391v-465h1268v-153h-1268v-508h1432v-154zM1343 1534l-419 219l-418 -219l-37 80l455 270l456 -270z" />
    <glyph glyph-name="Edieresis" unicode="&#xcb;" horiz-adv-x="1851" 
d="M612 1808h121v-225h-121v225zM1116 1808h121v-225h-121v225zM1745 0h-1595v1434h1554v-154h-1391v-465h1268v-153h-1268v-508h1432v-154z" />
    <glyph glyph-name="Igrave" unicode="&#xcc;" horiz-adv-x="460" 
d="M150 0v1434h163v-1434h-163zM-166 1901l674 -269l-29 -82l-690 228z" />
    <glyph glyph-name="Iacute" unicode="&#xcd;" horiz-adv-x="460" 
d="M150 0v1434h163v-1434h-163zM-43 1632l674 269l45 -123l-690 -228z" />
    <glyph glyph-name="Icircumflex" unicode="&#xce;" horiz-adv-x="460" 
d="M150 0v1434h163v-1434h-163zM651 1534l-420 219l-417 -219l-37 80l454 270l457 -270z" />
    <glyph glyph-name="Idieresis" unicode="&#xcf;" horiz-adv-x="460" 
d="M150 0v1434h163v-1434h-163zM-80 1808h121v-225h-121v225zM424 1808h121v-225h-121v225z" />
    <glyph glyph-name="Eth" unicode="&#xd0;" horiz-adv-x="2015" 
d="M852 0h-702v672h-150v92h150v670h702q274 0 478.5 -51.5t330 -147.5t187 -225.5t61.5 -292.5t-61.5 -292.5t-187 -225.5t-330 -147.5t-478.5 -51.5zM852 1280h-539v-516h539v-92h-539v-518h539q188 0 336 26t251.5 73.5t171.5 117.5t99 156t31 190t-31 190t-99 156
t-171.5 117.5t-251.5 73.5t-336 26z" />
    <glyph glyph-name="Ntilde" unicode="&#xd1;" horiz-adv-x="2007" 
d="M1348 1808l63 -65q-150 -156 -270 -156q-39 0 -82 15.5t-73.5 34t-67 34t-64.5 15.5q-94 0 -197 -103l-63 66q144 151 260 151q47 0 98.5 -24.5t100 -49t88.5 -24.5q101 0 207 106zM1696 408v1026h164v-1434h-164l-1387 1227l4 -189v-1038h-163v1434h161l1387 -1227z" />
    <glyph glyph-name="Ograve" unicode="&#xd2;" horiz-adv-x="2140" 
d="M756 1901l674 -269l-29 -82l-690 228zM109 717q0 161 62 296.5t180.5 236.5t303 157.5t416.5 56.5t416.5 -56.5t303 -157.5t181 -236.5t62.5 -296.5t-62.5 -297t-181 -236.5t-303 -157.5t-416.5 -57t-416.5 57t-303 157.5t-180.5 236.5t-62 297zM274 717
q0 -130 50.5 -237.5t148 -187.5t250.5 -124.5t348 -44.5q194 0 347 44.5t250 124.5t147.5 187.5t50.5 237.5t-50.5 237.5t-147.5 187.5t-250 124.5t-347 44.5q-195 0 -348 -44.5t-250.5 -124.5t-148 -187.5t-50.5 -237.5z" />
    <glyph glyph-name="Oacute" unicode="&#xd3;" horiz-adv-x="2140" 
d="M711 1632l673 269l46 -123l-691 -228zM109 717q0 161 62 296.5t180.5 236.5t303 157.5t416.5 56.5t416.5 -56.5t303 -157.5t181 -236.5t62.5 -296.5t-62.5 -297t-181 -236.5t-303 -157.5t-416.5 -57t-416.5 57t-303 157.5t-180.5 236.5t-62 297zM274 717
q0 -130 50.5 -237.5t148 -187.5t250.5 -124.5t348 -44.5q194 0 347 44.5t250 124.5t147.5 187.5t50.5 237.5t-50.5 237.5t-147.5 187.5t-250 124.5t-347 44.5q-195 0 -348 -44.5t-250.5 -124.5t-148 -187.5t-50.5 -237.5z" />
    <glyph glyph-name="Ocircumflex" unicode="&#xd4;" horiz-adv-x="2140" 
d="M109 717q0 161 62 296.5t180.5 236.5t303 157.5t416.5 56.5t416.5 -56.5t303 -157.5t181 -236.5t62.5 -296.5t-62.5 -297t-181 -236.5t-303 -157.5t-416.5 -57t-416.5 57t-303 157.5t-180.5 236.5t-62 297zM274 717q0 -130 50.5 -237.5t148 -187.5t250.5 -124.5
t348 -44.5q194 0 347 44.5t250 124.5t147.5 187.5t50.5 237.5t-50.5 237.5t-147.5 187.5t-250 124.5t-347 44.5q-195 0 -348 -44.5t-250.5 -124.5t-148 -187.5t-50.5 -237.5zM1489 1534l-420 219l-418 -219l-37 80l455 270l457 -270z" />
    <glyph glyph-name="Otilde" unicode="&#xd5;" horiz-adv-x="2140" 
d="M1415 1808l64 -65q-150 -156 -271 -156q-50 0 -103 24.5t-100.5 49.5t-82.5 25q-94 0 -197 -103l-63 66q144 151 260 151q47 0 98 -24.5t99.5 -49t88.5 -24.5q101 0 207 106zM109 717q0 161 62 296.5t180.5 236.5t303 157.5t416.5 56.5t416.5 -56.5t303 -157.5
t181 -236.5t62.5 -296.5t-62.5 -297t-181 -236.5t-303 -157.5t-416.5 -57t-416.5 57t-303 157.5t-180.5 236.5t-62 297zM274 717q0 -130 50.5 -237.5t148 -187.5t250.5 -124.5t348 -44.5q194 0 347 44.5t250 124.5t147.5 187.5t50.5 237.5t-50.5 237.5t-147.5 187.5
t-250 124.5t-347 44.5q-195 0 -348 -44.5t-250.5 -124.5t-148 -187.5t-50.5 -237.5z" />
    <glyph glyph-name="Odieresis" unicode="&#xd6;" horiz-adv-x="2140" 
d="M758 1808h121v-225h-121v225zM1262 1808h120v-225h-120v225zM109 717q0 161 62 296.5t180.5 236.5t303 157.5t416.5 56.5t416.5 -56.5t303 -157.5t181 -236.5t62.5 -296.5t-62.5 -297t-181 -236.5t-303 -157.5t-416.5 -57t-416.5 57t-303 157.5t-180.5 236.5t-62 297z
M274 717q0 -130 50.5 -237.5t148 -187.5t250.5 -124.5t348 -44.5q194 0 347 44.5t250 124.5t147.5 187.5t50.5 237.5t-50.5 237.5t-147.5 187.5t-250 124.5t-347 44.5q-195 0 -348 -44.5t-250.5 -124.5t-148 -187.5t-50.5 -237.5z" />
    <glyph glyph-name="multiply" unicode="&#xd7;" horiz-adv-x="1368" 
d="M287 219l317 318l-317 321l80 78l317 -320l320 320l79 -80l-319 -319l319 -318l-79 -80l-320 320l-317 -320z" />
    <glyph glyph-name="Oslash" unicode="&#xd8;" horiz-adv-x="2140" 
d="M109 717q0 161 62 296.5t180.5 236.5t303 157.5t416.5 56.5q335 0 565 -116l127 127l66 -66l-109 -109q154 -101 234 -250.5t80 -332.5q0 -161 -62.5 -297t-181 -236.5t-303 -157.5t-416.5 -57q-327 0 -567 115l-123 -125l-66 68l107 106q-155 98 -234 249t-79 335z
M274 717q0 -149 67 -269.5t196 -199.5l979 979q-185 84 -445 84q-195 0 -348 -44.5t-250.5 -124.5t-148 -187.5t-50.5 -237.5zM1866 717q0 148 -66 269t-194 200l-981 -981q191 -82 446 -82q194 0 347 44.5t250 124.5t147.5 187.5t50.5 237.5z" />
    <glyph glyph-name="Ugrave" unicode="&#xd9;" horiz-adv-x="2017" 
d="M694 1901l674 -269l-29 -82l-690 228zM1706 573v861h164v-861q0 -314 -212 -459t-648 -145t-648 145t-212 459v861h163v-861q0 -125 46.5 -212.5t139 -139.5t217 -75t294.5 -23t294.5 23t217 75t138.5 139.5t46 212.5z" />
    <glyph glyph-name="Uacute" unicode="&#xda;" horiz-adv-x="2017" 
d="M649 1632l674 269l45 -123l-690 -228zM1706 573v861h164v-861q0 -314 -212 -459t-648 -145t-648 145t-212 459v861h163v-861q0 -125 46.5 -212.5t139 -139.5t217 -75t294.5 -23t294.5 23t217 75t138.5 139.5t46 212.5z" />
    <glyph glyph-name="Ucircumflex" unicode="&#xdb;" horiz-adv-x="2017" 
d="M1706 573v861h164v-861q0 -314 -212 -459t-648 -145t-648 145t-212 459v861h163v-861q0 -125 46.5 -212.5t139 -139.5t217 -75t294.5 -23t294.5 23t217 75t138.5 139.5t46 212.5zM1427 1534l-419 219l-418 -219l-37 80l455 270l456 -270z" />
    <glyph glyph-name="Udieresis" unicode="&#xdc;" horiz-adv-x="2017" 
d="M696 1808h121v-225h-121v225zM1200 1808h121v-225h-121v225zM1706 573v861h164v-861q0 -314 -212 -459t-648 -145t-648 145t-212 459v861h163v-861q0 -125 46.5 -212.5t139 -139.5t217 -75t294.5 -23t294.5 23t217 75t138.5 139.5t46 212.5z" />
    <glyph glyph-name="Yacute" unicode="&#xdd;" horiz-adv-x="2021" 
d="M1808 1434h209l-923 -992v-442h-164v442l-924 992h209l332 -359l465 -500l465 500zM651 1632l674 269l45 -123l-690 -228z" />
    <glyph glyph-name="Thorn" unicode="&#xde;" horiz-adv-x="1925" 
d="M313 0h-163v1434h163v-211h910q103 0 191.5 -16t168 -53.5t135.5 -94.5t88.5 -144t32.5 -198t-32.5 -198t-89 -144.5t-135.5 -95.5t-167.5 -54t-191.5 -16h-910v-209zM1233 1069h-920v-707h920q95 0 171.5 19t137.5 59t95 110.5t34 166.5q0 77 -22.5 137.5t-61.5 100.5
t-95.5 66t-120 37t-138.5 11z" />
    <glyph glyph-name="germandbls" unicode="&#xdf;" horiz-adv-x="2152" 
d="M293 0h-164v1139q0 64 25.5 115t65 84.5t100 58t116 37t129.5 20t125 9t115 1.5q263 0 549 -45l-86 -461q-99 3 -185.5 -3t-167.5 -23.5t-128.5 -56.5t-47.5 -95q0 -97 144 -130q94 -21 344 -24q56 -1 61 -1q68 -1 114.5 -2t111.5 -5t110.5 -10t100 -17.5t92 -27
t75.5 -38.5t60.5 -52t36.5 -68t14 -86q0 -68 -32.5 -122.5t-83 -90.5t-123 -62.5t-140.5 -40.5t-149.5 -22t-135.5 -10t-112 -2q-180 0 -329 19.5t-349 70.5l33 152q212 -50 355 -69t306 -19q50 0 101 2t123.5 8.5t133 20t116 34t87 54t31.5 75.5q0 38 -20 66t-56 45t-86 28
t-109 15.5t-126.5 6.5t-136.5 3h-29q-59 1 -101.5 2.5t-99 4.5t-98 8.5t-91 13.5t-85.5 20t-73.5 28t-63 38t-46.5 48.5t-31 61t-10 74.5q0 58 21.5 105t55.5 79t85.5 56t102.5 38t115.5 22.5t115.5 11.5t111 4l39 202q-261 27 -416 29q-62 0 -113 -2.5t-113.5 -8.5
t-109.5 -19.5t-88.5 -33.5t-63.5 -52.5t-22 -73.5v-1137z" />
    <glyph glyph-name="agrave" unicode="&#xe0;" 
d="M1690 143v-143q-108 -31 -179 -31q-65 0 -106.5 16.5t-62 51.5t-27.5 74.5t-8 101.5q-80 -105 -254 -174.5t-367 -69.5q-253 0 -405 98.5t-152 278.5q0 65 22.5 118t63.5 88.5t93 60.5t117 39t128 20t133 6q304 0 612 -49q0 70 -28 126.5t-88.5 102t-166 70t-249.5 24.5
q-161 0 -301.5 -23t-196.5 -44l-53 143q65 25 221.5 51.5t329.5 26.5q151 0 270 -24.5t199 -68.5t132 -107.5t74.5 -137t22.5 -162.5v-330q0 -83 23.5 -119t89.5 -36q49 0 113 22zM295 356q0 -120 115.5 -182.5t302.5 -62.5q128 0 252 34.5t214 95t121 132.5v192h-622
q-74 0 -136 -9t-121 -30.5t-92.5 -65t-33.5 -104.5zM555 1542l674 -268l-29 -82l-690 227z" />
    <glyph glyph-name="aacute" unicode="&#xe1;" 
d="M1690 143v-143q-108 -31 -179 -31q-65 0 -106.5 16.5t-62 51.5t-27.5 74.5t-8 101.5q-80 -105 -254 -174.5t-367 -69.5q-253 0 -405 98.5t-152 278.5q0 65 22.5 118t63.5 88.5t93 60.5t117 39t128 20t133 6q304 0 612 -49q0 70 -28 126.5t-88.5 102t-166 70t-249.5 24.5
q-161 0 -301.5 -23t-196.5 -44l-53 143q65 25 221.5 51.5t329.5 26.5q151 0 270 -24.5t199 -68.5t132 -107.5t74.5 -137t22.5 -162.5v-330q0 -83 23.5 -119t89.5 -36q49 0 113 22zM295 356q0 -120 115.5 -182.5t302.5 -62.5q128 0 252 34.5t214 95t121 132.5v192h-622
q-74 0 -136 -9t-121 -30.5t-92.5 -65t-33.5 -104.5zM510 1274l674 268l45 -123l-690 -227z" />
    <glyph glyph-name="acircumflex" unicode="&#xe2;" 
d="M1690 143v-143q-108 -31 -179 -31q-65 0 -106.5 16.5t-62 51.5t-27.5 74.5t-8 101.5q-80 -105 -254 -174.5t-367 -69.5q-253 0 -405 98.5t-152 278.5q0 65 22.5 118t63.5 88.5t93 60.5t117 39t128 20t133 6q304 0 612 -49q0 70 -28 126.5t-88.5 102t-166 70t-249.5 24.5
q-161 0 -301.5 -23t-196.5 -44l-53 143q65 25 221.5 51.5t329.5 26.5q151 0 270 -24.5t199 -68.5t132 -107.5t74.5 -137t22.5 -162.5v-330q0 -83 23.5 -119t89.5 -36q49 0 113 22zM295 356q0 -120 115.5 -182.5t302.5 -62.5q128 0 252 34.5t214 95t121 132.5v192h-622
q-74 0 -136 -9t-121 -30.5t-92.5 -65t-33.5 -104.5zM1247 1176l-420 219l-417 -219l-37 79l454 271l457 -271z" />
    <glyph glyph-name="atilde" unicode="&#xe3;" 
d="M1690 143v-143q-108 -31 -179 -31q-65 0 -106.5 16.5t-62 51.5t-27.5 74.5t-8 101.5q-80 -105 -254 -174.5t-367 -69.5q-253 0 -405 98.5t-152 278.5q0 65 22.5 118t63.5 88.5t93 60.5t117 39t128 20t133 6q304 0 612 -49q0 70 -28 126.5t-88.5 102t-166 70t-249.5 24.5
q-161 0 -301.5 -23t-196.5 -44l-53 143q65 25 221.5 51.5t329.5 26.5q151 0 270 -24.5t199 -68.5t132 -107.5t74.5 -137t22.5 -162.5v-330q0 -83 23.5 -119t89.5 -36q49 0 113 22zM295 356q0 -120 115.5 -182.5t302.5 -62.5q128 0 252 34.5t214 95t121 132.5v192h-622
q-74 0 -136 -9t-121 -30.5t-92.5 -65t-33.5 -104.5zM1194 1450l63 -66q-150 -155 -270 -155q-50 0 -103.5 24.5t-101 49t-82.5 24.5q-94 0 -196 -102l-64 65q145 152 260 152q47 0 98.5 -25t100 -49.5t88.5 -24.5q100 0 207 107z" />
    <glyph glyph-name="adieresis" unicode="&#xe4;" 
d="M1690 143v-143q-108 -31 -179 -31q-65 0 -106.5 16.5t-62 51.5t-27.5 74.5t-8 101.5q-80 -105 -254 -174.5t-367 -69.5q-253 0 -405 98.5t-152 278.5q0 65 22.5 118t63.5 88.5t93 60.5t117 39t128 20t133 6q304 0 612 -49q0 70 -28 126.5t-88.5 102t-166 70t-249.5 24.5
q-161 0 -301.5 -23t-196.5 -44l-53 143q65 25 221.5 51.5t329.5 26.5q151 0 270 -24.5t199 -68.5t132 -107.5t74.5 -137t22.5 -162.5v-330q0 -83 23.5 -119t89.5 -36q49 0 113 22zM295 356q0 -120 115.5 -182.5t302.5 -62.5q128 0 252 34.5t214 95t121 132.5v192h-622
q-74 0 -136 -9t-121 -30.5t-92.5 -65t-33.5 -104.5zM557 1450h121v-225h-121v225zM1061 1450h121v-225h-121v225z" />
    <glyph glyph-name="aring" unicode="&#xe5;" 
d="M1690 143v-143q-108 -31 -179 -31q-65 0 -106.5 16.5t-62 51.5t-27.5 74.5t-8 101.5q-80 -105 -254 -174.5t-367 -69.5q-253 0 -405 98.5t-152 278.5q0 65 22.5 118t63.5 88.5t93 60.5t117 39t128 20t133 6q304 0 612 -49q0 70 -28 126.5t-88.5 102t-166 70t-249.5 24.5
q-161 0 -301.5 -23t-196.5 -44l-53 143q65 25 221.5 51.5t329.5 26.5q151 0 270 -24.5t199 -68.5t132 -107.5t74.5 -137t22.5 -162.5v-330q0 -83 23.5 -119t89.5 -36q49 0 113 22zM295 356q0 -120 115.5 -182.5t302.5 -62.5q128 0 252 34.5t214 95t121 132.5v192h-622
q-74 0 -136 -9t-121 -30.5t-92.5 -65t-33.5 -104.5zM592 1348q0 90 58 143t177 53q118 0 176 -53.5t58 -142.5q0 -91 -58 -147t-176 -56q-119 0 -177 55.5t-58 147.5zM664 1348q0 -59 40 -95t123 -36q81 0 121.5 36t40.5 95q0 57 -40.5 91t-121.5 34q-84 0 -123.5 -34
t-39.5 -91z" />
    <glyph glyph-name="ae" unicode="&#xe6;" horiz-adv-x="2811" 
d="M666 -31q-242 0 -389.5 99t-147.5 280q0 77 32.5 137.5t84.5 97t124.5 60t144 32.5t151.5 9q151 0 317 -32t295 -87q4 131 -45 215t-166.5 128t-310.5 44q-161 0 -295.5 -22.5t-192.5 -44.5l-53 143q67 25 218 51.5t325 26.5q502 0 614 -295q68 138 219.5 216.5
t388.5 78.5q177 0 320 -41t241 -123t128.5 -204t-17.5 -283h-1198q24 -165 171.5 -248.5t438.5 -83.5q182 0 340.5 26t231.5 50l33 -144q-77 -29 -241 -57.5t-360 -28.5q-624 0 -745 355q-89 -172 -260 -263.5t-397 -91.5zM295 358q0 -121 110.5 -184t286.5 -63
q156 0 288.5 46.5t213.5 132.5t86 193q-80 39 -293 63.5t-330 24.5q-67 0 -126 -10t-114.5 -32.5t-88.5 -66t-33 -104.5zM1450 567h1040q26 97 -2.5 173t-101 122.5t-174 70t-225.5 23.5q-268 0 -399.5 -104.5t-137.5 -284.5z" />
    <glyph glyph-name="ccedilla" unicode="&#xe7;" horiz-adv-x="1601" 
d="M668 -487l49 90q47 -6 108.5 -4t116.5 8.5t94 30.5t41 61q4 50 -67.5 79t-173.5 27q-10 2 -19 13t-8 24l70 129q-203 6 -356.5 50.5t-247.5 120.5t-140.5 175.5t-46.5 221.5q0 101 31 186t97 156t165 120.5t241 77t318 27.5q197 0 348 -27.5t232 -58.5l-33 -143
q-67 25 -216.5 51t-330.5 26q-183 0 -317.5 -30.5t-214 -87t-117 -130t-37.5 -167.5q0 -93 37.5 -167t117 -130.5t214 -87.5t317.5 -31q126 0 251 16t188.5 31t107.5 29l33 -144q-80 -30 -228 -57.5t-342 -28.5l-57 -106q69 4 138.5 -13t117 -58.5t41.5 -96.5
q-4 -42 -29 -75t-60 -52.5t-85 -32.5t-94 -18.5t-98.5 -6.5t-86.5 0t-69 3z" />
    <glyph glyph-name="egrave" unicode="&#xe8;" horiz-adv-x="1660" 
d="M1503 455h-1239q57 -332 629 -332q185 0 354.5 26.5t239.5 49.5l33 -144q-75 -28 -249.5 -57t-371.5 -29q-404 0 -607.5 143.5t-203.5 417.5q0 120 45 223t132 182.5t226 125t316 45.5q178 0 324.5 -40.5t249 -122t136.5 -203.5t-14 -285zM262 582h1081q23 94 -9.5 167
t-108.5 117.5t-180 67t-230 22.5q-138 0 -242 -28t-169 -79.5t-99.5 -118t-42.5 -148.5zM516 1542l674 -268l-29 -82l-690 227z" />
    <glyph glyph-name="eacute" unicode="&#xe9;" horiz-adv-x="1660" 
d="M471 1274l674 268l45 -123l-690 -227zM1503 455h-1239q57 -332 629 -332q185 0 354.5 26.5t239.5 49.5l33 -144q-75 -28 -249.5 -57t-371.5 -29q-404 0 -607.5 143.5t-203.5 417.5q0 120 45 223t132 182.5t226 125t316 45.5q178 0 324.5 -40.5t249 -122t136.5 -203.5
t-14 -285zM262 582h1081q23 94 -9.5 167t-108.5 117.5t-180 67t-230 22.5q-138 0 -242 -28t-169 -79.5t-99.5 -118t-42.5 -148.5z" />
    <glyph glyph-name="ecircumflex" unicode="&#xea;" horiz-adv-x="1660" 
d="M1249 1176l-420 219l-417 -219l-37 79l454 271l457 -271zM1503 455h-1239q57 -332 629 -332q185 0 354.5 26.5t239.5 49.5l33 -144q-75 -28 -249.5 -57t-371.5 -29q-404 0 -607.5 143.5t-203.5 417.5q0 120 45 223t132 182.5t226 125t316 45.5q178 0 324.5 -40.5
t249 -122t136.5 -203.5t-14 -285zM262 582h1081q23 94 -9.5 167t-108.5 117.5t-180 67t-230 22.5q-138 0 -242 -28t-169 -79.5t-99.5 -118t-42.5 -148.5z" />
    <glyph glyph-name="edieresis" unicode="&#xeb;" horiz-adv-x="1660" 
d="M518 1450h121v-225h-121v225zM1022 1450h121v-225h-121v225zM1503 455h-1239q57 -332 629 -332q185 0 354.5 26.5t239.5 49.5l33 -144q-75 -28 -249.5 -57t-371.5 -29q-404 0 -607.5 143.5t-203.5 417.5q0 120 45 223t132 182.5t226 125t316 45.5q178 0 324.5 -40.5
t249 -122t136.5 -203.5t-14 -285zM262 582h1081q23 94 -9.5 167t-108.5 117.5t-180 67t-230 22.5q-138 0 -242 -28t-169 -79.5t-99.5 -118t-42.5 -148.5z" />
    <glyph glyph-name="igrave" unicode="&#xec;" horiz-adv-x="501" 
d="M334 0h-164v1073l164 19v-1092zM-221 1542l674 -268l-29 -82l-690 227z" />
    <glyph glyph-name="iacute" unicode="&#xed;" horiz-adv-x="501" 
d="M57 1274l674 268l45 -123l-690 -227zM334 0h-164v1073l164 19v-1092z" />
    <glyph glyph-name="icircumflex" unicode="&#xee;" horiz-adv-x="501" 
d="M672 1176l-420 219l-418 -219l-37 79l455 271l457 -271zM334 0h-164v1073l164 19v-1092z" />
    <glyph glyph-name="idieresis" unicode="&#xef;" horiz-adv-x="501" 
d="M-59 1450h120v-225h-120v225zM444 1450h121v-225h-121v225zM334 0h-164v1073l164 19v-1092z" />
    <glyph glyph-name="eth" unicode="&#xf0;" horiz-adv-x="1742" 
d="M1214 1030l-38 39l106 105q-158 128 -434 135q-110 5 -268 -13l-35 152q151 14 252 14q381 0 594 -178l165 166l41 -39l-163 -164q202 -199 202 -575q0 -162 -42 -288.5t-130 -220.5t-233 -144t-342 -50q-360 0 -570 151t-210 410q0 125 53.5 228t146 169t213 102
t256.5 36q149 0 296 -46.5t260 -140t141 -212.5q11 309 -150 473zM274 528q0 -186 161 -295.5t439 -109.5q147 0 261.5 34t181.5 91t101 126t34 146q0 68 -29 127.5t-78 102.5t-112 77t-134.5 54t-141.5 30.5t-136 10.5q-154 0 -277 -46t-196.5 -136.5t-73.5 -211.5z" />
    <glyph glyph-name="ntilde" unicode="&#xf1;" horiz-adv-x="1695" 
d="M1569 0h-164v545q0 90 -27.5 162.5t-86 129t-159 87t-237.5 30.5q-252 0 -602 -116v-838h-164v1073l158 19l4 -117l2 -2q321 133 618 133q169 0 297.5 -42t206 -118.5t116 -177t38.5 -223.5v-545zM1192 1450l63 -66q-150 -155 -270 -155q-50 0 -103.5 24.5t-101 49
t-82.5 24.5q-94 0 -196 -102l-64 65q145 152 260 152q47 0 98.5 -25t100 -49.5t88.5 -24.5q100 0 207 107z" />
    <glyph glyph-name="ograve" unicode="&#xf2;" horiz-adv-x="1648" 
d="M88 539q0 254 194.5 410.5t542.5 156.5t543 -156.5t195 -410.5t-195 -412t-543 -158t-542.5 158t-194.5 412zM254 539q0 -186 149.5 -301t421.5 -115t421 115t149 301q0 187 -148.5 301t-421.5 114t-422 -114t-149 -301zM510 1542l674 -268l-29 -82l-690 227z" />
    <glyph glyph-name="oacute" unicode="&#xf3;" horiz-adv-x="1648" 
d="M465 1274l674 268l45 -123l-690 -227zM88 539q0 254 194.5 410.5t542.5 156.5t543 -156.5t195 -410.5t-195 -412t-543 -158t-542.5 158t-194.5 412zM254 539q0 -186 149.5 -301t421.5 -115t421 115t149 301q0 187 -148.5 301t-421.5 114t-422 -114t-149 -301z" />
    <glyph glyph-name="ocircumflex" unicode="&#xf4;" horiz-adv-x="1648" 
d="M1243 1176l-420 219l-417 -219l-37 79l454 271l457 -271zM88 539q0 254 194.5 410.5t542.5 156.5t543 -156.5t195 -410.5t-195 -412t-543 -158t-542.5 158t-194.5 412zM254 539q0 -186 149.5 -301t421.5 -115t421 115t149 301q0 187 -148.5 301t-421.5 114t-422 -114
t-149 -301z" />
    <glyph glyph-name="otilde" unicode="&#xf5;" horiz-adv-x="1648" 
d="M88 539q0 254 194.5 410.5t542.5 156.5t543 -156.5t195 -410.5t-195 -412t-543 -158t-542.5 158t-194.5 412zM254 539q0 -186 149.5 -301t421.5 -115t421 115t149 301q0 187 -148.5 301t-421.5 114t-422 -114t-149 -301zM1169 1450l64 -66q-150 -155 -270 -155
q-50 0 -103.5 24.5t-101 49t-82.5 24.5q-95 0 -197 -102l-63 65q145 152 260 152q47 0 98.5 -25t100 -49.5t88.5 -24.5q99 0 206 107z" />
    <glyph glyph-name="odieresis" unicode="&#xf6;" horiz-adv-x="1648" 
d="M512 1450h121v-225h-121v225zM1016 1450h121v-225h-121v225zM88 539q0 254 194.5 410.5t542.5 156.5t543 -156.5t195 -410.5t-195 -412t-543 -158t-542.5 158t-194.5 412zM254 539q0 -186 149.5 -301t421.5 -115t421 115t149 301q0 187 -148.5 301t-421.5 114t-422 -114
t-149 -301z" />
    <glyph glyph-name="divide" unicode="&#xf7;" horiz-adv-x="1433" 
d="M774 1044v-210h-112v210h112zM211 594h1014v-113h-1014v113zM774 242v-211h-112v211h112z" />
    <glyph glyph-name="oslash" unicode="&#xf8;" horiz-adv-x="1648" 
d="M410 51l-99 -100l-65 67l80 78q-116 76 -177 190t-61 253q0 254 194.5 410.5t542.5 156.5q244 0 426 -84l109 108l65 -65l-92 -92q112 -75 171 -186.5t59 -247.5q0 -254 -195 -412t-543 -158q-243 0 -415 82zM254 539q0 -213 186 -328l686 686q-123 57 -301 57
q-273 0 -422 -114t-149 -301zM1395 539q0 208 -176 319l-684 -684q121 -51 290 -51q272 0 421 115t149 301z" />
    <glyph glyph-name="ugrave" unicode="&#xf9;" horiz-adv-x="1695" 
d="M129 530v545h164v-543q0 -190 120.5 -299.5t381.5 -109.5q188 0 345 64.5t265 166.5v721h164v-1075h-146l-10 201l-2 2q-284 -234 -655 -234q-129 0 -233.5 27.5t-177.5 77t-122 120t-71.5 154.5t-22.5 182zM532 1542l674 -268l-28 -82l-691 227z" />
    <glyph glyph-name="uacute" unicode="&#xfa;" horiz-adv-x="1695" 
d="M489 1274l674 268l45 -123l-690 -227zM129 530v545h164v-543q0 -190 120.5 -299.5t381.5 -109.5q188 0 345 64.5t265 166.5v721h164v-1075h-146l-10 201l-2 2q-284 -234 -655 -234q-129 0 -233.5 27.5t-177.5 77t-122 120t-71.5 154.5t-22.5 182z" />
    <glyph glyph-name="ucircumflex" unicode="&#xfb;" horiz-adv-x="1695" 
d="M1266 1176l-420 219l-418 -219l-37 79l455 271l457 -271zM129 530v545h164v-543q0 -190 120.5 -299.5t381.5 -109.5q188 0 345 64.5t265 166.5v721h164v-1075h-146l-10 201l-2 2q-284 -234 -655 -234q-129 0 -233.5 27.5t-177.5 77t-122 120t-71.5 154.5t-22.5 182z" />
    <glyph glyph-name="udieresis" unicode="&#xfc;" horiz-adv-x="1695" 
d="M535 1450h120v-225h-120v225zM1038 1450h121v-225h-121v225zM129 530v545h164v-543q0 -190 120.5 -299.5t381.5 -109.5q188 0 345 64.5t265 166.5v721h164v-1075h-146l-10 201l-2 2q-284 -234 -655 -234q-129 0 -233.5 27.5t-177.5 77t-122 120t-71.5 154.5t-22.5 182z
" />
    <glyph glyph-name="yacute" unicode="&#xfd;" horiz-adv-x="1644" 
d="M748 -12l-701 1087h193l348 -563l239 -375l580 938h192l-720 -1155q-112 -176 -230 -246.5t-268 -70.5q-103 0 -281 35v129q9 -2 59 -11t72 -12.5t60.5 -7.5t68.5 -4q114 0 202.5 50.5t160.5 162.5zM463 1274l674 268l45 -123l-690 -227z" />
    <glyph glyph-name="thorn" unicode="&#xfe;" horiz-adv-x="1716" 
d="M293 215l-2 -2l2 -240v-362h-164v1835l164 18v-362l-2 -129l2 -2q130 61 302 98t335 37q173 0 307.5 -42t219.5 -118t129 -178t44 -225q0 -257 -177.5 -415.5t-491.5 -158.5q-211 0 -382.5 70.5t-285.5 175.5zM915 954q-148 0 -319 -33t-303 -83v-469q83 -100 265 -173
t386 -73q249 0 383.5 115t134.5 303t-137 300.5t-410 112.5z" />
    <glyph glyph-name="ydieresis" unicode="&#xff;" horiz-adv-x="1644" 
d="M748 -12l-701 1087h193l348 -563l239 -375l580 938h192l-720 -1155q-112 -176 -230 -246.5t-268 -70.5q-103 0 -281 35v129q9 -2 59 -11t72 -12.5t60.5 -7.5t68.5 -4q114 0 202.5 50.5t160.5 162.5zM510 1450h121v-225h-121v225zM1014 1450h121v-225h-121v225z" />
    <glyph glyph-name="Amacron" unicode="&#x100;" horiz-adv-x="2007" 
d="M1098 1434l903 -1434h-189l-229 354h-1161l-227 -354h-189l903 1434h189zM1004 1290l-420 -676l-74 -106h985l-72 106zM639 1759h727v-110h-727v110z" />
    <glyph glyph-name="amacron" unicode="&#x101;" 
d="M1690 143v-143q-108 -31 -179 -31q-65 0 -106.5 16.5t-62 51.5t-27.5 74.5t-8 101.5q-80 -105 -254 -174.5t-367 -69.5q-253 0 -405 98.5t-152 278.5q0 65 22.5 118t63.5 88.5t93 60.5t117 39t128 20t133 6q304 0 612 -49q0 70 -28 126.5t-88.5 102t-166 70t-249.5 24.5
q-161 0 -301.5 -23t-196.5 -44l-53 143q65 25 221.5 51.5t329.5 26.5q151 0 270 -24.5t199 -68.5t132 -107.5t74.5 -137t22.5 -162.5v-330q0 -83 23.5 -119t89.5 -36q49 0 113 22zM295 356q0 -120 115.5 -182.5t302.5 -62.5q128 0 252 34.5t214 95t121 132.5v192h-622
q-74 0 -136 -9t-121 -30.5t-92.5 -65t-33.5 -104.5zM506 1401h727v-111h-727v111z" />
    <glyph glyph-name="Abreve" unicode="&#x102;" horiz-adv-x="2007" 
d="M1098 1434l903 -1434h-189l-229 354h-1161l-227 -354h-189l903 1434h189zM1004 1290l-420 -676l-74 -106h985l-72 106zM1272 1825l82 -56q-49 -93 -141.5 -151.5t-208.5 -58.5t-209 58.5t-142 151.5l80 56q37 -67 109.5 -110.5t161.5 -43.5q88 0 159.5 43.5t108.5 110.5z
" />
    <glyph glyph-name="abreve" unicode="&#x103;" 
d="M1690 143v-143q-108 -31 -179 -31q-65 0 -106.5 16.5t-62 51.5t-27.5 74.5t-8 101.5q-80 -105 -254 -174.5t-367 -69.5q-253 0 -405 98.5t-152 278.5q0 65 22.5 118t63.5 88.5t93 60.5t117 39t128 20t133 6q304 0 612 -49q0 70 -28 126.5t-88.5 102t-166 70t-249.5 24.5
q-161 0 -301.5 -23t-196.5 -44l-53 143q65 25 221.5 51.5t329.5 26.5q151 0 270 -24.5t199 -68.5t132 -107.5t74.5 -137t22.5 -162.5v-330q0 -83 23.5 -119t89.5 -36q49 0 113 22zM295 356q0 -120 115.5 -182.5t302.5 -62.5q128 0 252 34.5t214 95t121 132.5v192h-622
q-74 0 -136 -9t-121 -30.5t-92.5 -65t-33.5 -104.5zM1094 1466l82 -55q-49 -93 -142 -152t-209 -59t-208 58.5t-142 152.5l80 55q37 -67 109 -110t161 -43q88 0 160 43t109 110z" />
    <glyph glyph-name="Aogonek" unicode="&#x104;" horiz-adv-x="2007" 
d="M1098 1434l903 -1434q-57 -37 -103.5 -102t-46.5 -123q0 -99 136 -127l-7 -97q-103 10 -163 63.5t-60 127.5q0 65 48.5 135.5t131.5 122.5h-125l-229 354h-1161l-227 -354h-189l903 1434h189zM1004 1290l-420 -676l-74 -106h985l-72 106z" />
    <glyph glyph-name="aogonek" unicode="&#x105;" 
d="M1690 143v-143q-57 -37 -103.5 -102t-46.5 -123q0 -99 135 -127l-6 -97q-103 10 -163 63.5t-60 127.5q0 57 39 120.5t106 114.5q-39 -8 -80 -8q-65 0 -106.5 16.5t-62 51.5t-27.5 74.5t-8 101.5q-80 -105 -254 -174.5t-367 -69.5q-253 0 -405 98.5t-152 278.5
q0 65 22.5 118t63.5 88.5t93 60.5t117 39t128 20t133 6q304 0 612 -49q0 70 -28 126.5t-88.5 102t-166 70t-249.5 24.5q-161 0 -301.5 -23t-196.5 -44l-53 143q65 25 221.5 51.5t329.5 26.5q151 0 270 -24.5t199 -68.5t132 -107.5t74.5 -137t22.5 -162.5v-330
q0 -83 23.5 -119t89.5 -36q49 0 113 22zM295 356q0 -120 115.5 -182.5t302.5 -62.5q128 0 252 34.5t214 95t121 132.5v192h-622q-74 0 -136 -9t-121 -30.5t-92.5 -65t-33.5 -104.5z" />
    <glyph glyph-name="Cacute" unicode="&#x106;" horiz-adv-x="1980" 
d="M1855 231l39 -147q-341 -115 -729 -115q-219 0 -395.5 37t-298.5 103.5t-204 160.5t-120 205.5t-38 241.5t38 241.5t120 205.5t204 160t298.5 103t395.5 37q391 0 729 -114l-39 -148q-356 109 -690 109q-187 0 -336.5 -29t-252.5 -81.5t-171.5 -127t-99.5 -163
t-31 -193.5t31 -193.5t99.5 -163t171.5 -127t252.5 -81.5t336.5 -29q337 0 690 108zM674 1632l674 269l45 -123l-691 -228z" />
    <glyph glyph-name="cacute" unicode="&#x107;" horiz-adv-x="1601" 
d="M530 1274l674 268l45 -123l-690 -227zM1487 199l33 -144q-81 -31 -232 -58.5t-348 -27.5q-219 0 -384.5 42t-266.5 119.5t-151 180t-50 228.5q0 101 31 186t97 156t165 120.5t241 77t318 27.5q197 0 348 -27.5t232 -58.5l-33 -143q-67 25 -216.5 51t-330.5 26
q-183 0 -317.5 -30.5t-214 -87t-117 -130t-37.5 -167.5q0 -93 37.5 -167t117 -130.5t214 -87.5t317.5 -31q126 0 251 16t188.5 31t107.5 29z" />
    <glyph glyph-name="Ccircumflex" unicode="&#x108;" horiz-adv-x="1980" 
d="M1855 231l39 -147q-341 -115 -729 -115q-219 0 -395.5 37t-298.5 103.5t-204 160.5t-120 205.5t-38 241.5t38 241.5t120 205.5t204 160t298.5 103t395.5 37q391 0 729 -114l-39 -148q-356 109 -690 109q-187 0 -336.5 -29t-252.5 -81.5t-171.5 -127t-99.5 -163
t-31 -193.5t31 -193.5t99.5 -163t171.5 -127t252.5 -81.5t336.5 -29q337 0 690 108zM1538 1534l-420 219l-418 -219l-36 80l454 270l457 -270z" />
    <glyph glyph-name="ccircumflex" unicode="&#x109;" horiz-adv-x="1601" 
d="M1331 1176l-420 219l-417 -219l-37 79l454 271l457 -271zM1487 199l33 -144q-81 -31 -232 -58.5t-348 -27.5q-219 0 -384.5 42t-266.5 119.5t-151 180t-50 228.5q0 101 31 186t97 156t165 120.5t241 77t318 27.5q197 0 348 -27.5t232 -58.5l-33 -143q-67 25 -216.5 51
t-330.5 26q-183 0 -317.5 -30.5t-214 -87t-117 -130t-37.5 -167.5q0 -93 37.5 -167t117 -130.5t214 -87.5t317.5 -31q126 0 251 16t188.5 31t107.5 29z" />
    <glyph glyph-name="Cdotaccent" unicode="&#x10a;" horiz-adv-x="1980" 
d="M1053 1808h121v-225h-121v225zM1855 231l39 -147q-341 -115 -729 -115q-219 0 -395.5 37t-298.5 103.5t-204 160.5t-120 205.5t-38 241.5t38 241.5t120 205.5t204 160t298.5 103t395.5 37q391 0 729 -114l-39 -148q-356 109 -690 109q-187 0 -336.5 -29t-252.5 -81.5
t-171.5 -127t-99.5 -163t-31 -193.5t31 -193.5t99.5 -163t171.5 -127t252.5 -81.5t336.5 -29q337 0 690 108z" />
    <glyph glyph-name="cdotaccent" unicode="&#x10b;" horiz-adv-x="1601" 
d="M1487 199l33 -144q-81 -31 -232 -58.5t-348 -27.5q-219 0 -384.5 42t-266.5 119.5t-151 180t-50 228.5q0 101 31 186t97 156t165 120.5t241 77t318 27.5q197 0 348 -27.5t232 -58.5l-33 -143q-67 25 -216.5 51t-330.5 26q-183 0 -317.5 -30.5t-214 -87t-117 -130
t-37.5 -167.5q0 -93 37.5 -167t117 -130.5t214 -87.5t317.5 -31q126 0 251 16t188.5 31t107.5 29zM838 1450h120v-225h-120v225z" />
    <glyph glyph-name="Ccaron" unicode="&#x10c;" horiz-adv-x="1980" 
d="M1855 231l39 -147q-341 -115 -729 -115q-219 0 -395.5 37t-298.5 103.5t-204 160.5t-120 205.5t-38 241.5t38 241.5t120 205.5t204 160t298.5 103t395.5 37q391 0 729 -114l-39 -148q-356 109 -690 109q-187 0 -336.5 -29t-252.5 -81.5t-171.5 -127t-99.5 -163
t-31 -193.5t31 -193.5t99.5 -163t171.5 -127t252.5 -81.5t336.5 -29q337 0 690 108zM1102 1661l420 219l37 -78l-457 -270l-455 270l37 78z" />
    <glyph glyph-name="ccaron" unicode="&#x10d;" horiz-adv-x="1601" 
d="M907 1303l420 219l37 -78l-457 -270l-454 270l36 78zM1487 199l33 -144q-81 -31 -232 -58.5t-348 -27.5q-219 0 -384.5 42t-266.5 119.5t-151 180t-50 228.5q0 101 31 186t97 156t165 120.5t241 77t318 27.5q197 0 348 -27.5t232 -58.5l-33 -143q-67 25 -216.5 51
t-330.5 26q-183 0 -317.5 -30.5t-214 -87t-117 -130t-37.5 -167.5q0 -93 37.5 -167t117 -130.5t214 -87.5t317.5 -31q126 0 251 16t188.5 31t107.5 29z" />
    <glyph glyph-name="Dcaron" unicode="&#x10e;" horiz-adv-x="2015" 
d="M956 1661l420 219l37 -78l-457 -270l-454 270l37 78zM852 0h-702v1434h702q274 0 478.5 -51.5t330 -147.5t187 -225.5t61.5 -292.5t-61.5 -292.5t-187 -225.5t-330 -147.5t-478.5 -51.5zM852 1280h-539v-1126h539q188 0 336 26t251.5 73.5t171.5 117.5t99 156t31 190
t-31 190t-99 156t-171.5 117.5t-251.5 73.5t-336 26z" />
    <glyph glyph-name="dcaron" unicode="&#x10f;" horiz-adv-x="1716" 
d="M1667 1434h156q32 -98 21.5 -242.5t-60.5 -269.5h-96q20 117 15.5 264.5t-36.5 247.5zM1427 973l-2 153v320l164 18v-1464h-145l-10 213l-2 2q-113 -104 -288.5 -175t-387.5 -71q-313 0 -490.5 159t-177.5 415q0 123 43.5 225t128 178t219 118t307.5 42q164 0 336 -37
t303 -98zM801 954q-273 0 -410 -112.5t-137 -300.5t135 -303t383 -115q205 0 387.5 73t265.5 173v469q-133 50 -304 83t-320 33z" />
    <glyph glyph-name="Dcroat" unicode="&#x110;" horiz-adv-x="2015" 
d="M852 0h-702v672h-150v92h150v670h702q274 0 478.5 -51.5t330 -147.5t187 -225.5t61.5 -292.5t-61.5 -292.5t-187 -225.5t-330 -147.5t-478.5 -51.5zM852 1280h-539v-516h539v-92h-539v-518h539q188 0 336 26t251.5 73.5t171.5 117.5t99 156t31 190t-31 190t-99 156
t-171.5 117.5t-251.5 73.5t-336 26z" />
    <glyph glyph-name="dcroat" unicode="&#x111;" horiz-adv-x="1716" 
d="M1589 1321h127v-92h-127v-1229h-145l-10 213l-2 2q-113 -104 -288.5 -175t-387.5 -71q-313 0 -490.5 159t-177.5 415q0 123 43.5 225t128 178t219 118t307.5 42q164 0 336 -37t303 -98l2 2l-2 153v103h-637v92h637v125l164 18v-143zM772 123q205 0 387.5 73t265.5 173
v469q-133 50 -304 83t-320 33q-273 0 -410 -112.5t-137 -300.5t135 -303t383 -115z" />
    <glyph glyph-name="Emacron" unicode="&#x112;" horiz-adv-x="1851" 
d="M563 1759h727v-110h-727v110zM1745 0h-1595v1434h1554v-154h-1391v-465h1268v-153h-1268v-508h1432v-154z" />
    <glyph glyph-name="emacron" unicode="&#x113;" horiz-adv-x="1660" 
d="M1503 455h-1239q57 -332 629 -332q185 0 354.5 26.5t239.5 49.5l33 -144q-75 -28 -249.5 -57t-371.5 -29q-404 0 -607.5 143.5t-203.5 417.5q0 120 45 223t132 182.5t226 125t316 45.5q178 0 324.5 -40.5t249 -122t136.5 -203.5t-14 -285zM262 582h1081q23 94 -9.5 167
t-108.5 117.5t-180 67t-230 22.5q-138 0 -242 -28t-169 -79.5t-99.5 -118t-42.5 -148.5zM467 1401h727v-111h-727v111z" />
    <glyph glyph-name="Ebreve" unicode="&#x114;" horiz-adv-x="1851" 
d="M1194 1825l82 -56q-49 -93 -141.5 -151.5t-208.5 -58.5t-209 58.5t-142 151.5l80 56q37 -67 109.5 -110.5t161.5 -43.5q88 0 159.5 43.5t108.5 110.5zM1745 0h-1595v1434h1554v-154h-1391v-465h1268v-153h-1268v-508h1432v-154z" />
    <glyph glyph-name="ebreve" unicode="&#x115;" horiz-adv-x="1660" 
d="M1503 455h-1239q57 -332 629 -332q185 0 354.5 26.5t239.5 49.5l33 -144q-75 -28 -249.5 -57t-371.5 -29q-404 0 -607.5 143.5t-203.5 417.5q0 120 45 223t132 182.5t226 125t316 45.5q178 0 324.5 -40.5t249 -122t136.5 -203.5t-14 -285zM262 582h1081q23 94 -9.5 167
t-108.5 117.5t-180 67t-230 22.5q-138 0 -242 -28t-169 -79.5t-99.5 -118t-42.5 -148.5zM1098 1466l82 -55q-49 -93 -142 -152t-209 -59t-208 58.5t-142 152.5l80 55q37 -67 109 -110t161 -43q88 0 160 43t109 110z" />
    <glyph glyph-name="Edotaccent" unicode="&#x116;" horiz-adv-x="1851" 
d="M864 1808h121v-225h-121v225zM1745 0h-1595v1434h1554v-154h-1391v-465h1268v-153h-1268v-508h1432v-154z" />
    <glyph glyph-name="edotaccent" unicode="&#x117;" horiz-adv-x="1660" 
d="M1503 455h-1239q57 -332 629 -332q185 0 354.5 26.5t239.5 49.5l33 -144q-75 -28 -249.5 -57t-371.5 -29q-404 0 -607.5 143.5t-203.5 417.5q0 120 45 223t132 182.5t226 125t316 45.5q178 0 324.5 -40.5t249 -122t136.5 -203.5t-14 -285zM262 582h1081q23 94 -9.5 167
t-108.5 117.5t-180 67t-230 22.5q-138 0 -242 -28t-169 -79.5t-99.5 -118t-42.5 -148.5zM770 1450h121v-225h-121v225z" />
    <glyph glyph-name="Eogonek" unicode="&#x118;" horiz-adv-x="1851" 
d="M1681 0h-1531v1434h1554v-154h-1391v-465h1268v-153h-1268v-508h1432v-154q-57 -37 -103.5 -102t-46.5 -123q0 -99 136 -127l-7 -97q-103 10 -163 63.5t-60 127.5q0 65 48.5 135.5t131.5 122.5z" />
    <glyph glyph-name="eogonek" unicode="&#x119;" horiz-adv-x="1660" 
d="M1503 455h-1239q57 -332 629 -332q185 0 354.5 26.5t239.5 49.5l33 -144q-57 -37 -103.5 -102t-46.5 -123q0 -99 135 -127l-6 -96q-103 10 -163 63t-60 127q0 56 37.5 117.5t101.5 110.5q-262 -56 -516 -56q-404 0 -607.5 143.5t-203.5 417.5q0 120 45 223t132 182.5
t226 125t316 45.5q178 0 324.5 -40.5t249 -122t136.5 -203.5t-14 -285zM262 582h1081q23 94 -9.5 167t-108.5 117.5t-180 67t-230 22.5q-138 0 -242 -28t-169 -79.5t-99.5 -118t-42.5 -148.5z" />
    <glyph glyph-name="Ecaron" unicode="&#x11a;" horiz-adv-x="1851" 
d="M924 1661l419 219l37 -78l-456 -270l-455 270l37 78zM1745 0h-1595v1434h1554v-154h-1391v-465h1268v-153h-1268v-508h1432v-154z" />
    <glyph glyph-name="ecaron" unicode="&#x11b;" horiz-adv-x="1660" 
d="M829 1303l420 219l37 -78l-457 -270l-454 270l37 78zM1503 455h-1239q57 -332 629 -332q185 0 354.5 26.5t239.5 49.5l33 -144q-75 -28 -249.5 -57t-371.5 -29q-404 0 -607.5 143.5t-203.5 417.5q0 120 45 223t132 182.5t226 125t316 45.5q178 0 324.5 -40.5t249 -122
t136.5 -203.5t-14 -285zM262 582h1081q23 94 -9.5 167t-108.5 117.5t-180 67t-230 22.5q-138 0 -242 -28t-169 -79.5t-99.5 -118t-42.5 -148.5z" />
    <glyph glyph-name="Gcircumflex" unicode="&#x11c;" horiz-adv-x="2185" 
d="M1894 643h-813v154h977v-123q0 -154 -51 -275.5t-138.5 -201t-213 -132t-267 -74.5t-307.5 -22q-236 0 -423 56.5t-306 158t-181 237t-62 296.5q0 130 38 241.5t120 205.5t204 160t298.5 103t395.5 37q133 0 255 -12t224.5 -35.5t144 -35t105.5 -31.5l-39 -146
q-350 107 -690 107q-187 0 -336.5 -29t-252.5 -81.5t-171.5 -127t-99.5 -163t-31 -193.5q0 -129 51.5 -237t150 -188t253.5 -124.5t352 -44.5q181 0 328.5 30.5t256.5 91t168.5 156.5t59.5 222v20zM1511 1534l-419 219l-418 -219l-37 80l455 270l456 -270z" />
    <glyph glyph-name="gcircumflex" unicode="&#x11d;" horiz-adv-x="1595" 
d="M1217 1176l-420 219l-418 -219l-37 79l455 271l456 -271zM133 696q0 99 51.5 177.5t141.5 129t210.5 77t260.5 26.5q103 0 229 -21q88 28 232 51t284 23l8 -102q-75 0 -201.5 -8.5t-166.5 -18.5q130 -46 204 -131t74 -203q0 -99 -49 -173t-139.5 -118.5t-209 -66
t-265.5 -21.5q-205 0 -344 41q-56 -47 -96.5 -130.5t-30.5 -137.5q116 45 326 83t399 38q105 0 190.5 -13.5t156 -43t109.5 -83.5t39 -128q0 -65 -31 -118t-80 -88.5t-118.5 -62t-136.5 -41t-144.5 -23t-132 -11t-108.5 -2.5q-268 0 -456 28t-278 58l33 143
q54 -14 127 -28.5t247 -32t359 -17.5q87 0 170 7.5t175.5 26t149 58.5t56.5 97q0 147 -426 147q-164 0 -349.5 -25.5t-311.5 -60.5q-38 2 -69 30.5t-34 75.5q5 71 52.5 149.5t126.5 131.5q-111 44 -172.5 122t-61.5 189zM301 696q0 -82 66 -137.5t174.5 -79.5t255.5 -24
t256 24t175 79.5t66 137.5t-67 141t-177.5 87t-252.5 28t-252.5 -28t-177 -87t-66.5 -141z" />
    <glyph glyph-name="Gbreve" unicode="&#x11e;" horiz-adv-x="2185" 
d="M1362 1825l82 -56q-49 -93 -141.5 -151.5t-208.5 -58.5t-209 58.5t-142 151.5l80 56q37 -67 109.5 -110.5t161.5 -43.5q88 0 159.5 43.5t108.5 110.5zM1894 643h-813v154h977v-123q0 -154 -51 -275.5t-138.5 -201t-213 -132t-267 -74.5t-307.5 -22q-236 0 -423 56.5
t-306 158t-181 237t-62 296.5q0 130 38 241.5t120 205.5t204 160t298.5 103t395.5 37q133 0 255 -12t224.5 -35.5t144 -35t105.5 -31.5l-39 -146q-350 107 -690 107q-187 0 -336.5 -29t-252.5 -81.5t-171.5 -127t-99.5 -163t-31 -193.5q0 -129 51.5 -237t150 -188
t253.5 -124.5t352 -44.5q181 0 328.5 30.5t256.5 91t168.5 156.5t59.5 222v20z" />
    <glyph glyph-name="gbreve" unicode="&#x11f;" horiz-adv-x="1595" 
d="M133 696q0 99 51.5 177.5t141.5 129t210.5 77t260.5 26.5q103 0 229 -21q88 28 232 51t284 23l8 -102q-75 0 -201.5 -8.5t-166.5 -18.5q130 -46 204 -131t74 -203q0 -99 -49 -173t-139.5 -118.5t-209 -66t-265.5 -21.5q-205 0 -344 41q-56 -47 -96.5 -130.5t-30.5 -137.5
q116 45 326 83t399 38q105 0 190.5 -13.5t156 -43t109.5 -83.5t39 -128q0 -65 -31 -118t-80 -88.5t-118.5 -62t-136.5 -41t-144.5 -23t-132 -11t-108.5 -2.5q-268 0 -456 28t-278 58l33 143q54 -14 127 -28.5t247 -32t359 -17.5q87 0 170 7.5t175.5 26t149 58.5t56.5 97
q0 147 -426 147q-164 0 -349.5 -25.5t-311.5 -60.5q-38 2 -69 30.5t-34 75.5q5 71 52.5 149.5t126.5 131.5q-111 44 -172.5 122t-61.5 189zM301 696q0 -82 66 -137.5t174.5 -79.5t255.5 -24t256 24t175 79.5t66 137.5t-67 141t-177.5 87t-252.5 28t-252.5 -28t-177 -87
t-66.5 -141zM1067 1466l82 -55q-50 -94 -142 -152.5t-208 -58.5t-208 58.5t-142 152.5l79 55q37 -67 109.5 -110t161.5 -43q88 0 159.5 43t108.5 110z" />
    <glyph glyph-name="Gdotaccent" unicode="&#x120;" horiz-adv-x="2185" 
d="M1032 1808h121v-225h-121v225zM1894 643h-813v154h977v-123q0 -154 -51 -275.5t-138.5 -201t-213 -132t-267 -74.5t-307.5 -22q-236 0 -423 56.5t-306 158t-181 237t-62 296.5q0 130 38 241.5t120 205.5t204 160t298.5 103t395.5 37q133 0 255 -12t224.5 -35.5t144 -35
t105.5 -31.5l-39 -146q-350 107 -690 107q-187 0 -336.5 -29t-252.5 -81.5t-171.5 -127t-99.5 -163t-31 -193.5q0 -129 51.5 -237t150 -188t253.5 -124.5t352 -44.5q181 0 328.5 30.5t256.5 91t168.5 156.5t59.5 222v20z" />
    <glyph glyph-name="gdotaccent" unicode="&#x121;" horiz-adv-x="1595" 
d="M133 696q0 99 51.5 177.5t141.5 129t210.5 77t260.5 26.5q103 0 229 -21q88 28 232 51t284 23l8 -102q-75 0 -201.5 -8.5t-166.5 -18.5q130 -46 204 -131t74 -203q0 -99 -49 -173t-139.5 -118.5t-209 -66t-265.5 -21.5q-205 0 -344 41q-56 -47 -96.5 -130.5t-30.5 -137.5
q116 45 326 83t399 38q105 0 190.5 -13.5t156 -43t109.5 -83.5t39 -128q0 -65 -31 -118t-80 -88.5t-118.5 -62t-136.5 -41t-144.5 -23t-132 -11t-108.5 -2.5q-268 0 -456 28t-278 58l33 143q54 -14 127 -28.5t247 -32t359 -17.5q87 0 170 7.5t175.5 26t149 58.5t56.5 97
q0 147 -426 147q-164 0 -349.5 -25.5t-311.5 -60.5q-38 2 -69 30.5t-34 75.5q5 71 52.5 149.5t126.5 131.5q-111 44 -172.5 122t-61.5 189zM301 696q0 -82 66 -137.5t174.5 -79.5t255.5 -24t256 24t175 79.5t66 137.5t-67 141t-177.5 87t-252.5 28t-252.5 -28t-177 -87
t-66.5 -141zM737 1450h121v-225h-121v225z" />
    <glyph glyph-name="Gcommaaccent" unicode="&#x122;" horiz-adv-x="2185" 
d="M1894 643h-813v154h977v-123q0 -154 -51 -275.5t-138.5 -201t-213 -132t-267 -74.5t-307.5 -22q-236 0 -423 56.5t-306 158t-181 237t-62 296.5q0 130 38 241.5t120 205.5t204 160t298.5 103t395.5 37q133 0 255 -12t224.5 -35.5t144 -35t105.5 -31.5l-39 -146
q-350 107 -690 107q-187 0 -336.5 -29t-252.5 -81.5t-171.5 -127t-99.5 -163t-31 -193.5q0 -129 51.5 -237t150 -188t253.5 -124.5t352 -44.5q181 0 328.5 30.5t256.5 91t168.5 156.5t59.5 222v20zM1006 -139h116q39 -95 30 -221t-67 -240h-69q48 101 48 226t-58 235z" />
    <glyph glyph-name="gcommaaccent" unicode="&#x123;" horiz-adv-x="1595" 
d="M887 1268h-117q-40 94 -31 221t68 240h67q-30 -73 -41 -148.5t2 -157t52 -155.5zM133 696q0 99 51.5 177.5t141.5 129t210.5 77t260.5 26.5q103 0 229 -21q88 28 232 51t284 23l8 -102q-75 0 -201.5 -8.5t-166.5 -18.5q130 -46 204 -131t74 -203q0 -99 -49 -173
t-139.5 -118.5t-209 -66t-265.5 -21.5q-205 0 -344 41q-56 -47 -96.5 -130.5t-30.5 -137.5q116 45 326 83t399 38q105 0 190.5 -13.5t156 -43t109.5 -83.5t39 -128q0 -65 -31 -118t-80 -88.5t-118.5 -62t-136.5 -41t-144.5 -23t-132 -11t-108.5 -2.5q-268 0 -456 28t-278 58
l33 143q54 -14 127 -28.5t247 -32t359 -17.5q87 0 170 7.5t175.5 26t149 58.5t56.5 97q0 147 -426 147q-164 0 -349.5 -25.5t-311.5 -60.5q-38 2 -69 30.5t-34 75.5q5 71 52.5 149.5t126.5 131.5q-111 44 -172.5 122t-61.5 189zM301 696q0 -82 66 -137.5t174.5 -79.5
t255.5 -24t256 24t175 79.5t66 137.5t-67 141t-177.5 87t-252.5 28t-252.5 -28t-177 -87t-66.5 -141z" />
    <glyph glyph-name="Hcircumflex" unicode="&#x124;" horiz-adv-x="1976" 
d="M1829 0h-164v662h-1352v-662h-163v1434h163v-619h1352v619h164v-1434zM1407 1534l-420 219l-418 -219l-37 80l455 270l457 -270z" />
    <glyph glyph-name="hcircumflex" unicode="&#x125;" horiz-adv-x="1695" 
d="M631 1466l-420 220l-418 -220l-37 80l455 271l457 -271zM1569 0h-164v545q0 90 -27.5 162.5t-86 129t-159 87t-237.5 30.5q-252 0 -602 -116v-838h-164v1446l164 18v-338l-2 -151l2 -2q321 133 618 133q169 0 297.5 -42t206 -118.5t116 -177t38.5 -223.5v-545z" />
    <glyph glyph-name="Hbar" unicode="&#x126;" horiz-adv-x="1976" 
d="M0 1077v92h150v265h163v-265h1352v265h164v-265h147v-92h-147v-1077h-164v662h-1352v-662h-163v1077h-150zM313 815h1352v262h-1352v-262z" />
    <glyph glyph-name="hbar" unicode="&#x127;" horiz-adv-x="1695" 
d="M1569 0h-164v545q0 90 -27.5 162.5t-86 129t-159 87t-237.5 30.5q-252 0 -602 -116v-838h-164v1229h-129v92h129v125l164 18v-143h622v-92h-622v-103l-2 -151l2 -2q321 133 618 133q169 0 297.5 -42t206 -118.5t116 -177t38.5 -223.5v-545z" />
    <glyph glyph-name="Itilde" unicode="&#x128;" horiz-adv-x="460" 
d="M150 0v1434h163v-1434h-163zM578 1808l63 -65q-150 -156 -270 -156q-39 0 -82 15.5t-73.5 34t-67 34t-64.5 15.5q-94 0 -197 -103l-63 66q144 151 260 151q47 0 98.5 -24.5t100 -49t88.5 -24.5q101 0 207 106z" />
    <glyph glyph-name="itilde" unicode="&#x129;" horiz-adv-x="501" 
d="M334 0h-164v1073l164 19v-1092zM598 1450l64 -66q-150 -155 -271 -155q-50 0 -103.5 24.5t-101 49t-82.5 24.5q-94 0 -196 -102l-64 65q145 152 260 152q47 0 98.5 -25t100 -49.5t88.5 -24.5q100 0 207 107z" />
    <glyph glyph-name="Imacron" unicode="&#x12a;" horiz-adv-x="460" 
d="M150 0v1434h163v-1434h-163zM-131 1759h727v-110h-727v110z" />
    <glyph glyph-name="imacron" unicode="&#x12b;" horiz-adv-x="501" 
d="M334 0h-164v1073l164 19v-1092zM-111 1401h727v-111h-727v111z" />
    <glyph glyph-name="Ibreve" unicode="&#x12c;" horiz-adv-x="460" 
d="M150 0v1434h163v-1434h-163zM500 1825l82 -56q-49 -93 -142 -151.5t-209 -58.5t-208.5 58.5t-141.5 151.5l80 56q37 -67 109 -110.5t161 -43.5q88 0 160 43.5t109 110.5z" />
    <glyph glyph-name="ibreve" unicode="&#x12d;" horiz-adv-x="501" 
d="M334 0h-164v1073l164 19v-1092zM520 1466l82 -55q-50 -94 -142 -152.5t-208 -58.5t-208 58.5t-142 152.5l80 55q37 -67 109 -110t161 -43q88 0 159.5 43t108.5 110z" />
    <glyph glyph-name="Iogonek" unicode="&#x12e;" horiz-adv-x="460" 
d="M313 1434v-1434q-57 -37 -103 -102t-46 -123q0 -99 135 -127l-6 -97q-103 10 -163 63.5t-60 127.5q0 65 48.5 135.5t131.5 122.5h-100v1434h163z" />
    <glyph glyph-name="iogonek" unicode="&#x12f;" horiz-adv-x="501" 
d="M334 1092v-1092q-57 -37 -103.5 -102t-46.5 -123q0 -99 135 -127l-6 -97q-103 10 -163 63.5t-60 127.5q0 65 48.5 135.5t131.5 122.5h-100v1073zM334 1204h-164v246h164v-246z" />
    <glyph glyph-name="Idotaccent" unicode="&#x130;" horiz-adv-x="460" 
d="M150 0v1434h163v-1434h-163zM172 1808h121v-225h-121v225z" />
    <glyph glyph-name="dotlessi" unicode="&#x131;" horiz-adv-x="501" 
d="M334 0h-164v1073l164 19v-1092z" />
    <glyph glyph-name="IJ" unicode="&#x132;" horiz-adv-x="2242" 
d="M150 0v1434h163v-1434h-163zM508 84l37 147q121 -35 204 -54.5t214.5 -36.5t273.5 -17q170 0 294.5 23t216 75t137.5 139.5t46 212.5v861h164v-861q0 -314 -214 -459t-650 -145q-94 0 -185 7t-154 16t-133.5 24.5t-104 24.5t-86 25t-60.5 18z" />
    <glyph glyph-name="ij" unicode="&#x133;" horiz-adv-x="1013" 
d="M334 0h-164v1073l164 19v-1092zM334 1204h-164v246h164v-246zM682 18v1055l164 19v-1074q0 -98 -18.5 -171t-49.5 -117.5t-79 -71.5t-100 -37t-120 -10v127q108 0 155.5 69t47.5 211zM846 1204h-164v246h164v-246z" />
    <glyph glyph-name="Jcircumflex" unicode="&#x134;" horiz-adv-x="1781" 
d="M47 84l37 147q121 -35 204 -54.5t214.5 -36.5t273.5 -17q170 0 294.5 23t216 75t137.5 139.5t46 212.5v861h164v-861q0 -314 -214 -459t-650 -145q-94 0 -185 7t-154 16t-133.5 24.5t-104 24.5t-86 25t-60.5 18zM1968 1534l-420 219l-418 -219l-36 80l454 270l457 -270z
" />
    <glyph glyph-name="jcircumflex" unicode="&#x135;" horiz-adv-x="512" 
d="M180 18v1055l164 19v-1074q0 -98 -18.5 -171t-49.5 -117.5t-79 -71.5t-100 -37t-120 -10v127q108 0 155.5 69t47.5 211zM676 1176l-420 219l-418 -219l-37 79l455 271l457 -271z" />
    <glyph glyph-name="Kcommaaccent" unicode="&#x136;" horiz-adv-x="1974" 
d="M1366 358l563 -358h-256l-1038 662h-322v-662h-163v1434h163v-619h324l999 619h246l-573 -359l-547 -338zM899 -164h117q39 -95 30 -221t-67 -240h-70q48 101 48 226t-58 235z" />
    <glyph glyph-name="kcommaaccent" unicode="&#x137;" horiz-adv-x="1693" 
d="M764 539l872 -539h-252l-770 473h-321v-473h-164v1446l164 18v-858h323l787 469h244zM758 -164h116q39 -95 30 -221.5t-66 -239.5h-70q48 101 48 226t-58 235z" />
    <glyph glyph-name="kgreenlandic" unicode="&#x138;" horiz-adv-x="1693" 
d="M1636 0h-252l-770 473h-321v-473h-164v1077l164 19v-490h323l787 469h244l-883 -536z" />
    <glyph glyph-name="Lacute" unicode="&#x139;" horiz-adv-x="1748" 
d="M121 1632l674 269l45 -123l-690 -228zM1642 0h-1492v1434h163v-1280h1329v-154z" />
    <glyph glyph-name="lacute" unicode="&#x13a;" horiz-adv-x="440" 
d="M102 1616l674 268l45 -123l-690 -227zM139 0v1446l164 18v-1464h-164z" />
    <glyph glyph-name="Lcommaaccent" unicode="&#x13b;" horiz-adv-x="1748" 
d="M1642 0h-1492v1434h163v-1280h1329v-154zM786 -164h117q39 -95 30 -221t-67 -240h-69q48 102 47.5 226.5t-58.5 234.5z" />
    <glyph glyph-name="lcommaaccent" unicode="&#x13c;" horiz-adv-x="440" 
d="M139 0v1446l164 18v-1464h-164zM156 -164h116q39 -95 30 -221.5t-66 -239.5h-70q48 101 48 226t-58 235z" />
    <glyph glyph-name="Lcaron" unicode="&#x13d;" horiz-adv-x="1748" 
d="M1430 1434h155q32 -98 21.5 -242.5t-60.5 -269.5h-96q20 117 16 265t-36 247zM1642 0h-1492v1434h163v-1280h1329v-154z" />
    <glyph glyph-name="lcaron" unicode="&#x13e;" horiz-adv-x="440" 
d="M410 1434h155q32 -98 21.5 -242.5t-60.5 -269.5h-96q20 117 16 265t-36 247zM139 0v1446l164 18v-1464h-164z" />
    <glyph glyph-name="Ldot" unicode="&#x13f;" horiz-adv-x="1748" 
d="M1642 0h-1492v1434h163v-1280h1329v-154zM922 895h120v-225h-120v225z" />
    <glyph glyph-name="ldot" unicode="&#x140;" horiz-adv-x="440" 
d="M139 0v1446l164 18v-1464h-164zM391 829h121v-225h-121v225z" />
    <glyph glyph-name="Lslash" unicode="&#x141;" horiz-adv-x="1748" 
d="M23 549l-48 80l175 100v705h163v-611l332 193l45 -82l-377 -219v-561h1329v-154h-1492v621z" />
    <glyph glyph-name="lslash" unicode="&#x142;" horiz-adv-x="440" 
d="M139 721v725l164 18v-649l119 68l45 -80l-164 -94v-709h-164v614l-116 -65l-48 80z" />
    <glyph glyph-name="Nacute" unicode="&#x143;" horiz-adv-x="2007" 
d="M643 1632l674 269l45 -123l-690 -228zM1696 408v1026h164v-1434h-164l-1387 1227l4 -189v-1038h-163v1434h161l1387 -1227z" />
    <glyph glyph-name="nacute" unicode="&#x144;" horiz-adv-x="1695" 
d="M489 1274l674 268l45 -123l-690 -227zM1569 0h-164v545q0 90 -27.5 162.5t-86 129t-159 87t-237.5 30.5q-252 0 -602 -116v-838h-164v1073l158 19l4 -117l2 -2q321 133 618 133q169 0 297.5 -42t206 -118.5t116 -177t38.5 -223.5v-545z" />
    <glyph glyph-name="Ncommaaccent" unicode="&#x145;" horiz-adv-x="2007" 
d="M1696 408v1026h164v-1434h-164l-1387 1227l4 -189v-1038h-163v1434h161l1387 -1227zM915 -164h117q39 -95 30 -221t-67 -240h-69q48 102 47.5 226.5t-58.5 234.5z" />
    <glyph glyph-name="ncommaaccent" unicode="&#x146;" horiz-adv-x="1695" 
d="M1569 0h-164v545q0 90 -27.5 162.5t-86 129t-159 87t-237.5 30.5q-252 0 -602 -116v-838h-164v1073l158 19l4 -117l2 -2q321 133 618 133q169 0 297.5 -42t206 -118.5t116 -177t38.5 -223.5v-545zM760 -164h117q39 -95 30 -221t-67 -240h-70q48 101 48 226t-58 235z" />
    <glyph glyph-name="Ncaron" unicode="&#x147;" horiz-adv-x="2007" 
d="M1001 1661l420 219l37 -78l-457 -270l-454 270l37 78zM1696 408v1026h164v-1434h-164l-1387 1227l4 -189v-1038h-163v1434h161l1387 -1227z" />
    <glyph glyph-name="ncaron" unicode="&#x148;" horiz-adv-x="1695" 
d="M846 1303l420 219l37 -78l-457 -270l-455 270l37 78zM1569 0h-164v545q0 90 -27.5 162.5t-86 129t-159 87t-237.5 30.5q-252 0 -602 -116v-838h-164v1073l158 19l4 -117l2 -2q321 133 618 133q169 0 297.5 -42t206 -118.5t116 -177t38.5 -223.5v-545z" />
    <glyph glyph-name="Eng" unicode="&#x14a;" horiz-adv-x="2007" 
d="M1696 408v1026h164v-1434q0 -93 -19 -162.5t-50.5 -112.5t-79.5 -69t-100 -35.5t-118 -9.5v127q104 0 152 65t51 197l-1387 1227l4 -189v-1038h-163v1434h161l1387 -1227z" />
    <glyph glyph-name="eng" unicode="&#x14b;" horiz-adv-x="1695" 
d="M1405 18v527q0 90 -27.5 162.5t-86 129t-159 87t-237.5 30.5q-252 0 -602 -116v-838h-164v1073l158 19l4 -117l2 -2q321 133 618 133q169 0 297.5 -42t206 -118.5t116 -177t38.5 -223.5v-527q0 -122 -26.5 -204.5t-78.5 -125.5t-113.5 -60t-146.5 -17v127q106 0 153.5 69
t47.5 211z" />
    <glyph glyph-name="Omacron" unicode="&#x14c;" horiz-adv-x="2140" 
d="M707 1759h727v-110h-727v110zM109 717q0 161 62 296.5t180.5 236.5t303 157.5t416.5 56.5t416.5 -56.5t303 -157.5t181 -236.5t62.5 -296.5t-62.5 -297t-181 -236.5t-303 -157.5t-416.5 -57t-416.5 57t-303 157.5t-180.5 236.5t-62 297zM274 717q0 -130 50.5 -237.5
t148 -187.5t250.5 -124.5t348 -44.5q194 0 347 44.5t250 124.5t147.5 187.5t50.5 237.5t-50.5 237.5t-147.5 187.5t-250 124.5t-347 44.5q-195 0 -348 -44.5t-250.5 -124.5t-148 -187.5t-50.5 -237.5z" />
    <glyph glyph-name="omacron" unicode="&#x14d;" horiz-adv-x="1648" 
d="M461 1401h727v-111h-727v111zM88 539q0 254 194.5 410.5t542.5 156.5t543 -156.5t195 -410.5t-195 -412t-543 -158t-542.5 158t-194.5 412zM254 539q0 -186 149.5 -301t421.5 -115t421 115t149 301q0 187 -148.5 301t-421.5 114t-422 -114t-149 -301z" />
    <glyph glyph-name="Obreve" unicode="&#x14e;" horiz-adv-x="2140" 
d="M1339 1825l82 -56q-49 -93 -141.5 -151.5t-208.5 -58.5t-208.5 58.5t-141.5 151.5l80 56q37 -67 109 -110.5t161 -43.5q88 0 159.5 43.5t108.5 110.5zM109 717q0 161 62 296.5t180.5 236.5t303 157.5t416.5 56.5t416.5 -56.5t303 -157.5t181 -236.5t62.5 -296.5
t-62.5 -297t-181 -236.5t-303 -157.5t-416.5 -57t-416.5 57t-303 157.5t-180.5 236.5t-62 297zM274 717q0 -130 50.5 -237.5t148 -187.5t250.5 -124.5t348 -44.5q194 0 347 44.5t250 124.5t147.5 187.5t50.5 237.5t-50.5 237.5t-147.5 187.5t-250 124.5t-347 44.5
q-195 0 -348 -44.5t-250.5 -124.5t-148 -187.5t-50.5 -237.5z" />
    <glyph glyph-name="obreve" unicode="&#x14f;" horiz-adv-x="1648" 
d="M88 539q0 254 194.5 410.5t542.5 156.5t543 -156.5t195 -410.5t-195 -412t-543 -158t-542.5 158t-194.5 412zM254 539q0 -186 149.5 -301t421.5 -115t421 115t149 301q0 187 -148.5 301t-421.5 114t-422 -114t-149 -301zM1094 1466l82 -55q-49 -93 -142 -152t-209 -59
t-208 58.5t-142 152.5l80 55q37 -67 109 -110t161 -43q88 0 160 43t109 110z" />
    <glyph glyph-name="Ohungarumlaut" unicode="&#x150;" horiz-adv-x="2140" 
d="M109 717q0 161 62 296.5t180.5 236.5t303 157.5t416.5 56.5t416.5 -56.5t303 -157.5t181 -236.5t62.5 -296.5t-62.5 -297t-181 -236.5t-303 -157.5t-416.5 -57t-416.5 57t-303 157.5t-180.5 236.5t-62 297zM274 717q0 -130 50.5 -237.5t148 -187.5t250.5 -124.5
t348 -44.5q194 0 347 44.5t250 124.5t147.5 187.5t50.5 237.5t-50.5 237.5t-147.5 187.5t-250 124.5t-347 44.5q-195 0 -348 -44.5t-250.5 -124.5t-148 -187.5t-50.5 -237.5zM688 1612l283 303l92 -94l-313 -271zM1075 1612l285 303l92 -94l-313 -271z" />
    <glyph glyph-name="ohungarumlaut" unicode="&#x151;" horiz-adv-x="1648" 
d="M444 1253l283 303l92 -94l-313 -270zM831 1253l285 303l92 -94l-313 -270zM88 539q0 254 194.5 410.5t542.5 156.5t543 -156.5t195 -410.5t-195 -412t-543 -158t-542.5 158t-194.5 412zM254 539q0 -186 149.5 -301t421.5 -115t421 115t149 301q0 187 -148.5 301
t-421.5 114t-422 -114t-149 -301z" />
    <glyph glyph-name="OE" unicode="&#x152;" horiz-adv-x="3377" 
d="M3367 0h-1595v197q-121 -108 -298.5 -168t-402.5 -60q-232 0 -416.5 57t-303 157.5t-180.5 236.5t-62 297t62 296.5t180.5 236.5t303 157.5t416.5 56.5q448 0 701 -229v199h1554v-154h-1391v-465h1268v-153h-1268v-508h1432v-154zM1071 123q257 0 434 74t267 209v620
q-91 135 -268.5 210t-432.5 75q-195 0 -348 -44.5t-250.5 -124.5t-148 -187.5t-50.5 -237.5t50.5 -237.5t148 -187.5t250.5 -124.5t348 -44.5z" />
    <glyph glyph-name="oe" unicode="&#x153;" horiz-adv-x="2887" 
d="M88 539q0 256 185.5 411.5t531.5 155.5q251 0 412 -88t221 -244q59 153 212.5 242.5t401.5 89.5q178 0 322 -40.5t242.5 -122t129.5 -203.5t-18 -285h-1198q25 -166 172.5 -249t437.5 -83q183 0 340 26t234 50l30 -144q-77 -29 -240.5 -57.5t-359.5 -28.5
q-583 0 -710 326q-62 -153 -221.5 -239.5t-407.5 -86.5q-174 0 -311.5 42.5t-225.5 119t-134 180t-46 228.5zM1354 539q0 189 -139.5 302t-409.5 113q-271 0 -411 -113t-140 -302q0 -188 140.5 -302t410.5 -114t409.5 114t139.5 302zM1526 567h1040q27 97 -1.5 173
t-101 122.5t-175 70t-228.5 23.5q-263 0 -395.5 -104.5t-138.5 -284.5z" />
    <glyph glyph-name="Racute" unicode="&#x154;" horiz-adv-x="1943" 
d="M150 0v1434h1136q120 0 216.5 -24.5t174 -76.5t120 -143.5t42.5 -216.5q0 -99 -29 -177.5t-79.5 -130.5t-122 -85.5t-152 -48t-174.5 -13.5h-133l749 -518h-258l-725 512h-602v-512h-163zM313 666h971q85 0 152.5 16t121.5 51t83.5 96t29.5 144q0 67 -19 119.5t-53 87.5
t-82.5 57.5t-104 32.5t-122.5 10h-977v-614zM612 1632l674 269l45 -123l-690 -228z" />
    <glyph glyph-name="racute" unicode="&#x155;" horiz-adv-x="1034" 
d="M158 1274l673 268l46 -123l-691 -227zM129 0v1073l158 19l4 -215l2 -3q139 128 295.5 185.5t367.5 44.5l-8 -160q-187 20 -358 -29.5t-297 -177.5v-737h-164z" />
    <glyph glyph-name="Rcommaaccent" unicode="&#x156;" horiz-adv-x="1943" 
d="M150 0v1434h1136q120 0 216.5 -24.5t174 -76.5t120 -143.5t42.5 -216.5q0 -99 -29 -177.5t-79.5 -130.5t-122 -85.5t-152 -48t-174.5 -13.5h-133l749 -518h-258l-725 512h-602v-512h-163zM313 666h971q85 0 152.5 16t121.5 51t83.5 96t29.5 144q0 67 -19 119.5t-53 87.5
t-82.5 57.5t-104 32.5t-122.5 10h-977v-614zM883 -164h116q39 -95 30 -221.5t-66 -239.5h-70q48 101 48 226t-58 235z" />
    <glyph glyph-name="rcommaaccent" unicode="&#x157;" horiz-adv-x="1034" 
d="M129 0v1073l158 19l4 -215l2 -3q139 128 295.5 185.5t367.5 44.5l-8 -160q-187 20 -358 -29.5t-297 -177.5v-737h-164zM145 -164h117q39 -95 30 -221t-67 -240h-69q48 102 47.5 226.5t-58.5 234.5z" />
    <glyph glyph-name="Rcaron" unicode="&#x158;" horiz-adv-x="1943" 
d="M971 1661l420 219l36 -78l-456 -270l-455 270l37 78zM150 0v1434h1136q120 0 216.5 -24.5t174 -76.5t120 -143.5t42.5 -216.5q0 -99 -29 -177.5t-79.5 -130.5t-122 -85.5t-152 -48t-174.5 -13.5h-133l749 -518h-258l-725 512h-602v-512h-163zM313 666h971q85 0 152.5 16
t121.5 51t83.5 96t29.5 144q0 67 -19 119.5t-53 87.5t-82.5 57.5t-104 32.5t-122.5 10h-977v-614z" />
    <glyph glyph-name="rcaron" unicode="&#x159;" horiz-adv-x="1034" 
d="M518 1303l420 219l37 -78l-457 -270l-455 270l37 78zM129 0v1073l158 19l4 -215l2 -3q139 128 295.5 185.5t367.5 44.5l-8 -160q-187 20 -358 -29.5t-297 -177.5v-737h-164z" />
    <glyph glyph-name="Sacute" unicode="&#x15a;" horiz-adv-x="1910" 
d="M963 -31q-435 0 -854 150l45 145q426 -141 837 -141q78 0 156.5 6.5t169.5 25.5t159.5 49t114 82.5t45.5 119.5q0 47 -20 81.5t-61 57t-92.5 37.5t-125 23.5t-148.5 14t-171 10.5q-17 1 -25 1q-112 5 -177.5 9.5t-166 17t-160.5 29t-131.5 46.5t-110.5 70t-66 99t-27 134
q0 88 34 158.5t95.5 116t135 77t165 47.5t172 22.5t168.5 6.5q185 0 393 -25.5t379 -66.5l-35 -151q-373 90 -764 90q-52 0 -103 -3t-121.5 -12t-129 -28t-111.5 -47t-83 -73.5t-30 -103.5q0 -33 9 -60.5t29.5 -49.5t43 -39.5t60.5 -31.5t70 -24t83 -17.5t88.5 -12.5
t98 -9.5t99.5 -6.5t104 -5q108 -5 174 -9t160.5 -15t152.5 -26.5t124.5 -43.5t103 -65.5t61 -92.5t24.5 -124q0 -75 -27.5 -137.5t-74.5 -107t-113.5 -80t-139.5 -57t-158.5 -36t-164.5 -20t-163 -5.5zM596 1632l674 269l45 -123l-690 -228z" />
    <glyph glyph-name="sacute" unicode="&#x15b;" horiz-adv-x="1638" 
d="M461 1274l674 268l45 -123l-691 -227zM88 59l33 152q208 -49 356.5 -68.5t315.5 -19.5q50 0 101 2t123.5 8.5t133 20t115.5 34t86.5 54t31.5 75.5q0 38 -20.5 66t-56.5 45t-86.5 28t-109 15.5t-126.5 6.5t-137 3h-29q-86 1 -146 3t-140 9.5t-135 20t-113 34.5t-93.5 52.5
t-58 76t-22.5 103.5q0 56 19 102.5t55 79t79 57.5t101 40t109.5 25t116.5 14.5t110 6t100 1.5q295 0 655 -62l-26 -151q-343 59 -656 59q-53 0 -96 -1t-96.5 -5.5t-94 -11.5t-81.5 -20t-67.5 -30.5t-43 -44t-16.5 -59.5q0 -28 11 -50t32.5 -37.5t48.5 -27t65.5 -19
t77.5 -11.5t89 -6t95.5 -3t101.5 -1h15q93 -1 150.5 -3t144 -9t140.5 -18.5t117.5 -34t99 -54t59.5 -79t24 -108.5q0 -68 -32.5 -122.5t-82.5 -90.5t-123 -62.5t-141 -40.5t-149.5 -22t-135.5 -10t-112 -2q-181 0 -334.5 20t-351.5 70z" />
    <glyph glyph-name="Scircumflex" unicode="&#x15c;" horiz-adv-x="1910" 
d="M963 -31q-435 0 -854 150l45 145q426 -141 837 -141q78 0 156.5 6.5t169.5 25.5t159.5 49t114 82.5t45.5 119.5q0 47 -20 81.5t-61 57t-92.5 37.5t-125 23.5t-148.5 14t-171 10.5q-17 1 -25 1q-112 5 -177.5 9.5t-166 17t-160.5 29t-131.5 46.5t-110.5 70t-66 99t-27 134
q0 88 34 158.5t95.5 116t135 77t165 47.5t172 22.5t168.5 6.5q185 0 393 -25.5t379 -66.5l-35 -151q-373 90 -764 90q-52 0 -103 -3t-121.5 -12t-129 -28t-111.5 -47t-83 -73.5t-30 -103.5q0 -33 9 -60.5t29.5 -49.5t43 -39.5t60.5 -31.5t70 -24t83 -17.5t88.5 -12.5
t98 -9.5t99.5 -6.5t104 -5q108 -5 174 -9t160.5 -15t152.5 -26.5t124.5 -43.5t103 -65.5t61 -92.5t24.5 -124q0 -75 -27.5 -137.5t-74.5 -107t-113.5 -80t-139.5 -57t-158.5 -36t-164.5 -20t-163 -5.5zM1374 1534l-420 219l-417 -219l-37 80l454 270l457 -270z" />
    <glyph glyph-name="scircumflex" unicode="&#x15d;" horiz-adv-x="1638" 
d="M1237 1176l-420 219l-418 -219l-37 79l455 271l457 -271zM88 59l33 152q208 -49 356.5 -68.5t315.5 -19.5q50 0 101 2t123.5 8.5t133 20t115.5 34t86.5 54t31.5 75.5q0 38 -20.5 66t-56.5 45t-86.5 28t-109 15.5t-126.5 6.5t-137 3h-29q-86 1 -146 3t-140 9.5t-135 20
t-113 34.5t-93.5 52.5t-58 76t-22.5 103.5q0 56 19 102.5t55 79t79 57.5t101 40t109.5 25t116.5 14.5t110 6t100 1.5q295 0 655 -62l-26 -151q-343 59 -656 59q-53 0 -96 -1t-96.5 -5.5t-94 -11.5t-81.5 -20t-67.5 -30.5t-43 -44t-16.5 -59.5q0 -28 11 -50t32.5 -37.5
t48.5 -27t65.5 -19t77.5 -11.5t89 -6t95.5 -3t101.5 -1h15q93 -1 150.5 -3t144 -9t140.5 -18.5t117.5 -34t99 -54t59.5 -79t24 -108.5q0 -68 -32.5 -122.5t-82.5 -90.5t-123 -62.5t-141 -40.5t-149.5 -22t-135.5 -10t-112 -2q-181 0 -334.5 20t-351.5 70z" />
    <glyph glyph-name="Scedilla" unicode="&#x15e;" horiz-adv-x="1910" 
d="M684 -487l49 90q47 -6 109 -4t117 8.5t94 30.5t41 61q4 50 -68 79t-174 27q-10 2 -19 13t-8 24l70 129q-397 9 -786 148l45 145q426 -141 837 -141q78 0 156.5 6.5t169.5 25.5t159.5 49t114 82.5t45.5 119.5q0 47 -20 81.5t-61 57t-92.5 37.5t-125 23.5t-148.5 14
t-171 10.5q-17 1 -25 1q-112 5 -177.5 9.5t-166 17t-160.5 29t-131.5 46.5t-110.5 70t-66 99t-27 134q0 88 34 158.5t95.5 116t135 77t165 47.5t172 22.5t168.5 6.5q185 0 393 -25.5t379 -66.5l-35 -151q-373 90 -764 90q-52 0 -103 -3t-121.5 -12t-129 -28t-111.5 -47
t-83 -73.5t-30 -103.5q0 -33 9 -60.5t29.5 -49.5t43 -39.5t60.5 -31.5t70 -24t83 -17.5t88.5 -12.5t98 -9.5t99.5 -6.5t104 -5q108 -5 174 -9t160.5 -15t152.5 -26.5t124.5 -43.5t103 -65.5t61 -92.5t24.5 -124q0 -103 -52.5 -182.5t-135 -127t-196.5 -78.5t-223.5 -42.5
t-229.5 -12.5l-58 -106q69 4 138.5 -13t117 -58.5t41.5 -96.5q-4 -42 -29 -75t-60 -52.5t-85 -32.5t-94 -18.5t-98.5 -6.5t-86.5 0t-69 3z" />
    <glyph glyph-name="scedilla" unicode="&#x15f;" horiz-adv-x="1638" 
d="M578 -487l49 90q47 -6 108.5 -4t116.5 8.5t94 30.5t41 61q4 50 -68 79t-174 27q-10 2 -18.5 13t-7.5 24l67 127h-12q-181 0 -334.5 20t-351.5 70l33 152q208 -49 356.5 -68.5t315.5 -19.5q50 0 101 2t123.5 8.5t133 20t115.5 34t86.5 54t31.5 75.5q0 38 -20.5 66
t-56.5 45t-86.5 28t-109 15.5t-126.5 6.5t-137 3h-29q-86 1 -146 3t-140 9.5t-135 20t-113 34.5t-93.5 52.5t-58 76t-22.5 103.5q0 56 19 102.5t55 79t79 57.5t101 40t109.5 25t116.5 14.5t110 6t100 1.5q295 0 655 -62l-26 -151q-343 59 -656 59q-53 0 -96 -1t-96.5 -5.5
t-94 -11.5t-81.5 -20t-67.5 -30.5t-43 -44t-16.5 -59.5q0 -28 11 -50t32.5 -37.5t48.5 -27t65.5 -19t77.5 -11.5t89 -6t95.5 -3t101.5 -1h15q93 -1 150.5 -3t144 -9t140.5 -18.5t117.5 -34t99 -54t59.5 -79t24 -108.5q0 -60 -25.5 -110t-66.5 -84.5t-100.5 -61.5t-119 -43
t-131 -27t-128 -15.5t-117.5 -6.5l-59 -108q69 4 138.5 -13t117 -58.5t41.5 -96.5q-4 -42 -29 -75t-60 -52.5t-85 -32.5t-94 -18.5t-98.5 -6.5t-86.5 0t-69 3z" />
    <glyph glyph-name="Scaron" unicode="&#x160;" horiz-adv-x="1910" 
d="M963 -31q-435 0 -854 150l45 145q426 -141 837 -141q78 0 156.5 6.5t169.5 25.5t159.5 49t114 82.5t45.5 119.5q0 47 -20 81.5t-61 57t-92.5 37.5t-125 23.5t-148.5 14t-171 10.5q-17 1 -25 1q-112 5 -177.5 9.5t-166 17t-160.5 29t-131.5 46.5t-110.5 70t-66 99t-27 134
q0 88 34 158.5t95.5 116t135 77t165 47.5t172 22.5t168.5 6.5q185 0 393 -25.5t379 -66.5l-35 -151q-373 90 -764 90q-52 0 -103 -3t-121.5 -12t-129 -28t-111.5 -47t-83 -73.5t-30 -103.5q0 -33 9 -60.5t29.5 -49.5t43 -39.5t60.5 -31.5t70 -24t83 -17.5t88.5 -12.5
t98 -9.5t99.5 -6.5t104 -5q108 -5 174 -9t160.5 -15t152.5 -26.5t124.5 -43.5t103 -65.5t61 -92.5t24.5 -124q0 -75 -27.5 -137.5t-74.5 -107t-113.5 -80t-139.5 -57t-158.5 -36t-164.5 -20t-163 -5.5zM954 1661l420 219l37 -78l-457 -270l-454 270l37 78z" />
    <glyph glyph-name="scaron" unicode="&#x161;" horiz-adv-x="1638" 
d="M817 1303l420 219l37 -78l-457 -270l-455 270l37 78zM88 59l33 152q208 -49 356.5 -68.5t315.5 -19.5q50 0 101 2t123.5 8.5t133 20t115.5 34t86.5 54t31.5 75.5q0 38 -20.5 66t-56.5 45t-86.5 28t-109 15.5t-126.5 6.5t-137 3h-29q-86 1 -146 3t-140 9.5t-135 20
t-113 34.5t-93.5 52.5t-58 76t-22.5 103.5q0 56 19 102.5t55 79t79 57.5t101 40t109.5 25t116.5 14.5t110 6t100 1.5q295 0 655 -62l-26 -151q-343 59 -656 59q-53 0 -96 -1t-96.5 -5.5t-94 -11.5t-81.5 -20t-67.5 -30.5t-43 -44t-16.5 -59.5q0 -28 11 -50t32.5 -37.5
t48.5 -27t65.5 -19t77.5 -11.5t89 -6t95.5 -3t101.5 -1h15q93 -1 150.5 -3t144 -9t140.5 -18.5t117.5 -34t99 -54t59.5 -79t24 -108.5q0 -68 -32.5 -122.5t-82.5 -90.5t-123 -62.5t-141 -40.5t-149.5 -22t-135.5 -10t-112 -2q-181 0 -334.5 20t-351.5 70z" />
    <glyph glyph-name="Tcommaaccent" unicode="&#x162;" horiz-adv-x="1792" 
d="M1726 1280h-747v-1280h-164v1280h-747v154h1658v-154zM834 -164h116q39 -95 30 -221t-67 -240h-69q48 101 48 226t-58 235z" />
    <glyph glyph-name="tcommaaccent" unicode="&#x163;" horiz-adv-x="763" 
d="M354 1372v-297h342v-137h-342v-588q0 -126 41 -183.5t135 -57.5q56 0 166 20v-129q-134 -31 -211 -31q-145 0 -220 87t-75 294v588h-143v137h143v279zM295 -164h117q39 -95 30 -221t-67 -240h-70q48 101 48 226t-58 235z" />
    <glyph glyph-name="Tcaron" unicode="&#x164;" horiz-adv-x="1792" 
d="M895 1661l420 219l37 -78l-457 -270l-455 270l37 78zM1726 1280h-747v-1280h-164v1280h-747v154h1658v-154z" />
    <glyph glyph-name="tcaron" unicode="&#x165;" horiz-adv-x="763" 
d="M668 1667h155q32 -98 21.5 -242.5t-60.5 -269.5h-96q20 117 16 265t-36 247zM354 1372v-297h342v-137h-342v-588q0 -126 41 -183.5t135 -57.5q56 0 166 20v-129q-134 -31 -211 -31q-145 0 -220 87t-75 294v588h-143v137h143v279z" />
    <glyph glyph-name="Tbar" unicode="&#x166;" horiz-adv-x="1792" 
d="M434 725h381v555h-747v154h1658v-154h-747v-555h383v-92h-383v-633h-164v633h-381v92z" />
    <glyph glyph-name="tbar" unicode="&#x167;" horiz-adv-x="763" 
d="M190 1354l164 18v-297h342v-137h-342v-313h342v-93h-342v-182q0 -126 41 -183.5t135 -57.5q56 0 166 20v-129q-134 -31 -211 -31q-145 0 -220 87t-75 294v182h-143v93h143v313h-143v137h143v279z" />
    <glyph glyph-name="Utilde" unicode="&#x168;" horiz-adv-x="2017" 
d="M1354 1808l63 -65q-150 -156 -270 -156q-39 0 -82 15.5t-73.5 34t-67 34t-64.5 15.5q-93 0 -196 -103l-64 66q144 151 260 151q47 0 98.5 -24.5t100 -49t88.5 -24.5q101 0 207 106zM1706 573v861h164v-861q0 -314 -212 -459t-648 -145t-648 145t-212 459v861h163v-861
q0 -125 46.5 -212.5t139 -139.5t217 -75t294.5 -23t294.5 23t217 75t138.5 139.5t46 212.5z" />
    <glyph glyph-name="utilde" unicode="&#x169;" horiz-adv-x="1695" 
d="M129 530v545h164v-543q0 -190 120.5 -299.5t381.5 -109.5q188 0 345 64.5t265 166.5v721h164v-1075h-146l-10 201l-2 2q-284 -234 -655 -234q-129 0 -233.5 27.5t-177.5 77t-122 120t-71.5 154.5t-22.5 182zM1192 1450l63 -66q-150 -155 -270 -155q-50 0 -103.5 24.5
t-101 49t-82.5 24.5q-94 0 -196 -102l-64 65q145 152 260 152q47 0 98.5 -25t100 -49.5t88.5 -24.5q100 0 207 107z" />
    <glyph glyph-name="Umacron" unicode="&#x16a;" horiz-adv-x="2017" 
d="M645 1759h727v-110h-727v110zM1706 573v861h164v-861q0 -314 -212 -459t-648 -145t-648 145t-212 459v861h163v-861q0 -125 46.5 -212.5t139 -139.5t217 -75t294.5 -23t294.5 23t217 75t138.5 139.5t46 212.5z" />
    <glyph glyph-name="umacron" unicode="&#x16b;" horiz-adv-x="1695" 
d="M129 530v545h164v-543q0 -190 120.5 -299.5t381.5 -109.5q188 0 345 64.5t265 166.5v721h164v-1075h-146l-10 201l-2 2q-284 -234 -655 -234q-129 0 -233.5 27.5t-177.5 77t-122 120t-71.5 154.5t-22.5 182zM485 1401h727v-111h-727v111z" />
    <glyph glyph-name="Ubreve" unicode="&#x16c;" horiz-adv-x="2017" 
d="M1278 1825l82 -56q-49 -93 -141.5 -151.5t-208.5 -58.5t-209 58.5t-142 151.5l80 56q37 -67 109.5 -110.5t161.5 -43.5q88 0 159.5 43.5t108.5 110.5zM1706 573v861h164v-861q0 -314 -212 -459t-648 -145t-648 145t-212 459v861h163v-861q0 -125 46.5 -212.5t139 -139.5
t217 -75t294.5 -23t294.5 23t217 75t138.5 139.5t46 212.5z" />
    <glyph glyph-name="ubreve" unicode="&#x16d;" horiz-adv-x="1695" 
d="M129 530v545h164v-543q0 -190 120.5 -299.5t381.5 -109.5q188 0 345 64.5t265 166.5v721h164v-1075h-146l-10 201l-2 2q-284 -234 -655 -234q-129 0 -233.5 27.5t-177.5 77t-122 120t-71.5 154.5t-22.5 182zM1116 1466l82 -55q-50 -94 -142 -152.5t-208 -58.5t-208 58.5
t-142 152.5l80 55q37 -67 109 -110t161 -43q88 0 159.5 43t108.5 110z" />
    <glyph glyph-name="Uring" unicode="&#x16e;" horiz-adv-x="2017" 
d="M1706 573v861h164v-861q0 -314 -212 -459t-648 -145t-648 145t-212 459v861h163v-861q0 -125 46.5 -212.5t139 -139.5t217 -75t294.5 -23t294.5 23t217 75t138.5 139.5t46 212.5zM774 1720q0 90 58.5 143.5t177.5 53.5q118 0 175.5 -53.5t57.5 -143.5q0 -91 -57.5 -146.5
t-175.5 -55.5q-119 0 -177.5 55.5t-58.5 146.5zM846 1720q0 -59 40 -95t124 -36q81 0 121 36t40 95q0 57 -40 91t-121 34q-84 0 -124 -34t-40 -91z" />
    <glyph glyph-name="uring" unicode="&#x16f;" horiz-adv-x="1695" 
d="M614 1364q0 90 58.5 143.5t177.5 53.5q118 0 175.5 -53.5t57.5 -143.5q0 -92 -58 -147.5t-175 -55.5q-119 0 -177.5 55.5t-58.5 147.5zM686 1364q0 -59 40 -95t124 -36q81 0 121.5 36t40.5 95q0 57 -40.5 91t-121.5 34q-84 0 -124 -34t-40 -91zM129 530v545h164v-543
q0 -190 120.5 -299.5t381.5 -109.5q188 0 345 64.5t265 166.5v721h164v-1075h-146l-10 201l-2 2q-284 -234 -655 -234q-129 0 -233.5 27.5t-177.5 77t-122 120t-71.5 154.5t-22.5 182z" />
    <glyph glyph-name="Uhungarumlaut" unicode="&#x170;" horiz-adv-x="2017" 
d="M1706 573v861h164v-861q0 -314 -212 -459t-648 -145t-648 145t-212 459v861h163v-861q0 -125 46.5 -212.5t139 -139.5t217 -75t294.5 -23t294.5 23t217 75t138.5 139.5t46 212.5zM627 1612l282 303l92 -94l-313 -271zM1014 1612l284 303l93 -94l-314 -271z" />
    <glyph glyph-name="uhungarumlaut" unicode="&#x171;" horiz-adv-x="1695" 
d="M129 530v545h164v-543q0 -190 120.5 -299.5t381.5 -109.5q188 0 345 64.5t265 166.5v721h164v-1075h-146l-10 201l-2 2q-284 -234 -655 -234q-129 0 -233.5 27.5t-177.5 77t-122 120t-71.5 154.5t-22.5 182zM467 1253l283 303l92 -94l-314 -270zM854 1253l285 303l92 -94
l-313 -270z" />
    <glyph glyph-name="Uogonek" unicode="&#x172;" horiz-adv-x="2017" 
d="M1706 573v861h164v-861q0 -241 -123.5 -380.5t-376.5 -192.5q-55 -36 -99 -100t-44 -121q0 -99 135 -127l-6 -96q-103 10 -163 63t-60 127q0 60 41.5 125.5t113.5 116.5q-133 -19 -278 -19q-436 0 -648 145t-212 459v861h163v-861q0 -125 46.5 -212.5t139 -139.5t217 -75
t294.5 -23t294.5 23t217 75t138.5 139.5t46 212.5z" />
    <glyph glyph-name="uogonek" unicode="&#x173;" horiz-adv-x="1695" 
d="M129 530v545h164v-543q0 -190 120.5 -299.5t381.5 -109.5q188 0 345 64.5t265 166.5v721h164v-1075q-57 -37 -103.5 -102t-46.5 -123q0 -99 135 -127l-6 -97q-103 10 -163 63.5t-60 127.5q0 65 48.5 135.5t131.5 122.5h-82l-10 201l-2 2q-284 -234 -655 -234
q-129 0 -233.5 27.5t-177.5 77t-122 120t-71.5 154.5t-22.5 182z" />
    <glyph glyph-name="Wcircumflex" unicode="&#x174;" horiz-adv-x="2541" 
d="M1884 0h-174l-225 614l-213 588l-213 -588l-228 -614h-172l-653 1434h178l279 -615l278 -610l220 612l227 613h168l227 -615l219 -610l277 612l280 613h178zM1690 1534l-420 219l-418 -219l-37 80l455 270l456 -270z" />
    <glyph glyph-name="wcircumflex" unicode="&#x175;" horiz-adv-x="2328" 
d="M1583 1176l-420 219l-418 -219l-36 79l454 271l457 -271zM1765 0h-176l-188 391l-236 494l-237 -494l-189 -391h-176l-516 1075h180l262 -563l162 -342l164 342l260 563h178l263 -563l161 -342l164 342l260 563h183z" />
    <glyph glyph-name="Ycircumflex" unicode="&#x176;" horiz-adv-x="2021" 
d="M1808 1434h209l-923 -992v-442h-164v442l-924 992h209l332 -359l465 -500l465 500zM1430 1534l-420 219l-418 -219l-37 80l455 270l456 -270z" />
    <glyph glyph-name="ycircumflex" unicode="&#x177;" horiz-adv-x="1644" 
d="M748 -12l-701 1087h193l348 -563l239 -375l580 938h192l-720 -1155q-112 -176 -230 -246.5t-268 -70.5q-103 0 -281 35v129q9 -2 59 -11t72 -12.5t60.5 -7.5t68.5 -4q114 0 202.5 50.5t160.5 162.5zM1241 1176l-420 219l-418 -219l-36 79l454 271l457 -271z" />
    <glyph glyph-name="Ydieresis" unicode="&#x178;" horiz-adv-x="2021" 
d="M1808 1434h209l-923 -992v-442h-164v442l-924 992h209l332 -359l465 -500l465 500zM698 1808h121v-225h-121v225zM1202 1808h121v-225h-121v225z" />
    <glyph glyph-name="Zacute" unicode="&#x179;" horiz-adv-x="1828" 
d="M1722 0h-1613v154l929 788l404 338h-1309v154h1538v-152l-930 -788l-405 -340h1386v-154zM555 1632l674 269l45 -123l-690 -228z" />
    <glyph glyph-name="zacute" unicode="&#x17a;" horiz-adv-x="1624" 
d="M455 1274l673 268l46 -123l-691 -227zM369 137h1149v-137h-1409v137l1097 801h-1046v137h1310v-135z" />
    <glyph glyph-name="Zdotaccent" unicode="&#x17b;" horiz-adv-x="1828" 
d="M854 1808h121v-225h-121v225zM1722 0h-1613v154l929 788l404 338h-1309v154h1538v-152l-930 -788l-405 -340h1386v-154z" />
    <glyph glyph-name="zdotaccent" unicode="&#x17c;" horiz-adv-x="1624" 
d="M369 137h1149v-137h-1409v137l1097 801h-1046v137h1310v-135zM752 1450h120v-225h-120v225z" />
    <glyph glyph-name="Zcaron" unicode="&#x17d;" horiz-adv-x="1828" 
d="M913 1661l420 219l37 -78l-457 -270l-454 270l37 78zM1722 0h-1613v154l929 788l404 338h-1309v154h1538v-152l-930 -788l-405 -340h1386v-154z" />
    <glyph glyph-name="zcaron" unicode="&#x17e;" horiz-adv-x="1624" 
d="M811 1303l420 219l37 -78l-457 -270l-455 270l37 78zM369 137h1149v-137h-1409v137l1097 801h-1046v137h1310v-135z" />
    <glyph glyph-name="florin" unicode="&#x192;" horiz-adv-x="937" 
d="M395 1075h418v-92h-418v-1053q0 -159 -86 -232t-239 -73q-73 0 -236 19v129q25 -1 66 -4t72 -5t57 -2q202 0 202 168v1053h-143v92h143v10q0 203 90 290t269 87q110 0 262 -28v-127q-155 18 -219 18q-123 0 -180.5 -54t-57.5 -186v-10z" />
    <glyph glyph-name="AEacute" unicode="&#x1fc;" horiz-adv-x="3330" 
d="M1638 1632l674 269l45 -123l-690 -228zM3082 815v-153h-1267v-508h1431v-154h-1595v354h-1006l-399 -354h-240l1645 1434h1554v-154h-1390v-465h1267zM1651 1260l-711 -646l-125 -106h836v752z" />
    <glyph glyph-name="aeacute" unicode="&#x1fd;" horiz-adv-x="2811" 
d="M1047 1274l673 268l45 -123l-690 -227zM666 -31q-242 0 -389.5 99t-147.5 280q0 77 32.5 137.5t84.5 97t124.5 60t144 32.5t151.5 9q151 0 317 -32t295 -87q4 131 -45 215t-166.5 128t-310.5 44q-161 0 -295.5 -22.5t-192.5 -44.5l-53 143q67 25 218 51.5t325 26.5
q502 0 614 -295q68 138 219.5 216.5t388.5 78.5q177 0 320 -41t241 -123t128.5 -204t-17.5 -283h-1198q24 -165 171.5 -248.5t438.5 -83.5q182 0 340.5 26t231.5 50l33 -144q-77 -29 -241 -57.5t-360 -28.5q-624 0 -745 355q-89 -172 -260 -263.5t-397 -91.5zM295 358
q0 -121 110.5 -184t286.5 -63q156 0 288.5 46.5t213.5 132.5t86 193q-80 39 -293 63.5t-330 24.5q-67 0 -126 -10t-114.5 -32.5t-88.5 -66t-33 -104.5zM1450 567h1040q26 97 -2.5 173t-101 122.5t-174 70t-225.5 23.5q-268 0 -399.5 -104.5t-137.5 -284.5z" />
    <glyph glyph-name="Oslashacute" unicode="&#x1fe;" horiz-adv-x="2140" 
d="M109 717q0 161 62 296.5t180.5 236.5t303 157.5t416.5 56.5q335 0 565 -116l127 127l66 -66l-109 -109q154 -101 234 -250.5t80 -332.5q0 -161 -62.5 -297t-181 -236.5t-303 -157.5t-416.5 -57q-327 0 -567 115l-123 -125l-66 68l107 106q-155 98 -234 249t-79 335z
M274 717q0 -149 67 -269.5t196 -199.5l979 979q-185 84 -445 84q-195 0 -348 -44.5t-250.5 -124.5t-148 -187.5t-50.5 -237.5zM1866 717q0 148 -66 269t-194 200l-981 -981q191 -82 446 -82q194 0 347 44.5t250 124.5t147.5 187.5t50.5 237.5zM711 1632l673 269l46 -123
l-691 -228z" />
    <glyph glyph-name="oslashacute" unicode="&#x1ff;" horiz-adv-x="1648" 
d="M410 51l-99 -100l-65 67l80 78q-116 76 -177 190t-61 253q0 254 194.5 410.5t542.5 156.5q244 0 426 -84l109 108l65 -65l-92 -92q112 -75 171 -186.5t59 -247.5q0 -254 -195 -412t-543 -158q-243 0 -415 82zM254 539q0 -213 186 -328l686 686q-123 57 -301 57
q-273 0 -422 -114t-149 -301zM1395 539q0 208 -176 319l-684 -684q121 -51 290 -51q272 0 421 115t149 301zM465 1274l674 268l45 -123l-690 -227z" />
    <glyph glyph-name="Scommaaccent" unicode="&#x218;" horiz-adv-x="1910" 
d="M963 -31q-435 0 -854 150l45 145q426 -141 837 -141q78 0 156.5 6.5t169.5 25.5t159.5 49t114 82.5t45.5 119.5q0 47 -20 81.5t-61 57t-92.5 37.5t-125 23.5t-148.5 14t-171 10.5q-17 1 -25 1q-112 5 -177.5 9.5t-166 17t-160.5 29t-131.5 46.5t-110.5 70t-66 99t-27 134
q0 88 34 158.5t95.5 116t135 77t165 47.5t172 22.5t168.5 6.5q185 0 393 -25.5t379 -66.5l-35 -151q-373 90 -764 90q-52 0 -103 -3t-121.5 -12t-129 -28t-111.5 -47t-83 -73.5t-30 -103.5q0 -33 9 -60.5t29.5 -49.5t43 -39.5t60.5 -31.5t70 -24t83 -17.5t88.5 -12.5
t98 -9.5t99.5 -6.5t104 -5q108 -5 174 -9t160.5 -15t152.5 -26.5t124.5 -43.5t103 -65.5t61 -92.5t24.5 -124q0 -75 -27.5 -137.5t-74.5 -107t-113.5 -80t-139.5 -57t-158.5 -36t-164.5 -20t-163 -5.5zM866 -164h117q39 -95 30 -221t-67 -240h-69q48 102 47.5 226.5
t-58.5 234.5z" />
    <glyph glyph-name="scommaaccent" unicode="&#x219;" horiz-adv-x="1638" 
d="M88 59l33 152q208 -49 356.5 -68.5t315.5 -19.5q50 0 101 2t123.5 8.5t133 20t115.5 34t86.5 54t31.5 75.5q0 38 -20.5 66t-56.5 45t-86.5 28t-109 15.5t-126.5 6.5t-137 3h-29q-86 1 -146 3t-140 9.5t-135 20t-113 34.5t-93.5 52.5t-58 76t-22.5 103.5q0 56 19 102.5
t55 79t79 57.5t101 40t109.5 25t116.5 14.5t110 6t100 1.5q295 0 655 -62l-26 -151q-343 59 -656 59q-53 0 -96 -1t-96.5 -5.5t-94 -11.5t-81.5 -20t-67.5 -30.5t-43 -44t-16.5 -59.5q0 -28 11 -50t32.5 -37.5t48.5 -27t65.5 -19t77.5 -11.5t89 -6t95.5 -3t101.5 -1h15
q93 -1 150.5 -3t144 -9t140.5 -18.5t117.5 -34t99 -54t59.5 -79t24 -108.5q0 -68 -32.5 -122.5t-82.5 -90.5t-123 -62.5t-141 -40.5t-149.5 -22t-135.5 -10t-112 -2q-181 0 -334.5 20t-351.5 70zM731 -164h117q39 -95 30 -221t-67 -240h-70q48 101 48 226t-58 235z" />
    <glyph glyph-name="dotlessj" unicode="&#x237;" horiz-adv-x="512" 
d="M180 18v1055l164 19v-1074q0 -98 -18.5 -171t-49.5 -117.5t-79 -71.5t-100 -37t-120 -10v127q108 0 155.5 69t47.5 211z" />
    <glyph glyph-name="circumflex" unicode="&#x2c6;" horiz-adv-x="1714" 
d="M1192 1176l-420 219l-418 -219l-37 79l455 271l457 -271z" />
    <glyph glyph-name="caron" unicode="&#x2c7;" horiz-adv-x="1714" 
d="M772 1303l420 219l37 -78l-457 -270l-455 270l37 78z" />
    <glyph glyph-name="breve" unicode="&#x2d8;" horiz-adv-x="1714" 
d="M1137 1411q-49 -93 -142 -152t-209 -59t-208 58.5t-142 152.5l80 55q37 -67 109 -110t161 -43q88 0 160 43t109 110z" />
    <glyph glyph-name="dotaccent" unicode="&#x2d9;" horiz-adv-x="1714" 
d="M645 1450h121v-225h-121v225z" />
    <glyph glyph-name="ring" unicode="&#x2da;" horiz-adv-x="1714" 
d="M545 1364q0 90 58 143.5t177 53.5q118 0 176 -53.5t58 -143.5q0 -91 -58 -147t-176 -56q-119 0 -177 55.5t-58 147.5zM616 1364q0 -59 40 -95t124 -36q81 0 121.5 36t40.5 95q0 57 -40.5 91t-121.5 34q-84 0 -124 -34t-40 -91z" />
    <glyph glyph-name="ogonek" unicode="&#x2db;" horiz-adv-x="1687" 
d="M1511 2l60 -2q-57 -37 -103.5 -102t-46.5 -123q0 -99 135 -127l-6 -97q-103 10 -163 63.5t-60 127.5q0 65 50 136.5t134 123.5z" />
    <glyph glyph-name="tilde" unicode="&#x2dc;" horiz-adv-x="1714" 
d="M1143 1450l63 -66q-150 -155 -270 -155q-50 0 -103.5 24.5t-101 49t-82.5 24.5q-94 0 -196 -102l-64 65q145 152 260 152q47 0 98.5 -25t100 -49.5t88.5 -24.5q100 0 207 107z" />
    <glyph glyph-name="hungarumlaut" unicode="&#x2dd;" horiz-adv-x="1714" 
d="M457 1253l282 303l92 -94l-313 -270zM844 1253l284 303l93 -94l-314 -270z" />
    <glyph glyph-name="pi" unicode="&#x3c0;" horiz-adv-x="1695" 
d="M170 963h-123v163h1604v-163h-123v-963h-170v963h-1024v-963h-164v963z" />
    <glyph glyph-name="Wgrave" unicode="&#x1e80;" horiz-adv-x="2541" 
d="M956 1901l674 -269l-28 -82l-691 228zM1884 0h-174l-225 614l-213 588l-213 -588l-228 -614h-172l-653 1434h178l279 -615l278 -610l220 612l227 613h168l227 -615l219 -610l277 612l280 613h178z" />
    <glyph glyph-name="wgrave" unicode="&#x1e81;" horiz-adv-x="2328" 
d="M1765 0h-176l-188 391l-236 494l-237 -494l-189 -391h-176l-516 1075h180l262 -563l162 -342l164 342l260 563h178l263 -563l161 -342l164 342l260 563h183zM850 1542l674 -268l-29 -82l-690 227z" />
    <glyph glyph-name="Wacute" unicode="&#x1e82;" horiz-adv-x="2541" 
d="M911 1632l674 269l45 -123l-690 -228zM1884 0h-174l-225 614l-213 588l-213 -588l-228 -614h-172l-653 1434h178l279 -615l278 -610l220 612l227 613h168l227 -615l219 -610l277 612l280 613h178z" />
    <glyph glyph-name="wacute" unicode="&#x1e83;" horiz-adv-x="2328" 
d="M805 1274l674 268l45 -123l-690 -227zM1765 0h-176l-188 391l-236 494l-237 -494l-189 -391h-176l-516 1075h180l262 -563l162 -342l164 342l260 563h178l263 -563l161 -342l164 342l260 563h183z" />
    <glyph glyph-name="Wdieresis" unicode="&#x1e84;" horiz-adv-x="2541" 
d="M958 1808h121v-225h-121v225zM1462 1808h121v-225h-121v225zM1884 0h-174l-225 614l-213 588l-213 -588l-228 -614h-172l-653 1434h178l279 -615l278 -610l220 612l227 613h168l227 -615l219 -610l277 612l280 613h178z" />
    <glyph glyph-name="wdieresis" unicode="&#x1e85;" horiz-adv-x="2328" 
d="M852 1450h121v-225h-121v225zM1356 1450h121v-225h-121v225zM1765 0h-176l-188 391l-236 494l-237 -494l-189 -391h-176l-516 1075h180l262 -563l162 -342l164 342l260 563h178l263 -563l161 -342l164 342l260 563h183z" />
    <glyph glyph-name="Ygrave" unicode="&#x1ef2;" horiz-adv-x="2021" 
d="M1808 1434h209l-923 -992v-442h-164v442l-924 992h209l332 -359l465 -500l465 500zM696 1901l674 -269l-29 -82l-690 228z" />
    <glyph glyph-name="ygrave" unicode="&#x1ef3;" horiz-adv-x="1644" 
d="M748 -12l-701 1087h193l348 -563l239 -375l580 938h192l-720 -1155q-112 -176 -230 -246.5t-268 -70.5q-103 0 -281 35v129q9 -2 59 -11t72 -12.5t60.5 -7.5t68.5 -4q114 0 202.5 50.5t160.5 162.5zM508 1542l674 -268l-29 -82l-690 227z" />
    <glyph glyph-name="thinspace" unicode="&#x2009;" horiz-adv-x="245" 
 />
    <glyph glyph-name="endash" unicode="&#x2013;" horiz-adv-x="1597" 
d="M1348 573h-1096v129h1096v-129z" />
    <glyph glyph-name="emdash" unicode="&#x2014;" horiz-adv-x="2334" 
d="M252 573v129h1833v-129h-1833z" />
    <glyph glyph-name="quoteleft" unicode="&#x2018;" horiz-adv-x="520" 
d="M217 922q-33 100 -23 243t60 269h96q-20 -118 -14.5 -265t37.5 -247h-156z" />
    <glyph glyph-name="quoteright" unicode="&#x2019;" horiz-adv-x="520" 
d="M150 1434h155q32 -98 21.5 -242.5t-60.5 -269.5h-96q20 117 16 265t-36 247z" />
    <glyph glyph-name="quotesinglbase" unicode="&#x201a;" horiz-adv-x="520" 
d="M150 297h155q32 -99 21.5 -244t-60.5 -270h-96q20 117 16 266t-36 248z" />
    <glyph glyph-name="quotedblleft" unicode="&#x201c;" horiz-adv-x="929" 
d="M782 922h-155q-33 100 -23 243t60 269h96q-20 -117 -15 -264.5t37 -247.5zM373 922h-156q-33 100 -23 243t60 269h96q-20 -118 -14.5 -265t37.5 -247z" />
    <glyph glyph-name="quotedblright" unicode="&#x201d;" horiz-adv-x="929" 
d="M150 1434h155q32 -98 21.5 -242.5t-60.5 -269.5h-96q20 117 16 265t-36 247zM559 1434h156q32 -98 21.5 -242.5t-60.5 -269.5h-96q20 117 15.5 264.5t-36.5 247.5z" />
    <glyph glyph-name="quotedblbase" unicode="&#x201e;" horiz-adv-x="929" 
d="M150 297h155q32 -99 21.5 -244t-60.5 -270h-96q20 117 16 266t-36 248zM559 297h156q32 -99 21.5 -244t-60.5 -270h-96q20 117 15.5 265.5t-36.5 248.5z" />
    <glyph glyph-name="dagger" unicode="&#x2020;" horiz-adv-x="1212" 
d="M682 1464q0 -125 -21 -309t-24 -219q54 4 192.5 24.5t255.5 20.5v-150q-119 -1 -259 19.5t-187 23.5q3 -53 15 -200.5t20 -281.5t8 -228h-150q-1 95 6.5 222t21 293.5t15.5 194.5q-50 -4 -190 -24t-256 -19v150q115 0 253 -20.5t193 -24.5q-2 26 -23 214t-20 314h150z
" />
    <glyph glyph-name="daggerdbl" unicode="&#x2021;" horiz-adv-x="1212" 
d="M532 -358q-1 126 20 314t23 214q-50 -4 -190 -24t-256 -19v149q116 0 257.5 -20t182.5 -23q-3 95 11 197.5t14 122.5t-14 122t-11 197q-49 -4 -187.5 -23t-252.5 -18v150q115 0 253 -20.5t193 -24.5q-2 26 -23 214t-20 314h150q0 -125 -21 -309t-24 -219q54 4 192.5 24.5
t255.5 20.5v-150q-117 -1 -255.5 18.5t-184.5 22.5q3 -95 -10.5 -197t-13.5 -122t13.5 -122.5t10.5 -197.5q38 3 180 23t260 20v-149q-118 -1 -258.5 19t-189.5 24q3 -35 24 -219t21 -309h-150z" />
    <glyph glyph-name="bullet" unicode="&#x2022;" horiz-adv-x="659" 
d="M109 731q0 85 55 136t168 51q110 0 165.5 -51.5t55.5 -135.5q0 -87 -55 -139.5t-166 -52.5q-113 0 -168 52.5t-55 139.5z" />
    <glyph glyph-name="ellipsis" unicode="&#x2026;" horiz-adv-x="1521" 
d="M211 297h147v-297h-147v297zM686 297h150v-297h-150v297zM1163 297h148v-297h-148v297z" />
    <glyph glyph-name="perthousand" unicode="&#x2030;" horiz-adv-x="2951" 
d="M250 1069q0 -132 76.5 -210.5t238.5 -78.5q161 0 237.5 79t76.5 210q0 130 -77 208.5t-237 78.5q-162 0 -238.5 -78.5t-76.5 -208.5zM129 1069q0 177 108.5 286t327.5 109q217 0 325.5 -109t108.5 -286q0 -179 -108.5 -288t-325.5 -109q-111 0 -196 30t-137 84.5
t-77.5 125.5t-25.5 157zM418 -53l-72 65q656 735 1237 1475l72 -64q-671 -751 -1237 -1476zM1126 367q0 -132 77 -210.5t239 -78.5q160 0 236.5 78.5t76.5 210.5q0 130 -76.5 208t-236.5 78q-162 0 -239 -78t-77 -208zM1006 367q0 177 109 286t327 109q217 0 325.5 -109
t108.5 -286q0 -179 -108.5 -288.5t-325.5 -109.5q-111 0 -196 30t-137 84.5t-77.5 126t-25.5 157.5zM2075 367q0 -132 76.5 -210.5t238.5 -78.5q160 0 236.5 78.5t76.5 210.5q0 130 -76.5 208t-236.5 78q-162 0 -238.5 -78t-76.5 -208zM1954 367q0 177 109 286t327 109
q217 0 325.5 -109t108.5 -286q0 -179 -108.5 -288.5t-325.5 -109.5q-111 0 -196 30t-137 84.5t-77.5 126t-25.5 157.5z" />
    <glyph glyph-name="guilsinglleft" unicode="&#x2039;" horiz-adv-x="983" 
d="M150 590l614 516l72 -86l-519 -430l519 -428l-72 -86z" />
    <glyph glyph-name="guilsinglright" unicode="&#x203a;" horiz-adv-x="983" 
d="M221 1106l615 -516l-615 -514l-71 86l516 428l-516 430z" />
    <glyph glyph-name="exclamdbl" unicode="&#x203c;" horiz-adv-x="993" 
d="M219 0v297h148v-297h-148zM211 1434h164l-15 -963h-135zM627 297h149v-297h-149v297zM633 471l-15 963h166l-14 -963h-137z" />
    <glyph glyph-name="fraction" unicode="&#x2044;" horiz-adv-x="1400" 
d="M119 -53l-72 65q656 735 1237 1475l72 -64q-671 -751 -1237 -1476z" />
    <glyph glyph-name="zerosuperior" unicode="&#x2070;" horiz-adv-x="1536" 
d="M248 1176q0 -195 132.5 -316t387.5 -121q256 0 388 120.5t132 316.5q0 194 -132 315t-388 121q-255 0 -387.5 -121t-132.5 -315zM80 1176q0 125 44 231.5t128 186.5t216.5 125.5t299.5 45.5t299.5 -45.5t216.5 -125.5t128 -186.5t44 -231.5q0 -126 -44 -233t-128 -187.5
t-216.5 -126t-299.5 -45.5t-299.5 45.5t-216.5 126t-128 187.5t-44 233z" />
    <glyph glyph-name="foursuperior" unicode="&#x2074;" horiz-adv-x="1343" 
d="M1243 838h-145v-230h-166v230h-852v155l852 748h166v-748h149q0 -49 -4 -155zM932 993v279l4 299l-481 -424l-185 -154h662z" />
    <glyph glyph-name="fivesuperior" unicode="&#x2075;" horiz-adv-x="1343" 
d="M1221 1587h-869l-16 -313q209 44 403 35q118 -6 211.5 -29t165 -65t110 -109.5t38.5 -155.5q0 -101 -48 -174.5t-133 -113.5t-183.5 -58t-217.5 -18q-168 0 -337.5 31.5t-264.5 72.5l47 150q93 -37 257 -68t314 -31q74 0 139.5 10.5t126 34t96.5 69t36 108.5t-44 110
t-121.5 74t-172 40t-205.5 13q-198 0 -387 -49l29 590h1026v-154z" />
    <glyph glyph-name="sixsuperior" unicode="&#x2076;" horiz-adv-x="1382" 
d="M1303 1020q0 -197 -169 -316.5t-454 -119.5q-311 0 -455.5 147t-144.5 412q0 134 34 240.5t93.5 177t145.5 117t184.5 67t214.5 20.5q234 0 471 -67q-35 -150 -35 -152q-247 68 -467 68q-101 0 -183 -21.5t-149 -69.5t-104.5 -133.5t-38.5 -203.5q41 112 185 174.5
t317 62.5q86 0 165.5 -14.5t151 -46.5t124 -78.5t83.5 -114t31 -149.5zM1133 1018q0 128 -111.5 201t-292.5 73q-74 0 -150 -14t-150 -44t-120.5 -86t-46.5 -130q0 -118 109.5 -199.5t318.5 -81.5q207 0 325 76t118 205z" />
    <glyph glyph-name="sevensuperior" unicode="&#x2077;" horiz-adv-x="1282" 
d="M502 608h-201l723 983l-971 -4v154h1166v-144z" />
    <glyph glyph-name="eightsuperior" unicode="&#x2078;" horiz-adv-x="1382" 
d="M690 1765q84 0 162 -9t156.5 -31.5t136 -57.5t93.5 -92t36 -129q0 -60 -33.5 -109t-91 -80t-122 -50.5t-138.5 -28.5q414 -43 414 -283q0 -86 -51.5 -148.5t-141 -97t-194 -50t-226.5 -15.5q-96 0 -181 9.5t-165 32t-137.5 57t-92 89t-34.5 123.5q0 240 414 283
q-73 9 -137.5 28.5t-122 50.5t-91.5 80t-34 109q0 72 35.5 129t93 92t135.5 57.5t155.5 31.5t161.5 9zM690 739q94 0 171 10.5t139.5 33.5t97.5 62.5t35 92.5q0 180 -443 180q-440 0 -440 -180q0 -53 35 -92.5t97 -62.5t139 -33.5t169 -10.5zM690 1233q416 0 416 176
q0 59 -37.5 101t-102 63t-131.5 30t-145 9q-77 0 -143.5 -9t-130 -30t-100.5 -63t-37 -101q0 -176 411 -176z" />
    <glyph glyph-name="ninesuperior" unicode="&#x2079;" horiz-adv-x="1382" 
d="M80 1329q0 197 169 316.5t453 119.5q311 0 456 -147t145 -412q0 -134 -34 -239.5t-93.5 -176.5t-145.5 -117t-184.5 -66.5t-214.5 -20.5q-230 0 -471 65l35 152q250 -68 469 -68q80 0 147.5 13t128.5 44t103.5 79.5t67.5 123t26 170.5q-41 -112 -185 -174.5t-317 -62.5
q-86 0 -165.5 14.5t-151 46.5t-124 78t-83.5 113.5t-31 148.5zM250 1331q0 -127 111.5 -199.5t291.5 -72.5q74 0 150 14t150.5 43t121.5 85t47 130q0 119 -110.5 200t-319.5 81q-206 0 -324 -75.5t-118 -205.5z" />
    <glyph glyph-name="plus.sups" unicode="&#x207a;" horiz-adv-x="1134" 
d="M162 1090h350v344h113v-344h348v-113h-348v-344h-113v344h-350v113z" />
    <glyph glyph-name="minus.sups" unicode="&#x207b;" horiz-adv-x="1134" 
d="M162 1090h811v-113h-811v113z" />
    <glyph glyph-name="equal.sups" unicode="&#x207c;" horiz-adv-x="1134" 
d="M162 895h811v-113h-811v113zM162 1284h811v-113h-811v113z" />
    <glyph glyph-name="parenleft.sups" unicode="&#x207d;" horiz-adv-x="655" 
d="M129 1130q0 232 98 463.5t258 382.5l90 -51q-139 -161 -214.5 -367t-75.5 -428t75.5 -427.5t214.5 -366.5l-90 -51q-161 152 -258.5 382.5t-97.5 462.5z" />
    <glyph glyph-name="parenright.sups" unicode="&#x207e;" horiz-adv-x="655" 
d="M526 1130q0 -232 -97.5 -462.5t-256.5 -382.5l-92 51q139 161 216 367t77 427t-77 427.5t-216 367.5l92 51q159 -152 256.5 -383t97.5 -463z" />
    <glyph glyph-name="n.sups" unicode="&#x207f;" horiz-adv-x="1343" 
d="M1247 608h-164v430q0 289 -376 289q-187 0 -445 -78v-641h-166v846l160 16l4 -84l2 -2q237 99 459 99q137 0 240 -33.5t164.5 -94.5t91.5 -140t30 -177v-430z" />
    <glyph glyph-name="zeroinferior" unicode="&#x2080;" horiz-adv-x="1536" 
d="M248 260q0 -94 32 -173t94.5 -138.5t163.5 -93t230 -33.5q256 0 388 121t132 317q0 194 -132 315t-388 121q-255 0 -387.5 -121t-132.5 -315zM80 260q0 125 44 231.5t128 187t216.5 126t299.5 45.5t299.5 -45.5t216.5 -126t128 -187t44 -231.5q0 -126 -44 -233
t-128 -187.5t-216.5 -126t-299.5 -45.5t-299.5 45.5t-216.5 126t-128 187.5t-44 233z" />
    <glyph glyph-name="oneinferior" unicode="&#x2081;" horiz-adv-x="1126" 
d="M63 -154h418v816l-366 -107l-49 133l419 137h162v-979h416v-153h-1000v153z" />
    <glyph glyph-name="twoinferior" unicode="&#x2082;" horiz-adv-x="1339" 
d="M1243 -307h-1139v153q938 357 938 648q0 44 -21.5 78.5t-60 55.5t-81 35.5t-94.5 21t-90.5 9t-78.5 2.5q-129 0 -238.5 -16t-246.5 -49q-5 26 -17.5 78t-17.5 73q255 68 500 68q52 0 102 -3t113.5 -11.5t117.5 -23t107.5 -40t91 -59.5t61 -84t23.5 -111
q0 -99 -64.5 -195.5t-181 -181.5t-271 -159t-343.5 -136h891v-153z" />
    <glyph glyph-name="threeinferior" unicode="&#x2083;" horiz-adv-x="1318" 
d="M80 -225l47 149q117 -44 269 -72t300 -28q79 0 143.5 10t118 32t83.5 62t30 95q0 39 -15 67.5t-48 49t-77 33t-112 20t-142 10t-177 2.5h-205v108h207q287 0 413.5 44.5t126.5 148.5q0 38 -16.5 68.5t-41.5 50t-63.5 34t-73.5 22t-81.5 11.5t-77 5t-70.5 1
q-129 0 -237 -16.5t-250 -50.5l-35 151q255 68 508 68q608 0 608 -311q0 -123 -100 -187.5t-324 -89.5q235 -16 343 -75t108 -191q0 -90 -45 -156t-124.5 -102.5t-174 -53t-207.5 -16.5q-169 0 -340.5 32.5t-267.5 74.5z" />
    <glyph glyph-name="fourinferior" unicode="&#x2084;" horiz-adv-x="1343" 
d="M1243 -78h-145v-229h-166v229h-852v156l852 747h166v-747h149q0 -54 -4 -156zM932 78v278l4 299l-481 -424l-185 -153h662z" />
    <glyph glyph-name="fiveinferior" unicode="&#x2085;" horiz-adv-x="1343" 
d="M1221 672h-869l-16 -314q209 44 403 35q118 -6 211.5 -29t165 -65t110 -109t38.5 -155q0 -82 -32.5 -146t-86.5 -104.5t-130.5 -67t-157.5 -37t-175 -10.5q-168 0 -337 32t-265 73l47 149q91 -38 255 -69t316 -31q74 0 139 10.5t126 34t97 69t36 109.5q0 63 -44 110
t-121.5 74.5t-172 40.5t-205.5 13q-198 0 -387 -49l29 589h1026v-153z" />
    <glyph glyph-name="sixinferior" unicode="&#x2086;" horiz-adv-x="1382" 
d="M1303 104q0 -197 -169 -316.5t-454 -119.5q-311 0 -455.5 147t-144.5 412q0 134 34 240.5t93.5 177.5t145.5 117.5t184.5 67t214.5 20.5q231 0 471 -68q-35 -149 -35 -151q-243 67 -467 67q-101 0 -183 -21.5t-149 -69.5t-104.5 -133.5t-38.5 -203.5q27 76 107 131
t182 81t213 26q86 0 165.5 -14.5t151 -47t124 -79t83.5 -114t31 -149.5zM1133 102q0 128 -111.5 201.5t-292.5 73.5q-58 0 -118 -8t-124 -28.5t-113 -51t-80.5 -79t-31.5 -108.5q0 -119 109.5 -199.5t318.5 -80.5q208 0 325.5 75t117.5 205z" />
    <glyph glyph-name="seveninferior" unicode="&#x2087;" horiz-adv-x="1282" 
d="M502 -307h-201l723 983l-971 -4v153h1166v-143z" />
    <glyph glyph-name="eightinferior" unicode="&#x2088;" horiz-adv-x="1382" 
d="M690 850q84 0 162 -9t156.5 -32t136 -58t93.5 -92t36 -129q0 -60 -33.5 -109t-91 -80t-122 -50.5t-138.5 -28.5q414 -43 414 -282q0 -86 -51.5 -148.5t-141 -97t-194 -50.5t-226.5 -16q-121 0 -225 16t-193.5 50.5t-140.5 97t-51 148.5q0 239 414 282q-73 9 -137.5 28.5
t-122 50.5t-91.5 80t-34 109q0 72 35.5 129t93 92t135.5 58t155.5 32t161.5 9zM690 -176q94 0 171 10.5t140 32.5t97.5 62t34.5 94q0 180 -443 180q-440 0 -440 -180q0 -54 35 -94t97.5 -62t138.5 -32.5t169 -10.5zM690 317q416 0 416 177q0 59 -37.5 101t-102 63
t-131.5 29.5t-145 8.5q-77 0 -143 -8.5t-130 -29.5t-101 -63t-37 -101q0 -89 106.5 -133t304.5 -44z" />
    <glyph glyph-name="nineinferior" unicode="&#x2089;" horiz-adv-x="1382" 
d="M80 414q0 197 169 316.5t453 119.5q311 0 456 -147t145 -412q0 -134 -34 -240.5t-93.5 -177.5t-145.5 -117.5t-184.5 -67t-214.5 -20.5q-231 0 -471 68q1 0 18 74.5t17 76.5q246 -67 469 -67q80 0 147.5 13t128.5 44t103.5 79.5t67.5 123t26 170.5q-27 -76 -107 -131
t-182 -81t-213 -26q-86 0 -165.5 14.5t-151 46.5t-124 78.5t-83.5 114t-31 148.5zM250 416q0 -127 111.5 -200t291.5 -73q74 0 150 14t150.5 43.5t121.5 85.5t47 130q0 119 -110 199.5t-320 80.5q-206 0 -324 -75t-118 -205z" />
    <glyph glyph-name="parenleft.sinf" unicode="&#x208d;" horiz-adv-x="655" 
d="M129 215q0 232 98 463.5t258 382.5l90 -51q-139 -161 -214.5 -367t-75.5 -428t75.5 -428t214.5 -367l-90 -51q-160 151 -258 382.5t-98 463.5z" />
    <glyph glyph-name="parenright.sinf" unicode="&#x208e;" horiz-adv-x="655" 
d="M526 215q0 -232 -97.5 -463t-256.5 -383l-92 51q139 161 216 367.5t77 427.5t-77 427.5t-216 367.5l92 51q159 -152 256.5 -383t97.5 -463z" />
    <glyph glyph-name="Euro" unicode="&#x20ac;" horiz-adv-x="1796" 
d="M197 836h-150v92h166q25 115 79.5 206t129 152t171.5 101.5t203.5 58.5t227.5 18q319 0 666 -114l-39 -148q-337 109 -619 109q-117 0 -217 -21t-186 -65t-147.5 -119.5t-90.5 -177.5h1032v-92h-1058q-15 -124 0 -236h1058v-92h-1032q29 -103 90.5 -179t148 -120t186 -65
t216.5 -21q279 0 619 110l39 -149q-360 -115 -666 -115q-152 0 -281.5 30t-239 92.5t-184.5 168t-106 248.5h-166v92h150q-15 119 0 236z" />
    <glyph glyph-name="litre" unicode="&#x2113;" horiz-adv-x="774" 
d="M86 340l-25 22l144 177v520q0 391 254 391q85 0 133.5 -66t48.5 -167q0 -74 -23 -148t-67.5 -146t-91 -131.5t-111.5 -129.5v-345q0 -35 1 -60.5t5 -61t13.5 -60t24 -47.5t39 -35t56.5 -12q48 0 87.5 29.5t61 73t33 87.5t11.5 80h33q0 -56 -15 -112t-44.5 -106t-82 -81.5
t-118.5 -31.5q-60 0 -105 23t-72 60t-43.5 91t-22 108.5t-5.5 120.5v100zM348 1098v-381q132 137 192 265t60 230q0 82 -37 132.5t-92 50.5q-33 0 -57.5 -20.5t-36.5 -49t-19 -73.5t-8.5 -77t-1.5 -77z" />
    <glyph glyph-name="numero" unicode="&#x2116;" horiz-adv-x="3082" 
d="M1491 461v973h164v-1434h-164l-1182 1206l4 -258v-948h-163v1434h161l1182 -1209zM1796 938q0 229 155.5 369.5t434.5 140.5t434.5 -140.5t155.5 -369.5t-155.5 -370.5t-434.5 -141.5t-434.5 141.5t-155.5 370.5zM2832 938q0 169 -115 271t-331 102t-331.5 -102
t-115.5 -271q0 -167 115.5 -270t331.5 -103t331 102.5t115 270.5zM2914 307v-92h-1056v92h1056z" />
    <glyph glyph-name="servicemark" unicode="&#x2120;" horiz-adv-x="2340" 
d="M1696 786h-62l-424 514l2 -116v-539h-94v789h94l453 -555l453 555h94v-789h-94v539l2 119zM963 1401l-21 -88q-192 51 -383 51q-45 0 -89 -4.5t-101.5 -17t-93 -43t-35.5 -74.5q0 -25 11 -44.5t27 -33.5t45 -24t54.5 -16t67.5 -10t71.5 -6t77.5 -4q57 -3 94 -5.5t87 -8.5
t82 -15t66.5 -25t54.5 -37t33 -52t13 -70q0 -71 -41 -121.5t-110.5 -76t-142.5 -36.5t-157 -11q-218 0 -440 78l27 84q213 -72 428 -72q54 0 107 6.5t108.5 21.5t90 47t34.5 76q0 32 -16.5 53.5t-42.5 34t-71.5 20t-90 11t-110.5 6.5h-5q-61 3 -96 5.5t-89.5 9.5t-86 16
t-70 26t-59 39t-34.5 54.5t-14 73.5q0 58 29 101.5t72 68t104 39.5t113.5 19.5t111.5 4.5q194 0 390 -51z" />
    <glyph glyph-name="trademark" unicode="&#x2122;" horiz-adv-x="2267" 
d="M1622 786h-61l-422 514l2 -116v-539h-97v789h95l452 -555l455 555h92v-789h-94v539l2 119zM977 1346h-387v-701h-94v701h-387v88h868v-88z" />
    <glyph glyph-name="Omega" unicode="&#x2126;" horiz-adv-x="1878" 
d="M940 1464q246 0 435.5 -76t293 -213t103.5 -313q0 -127 -54 -233t-144.5 -176t-197.5 -113.5t-225 -60.5v-146h481v-133h-588v354q89 8 170 31.5t153.5 64t125.5 95t84 129.5t31 162q0 148 -92.5 258t-242 163.5t-333.5 53.5t-333.5 -53.5t-242 -163.5t-92.5 -258
q0 -87 31 -162t84 -129.5t125 -95t153 -64t169 -31.5v-354h-586v133h481v146q-93 13 -180 42.5t-168 79.5t-140.5 115t-95.5 154t-36 192q0 176 103 313t292.5 213t435.5 76z" />
    <glyph glyph-name="estimated" unicode="&#x212e;" horiz-adv-x="1644" 
d="M1561 670h-1190v-437q85 -88 203 -135t249 -47q157 0 297 67t228 189l82 -28q-234 -299 -609 -299q-154 0 -291.5 55.5t-235.5 150t-155 224t-57 272.5q0 144 57.5 274.5t155.5 225.5t235.5 151t290.5 56t290 -55t235.5 -149.5t156.5 -228.5t58 -286zM371 729h903v412
q-85 84 -204.5 129t-248.5 45q-130 0 -247 -46t-203 -132v-408z" />
    <glyph glyph-name="onethird" unicode="&#x2153;" horiz-adv-x="3538" 
d="M2300 82l47 149q117 -44 269 -72t300 -28q107 0 187 17.5t134 63.5t54 118q0 39 -15 67.5t-48 49t-77 33t-112 20t-142 10t-177 2.5h-205v109h207q288 0 414 44t126 148q0 38 -16.5 68.5t-41 50.5t-63 34.5t-73.5 22t-81.5 11.5t-77.5 5t-70 1q-129 0 -236.5 -16.5
t-251.5 -51.5l-35 152q251 67 508 67q608 0 608 -311q0 -123 -100 -187.5t-323 -89.5q235 -16 342.5 -75t107.5 -191q0 -90 -45 -156t-124.5 -102.5t-174 -53t-207.5 -16.5q-169 0 -340.5 32.5t-267.5 74.5zM63 457h418v813l-366 -107l-49 133l419 138h162v-977h416v-156
h-1000v156zM1092 -53l-72 65q656 735 1237 1475l72 -64q-671 -751 -1237 -1476z" />
    <glyph glyph-name="twothirds" unicode="&#x2154;" horiz-adv-x="3751" 
d="M2513 82l47 149q117 -44 269 -72t300 -28q107 0 187 17.5t134 63.5t54 118q0 39 -15 67.5t-48 49t-77 33t-112 20t-142 10t-177 2.5h-205v109h207q288 0 414 44t126 148q0 38 -16.5 68.5t-41 50.5t-63 34.5t-73.5 22t-81.5 11.5t-77.5 5t-70 1q-129 0 -236.5 -16.5
t-251.5 -51.5l-35 152q251 67 508 67q608 0 608 -311q0 -123 -100 -187.5t-323 -89.5q235 -16 342.5 -75t107.5 -191q0 -90 -45 -156t-124.5 -102.5t-174 -53t-207.5 -16.5q-169 0 -340.5 32.5t-267.5 74.5zM1243 301h-1139v156q938 353 938 645q0 52 -32.5 91.5t-78 60
t-109 33t-110.5 15.5t-96 3q-129 0 -237.5 -16t-247.5 -50q-5 26 -17.5 78.5l-17.5 73.5q251 67 500 67q52 0 102 -3t113.5 -11.5t117.5 -23t107.5 -40t91 -59.5t61 -84t23.5 -111q0 -99 -64.5 -195.5t-181 -181t-271 -158t-343.5 -134.5h891v-156zM1305 -53l-72 65
q656 735 1237 1475l72 -64q-671 -751 -1237 -1476z" />
    <glyph glyph-name="oneeighth" unicode="&#x215b;" horiz-adv-x="3448" 
d="M2757 1157q84 0 162 -9t156 -31.5t135.5 -57.5t93.5 -92t36 -129q0 -60 -33.5 -109t-90.5 -80.5t-122 -51t-139 -28.5q414 -43 414 -282q0 -86 -51.5 -148.5t-141 -97t-193.5 -50.5t-226 -16q-121 0 -225 16t-193.5 50.5t-141 97t-51.5 148.5q0 239 414 282
q-73 9 -138 28.5t-122 51t-91 80.5t-34 109q0 72 36 129t93 92t135.5 57.5t156 31.5t161.5 9zM2757 131q94 0 171 10.5t139.5 33.5t97 62.5t34.5 92.5q0 180 -442 180q-441 0 -441 -180q0 -53 35 -92.5t97.5 -62.5t139.5 -33.5t169 -10.5zM2757 625q415 0 415 176
q0 59 -37.5 101t-101.5 63t-131 30t-145 9q-77 0 -143.5 -9t-130.5 -30t-101 -63t-37 -101q0 -176 412 -176zM63 457h418v813l-366 -107l-49 133l419 138h162v-977h416v-156h-1000v156zM1092 -53l-72 65q656 735 1237 1475l72 -64q-671 -751 -1237 -1476z" />
    <glyph glyph-name="threeeighths" unicode="&#x215c;" horiz-adv-x="3487" 
d="M2796 1157q84 0 162 -9t156 -31.5t135.5 -57.5t93.5 -92t36 -129q0 -60 -33.5 -109t-90.5 -80.5t-122 -51t-139 -28.5q414 -43 414 -282q0 -86 -51.5 -148.5t-141 -97t-193.5 -50.5t-226 -16q-121 0 -225 16t-193.5 50.5t-141 97t-51.5 148.5q0 239 414 282
q-73 9 -138 28.5t-122 51t-91 80.5t-34 109q0 72 36 129t93 92t135.5 57.5t156 31.5t161.5 9zM80 383l47 149q117 -44 269 -72t300 -28q107 0 187 17.5t134 63.5t54 118q0 39 -15 67.5t-48 49t-77 33t-112 20t-142 10t-177 2.5h-205v109h207q288 0 414 44t126 148
q0 38 -16.5 68.5t-41.5 50.5t-63.5 34.5t-73.5 22t-81 11.5t-77.5 5t-70.5 1q-129 0 -236 -16.5t-251 -51.5l-35 152q251 67 508 67q608 0 608 -311q0 -123 -100 -187.5t-324 -89.5q235 -16 343 -75t108 -191q0 -90 -45 -155.5t-125 -101.5t-174 -52t-207 -16
q-170 0 -341.5 31.5t-266.5 72.5zM2796 131q94 0 171 10.5t139.5 33.5t97 62.5t34.5 92.5q0 180 -442 180q-441 0 -441 -180q0 -53 35 -92.5t97.5 -62.5t139.5 -33.5t169 -10.5zM2796 625q415 0 415 176q0 59 -37.5 101t-101.5 63t-131 30t-145 9q-77 0 -143.5 -9
t-130.5 -30t-101 -63t-37 -101q0 -176 412 -176zM1130 -53l-71 65q656 735 1237 1475l71 -64q-671 -751 -1237 -1476z" />
    <glyph glyph-name="fiveeighths" unicode="&#x215d;" horiz-adv-x="3512" 
d="M2820 1157q84 0 162 -9t156.5 -31.5t136 -57.5t93.5 -92t36 -129q0 -60 -33.5 -109t-90.5 -80.5t-122 -51t-139 -28.5q413 -43 413 -282q0 -86 -51.5 -148.5t-141 -97t-193.5 -50.5t-226 -16q-121 0 -225 16t-193.5 50.5t-140.5 97t-51 148.5q0 239 413 282
q-73 9 -138 28.5t-122 51t-91 80.5t-34 109q0 72 36 129t93 92t135.5 57.5t156 31.5t161.5 9zM2820 131q94 0 171 10.5t139.5 33.5t97 62.5t34.5 92.5q0 180 -442 180q-440 0 -440 -180q0 -53 35 -92.5t97 -62.5t139 -33.5t169 -10.5zM2820 625q416 0 416 176
q0 59 -37.5 101t-102 63t-131.5 30t-145 9q-77 0 -143.5 -9t-130.5 -30t-101 -63t-37 -101q0 -176 412 -176zM1221 1280h-869l-16 -313q205 43 403 34q118 -6 211.5 -29t165 -65t110 -109t38.5 -155q0 -101 -48 -174.5t-133 -113.5t-183.5 -58t-217.5 -18
q-168 0 -337.5 31.5t-264.5 72.5l47 149q93 -37 256.5 -67.5t314.5 -30.5q74 0 139 10.5t126 33.5t97 68.5t36 108.5t-44 110t-121.5 74.5t-172 40.5t-205.5 13q-198 0 -387 -49l29 590h1026v-154zM1155 -53l-72 65q656 735 1237 1475l72 -64q-671 -751 -1237 -1476z" />
    <glyph glyph-name="seveneighths" unicode="&#x215e;" horiz-adv-x="3246" 
d="M502 301h-201l723 983l-971 -4v154h1166v-144zM2552 1157q84 0 162 -9t156 -31.5t135.5 -57.5t93.5 -92t36 -129q0 -60 -33.5 -109t-90.5 -80.5t-122 -51t-139 -28.5q414 -43 414 -282q0 -86 -51.5 -148.5t-141 -97t-193.5 -50.5t-226 -16q-121 0 -225 16t-193.5 50.5
t-140.5 97t-51 148.5q0 239 413 282q-73 9 -138 28.5t-122 51t-91 80.5t-34 109q0 72 36 129t93 92t135.5 57.5t156 31.5t161.5 9zM2552 131q94 0 171 10.5t139.5 33.5t97 62.5t34.5 92.5q0 180 -442 180q-441 0 -441 -180q0 -53 35 -92.5t97.5 -62.5t139.5 -33.5t169 -10.5
zM2552 625q416 0 416 176q0 59 -37.5 101t-102 63t-131.5 30t-145 9q-77 0 -143.5 -9t-130.5 -30t-101 -63t-37 -101q0 -176 412 -176zM887 -53l-72 65q656 735 1237 1475l72 -64q-671 -751 -1237 -1476z" />
    <glyph glyph-name="uni2190" unicode="&#x2190;" horiz-adv-x="1675" 
d="M1563 772v-113h-1020l-234 5v-5l219 -200l271 -275l-80 -78l-606 609l606 608l80 -78l-273 -274l-217 -201v-2l234 4h1020z" />
    <glyph glyph-name="uni2191" unicode="&#x2191;" horiz-adv-x="1675" 
d="M895 0h-113v1020l4 233h-4l-200 -217l-275 -272l-78 80l609 606l608 -606l-78 -80l-274 272l-201 217h-2l4 -233v-1020z" />
    <glyph glyph-name="uni2192" unicode="&#x2192;" horiz-adv-x="1675" 
d="M113 659v113h1020l233 -4v2l-217 201l-272 274l79 78l607 -608l-607 -609l-79 78l272 275l217 200v5l-233 -5h-1020z" />
    <glyph glyph-name="uni2193" unicode="&#x2193;" horiz-adv-x="1675" 
d="M782 1430h113v-1020l-4 -234h2l201 219l274 271l78 -80l-608 -606l-609 606l78 80l275 -273l200 -217h4l-4 234v1020z" />
    <glyph glyph-name="uni2194" unicode="&#x2194;" horiz-adv-x="1675" 
d="M299 768l233 4h611l233 -4v2l-217 201l-239 241l79 78l574 -575l-574 -576l-79 78l239 242l217 200v5l-233 -5h-611l-233 5v-5l219 -200l238 -242l-80 -78l-574 576l574 575l80 -78l-240 -241l-217 -201v-2z" />
    <glyph glyph-name="uni2195" unicode="&#x2195;" horiz-adv-x="1675" 
d="M786 176l-4 234v610l4 233h-4l-200 -217l-242 -239l-78 80l576 573l575 -573l-78 -80l-241 239l-201 217h-2l4 -233v-610l-4 -234h2l201 219l241 238l78 -80l-575 -573l-576 573l78 80l242 -240l200 -217h4z" />
    <glyph glyph-name="uni2196" unicode="&#x2196;" horiz-adv-x="1675" 
d="M1354 242l-80 -80l-721 723l-162 166h-2l12 -297l-2 -385h-110v858l860 2v-113h-387l-295 12l-2 -2l168 -161z" />
    <glyph glyph-name="uni2197" unicode="&#x2197;" horiz-adv-x="1675" 
d="M399 162l-80 80l723 723l166 161v2l-297 -12h-385v113l858 -2l2 -858h-112l-2 385l14 297h-2l-162 -166z" />
    <glyph glyph-name="uni2198" unicode="&#x2198;" horiz-adv-x="1675" 
d="M1042 395l-723 721l80 80l723 -721l162 -168l2 2l-14 297l2 385h112l-2 -860h-858v111l385 2l297 -13v2z" />
    <glyph glyph-name="uni2199" unicode="&#x2199;" horiz-adv-x="1675" 
d="M1274 1196l80 -80l-721 -721l-168 -162l2 -2l295 13l387 -2v-111h-860v860h110l2 -385l-12 -297l2 -2l162 168z" />
    <glyph glyph-name="partialdiff" unicode="&#x2202;" horiz-adv-x="1742" 
d="M580 1296l-35 152q151 14 252 14q147 0 271 -26.5t230 -86.5t180 -150.5t116 -224t42 -302.5q0 -162 -42 -288.5t-130 -220.5t-233.5 -144t-343.5 -50q-356 0 -567 151t-211 402q0 125 56 226t150.5 163.5t214 95.5t252.5 33q110 0 217 -22.5t201 -65t166 -112
t104 -156.5q2 139 -32 248t-93.5 179.5t-145 116t-180.5 64.5t-206 19q-87 0 -233 -15zM877 123q146 0 260 34t181 91t100.5 126t33.5 146q0 81 -41.5 148t-107 109.5t-150.5 71.5t-167.5 41.5t-162.5 12.5q-156 0 -278.5 -43t-196.5 -131.5t-74 -208.5q0 -182 161.5 -289.5
t441.5 -107.5z" />
    <glyph glyph-name="Delta" unicode="&#x2206;" horiz-adv-x="1761" 
d="M1577 20h-1393l697 1393zM367 133h1028l-514 1028z" />
    <glyph glyph-name="product" unicode="&#x220f;" horiz-adv-x="1695" 
d="M129 0v1434h1440v-1434h-170v1270h-1106v-1270h-164z" />
    <glyph glyph-name="summation" unicode="&#x2211;" horiz-adv-x="1433" 
d="M360 -68h947v-153h-1178v135l580 692l-580 692v136h1178v-154h-947l555 -674z" />
    <glyph glyph-name="minus" unicode="&#x2212;" horiz-adv-x="1433" 
d="M211 594h1014v-113h-1014v113z" />
    <glyph glyph-name="radical" unicode="&#x221a;" horiz-adv-x="1976" 
d="M674 0l-627 1075h129q37 -67 176 -303.5t259 -439.5l120 -203l776 1305h404v-113h-338l-785 -1321h-114z" />
    <glyph glyph-name="infinity" unicode="&#x221e;" horiz-adv-x="1986" 
d="M524 1020q126 0 258.5 -73t210.5 -193q78 120 210.5 193t260.5 73q163 0 279.5 -119.5t116.5 -286.5t-116.5 -285t-279.5 -118q-128 0 -261 72.5t-210 193.5q-77 -121 -209.5 -193.5t-259.5 -72.5q-164 0 -279.5 118t-115.5 285q0 168 115.5 287t279.5 119zM1464 365
q99 0 170.5 73.5t71.5 175.5q0 103 -72 177.5t-170 74.5q-114 0 -227.5 -68t-163.5 -184q50 -114 163.5 -181.5t227.5 -67.5zM524 365q113 0 226.5 67.5t164.5 181.5q-35 78 -101.5 136.5t-142 87t-147.5 28.5q-99 0 -170 -74.5t-71 -177.5t70.5 -176t170.5 -73z" />
    <glyph glyph-name="integral" unicode="&#x222b;" horiz-adv-x="958" 
d="M477 1085v-1097q0 -203 -82 -290t-245 -87q-92 0 -234 29v129q130 -21 190 -21q105 0 156 54.5t51 185.5v1097q0 203 82.5 290t243.5 87q99 0 233 -28v-127q-133 18 -188 18q-106 0 -156.5 -54t-50.5 -186z" />
    <glyph glyph-name="approxequal" unicode="&#x2248;" horiz-adv-x="1359" 
d="M1141 940l90 -90q-182 -182 -338 -182q-61 0 -127.5 31t-125.5 61.5t-101 30.5q-98 0 -238 -140l-90 90q177 177 328 177q46 0 97 -19t88.5 -42.5t84 -42.5t84.5 -19q103 0 248 145zM1141 487l90 -90q-182 -182 -338 -182q-48 0 -101 19t-91 42.5t-83 42.5t-79 19
q-99 0 -238 -139l-90 90q176 176 328 176q46 0 97 -19t88.5 -42.5t84 -42.5t84.5 -19q103 0 248 145z" />
    <glyph glyph-name="notequal" unicode="&#x2260;" horiz-adv-x="1433" 
d="M211 840h577l89 235h69l-86 -235h365v-113h-406l-137 -379h543v-112h-584l-86 -236h-70l84 236h-358v112h399l140 379h-539v113z" />
    <glyph glyph-name="lessequal" unicode="&#x2264;" horiz-adv-x="1218" 
d="M168 113h821l-819 379v120l881 408v-123l-770 -344l770 -346v-207h-883v113z" />
    <glyph glyph-name="greaterequal" unicode="&#x2265;" horiz-adv-x="1218" 
d="M229 113h822v-113h-883v207l770 346l-770 344v123l881 -408v-120z" />
    <glyph glyph-name="lozenge" unicode="&#x25ca;" horiz-adv-x="1761" 
d="M881 20l-697 697l697 696l696 -696zM344 717l537 -537l536 537l-536 536z" />
    <glyph glyph-name="anglebracketleft" unicode="&#x3008;" horiz-adv-x="905" 
d="M608 -362l-479 1030l479 1032h170l-485 -1032l485 -1030h-170z" />
    <glyph glyph-name="anglebracketright" unicode="&#x3009;" horiz-adv-x="905" 
d="M778 668l-479 -1030h-170l485 1030l-485 1032h170z" />
    <glyph glyph-name="E.alt" horiz-adv-x="1849" 
d="M1716 252l47 -148q-113 -51 -353 -92t-490 -41q-106 0 -202.5 8.5t-189.5 27t-167.5 50t-132 74t-88.5 103t-31 133.5q0 90 48 154.5t146 105t224 63t304 33.5q-171 14 -293.5 38t-213.5 65t-136 102.5t-45 146.5q0 88 48.5 156.5t128 111.5t191.5 71t228 39t248 11
q216 0 426.5 -26.5t329.5 -57.5l-35 -149q-101 26 -316.5 53t-422.5 27q-106 0 -196.5 -7t-178 -26t-148.5 -48t-98 -75.5t-37 -107.5q0 -34 12.5 -62.5t39.5 -51t61.5 -41t88.5 -32t109 -23.5t134 -16.5t153 -11t176.5 -6.5t194 -3t215.5 -1v-152q-131 0 -218 -0.5
t-197 -2.5t-181 -6t-156.5 -10.5t-140 -16.5t-113 -23.5t-93 -32.5t-64.5 -43t-43 -54t-13 -67q0 -73 50.5 -126.5t140.5 -83t196.5 -43t235.5 -13.5q233 0 471 40t346 87z" />
    <glyph glyph-name="Egrave.alt" horiz-adv-x="1849" 
d="M610 1901l674 -269l-29 -82l-690 228zM1716 252l47 -148q-113 -51 -353 -92t-490 -41q-106 0 -202.5 8.5t-189.5 27t-167.5 50t-132 74t-88.5 103t-31 133.5q0 90 48 154.5t146 105t224 63t304 33.5q-171 14 -293.5 38t-213.5 65t-136 102.5t-45 146.5q0 88 48.5 156.5
t128 111.5t191.5 71t228 39t248 11q216 0 426.5 -26.5t329.5 -57.5l-35 -149q-101 26 -316.5 53t-422.5 27q-106 0 -196.5 -7t-178 -26t-148.5 -48t-98 -75.5t-37 -107.5q0 -34 12.5 -62.5t39.5 -51t61.5 -41t88.5 -32t109 -23.5t134 -16.5t153 -11t176.5 -6.5t194 -3
t215.5 -1v-152q-131 0 -218 -0.5t-197 -2.5t-181 -6t-156.5 -10.5t-140 -16.5t-113 -23.5t-93 -32.5t-64.5 -43t-43 -54t-13 -67q0 -73 50.5 -126.5t140.5 -83t196.5 -43t235.5 -13.5q233 0 471 40t346 87z" />
    <glyph glyph-name="Eacute.alt" horiz-adv-x="1849" 
d="M565 1632l674 269l45 -123l-690 -228zM1716 252l47 -148q-113 -51 -353 -92t-490 -41q-106 0 -202.5 8.5t-189.5 27t-167.5 50t-132 74t-88.5 103t-31 133.5q0 90 48 154.5t146 105t224 63t304 33.5q-171 14 -293.5 38t-213.5 65t-136 102.5t-45 146.5q0 88 48.5 156.5
t128 111.5t191.5 71t228 39t248 11q216 0 426.5 -26.5t329.5 -57.5l-35 -149q-101 26 -316.5 53t-422.5 27q-106 0 -196.5 -7t-178 -26t-148.5 -48t-98 -75.5t-37 -107.5q0 -34 12.5 -62.5t39.5 -51t61.5 -41t88.5 -32t109 -23.5t134 -16.5t153 -11t176.5 -6.5t194 -3
t215.5 -1v-152q-131 0 -218 -0.5t-197 -2.5t-181 -6t-156.5 -10.5t-140 -16.5t-113 -23.5t-93 -32.5t-64.5 -43t-43 -54t-13 -67q0 -73 50.5 -126.5t140.5 -83t196.5 -43t235.5 -13.5q233 0 471 40t346 87z" />
    <glyph glyph-name="Ecircumflex.alt" horiz-adv-x="1849" 
d="M1343 1534l-419 219l-418 -219l-37 80l455 270l456 -270zM1716 252l47 -148q-113 -51 -353 -92t-490 -41q-106 0 -202.5 8.5t-189.5 27t-167.5 50t-132 74t-88.5 103t-31 133.5q0 90 48 154.5t146 105t224 63t304 33.5q-171 14 -293.5 38t-213.5 65t-136 102.5t-45 146.5
q0 88 48.5 156.5t128 111.5t191.5 71t228 39t248 11q216 0 426.5 -26.5t329.5 -57.5l-35 -149q-101 26 -316.5 53t-422.5 27q-106 0 -196.5 -7t-178 -26t-148.5 -48t-98 -75.5t-37 -107.5q0 -34 12.5 -62.5t39.5 -51t61.5 -41t88.5 -32t109 -23.5t134 -16.5t153 -11
t176.5 -6.5t194 -3t215.5 -1v-152q-131 0 -218 -0.5t-197 -2.5t-181 -6t-156.5 -10.5t-140 -16.5t-113 -23.5t-93 -32.5t-64.5 -43t-43 -54t-13 -67q0 -73 50.5 -126.5t140.5 -83t196.5 -43t235.5 -13.5q233 0 471 40t346 87z" />
    <glyph glyph-name="Ecaron.alt" horiz-adv-x="1849" 
d="M924 1661l419 219l37 -78l-456 -270l-455 270l37 78zM1716 252l47 -148q-113 -51 -353 -92t-490 -41q-106 0 -202.5 8.5t-189.5 27t-167.5 50t-132 74t-88.5 103t-31 133.5q0 90 48 154.5t146 105t224 63t304 33.5q-171 14 -293.5 38t-213.5 65t-136 102.5t-45 146.5
q0 88 48.5 156.5t128 111.5t191.5 71t228 39t248 11q216 0 426.5 -26.5t329.5 -57.5l-35 -149q-101 26 -316.5 53t-422.5 27q-106 0 -196.5 -7t-178 -26t-148.5 -48t-98 -75.5t-37 -107.5q0 -34 12.5 -62.5t39.5 -51t61.5 -41t88.5 -32t109 -23.5t134 -16.5t153 -11
t176.5 -6.5t194 -3t215.5 -1v-152q-131 0 -218 -0.5t-197 -2.5t-181 -6t-156.5 -10.5t-140 -16.5t-113 -23.5t-93 -32.5t-64.5 -43t-43 -54t-13 -67q0 -73 50.5 -126.5t140.5 -83t196.5 -43t235.5 -13.5q233 0 471 40t346 87z" />
    <glyph glyph-name="Edieresis.alt" horiz-adv-x="1849" 
d="M612 1808h121v-225h-121v225zM1116 1808h121v-225h-121v225zM1716 252l47 -148q-113 -51 -353 -92t-490 -41q-106 0 -202.5 8.5t-189.5 27t-167.5 50t-132 74t-88.5 103t-31 133.5q0 90 48 154.5t146 105t224 63t304 33.5q-171 14 -293.5 38t-213.5 65t-136 102.5
t-45 146.5q0 88 48.5 156.5t128 111.5t191.5 71t228 39t248 11q216 0 426.5 -26.5t329.5 -57.5l-35 -149q-101 26 -316.5 53t-422.5 27q-106 0 -196.5 -7t-178 -26t-148.5 -48t-98 -75.5t-37 -107.5q0 -34 12.5 -62.5t39.5 -51t61.5 -41t88.5 -32t109 -23.5t134 -16.5
t153 -11t176.5 -6.5t194 -3t215.5 -1v-152q-131 0 -218 -0.5t-197 -2.5t-181 -6t-156.5 -10.5t-140 -16.5t-113 -23.5t-93 -32.5t-64.5 -43t-43 -54t-13 -67q0 -73 50.5 -126.5t140.5 -83t196.5 -43t235.5 -13.5q233 0 471 40t346 87z" />
    <glyph glyph-name="Emacron.alt" horiz-adv-x="1849" 
d="M561 1759h727v-110h-727v110zM1716 252l47 -148q-113 -51 -353 -92t-490 -41q-106 0 -202.5 8.5t-189.5 27t-167.5 50t-132 74t-88.5 103t-31 133.5q0 90 48 154.5t146 105t224 63t304 33.5q-171 14 -293.5 38t-213.5 65t-136 102.5t-45 146.5q0 88 48.5 156.5t128 111.5
t191.5 71t228 39t248 11q216 0 426.5 -26.5t329.5 -57.5l-35 -149q-101 26 -316.5 53t-422.5 27q-106 0 -196.5 -7t-178 -26t-148.5 -48t-98 -75.5t-37 -107.5q0 -34 12.5 -62.5t39.5 -51t61.5 -41t88.5 -32t109 -23.5t134 -16.5t153 -11t176.5 -6.5t194 -3t215.5 -1v-152
q-131 0 -218 -0.5t-197 -2.5t-181 -6t-156.5 -10.5t-140 -16.5t-113 -23.5t-93 -32.5t-64.5 -43t-43 -54t-13 -67q0 -73 50.5 -126.5t140.5 -83t196.5 -43t235.5 -13.5q233 0 471 40t346 87z" />
    <glyph glyph-name="Ebreve.alt" horiz-adv-x="1849" 
d="M1194 1825l82 -56q-49 -93 -141.5 -151.5t-208.5 -58.5t-209 58.5t-142 151.5l80 56q37 -67 109.5 -110.5t161.5 -43.5q88 0 159.5 43.5t108.5 110.5zM1716 252l47 -148q-113 -51 -353 -92t-490 -41q-106 0 -202.5 8.5t-189.5 27t-167.5 50t-132 74t-88.5 103t-31 133.5
q0 90 48 154.5t146 105t224 63t304 33.5q-171 14 -293.5 38t-213.5 65t-136 102.5t-45 146.5q0 88 48.5 156.5t128 111.5t191.5 71t228 39t248 11q216 0 426.5 -26.5t329.5 -57.5l-35 -149q-101 26 -316.5 53t-422.5 27q-106 0 -196.5 -7t-178 -26t-148.5 -48t-98 -75.5
t-37 -107.5q0 -34 12.5 -62.5t39.5 -51t61.5 -41t88.5 -32t109 -23.5t134 -16.5t153 -11t176.5 -6.5t194 -3t215.5 -1v-152q-131 0 -218 -0.5t-197 -2.5t-181 -6t-156.5 -10.5t-140 -16.5t-113 -23.5t-93 -32.5t-64.5 -43t-43 -54t-13 -67q0 -73 50.5 -126.5t140.5 -83
t196.5 -43t235.5 -13.5q233 0 471 40t346 87z" />
    <glyph glyph-name="Edotaccent.alt" horiz-adv-x="1849" 
d="M864 1808h121v-225h-121v225zM1716 252l47 -148q-113 -51 -353 -92t-490 -41q-106 0 -202.5 8.5t-189.5 27t-167.5 50t-132 74t-88.5 103t-31 133.5q0 90 48 154.5t146 105t224 63t304 33.5q-171 14 -293.5 38t-213.5 65t-136 102.5t-45 146.5q0 88 48.5 156.5t128 111.5
t191.5 71t228 39t248 11q216 0 426.5 -26.5t329.5 -57.5l-35 -149q-101 26 -316.5 53t-422.5 27q-106 0 -196.5 -7t-178 -26t-148.5 -48t-98 -75.5t-37 -107.5q0 -34 12.5 -62.5t39.5 -51t61.5 -41t88.5 -32t109 -23.5t134 -16.5t153 -11t176.5 -6.5t194 -3t215.5 -1v-152
q-131 0 -218 -0.5t-197 -2.5t-181 -6t-156.5 -10.5t-140 -16.5t-113 -23.5t-93 -32.5t-64.5 -43t-43 -54t-13 -67q0 -73 50.5 -126.5t140.5 -83t196.5 -43t235.5 -13.5q233 0 471 40t346 87z" />
    <glyph glyph-name="Eogonek.alt" horiz-adv-x="1849" 
d="M1716 252l47 -148q-57 -37 -103 -102t-46 -123q0 -99 135 -127l-6 -96q-103 10 -163 63t-60 127q0 53 32 110.5t90 104.5q-139 -39 -332 -64.5t-390 -25.5q-106 0 -202.5 8.5t-189.5 27t-167.5 50t-132 74t-88.5 103t-31 133.5q0 90 48 154.5t146 105t224 63t304 33.5
q-171 14 -293.5 38t-213.5 65t-136 102.5t-45 146.5q0 88 48.5 156.5t128 111.5t191.5 71t228 39t248 11q216 0 426.5 -26.5t329.5 -57.5l-35 -149q-101 26 -316.5 53t-422.5 27q-106 0 -196.5 -7t-178 -26t-148.5 -48t-98 -75.5t-37 -107.5q0 -34 12.5 -62.5t39.5 -51
t61.5 -41t88.5 -32t109 -23.5t134 -16.5t153 -11t176.5 -6.5t194 -3t215.5 -1v-152q-131 0 -218 -0.5t-197 -2.5t-181 -6t-156.5 -10.5t-140 -16.5t-113 -23.5t-93 -32.5t-64.5 -43t-43 -54t-13 -67q0 -73 50.5 -126.5t140.5 -83t196.5 -43t235.5 -13.5q233 0 471 40t346 87
z" />
    <glyph glyph-name="E.titl" horiz-adv-x="1851" 
d="M1745 154v-154h-1595v1434h1554v-154h-1391v-612h1268v-154h-1268v-360h1432z" />
    <glyph glyph-name="Egrave.titl" horiz-adv-x="1851" 
d="M610 1901l674 -269l-29 -82l-690 228zM1745 154v-154h-1595v1434h1554v-154h-1391v-612h1268v-154h-1268v-360h1432z" />
    <glyph glyph-name="Eacute.titl" horiz-adv-x="1851" 
d="M1745 154v-154h-1595v1434h1554v-154h-1391v-612h1268v-154h-1268v-360h1432zM565 1632l674 269l45 -123l-690 -228z" />
    <glyph glyph-name="Ecircumflex.titl" horiz-adv-x="1851" 
d="M1745 154v-154h-1595v1434h1554v-154h-1391v-612h1268v-154h-1268v-360h1432zM1343 1534l-419 219l-418 -219l-37 80l455 270l456 -270z" />
    <glyph glyph-name="Ecaron.titl" horiz-adv-x="1851" 
d="M1745 154v-154h-1595v1434h1554v-154h-1391v-612h1268v-154h-1268v-360h1432zM924 1661l419 219l37 -78l-456 -270l-455 270l37 78z" />
    <glyph glyph-name="Edieresis.titl" horiz-adv-x="1851" 
d="M1745 154v-154h-1595v1434h1554v-154h-1391v-612h1268v-154h-1268v-360h1432zM612 1808h121v-225h-121v225zM1116 1808h121v-225h-121v225z" />
    <glyph glyph-name="Emacron.titl" horiz-adv-x="1851" 
d="M1745 154v-154h-1595v1434h1554v-154h-1391v-612h1268v-154h-1268v-360h1432zM563 1759h727v-110h-727v110z" />
    <glyph glyph-name="Ebreve.titl" horiz-adv-x="1851" 
d="M1194 1825l82 -56q-49 -93 -141.5 -151.5t-208.5 -58.5t-209 58.5t-142 151.5l80 56q37 -67 109.5 -110.5t161.5 -43.5q88 0 159.5 43.5t108.5 110.5zM1745 154v-154h-1595v1434h1554v-154h-1391v-612h1268v-154h-1268v-360h1432z" />
    <glyph glyph-name="Edotaccent.titl" horiz-adv-x="1851" 
d="M864 1808h121v-225h-121v225zM1745 154v-154h-1595v1434h1554v-154h-1391v-612h1268v-154h-1268v-360h1432z" />
    <glyph glyph-name="Eogonek.titl" horiz-adv-x="1851" 
d="M1745 154v-154q-57 -37 -103.5 -102t-46.5 -123q0 -99 136 -127l-7 -97q-103 10 -163 63.5t-60 127.5q0 65 48.5 135.5t131.5 122.5h-1531v1434h1554v-154h-1391v-612h1268v-154h-1268v-360h1432z" />
    <glyph glyph-name="F.titl" horiz-adv-x="1769" 
d="M1581 668v-154h-1268v-514h-163v1434h1554v-154h-1391v-612h1268z" />
    <glyph glyph-name="H.titl" horiz-adv-x="1976" 
d="M1663 0v514h-1350v-514h-163v1434h163v-766h1350v766h164v-1434h-164z" />
    <glyph glyph-name="Hcircumflex.titl" horiz-adv-x="1976" 
d="M1663 0v514h-1350v-514h-163v1434h163v-766h1350v766h164v-1434h-164zM1407 1534l-420 219l-418 -219l-37 80l455 270l457 -270z" />
    <glyph glyph-name="Hbar.titl" horiz-adv-x="1976" 
d="M1976 1077h-149v-1077h-164v514h-1350v-514h-163v1077h-150v92h150v265h163v-265h1350v265h164v-265h149v-92zM313 668h1350v409h-1350v-409z" />
    <glyph glyph-name="I.alt" horiz-adv-x="1546" 
d="M1440 154v-154h-1331v154h583v1126h-583v154h1331v-154h-584v-1126h584z" />
    <glyph glyph-name="Igrave.alt" horiz-adv-x="1546" 
d="M461 1901l674 -269l-29 -82l-690 228zM1440 154v-154h-1331v154h583v1126h-583v154h1331v-154h-584v-1126h584z" />
    <glyph glyph-name="Iacute.alt" horiz-adv-x="1546" 
d="M416 1632l674 269l45 -123l-691 -228zM1440 154v-154h-1331v154h583v1126h-583v154h1331v-154h-584v-1126h584z" />
    <glyph glyph-name="Icircumflex.alt" horiz-adv-x="1546" 
d="M1440 154v-154h-1331v154h583v1126h-583v154h1331v-154h-584v-1126h584zM1192 1534l-420 219l-418 -219l-37 80l455 270l457 -270z" />
    <glyph glyph-name="Itilde.alt" horiz-adv-x="1546" 
d="M1120 1808l64 -65q-150 -156 -271 -156q-50 0 -103 24.5t-100.5 49.5t-82.5 25q-94 0 -197 -103l-63 66q144 151 260 151q47 0 98 -24.5t99.5 -49t88.5 -24.5q101 0 207 106zM1440 154v-154h-1331v154h583v1126h-583v154h1331v-154h-584v-1126h584z" />
    <glyph glyph-name="Idieresis.alt" horiz-adv-x="1546" 
d="M461 1808h121v-225h-121v225zM965 1808h120v-225h-120v225zM1440 154v-154h-1331v154h583v1126h-583v154h1331v-154h-584v-1126h584z" />
    <glyph glyph-name="Imacron.alt" horiz-adv-x="1546" 
d="M410 1759h727v-110h-727v110zM1440 154v-154h-1331v154h583v1126h-583v154h1331v-154h-584v-1126h584z" />
    <glyph glyph-name="Ibreve.alt" horiz-adv-x="1546" 
d="M1042 1825l82 -56q-49 -93 -141.5 -151.5t-208.5 -58.5t-208.5 58.5t-141.5 151.5l80 56q37 -67 109 -110.5t161 -43.5q88 0 159.5 43.5t108.5 110.5zM1440 154v-154h-1331v154h583v1126h-583v154h1331v-154h-584v-1126h584z" />
    <glyph glyph-name="Idotaccent.alt" horiz-adv-x="1546" 
d="M713 1808h121v-225h-121v225zM1440 154v-154h-1331v154h583v1126h-583v154h1331v-154h-584v-1126h584z" />
    <glyph glyph-name="Iogonek.alt" horiz-adv-x="1546" 
d="M1440 154v-154q-57 -37 -103.5 -102t-46.5 -123q0 -99 135 -127l-6 -97q-103 10 -163 63.5t-60 127.5q0 65 48.5 135.5t131.5 122.5h-1267v154h583v1126h-583v154h1331v-154h-584v-1126h584z" />
    <glyph glyph-name="germandbls.cap" horiz-adv-x="2367" 
d="M313 1044v-1044h-163v1036q0 428 724 428q186 0 395 -25.5t378 -66.5l-381 -584q110 1 198 -1t189.5 -10.5t179 -24.5t152 -44.5t122.5 -67.5t77.5 -97t29.5 -131q0 -75 -27.5 -137.5t-74.5 -107t-113.5 -80t-140 -57t-158.5 -36t-164.5 -20t-163.5 -5.5q-394 0 -813 150
l45 145q217 -72 399.5 -106.5t397.5 -34.5q78 0 156.5 6.5t169.5 25.5t159.5 49t114 82.5t45.5 119.5q0 46 -23.5 83.5t-62 64.5t-97 47.5t-118 33.5t-137.5 21.5t-143 12t-145.5 4.5t-135 0t-121.5 -3l379 581q-287 60 -592 60q-51 0 -100 -3t-114.5 -12t-119 -28
t-101.5 -47t-75 -73.5t-27 -103.5z" />
    <glyph glyph-name="W.alt" horiz-adv-x="2854" 
d="M2273 819l387 615h191l-905 -1434h-187l-332 514l-329 -514h-189l-903 1434h189l389 -615l420 -674l329 531l-479 758h190l383 -592l385 592h189l-479 -758l329 -531z" />
    <glyph glyph-name="Wgrave.alt" horiz-adv-x="2854" 
d="M1112 1901l674 -269l-29 -82l-690 228zM2273 819l387 615h191l-905 -1434h-187l-332 514l-329 -514h-189l-903 1434h189l389 -615l420 -674l329 531l-479 758h190l383 -592l385 592h189l-479 -758l329 -531z" />
    <glyph glyph-name="Wacute.alt" horiz-adv-x="2854" 
d="M1067 1632l674 269l45 -123l-690 -228zM2273 819l387 615h191l-905 -1434h-187l-332 514l-329 -514h-189l-903 1434h189l389 -615l420 -674l329 531l-479 758h190l383 -592l385 592h189l-479 -758l329 -531z" />
    <glyph glyph-name="Wcircumflex.alt" horiz-adv-x="2854" 
d="M2273 819l387 615h191l-905 -1434h-187l-332 514l-329 -514h-189l-903 1434h189l389 -615l420 -674l329 531l-479 758h190l383 -592l385 592h189l-479 -758l329 -531zM1845 1534l-420 219l-417 -219l-37 80l454 270l457 -270z" />
    <glyph glyph-name="Wdieresis.alt" horiz-adv-x="2854" 
d="M1114 1808h121v-225h-121v225zM1618 1808h121v-225h-121v225zM2273 819l387 615h191l-905 -1434h-187l-332 514l-329 -514h-189l-903 1434h189l389 -615l420 -674l329 531l-479 758h190l383 -592l385 592h189l-479 -758l329 -531z" />
    <glyph glyph-name="a.alt" horiz-adv-x="1855" 
d="M1804 143v-143q-108 -31 -178 -31q-65 0 -107 17t-62.5 52t-27.5 75t-6 100l-2 2q-115 -105 -285 -175.5t-380 -70.5q-313 0 -490.5 159t-177.5 415q0 123 43.5 225t128 178t219 118t307.5 42q163 0 329.5 -36.5t299.5 -98.5l2 2l4 96l158 18v-811q0 -83 23.5 -119
t89.5 -36q48 0 112 22zM772 123q204 0 381.5 73t261.5 173v469q-134 50 -300 83t-314 33q-273 0 -410 -112.5t-137 -300.5t135 -303t383 -115z" />
    <glyph glyph-name="agrave.alt" horiz-adv-x="1855" 
d="M1804 143v-143q-108 -31 -178 -31q-65 0 -107 17t-62.5 52t-27.5 75t-6 100l-2 2q-115 -105 -285 -175.5t-380 -70.5q-313 0 -490.5 159t-177.5 415q0 123 43.5 225t128 178t219 118t307.5 42q163 0 329.5 -36.5t299.5 -98.5l2 2l4 96l158 18v-811q0 -83 23.5 -119
t89.5 -36q48 0 112 22zM772 123q204 0 381.5 73t261.5 173v469q-134 50 -300 83t-314 33q-273 0 -410 -112.5t-137 -300.5t135 -303t383 -115zM559 1542l674 -268l-29 -82l-690 227z" />
    <glyph glyph-name="aacute.alt" horiz-adv-x="1855" 
d="M471 1274l674 268l45 -123l-690 -227zM1804 143v-143q-108 -31 -178 -31q-65 0 -107 17t-62.5 52t-27.5 75t-6 100l-2 2q-115 -105 -285 -175.5t-380 -70.5q-313 0 -490.5 159t-177.5 415q0 123 43.5 225t128 178t219 118t307.5 42q163 0 329.5 -36.5t299.5 -98.5l2 2
l4 96l158 18v-811q0 -83 23.5 -119t89.5 -36q48 0 112 22zM772 123q204 0 381.5 73t261.5 173v469q-134 50 -300 83t-314 33q-273 0 -410 -112.5t-137 -300.5t135 -303t383 -115z" />
    <glyph glyph-name="acircumflex.alt" horiz-adv-x="1855" 
d="M1223 1176l-420 219l-418 -219l-37 79l455 271l457 -271zM1804 143v-143q-108 -31 -178 -31q-65 0 -107 17t-62.5 52t-27.5 75t-6 100l-2 2q-115 -105 -285 -175.5t-380 -70.5q-313 0 -490.5 159t-177.5 415q0 123 43.5 225t128 178t219 118t307.5 42q163 0 329.5 -36.5
t299.5 -98.5l2 2l4 96l158 18v-811q0 -83 23.5 -119t89.5 -36q48 0 112 22zM772 123q204 0 381.5 73t261.5 173v469q-134 50 -300 83t-314 33q-273 0 -410 -112.5t-137 -300.5t135 -303t383 -115z" />
    <glyph glyph-name="atilde.alt" horiz-adv-x="1855" 
d="M1804 143v-143q-108 -31 -178 -31q-65 0 -107 17t-62.5 52t-27.5 75t-6 100l-2 2q-115 -105 -285 -175.5t-380 -70.5q-313 0 -490.5 159t-177.5 415q0 123 43.5 225t128 178t219 118t307.5 42q163 0 329.5 -36.5t299.5 -98.5l2 2l4 96l158 18v-811q0 -83 23.5 -119
t89.5 -36q48 0 112 22zM772 123q204 0 381.5 73t261.5 173v469q-134 50 -300 83t-314 33q-273 0 -410 -112.5t-137 -300.5t135 -303t383 -115zM1169 1450l64 -66q-150 -155 -270 -155q-50 0 -103.5 24.5t-101 49t-82.5 24.5q-95 0 -197 -102l-63 65q145 152 260 152
q47 0 98.5 -25t100 -49.5t88.5 -24.5q99 0 206 107z" />
    <glyph glyph-name="adieresis.alt" horiz-adv-x="1855" 
d="M520 1450h121v-225h-121v225zM1024 1450h121v-225h-121v225zM1804 143v-143q-108 -31 -178 -31q-65 0 -107 17t-62.5 52t-27.5 75t-6 100l-2 2q-115 -105 -285 -175.5t-380 -70.5q-313 0 -490.5 159t-177.5 415q0 123 43.5 225t128 178t219 118t307.5 42
q163 0 329.5 -36.5t299.5 -98.5l2 2l4 96l158 18v-811q0 -83 23.5 -119t89.5 -36q48 0 112 22zM772 123q204 0 381.5 73t261.5 173v469q-134 50 -300 83t-314 33q-273 0 -410 -112.5t-137 -300.5t135 -303t383 -115z" />
    <glyph glyph-name="amacron.alt" horiz-adv-x="1855" 
d="M1804 143v-143q-108 -31 -178 -31q-65 0 -107 17t-62.5 52t-27.5 75t-6 100l-2 2q-115 -105 -285 -175.5t-380 -70.5q-313 0 -490.5 159t-177.5 415q0 123 43.5 225t128 178t219 118t307.5 42q163 0 329.5 -36.5t299.5 -98.5l2 2l4 96l158 18v-811q0 -83 23.5 -119
t89.5 -36q48 0 112 22zM772 123q204 0 381.5 73t261.5 173v469q-134 50 -300 83t-314 33q-273 0 -410 -112.5t-137 -300.5t135 -303t383 -115zM467 1401h727v-111h-727v111z" />
    <glyph glyph-name="abreve.alt" horiz-adv-x="1855" 
d="M1804 143v-143q-108 -31 -178 -31q-65 0 -107 17t-62.5 52t-27.5 75t-6 100l-2 2q-115 -105 -285 -175.5t-380 -70.5q-313 0 -490.5 159t-177.5 415q0 123 43.5 225t128 178t219 118t307.5 42q163 0 329.5 -36.5t299.5 -98.5l2 2l4 96l158 18v-811q0 -83 23.5 -119
t89.5 -36q48 0 112 22zM772 123q204 0 381.5 73t261.5 173v469q-134 50 -300 83t-314 33q-273 0 -410 -112.5t-137 -300.5t135 -303t383 -115zM1071 1466l82 -55q-50 -94 -142 -152.5t-208 -58.5t-208 58.5t-142 152.5l79 55q37 -67 109.5 -110t161.5 -43q88 0 159.5 43
t108.5 110z" />
    <glyph glyph-name="aring.alt" horiz-adv-x="1855" 
d="M573 1364q0 90 58.5 143.5t177.5 53.5q118 0 175.5 -53.5t57.5 -143.5q0 -92 -58 -147.5t-175 -55.5q-119 0 -177.5 55.5t-58.5 147.5zM645 1364q0 -59 40 -95t124 -36q81 0 121.5 36t40.5 95q0 57 -40.5 91t-121.5 34q-84 0 -124 -34t-40 -91zM1804 143v-143
q-108 -31 -178 -31q-65 0 -107 17t-62.5 52t-27.5 75t-6 100l-2 2q-115 -105 -285 -175.5t-380 -70.5q-313 0 -490.5 159t-177.5 415q0 123 43.5 225t128 178t219 118t307.5 42q163 0 329.5 -36.5t299.5 -98.5l2 2l4 96l158 18v-811q0 -83 23.5 -119t89.5 -36q48 0 112 22z
M772 123q204 0 381.5 73t261.5 173v469q-134 50 -300 83t-314 33q-273 0 -410 -112.5t-137 -300.5t135 -303t383 -115z" />
    <glyph glyph-name="aogonek.alt" horiz-adv-x="1855" 
d="M1804 143v-143q-57 -37 -103 -102t-46 -123q0 -99 135 -127l-6 -97q-103 10 -163 63.5t-60 127.5q0 57 39 120.5t106 114.5q-39 -8 -80 -8q-65 0 -107 17t-62.5 52t-27.5 75t-6 100l-2 2q-115 -105 -285 -175.5t-380 -70.5q-313 0 -490.5 159t-177.5 415q0 123 43.5 225
t128 178t219 118t307.5 42q163 0 329.5 -36.5t299.5 -98.5l2 2l4 96l158 18v-811q0 -83 23.5 -119t89.5 -36q48 0 112 22zM772 123q204 0 381.5 73t261.5 173v469q-134 50 -300 83t-314 33q-273 0 -410 -112.5t-137 -300.5t135 -303t383 -115z" />
    <glyph glyph-name="e.alt" horiz-adv-x="1638" 
d="M893 123q185 0 354.5 26.5t239.5 49.5l33 -144q-75 -28 -249.5 -57t-371.5 -29q-403 0 -607 143.5t-204 413.5q0 98 26.5 183t84 158.5t143 126t210.5 82.5t279 30q139 0 262 -24.5t223 -73t158 -130t58 -186.5q0 -74 -33 -131t-87 -92t-129 -58t-152 -31.5t-164 -8.5
q-164 0 -366.5 31.5t-340.5 82.5q35 -362 633 -362zM969 483q82 0 148.5 10t124 32.5t90 65t32.5 101.5q0 88 -75 149.5t-191.5 88t-263.5 26.5q-122 0 -219.5 -20.5t-163 -55.5t-110 -86t-65 -109t-22.5 -126q83 -33 334 -54.5t381 -21.5z" />
    <glyph glyph-name="egrave.alt" horiz-adv-x="1638" 
d="M506 1542l674 -268l-29 -82l-690 227zM893 123q185 0 354.5 26.5t239.5 49.5l33 -144q-75 -28 -249.5 -57t-371.5 -29q-403 0 -607 143.5t-204 413.5q0 98 26.5 183t84 158.5t143 126t210.5 82.5t279 30q139 0 262 -24.5t223 -73t158 -130t58 -186.5q0 -74 -33 -131
t-87 -92t-129 -58t-152 -31.5t-164 -8.5q-164 0 -366.5 31.5t-340.5 82.5q35 -362 633 -362zM969 483q82 0 148.5 10t124 32.5t90 65t32.5 101.5q0 88 -75 149.5t-191.5 88t-263.5 26.5q-122 0 -219.5 -20.5t-163 -55.5t-110 -86t-65 -109t-22.5 -126q83 -33 334 -54.5
t381 -21.5z" />
    <glyph glyph-name="eacute.alt" horiz-adv-x="1638" 
d="M461 1274l674 268l45 -123l-691 -227zM893 123q185 0 354.5 26.5t239.5 49.5l33 -144q-75 -28 -249.5 -57t-371.5 -29q-403 0 -607 143.5t-204 413.5q0 98 26.5 183t84 158.5t143 126t210.5 82.5t279 30q139 0 262 -24.5t223 -73t158 -130t58 -186.5q0 -74 -33 -131
t-87 -92t-129 -58t-152 -31.5t-164 -8.5q-164 0 -366.5 31.5t-340.5 82.5q35 -362 633 -362zM969 483q82 0 148.5 10t124 32.5t90 65t32.5 101.5q0 88 -75 149.5t-191.5 88t-263.5 26.5q-122 0 -219.5 -20.5t-163 -55.5t-110 -86t-65 -109t-22.5 -126q83 -33 334 -54.5
t381 -21.5z" />
    <glyph glyph-name="ecircumflex.alt" horiz-adv-x="1638" 
d="M1237 1176l-420 219l-418 -219l-37 79l455 271l457 -271zM893 123q185 0 354.5 26.5t239.5 49.5l33 -144q-75 -28 -249.5 -57t-371.5 -29q-403 0 -607 143.5t-204 413.5q0 98 26.5 183t84 158.5t143 126t210.5 82.5t279 30q139 0 262 -24.5t223 -73t158 -130t58 -186.5
q0 -74 -33 -131t-87 -92t-129 -58t-152 -31.5t-164 -8.5q-164 0 -366.5 31.5t-340.5 82.5q35 -362 633 -362zM969 483q82 0 148.5 10t124 32.5t90 65t32.5 101.5q0 88 -75 149.5t-191.5 88t-263.5 26.5q-122 0 -219.5 -20.5t-163 -55.5t-110 -86t-65 -109t-22.5 -126
q83 -33 334 -54.5t381 -21.5z" />
    <glyph glyph-name="ecaron.alt" horiz-adv-x="1638" 
d="M817 1303l420 219l37 -78l-457 -270l-455 270l37 78zM893 123q185 0 354.5 26.5t239.5 49.5l33 -144q-75 -28 -249.5 -57t-371.5 -29q-403 0 -607 143.5t-204 413.5q0 98 26.5 183t84 158.5t143 126t210.5 82.5t279 30q139 0 262 -24.5t223 -73t158 -130t58 -186.5
q0 -74 -33 -131t-87 -92t-129 -58t-152 -31.5t-164 -8.5q-164 0 -366.5 31.5t-340.5 82.5q35 -362 633 -362zM969 483q82 0 148.5 10t124 32.5t90 65t32.5 101.5q0 88 -75 149.5t-191.5 88t-263.5 26.5q-122 0 -219.5 -20.5t-163 -55.5t-110 -86t-65 -109t-22.5 -126
q83 -33 334 -54.5t381 -21.5z" />
    <glyph glyph-name="edieresis.alt" horiz-adv-x="1638" 
d="M506 1450h121v-225h-121v225zM1010 1450h120v-225h-120v225zM893 123q185 0 354.5 26.5t239.5 49.5l33 -144q-75 -28 -249.5 -57t-371.5 -29q-403 0 -607 143.5t-204 413.5q0 98 26.5 183t84 158.5t143 126t210.5 82.5t279 30q139 0 262 -24.5t223 -73t158 -130
t58 -186.5q0 -74 -33 -131t-87 -92t-129 -58t-152 -31.5t-164 -8.5q-164 0 -366.5 31.5t-340.5 82.5q35 -362 633 -362zM969 483q82 0 148.5 10t124 32.5t90 65t32.5 101.5q0 88 -75 149.5t-191.5 88t-263.5 26.5q-122 0 -219.5 -20.5t-163 -55.5t-110 -86t-65 -109
t-22.5 -126q83 -33 334 -54.5t381 -21.5z" />
    <glyph glyph-name="emacron.alt" horiz-adv-x="1638" 
d="M457 1401h727v-111h-727v111zM893 123q185 0 354.5 26.5t239.5 49.5l33 -144q-75 -28 -249.5 -57t-371.5 -29q-403 0 -607 143.5t-204 413.5q0 98 26.5 183t84 158.5t143 126t210.5 82.5t279 30q139 0 262 -24.5t223 -73t158 -130t58 -186.5q0 -74 -33 -131t-87 -92
t-129 -58t-152 -31.5t-164 -8.5q-164 0 -366.5 31.5t-340.5 82.5q35 -362 633 -362zM969 483q82 0 148.5 10t124 32.5t90 65t32.5 101.5q0 88 -75 149.5t-191.5 88t-263.5 26.5q-122 0 -219.5 -20.5t-163 -55.5t-110 -86t-65 -109t-22.5 -126q83 -33 334 -54.5t381 -21.5z
" />
    <glyph glyph-name="ebreve.alt" horiz-adv-x="1638" 
d="M893 123q185 0 354.5 26.5t239.5 49.5l33 -144q-75 -28 -249.5 -57t-371.5 -29q-403 0 -607 143.5t-204 413.5q0 98 26.5 183t84 158.5t143 126t210.5 82.5t279 30q139 0 262 -24.5t223 -73t158 -130t58 -186.5q0 -74 -33 -131t-87 -92t-129 -58t-152 -31.5t-164 -8.5
q-164 0 -366.5 31.5t-340.5 82.5q35 -362 633 -362zM969 483q82 0 148.5 10t124 32.5t90 65t32.5 101.5q0 88 -75 149.5t-191.5 88t-263.5 26.5q-122 0 -219.5 -20.5t-163 -55.5t-110 -86t-65 -109t-22.5 -126q83 -33 334 -54.5t381 -21.5zM1087 1466l82 -55
q-50 -94 -142 -152.5t-208 -58.5t-208 58.5t-142 152.5l80 55q37 -67 109 -110t161 -43q88 0 159.5 43t108.5 110z" />
    <glyph glyph-name="edotaccent.alt" horiz-adv-x="1638" 
d="M758 1450h121v-225h-121v225zM893 123q185 0 354.5 26.5t239.5 49.5l33 -144q-75 -28 -249.5 -57t-371.5 -29q-403 0 -607 143.5t-204 413.5q0 98 26.5 183t84 158.5t143 126t210.5 82.5t279 30q139 0 262 -24.5t223 -73t158 -130t58 -186.5q0 -74 -33 -131t-87 -92
t-129 -58t-152 -31.5t-164 -8.5q-164 0 -366.5 31.5t-340.5 82.5q35 -362 633 -362zM969 483q82 0 148.5 10t124 32.5t90 65t32.5 101.5q0 88 -75 149.5t-191.5 88t-263.5 26.5q-122 0 -219.5 -20.5t-163 -55.5t-110 -86t-65 -109t-22.5 -126q83 -33 334 -54.5t381 -21.5z
" />
    <glyph glyph-name="eogonek.alt" horiz-adv-x="1638" 
d="M893 123q185 0 354.5 26.5t239.5 49.5l33 -144q-57 -37 -103.5 -102t-46.5 -123q0 -99 135 -127l-6 -96q-103 10 -163 63t-60 127q0 56 37.5 117.5t101.5 110.5q-262 -56 -516 -56q-403 0 -607 143.5t-204 413.5q0 98 26.5 183t84 158.5t143 126t210.5 82.5t279 30
q139 0 262 -24.5t223 -73t158 -130t58 -186.5q0 -74 -33 -131t-87 -92t-129 -58t-152 -31.5t-164 -8.5q-164 0 -366.5 31.5t-340.5 82.5q35 -362 633 -362zM969 483q82 0 148.5 10t124 32.5t90 65t32.5 101.5q0 88 -75 149.5t-191.5 88t-263.5 26.5q-122 0 -219.5 -20.5
t-163 -55.5t-110 -86t-65 -109t-22.5 -126q83 -33 334 -54.5t381 -21.5z" />
    <glyph glyph-name="g.alt" horiz-adv-x="1716" 
d="M1425 109l2 104l-2 2q-113 -105 -285 -175.5t-384 -70.5q-313 0 -490.5 159t-177.5 415q0 123 43.5 225t128 178t219 118t307.5 42q164 0 336 -37t303 -98l2 2l5 96l157 18v-978q0 -101 -30 -186.5t-95.5 -157t-163 -121.5t-238.5 -77.5t-317 -27.5q-197 0 -347 27.5
t-232 58.5l31 144q72 -26 218.5 -52t327.5 -26q183 0 317 31t212.5 88t115.5 131t37 168zM801 954q-273 0 -410 -112.5t-137 -300.5t135 -303t383 -115q205 0 387.5 73t265.5 173v469q-133 50 -304 83t-320 33z" />
    <glyph glyph-name="gcircumflex.alt" horiz-adv-x="1716" 
d="M1276 1176l-420 219l-418 -219l-37 79l455 271l457 -271zM1425 109l2 104l-2 2q-113 -105 -285 -175.5t-384 -70.5q-313 0 -490.5 159t-177.5 415q0 123 43.5 225t128 178t219 118t307.5 42q164 0 336 -37t303 -98l2 2l5 96l157 18v-978q0 -101 -30 -186.5t-95.5 -157
t-163 -121.5t-238.5 -77.5t-317 -27.5q-197 0 -347 27.5t-232 58.5l31 144q72 -26 218.5 -52t327.5 -26q183 0 317 31t212.5 88t115.5 131t37 168zM801 954q-273 0 -410 -112.5t-137 -300.5t135 -303t383 -115q205 0 387.5 73t265.5 173v469q-133 50 -304 83t-320 33z" />
    <glyph glyph-name="gbreve.alt" horiz-adv-x="1716" 
d="M1425 109l2 104l-2 2q-113 -105 -285 -175.5t-384 -70.5q-313 0 -490.5 159t-177.5 415q0 123 43.5 225t128 178t219 118t307.5 42q164 0 336 -37t303 -98l2 2l5 96l157 18v-978q0 -101 -30 -186.5t-95.5 -157t-163 -121.5t-238.5 -77.5t-317 -27.5q-197 0 -347 27.5
t-232 58.5l31 144q72 -26 218.5 -52t327.5 -26q183 0 317 31t212.5 88t115.5 131t37 168zM801 954q-273 0 -410 -112.5t-137 -300.5t135 -303t383 -115q205 0 387.5 73t265.5 173v469q-133 50 -304 83t-320 33zM1126 1466l82 -55q-50 -94 -142 -152.5t-208 -58.5t-208 58.5
t-142 152.5l80 55q37 -67 109 -110t161 -43q88 0 159.5 43t108.5 110z" />
    <glyph glyph-name="gdotaccent.alt" horiz-adv-x="1716" 
d="M1425 109l2 104l-2 2q-113 -105 -285 -175.5t-384 -70.5q-313 0 -490.5 159t-177.5 415q0 123 43.5 225t128 178t219 118t307.5 42q164 0 336 -37t303 -98l2 2l5 96l157 18v-978q0 -101 -30 -186.5t-95.5 -157t-163 -121.5t-238.5 -77.5t-317 -27.5q-197 0 -347 27.5
t-232 58.5l31 144q72 -26 218.5 -52t327.5 -26q183 0 317 31t212.5 88t115.5 131t37 168zM801 954q-273 0 -410 -112.5t-137 -300.5t135 -303t383 -115q205 0 387.5 73t265.5 173v469q-133 50 -304 83t-320 33zM797 1450h121v-225h-121v225z" />
    <glyph glyph-name="gcommaaccent.alt" horiz-adv-x="1716" 
d="M946 1268h-117q-40 94 -31 221t68 240h68q-30 -73 -41 -148.5t1.5 -157t51.5 -155.5zM1425 109l2 104l-2 2q-113 -105 -285 -175.5t-384 -70.5q-313 0 -490.5 159t-177.5 415q0 123 43.5 225t128 178t219 118t307.5 42q164 0 336 -37t303 -98l2 2l5 96l157 18v-978
q0 -101 -30 -186.5t-95.5 -157t-163 -121.5t-238.5 -77.5t-317 -27.5q-197 0 -347 27.5t-232 58.5l31 144q72 -26 218.5 -52t327.5 -26q183 0 317 31t212.5 88t115.5 131t37 168zM801 954q-273 0 -410 -112.5t-137 -300.5t135 -303t383 -115q205 0 387.5 73t265.5 173v469
q-133 50 -304 83t-320 33z" />
    <glyph glyph-name="idotaccent" horiz-adv-x="501" 
d="M334 0h-164v1073l164 19v-1092zM190 1450h121v-225h-121v225z" />
    <glyph glyph-name="y.alt" horiz-adv-x="1695" 
d="M766 -309q147 0 260 20.5t186.5 56.5t120 89.5t65.5 115t17 136.5l-2 92l-2 2q-284 -234 -655 -234q-129 0 -233.5 27.5t-177.5 77t-122 120t-71.5 154.5t-22.5 182v545h164v-543q0 -190 120.5 -299.5t381.5 -109.5q188 0 345 64.5t265 166.5v721h164v-966
q0 -570 -801 -570q-197 0 -348 27.5t-232 58.5q2 9 5.5 24t10.5 46.5t11.5 52.5t3.5 21q72 -26 219 -52t328 -26z" />
    <glyph glyph-name="ygrave.alt" horiz-adv-x="1695" 
d="M766 -309q147 0 260 20.5t186.5 56.5t120 89.5t65.5 115t17 136.5l-2 92l-2 2q-284 -234 -655 -234q-129 0 -233.5 27.5t-177.5 77t-122 120t-71.5 154.5t-22.5 182v545h164v-543q0 -190 120.5 -299.5t381.5 -109.5q188 0 345 64.5t265 166.5v721h164v-966
q0 -570 -801 -570q-197 0 -348 27.5t-232 58.5q2 9 5.5 24t10.5 46.5t11.5 52.5t3.5 21q72 -26 219 -52t328 -26zM532 1542l674 -268l-28 -82l-691 227z" />
    <glyph glyph-name="yacute.alt" horiz-adv-x="1695" 
d="M489 1274l674 268l45 -123l-690 -227zM766 -309q147 0 260 20.5t186.5 56.5t120 89.5t65.5 115t17 136.5l-2 92l-2 2q-284 -234 -655 -234q-129 0 -233.5 27.5t-177.5 77t-122 120t-71.5 154.5t-22.5 182v545h164v-543q0 -190 120.5 -299.5t381.5 -109.5q188 0 345 64.5
t265 166.5v721h164v-966q0 -570 -801 -570q-197 0 -348 27.5t-232 58.5q2 9 5.5 24t10.5 46.5t11.5 52.5t3.5 21q72 -26 219 -52t328 -26z" />
    <glyph glyph-name="ycircumflex.alt" horiz-adv-x="1695" 
d="M1266 1176l-420 219l-418 -219l-37 79l455 271l457 -271zM766 -309q147 0 260 20.5t186.5 56.5t120 89.5t65.5 115t17 136.5l-2 92l-2 2q-284 -234 -655 -234q-129 0 -233.5 27.5t-177.5 77t-122 120t-71.5 154.5t-22.5 182v545h164v-543q0 -190 120.5 -299.5
t381.5 -109.5q188 0 345 64.5t265 166.5v721h164v-966q0 -570 -801 -570q-197 0 -348 27.5t-232 58.5q2 9 5.5 24t10.5 46.5t11.5 52.5t3.5 21q72 -26 219 -52t328 -26z" />
    <glyph glyph-name="ydieresis.alt" horiz-adv-x="1695" 
d="M535 1450h120v-225h-120v225zM1038 1450h121v-225h-121v225zM766 -309q147 0 260 20.5t186.5 56.5t120 89.5t65.5 115t17 136.5l-2 92l-2 2q-284 -234 -655 -234q-129 0 -233.5 27.5t-177.5 77t-122 120t-71.5 154.5t-22.5 182v545h164v-543q0 -190 120.5 -299.5
t381.5 -109.5q188 0 345 64.5t265 166.5v721h164v-966q0 -570 -801 -570q-197 0 -348 27.5t-232 58.5q2 9 5.5 24t10.5 46.5t11.5 52.5t3.5 21q72 -26 219 -52t328 -26z" />
    <glyph glyph-name="grave.cap" horiz-adv-x="1714" 
d="M508 1901l674 -269l-29 -82l-690 228z" />
    <glyph glyph-name="acute.cap" horiz-adv-x="1714" 
d="M475 1632l674 269l45 -123l-690 -228z" />
    <glyph glyph-name="circumflex.cap" horiz-adv-x="1714" 
d="M1192 1534l-420 219l-418 -219l-37 80l455 270l457 -270z" />
    <glyph glyph-name="caron.cap" horiz-adv-x="1714" 
d="M772 1661l420 219l37 -78l-457 -270l-455 270l37 78z" />
    <glyph glyph-name="tilde.cap" horiz-adv-x="1714" 
d="M1143 1808l63 -65q-150 -156 -270 -156q-39 0 -82 15.5t-73.5 34t-67 34t-64.5 15.5q-93 0 -196 -103l-64 66q144 151 260 151q47 0 98.5 -24.5t100 -49t88.5 -24.5q101 0 207 106z" />
    <glyph glyph-name="dieresis.cap" horiz-adv-x="1714" 
d="M403 1808h121v-225h-121v225zM907 1808h121v-225h-121v225z" />
    <glyph glyph-name="macron.cap" horiz-adv-x="1714" 
d="M403 1759h727v-110h-727v110z" />
    <glyph glyph-name="breve.cap" horiz-adv-x="1714" 
d="M1137 1769q-49 -93 -142 -151.5t-209 -58.5t-208.5 58.5t-141.5 151.5l80 56q37 -67 109 -110.5t161 -43.5q88 0 160 43.5t109 110.5z" />
    <glyph glyph-name="ring.cap" horiz-adv-x="1714" 
d="M545 1720q0 90 58 143.5t177 53.5q118 0 176 -53.5t58 -143.5q0 -91 -58 -146.5t-176 -55.5q-119 0 -177 55t-58 147zM616 1720q0 -59 40 -95t124 -36q81 0 121.5 36t40.5 95q0 57 -40.5 91t-121.5 34q-84 0 -124 -34t-40 -91z" />
    <glyph glyph-name="hungarumlaut.cap" horiz-adv-x="1714" 
d="M457 1612l282 303l92 -94l-313 -271zM844 1612l284 303l93 -94l-314 -271z" />
    <glyph glyph-name="dotaccent.cap" horiz-adv-x="1714" 
d="M645 1808h121v-225h-121v225z" />
    <glyph glyph-name="commaaccentcomb" horiz-adv-x="1603" 
d="M698 -164h117q39 -95 30 -221t-67 -240h-69q48 102 47.5 226.5t-58.5 234.5z" />
    <glyph glyph-name="commaaccentcomb.alt" horiz-adv-x="1603" 
d="M870 1268h-116q-40 94 -31 221t68 240h67q-30 -73 -41 -148.5t1.5 -157t51.5 -155.5z" />
    <glyph glyph-name="ampersand.alt" horiz-adv-x="2056" 
d="M1970 154v-154q-228 0 -532 88q-215 -119 -566 -119q-120 0 -225 12t-206 43t-172.5 79.5t-115.5 126.5t-44 178q0 223 190 348q-127 162 -127 305q0 90 43 161.5t113 116t166 73.5t194 40.5t205 11.5q163 0 327.5 -25t252.5 -59l-37 -149q-74 28 -242.5 54t-321.5 26
q-79 0 -150.5 -8t-140.5 -27.5t-118.5 -50t-80 -78.5t-30.5 -109q0 -136 159.5 -292t401 -284.5t508.5 -211.5q182 131 185 412h-222v153h586v-153h-203q-9 -299 -196 -453q225 -55 399 -55zM395 662q-119 -94 -119 -236q0 -73 40.5 -129.5t103.5 -91t149.5 -57t169.5 -31
t172 -8.5q193 0 320 59q-254 90 -480 220t-356 274z" />
    <glyph glyph-name="ampersand.swsh" horiz-adv-x="2015" 
d="M1575 815v203l162 18v-221h190v-153h-192q-7 -149 -58.5 -267.5t-135 -197t-199 -131t-244.5 -75t-277 -22.5q-119 0 -221.5 12.5t-194.5 42.5t-156.5 76t-102 116t-37.5 159q0 171 139 251.5t444 102.5q-296 25 -422.5 100.5t-126.5 237.5q0 87 37.5 156t101 113t152 73
t183.5 41t204 12q315 0 596 -82q0 1 -8.5 -36.5t-17.5 -75.5l-9 -37q-113 33 -270.5 56.5t-304.5 23.5q-101 0 -185.5 -13t-156.5 -41t-113 -79t-41 -121q0 -137 157.5 -189.5t551.5 -52.5h555zM276 385q0 -73 42.5 -126t119.5 -81.5t168.5 -41.5t204.5 -13q171 0 308.5 33
t239 98t157.5 168.5t57 239.5h-553q-388 0 -566 -64t-178 -213z" />
    <glyph glyph-name="published" horiz-adv-x="1947" 
d="M109 717q0 161 56 296.5t162.5 236.5t272.5 157.5t375 56.5t375 -56.5t272.5 -157.5t162.5 -236.5t56 -296.5t-56 -297t-162.5 -236.5t-272.5 -157.5t-375 -57t-375 57t-272.5 157.5t-162.5 236.5t-56 297zM201 717q0 -141 50 -260t145.5 -207.5t244 -138.5t334.5 -50
t334.5 50t244 138.5t145.5 207.5t50 260t-50 260t-145.5 207.5t-244 138t-334.5 49.5t-334.5 -49.5t-244 -138t-145.5 -207.5t-50 -260zM1139 553h-496v-231h-94v788h590q71 0 129.5 -14.5t106.5 -45.5t75 -86t27 -130q0 -76 -27 -132t-75 -87.5t-106.5 -46.5t-129.5 -15z
M643 1022v-379h500q108 0 172.5 45t64.5 146q0 99 -64.5 143.5t-172.5 44.5h-500z" />
    <glyph glyph-name="zero.slash" horiz-adv-x="1935" 
d="M109 717q0 159 55 294t160 236.5t270.5 159t374.5 57.5t374.5 -57.5t270.5 -159t160 -236.5t55 -294t-55 -294t-160 -237t-270.5 -159.5t-374.5 -57.5t-374.5 57.5t-270.5 159.5t-160 237t-55 294zM274 717q0 -178 82.5 -315t243.5 -207l627 1081q-116 35 -258 35
q-172 0 -306.5 -45.5t-218.5 -126t-127 -187.5t-43 -235zM1661 717q0 177 -83.5 314.5t-244.5 209.5l-624 -1083q116 -35 260 -35q172 0 305.5 45.5t217 126t126.5 187.5t43 235z" />
    <glyph glyph-name="section.onum" horiz-adv-x="1251" 
d="M303 313l55 324q-123 30 -184 87.5t-61 168.5q0 71 31 125.5t81 87.5t121.5 54.5t144 29.5t156.5 8q241 0 475 -51l-26 -154q-262 58 -475 58q-63 0 -118.5 -7t-107.5 -24t-82 -49.5t-30 -77.5q0 -36 18.5 -63.5t56 -46.5t80.5 -31.5t106.5 -22.5t119 -16.5t133.5 -16
t135 -18.5l-55 -326q123 -28 184 -85.5t61 -168.5q0 -88 -45 -150.5t-124.5 -95t-168 -46t-196.5 -13.5q-241 0 -475 51l26 154q81 -20 212.5 -38.5t260.5 -18.5q64 0 119.5 7t108 23.5t82.5 49t30 77.5q0 36 -17.5 64t-54.5 47t-77.5 32t-105.5 23t-119 16t-136 15.5
t-139 17.5zM799 367l35 200q-47 7 -190.5 26t-207.5 32l-33 -201q75 -13 208 -30t188 -27z" />
    <glyph glyph-name="numbersign.onum" horiz-adv-x="1265" 
d="M145 801l15 92h268l47 305h92l-49 -305h313l50 305h90l-47 -305h268l-14 -92h-271l-55 -359h268l-16 -90h-268l-48 -303h-92l49 303h-313l-47 -303h-92l47 303h-266l16 90h266l56 359h-267zM504 801l-55 -359h313l55 359h-313z" />
    <glyph glyph-name="numero.onum" horiz-adv-x="2560" 
d="M1325 469v643h166v-1112h-166l-1049 901l3 -237v-664h-164v1112h164l1048 -893zM1737 768q0 -108 76 -174t221 -66q144 0 218.5 66t74.5 174q0 105 -75 171.5t-218 66.5q-145 0 -221 -66.5t-76 -171.5zM1618 768q0 153 107 248.5t309 95.5q199 0 306 -96t107 -248
q0 -155 -107 -251.5t-306 -96.5q-202 0 -309 96t-107 252zM1647 199v92h770v-92h-770z" />
    <glyph glyph-name="zero.onum" 
d="M285 539q0 -181 149 -292.5t436 -111.5q288 0 438 112t150 292t-150 291.5t-438 111.5t-436.5 -111.5t-148.5 -291.5zM117 539q0 119 48 220t140 177t237 119t328 43t328 -43t237 -119t140.5 -177t48.5 -220q0 -95 -30 -179.5t-92 -154.5t-150.5 -121t-211.5 -79
t-270 -28q-183 0 -328 43.5t-237 120t-140 178t-48 220.5z" />
    <glyph glyph-name="one.onum" horiz-adv-x="1423" 
d="M88 0v154h543v759l-494 -143l-47 131l545 174h160v-921h542v-154h-1249z" />
    <glyph glyph-name="two.onum" 
d="M1554 0h-1357v158q236 66 432 135t365 146.5t264.5 159.5t95.5 159q0 35 -22 63.5t-56 47.5t-84 33.5t-98 22t-105.5 12t-99 6t-86.5 1.5q-257 0 -582 -61l-35 153q304 62 594 62q63 0 122.5 -2.5t136.5 -10.5t141.5 -21.5t129 -38t109.5 -56.5t73 -79.5t28 -105.5
q0 -127 -143.5 -247.5t-379 -214t-548.5 -166.5h1105v-156z" />
    <glyph glyph-name="three.onum" horiz-adv-x="1665" 
d="M164 864l-35 150q323 84 631 84q764 0 764 -385q0 -159 -136 -243.5t-436 -115.5q157 -10 265 -30.5t187.5 -59.5t117 -101t37.5 -151q0 -91 -38 -162.5t-102 -117t-154 -75.5t-187 -42t-208 -12q-214 0 -429 41t-332 94l45 145q117 -48 324.5 -87.5t398.5 -39.5
q107 0 196 14.5t162.5 46.5t114.5 88.5t41 133.5q0 36 -8.5 65t-29 53t-45.5 42.5t-66.5 32.5t-83.5 24.5t-105.5 17.5t-122.5 11.5t-145 7t-162.5 3.5t-184.5 1h-61v109h61q509 2 713.5 60.5t204.5 215.5q0 41 -14 75.5t-36 60t-57 45.5t-69.5 33t-81.5 22.5t-84.5 14
t-86.5 7.5t-80 3.5t-73 0.5q-161 0 -299.5 -19.5t-310.5 -60.5z" />
    <glyph glyph-name="four.onum" horiz-adv-x="1742" 
d="M1599 0h-186v-348h-164v348h-1130v154l1132 933h162v-933h191zM1249 154v446l4 318l-661 -535l-291 -229h948z" />
    <glyph glyph-name="five.onum" horiz-adv-x="1695" 
d="M109 -254l45 145q115 -47 323 -85.5t400 -38.5q90 0 167 9.5t148 32.5t120.5 58.5t79 90t29.5 124.5q0 87 -52 152.5t-145 104t-210.5 57t-259.5 18.5q-256 0 -539 -70l37 731h1282v-153h-1126l-23 -455q215 63 449 63q131 0 242.5 -15.5t207 -50t162.5 -86.5t105 -129
t38 -173q0 -103 -40.5 -183.5t-107.5 -132t-162.5 -85t-197.5 -47t-219 -13.5q-211 0 -423.5 39.5t-329.5 91.5z" />
    <glyph glyph-name="six.onum" horiz-adv-x="1742" 
d="M272 684q33 87 105 156.5t166.5 112t201.5 65t218 22.5q133 0 252.5 -33t214 -95.5t150.5 -163.5t56 -226q0 -251 -211 -402t-567 -151q-198 0 -343.5 50t-233.5 144t-130 220.5t-42 288.5q0 169 41.5 302.5t115.5 224t180 150.5t229.5 86.5t270.5 26.5q298 0 592 -82
l-35 -149q-312 80 -571 80q-112 0 -207 -19t-180.5 -64.5t-145 -116t-94 -179.5t-33.5 -248zM868 123q278 0 439 107.5t161 289.5q0 180 -154 281.5t-394 101.5q-80 0 -162.5 -12.5t-167 -41.5t-149.5 -71.5t-106.5 -109.5t-41.5 -148q0 -77 33.5 -146t100.5 -126t181 -91
t260 -34z" />
    <glyph glyph-name="seven.onum" horiz-adv-x="1609" 
d="M1524 934l-924 -1292h-201l932 1284l-1263 -4v153h1456v-141z" />
    <glyph glyph-name="eight.onum" horiz-adv-x="1742" 
d="M872 125q98 0 182.5 8.5t162 29t132 51.5t87 79.5t32.5 109.5q0 259 -596 259t-596 -259q0 -76 48 -132t133 -87t188 -45t227 -14zM872 776q268 0 415 63t147 187q0 82 -51 140.5t-137.5 88.5t-178 43t-195.5 13q-82 0 -156 -7.5t-150 -27.5t-131 -50.5t-89.5 -82
t-34.5 -117.5q0 -124 146 -187t415 -63zM872 1464q105 0 202.5 -11.5t195.5 -40t170 -73t117 -116t45 -162.5q0 -75 -41 -136t-112.5 -101.5t-157.5 -66t-185 -36.5q530 -52 530 -359q0 -87 -43 -155.5t-115 -112.5t-172 -72.5t-207 -40.5t-227 -12t-227 12t-207 40.5
t-171.5 72.5t-114.5 112.5t-43 155.5q0 307 528 359q-99 11 -185 36.5t-156.5 66t-111.5 101.5t-41 136q0 91 45 162.5t116.5 116t169.5 73t195.5 40t202.5 11.5z" />
    <glyph glyph-name="nine.onum" horiz-adv-x="1742" 
d="M1470 383q-32 -86 -104 -155.5t-166 -112.5t-201 -65.5t-217 -22.5q-133 0 -252.5 33.5t-214 96t-150.5 163t-56 225.5q0 251 211 402t567 151q198 0 343.5 -50t233.5 -144t130 -220.5t42 -288.5q0 -169 -42 -302.5t-116 -224t-180 -150.5t-230 -86.5t-271 -26.5
q-296 0 -590 82l35 149q121 -35 274.5 -57.5t296.5 -22.5q112 0 207 19t180.5 64.5t144.5 116t93 179.5t32 248zM877 946q-280 0 -441.5 -107.5t-161.5 -291.5q0 -120 74 -208.5t196.5 -131.5t278.5 -43q80 0 162.5 12.5t167.5 41.5t150.5 71.5t107 109.5t41.5 148
q0 77 -33.5 146.5t-100.5 127t-181 91.5t-260 34z" />
    <glyph glyph-name="Euro.onum" horiz-adv-x="1490" 
d="M33 616v91h141q26 105 89 182t153.5 122t197 66t232.5 21q260 0 559 -86l-35 -144q-284 82 -524 82q-399 0 -494 -243h809v-91h-835q-12 -83 0 -155h835v-90h-809q50 -129 181 -187.5t315 -58.5q238 0 522 82l35 -144q-299 -86 -559 -86q-126 0 -232.5 21.5t-197 67
t-153.5 123t-89 182.5h-141v90h125q-10 96 0 155h-125z" />
    <glyph glyph-name="dollar.onum" horiz-adv-x="1390" 
d="M655 1198h93v-102q221 -7 471 -64l-35 -153q-204 48 -436 61v-332q70 -4 118 -8t111.5 -13.5t106.5 -22t88.5 -34.5t72.5 -50.5t44.5 -70t17.5 -92.5q0 -89 -47 -155.5t-128.5 -104.5t-176.5 -57.5t-207 -22.5v-100h-93v103q-302 9 -551 100l46 149q94 -31 231.5 -57.5
t273.5 -34.5v320q-69 4 -119.5 8.5t-113.5 14.5t-107.5 24t-90.5 37t-74 53.5t-46 74t-18 97.5q0 75 35 133.5t90.5 94t133 59.5t152.5 33.5t158 11.5v100zM254 774q0 -31 14 -55.5t43.5 -41t62 -27.5t83.5 -18t93.5 -10.5t104.5 -7.5v328q-73 0 -137.5 -7.5t-127 -25
t-99.5 -52t-37 -83.5zM1139 311q0 23 -11.5 42t-29.5 32t-48.5 23.5t-60 17t-74 12t-80 8t-87.5 5.5v-318q78 0 145 9t124 29t89.5 55.5t32.5 84.5z" />
    <glyph glyph-name="cent.onum" horiz-adv-x="1363" 
d="M717 1098h90v-135q254 -2 457 -64l-33 -145q-208 51 -424 53v-541q244 5 424 56l33 -146q-199 -61 -457 -65v-134h-90v136q-166 6 -286.5 39.5t-191.5 91.5t-104 130.5t-33 164.5q0 90 33 162.5t104 130t192 91t286 38.5v137zM270 539q0 -58 21.5 -103t71 -82.5
t138.5 -59.5t216 -26v537q-102 -3 -180 -17.5t-128 -38t-81.5 -56.5t-44.5 -70.5t-13 -83.5z" />
    <glyph glyph-name="sterling.onum" horiz-adv-x="1316" 
d="M33 494v90h110l15 164q8 80 43 141.5t87 100t123.5 63t146 34t161.5 9.5q231 0 498 -60l-33 -143q-97 22 -236 41.5t-258 19.5q-348 0 -366 -196l-19 -174h582v-90h-590l-35 -336h955v-158h-1127l45 494h-102z" />
    <glyph glyph-name="florin.onum" horiz-adv-x="774" 
d="M-143 -266v131q118 -10 166 -10q74 0 119.5 28t45.5 86v746h-118v92h118v8q0 151 75 217t224 66q85 0 220 -23v-114q-119 14 -164 14q-191 0 -191 -148v-20h322v-92h-322v-746q0 -252 -291 -252q-47 0 -204 17z" />
    <glyph glyph-name="yen.onum" horiz-adv-x="1460" 
d="M1300 215v-92h-487v-123h-166v123h-495v92h495v139h-495v92h432l-568 629h209l289 -334l215 -290l217 290l289 334h209l-570 -629h426v-92h-487v-139h487z" />
    <glyph glyph-name="plus.onum" horiz-adv-x="1433" 
d="M211 594h451v450h112v-450h451v-113h-451v-450h-112v450h-451v113z" />
    <glyph glyph-name="minus.onum" horiz-adv-x="1433" 
d="M211 594h1014v-113h-1014v113z" />
    <glyph glyph-name="plusminus.onum" horiz-adv-x="1433" 
d="M211 594h451v450h112v-450h451v-113h-451v-368h451v-113h-1014v113h451v368h-451v113z" />
    <glyph glyph-name="multiply.onum" horiz-adv-x="1368" 
d="M287 219l317 318l-317 321l80 78l317 -320l320 320l79 -80l-319 -319l319 -318l-79 -80l-320 320l-317 -320z" />
    <glyph glyph-name="divide.onum" horiz-adv-x="1433" 
d="M774 1044v-210h-112v210h112zM211 594h1014v-113h-1014v113zM774 242v-211h-112v211h112z" />
    <glyph glyph-name="equal.onum" horiz-adv-x="1433" 
d="M211 348h1014v-112h-1014v112zM211 840h1014v-113h-1014v113z" />
    <glyph glyph-name="notequal.onum" horiz-adv-x="1433" 
d="M211 840h577l89 235h69l-86 -235h365v-113h-406l-137 -379h543v-112h-584l-86 -236h-70l84 236h-358v112h399l140 379h-539v113z" />
    <glyph glyph-name="approxequal.onum" horiz-adv-x="1359" 
d="M1141 940l90 -90q-182 -182 -338 -182q-61 0 -127.5 31t-125.5 61.5t-101 30.5q-98 0 -238 -140l-90 90q177 177 328 177q46 0 97 -19t88.5 -42.5t84 -42.5t84.5 -19q103 0 248 145zM1141 487l90 -90q-182 -182 -338 -182q-48 0 -101 19t-91 42.5t-83 42.5t-79 19
q-99 0 -238 -139l-90 90q176 176 328 176q46 0 97 -19t88.5 -42.5t84 -42.5t84.5 -19q103 0 248 145z" />
    <glyph glyph-name="less.onum" horiz-adv-x="1218" 
d="M1051 1143v-123l-770 -346l770 -344v-123l-881 405v123z" />
    <glyph glyph-name="greater.onum" horiz-adv-x="1218" 
d="M170 1020v123l881 -408v-123l-881 -405v123l770 344z" />
    <glyph glyph-name="lessequal.onum" horiz-adv-x="1218" 
d="M168 113h821l-819 379v120l881 408v-123l-770 -344l770 -346v-207h-883v113z" />
    <glyph glyph-name="greaterequal.onum" horiz-adv-x="1218" 
d="M229 113h822v-113h-883v207l770 346l-770 344v123l881 -408v-120z" />
    <glyph glyph-name="infinity.onum" horiz-adv-x="1986" 
d="M524 1020q126 0 258.5 -73t210.5 -193q78 120 210.5 193t260.5 73q163 0 279.5 -119.5t116.5 -286.5t-116.5 -285t-279.5 -118q-128 0 -261 72.5t-210 193.5q-77 -121 -209.5 -193.5t-259.5 -72.5q-164 0 -279.5 118t-115.5 285q0 168 115.5 287t279.5 119zM1464 365
q99 0 170.5 73.5t71.5 175.5q0 103 -72 177.5t-170 74.5q-114 0 -227.5 -68t-163.5 -184q50 -114 163.5 -181.5t227.5 -67.5zM524 365q113 0 226.5 67.5t164.5 181.5q-35 78 -101.5 136.5t-142 87t-147.5 28.5q-99 0 -170 -74.5t-71 -177.5t70.5 -176t170.5 -73z" />
    <glyph glyph-name="percent.onum" 
d="M221 803q0 -86 66.5 -138.5t195.5 -52.5q128 0 193 52.5t65 138.5q0 84 -65 136t-193 52t-195 -52t-67 -136zM102 803q0 130 98.5 212.5t282.5 82.5q182 0 280.5 -82.5t98.5 -212.5q0 -133 -98 -216t-281 -83q-184 0 -282.5 83t-98.5 216zM999 274q0 -84 67.5 -136
t195.5 -52q127 0 193.5 52t66.5 136t-66.5 136.5t-193.5 52.5q-128 0 -195.5 -52.5t-67.5 -136.5zM881 274q0 132 98 214.5t283 82.5q183 0 280.5 -82.5t97.5 -214.5t-97.5 -214.5t-280.5 -82.5q-185 0 -283 82.5t-98 214.5zM385 -41l-72 64q577 558 1043 1093l71 -63
q-547 -529 -1042 -1094z" />
    <glyph glyph-name="perthousand.onum" horiz-adv-x="2465" 
d="M221 803q0 -87 59.5 -139t186.5 -52q125 0 183.5 51.5t58.5 139.5q0 86 -58.5 137t-183.5 51q-127 0 -186.5 -51.5t-59.5 -136.5zM102 803q0 132 91 213.5t274 81.5q181 0 271.5 -81.5t90.5 -213.5q0 -135 -90.5 -217t-271.5 -82q-184 0 -274.5 82t-90.5 217zM350 -41
l-71 64q571 552 1042 1093l72 -63q-553 -535 -1043 -1094zM967 274q0 -86 58.5 -137t184.5 -51q125 0 183.5 51t58.5 137t-58.5 137.5t-183.5 51.5q-126 0 -184.5 -51.5t-58.5 -137.5zM846 274q0 134 91 215.5t273 81.5q181 0 272 -82t91 -215t-91 -215t-272 -82
q-182 0 -273 81.5t-91 215.5zM1757 274q0 -85 59.5 -136.5t184.5 -51.5q126 0 185 51t59 137t-59 137.5t-185 51.5q-125 0 -184.5 -52t-59.5 -137zM1638 274q0 134 90.5 215.5t272.5 81.5t272 -81.5t90 -215.5t-90 -215.5t-272 -81.5t-272.5 81.5t-90.5 215.5z" />
    <glyph glyph-name="estimated.onum" horiz-adv-x="1314" 
d="M1249 537h-952v-351q69 -70 163 -107.5t199 -37.5q125 0 237 53.5t181 151.5l66 -23q-184 -239 -486 -239q-164 0 -300 75.5t-213.5 204t-77.5 281.5q0 154 77.5 283.5t213.5 205.5t300 76q163 0 298.5 -74t214.5 -206t79 -293zM297 584h723v329q-68 67 -164.5 103.5
t-198.5 36.5q-103 0 -197 -37.5t-163 -106.5v-325z" />
    <glyph glyph-name="litre.onum" horiz-adv-x="618" 
d="M70 272l-21 19l115 139v418q0 57 8 105t28 98t62.5 79t104.5 29q68 0 106.5 -52.5t38.5 -133.5q0 -112 -62 -219t-171 -226v-274q0 -35 1 -58.5t7 -57t17 -54.5t33 -36t52 -15q39 0 70.5 23.5t49.5 58.5t27 70.5t9 64.5h24q0 -46 -11.5 -90.5t-35 -85t-65 -65.5
t-95.5 -25q-60 0 -100.5 26.5t-61 75t-28.5 101t-8 120.5v80zM279 879v-306q106 110 153 212.5t47 185.5q0 65 -29 105t-73 40q-27 0 -46 -16.5t-29 -39.5t-15.5 -59t-6.5 -61t-1 -61z" />
    </font>
</defs>
</svg>
